<svg width="130" height="130" viewBox="0 0 130 130" fill="none" xmlns="http://www.w3.org/2000/svg">
<rect width="130" height="130" rx="65" fill="white"/>
<rect x="36.8037" y="36.803" width="56.3936" height="56.3936" rx="28.1968" fill="#E01C08"/>
<path d="M77.2552 69.4001L73.5123 67.1674C72.6393 66.646 71.5994 66.4798 70.6073 66.7031C69.6152 66.9264 68.7468 67.5222 68.1814 68.3674L67.1019 69.9781C64.0193 68.4636 61.5275 65.9674 60.0186 62.882L61.6208 61.8153C62.4672 61.2528 63.0654 60.387 63.2921 59.3964C63.5188 58.4058 63.3567 57.366 62.8392 56.4914L60.6292 52.7514C60.2883 52.1811 59.7784 51.731 59.1702 51.4634C58.562 51.1959 57.8856 51.1242 57.2348 51.2583C56.2201 51.4627 55.2581 51.8731 54.4082 52.464C53.5583 53.0549 52.8386 53.8137 52.2935 54.6937C51.7559 55.552 51.4026 56.5127 51.2563 57.5148C51.11 58.517 51.1737 59.5386 51.4435 60.5148C52.6405 64.8234 54.9324 68.749 58.0961 71.9094C61.2598 75.0699 65.1876 77.3577 69.4975 78.5504C70.4727 78.82 71.4935 78.8837 72.4947 78.7373C73.4959 78.591 74.4556 78.2379 75.3129 77.7004C76.1931 77.1557 76.9522 76.4363 77.5434 75.5866C78.1345 74.737 78.5451 73.7751 78.7497 72.7604C78.8781 72.1146 78.8033 71.4448 78.5357 70.8431C78.2681 70.2414 77.8208 69.7374 77.2552 69.4001ZM76.6658 72.3468C76.5184 73.0746 76.2232 73.7645 75.7984 74.3736C75.3737 74.9828 74.8285 75.4984 74.1966 75.8884C73.5866 76.2711 72.9037 76.5225 72.1912 76.6266C71.4788 76.7307 70.7524 76.6854 70.0585 76.4934C66.1058 75.399 62.5035 73.3004 59.6021 70.4016C56.7006 67.5029 54.5986 63.9026 53.5005 59.9509C53.3076 59.2565 53.2616 58.5294 53.3655 57.8161C53.4694 57.1029 53.7209 56.4192 54.104 55.8086C54.4975 55.173 55.0177 54.6252 55.6321 54.1994C56.2465 53.7736 56.9421 53.4789 57.6754 53.3337C57.7444 53.3196 57.8147 53.3125 57.8851 53.3124C58.0699 53.3126 58.2515 53.3609 58.4119 53.4525C58.5724 53.5442 58.7062 53.6761 58.8002 53.8352L61.0159 57.5738C61.2562 57.98 61.3314 58.4629 61.2259 58.9229C61.1205 59.3829 60.8425 59.7849 60.4492 60.0459L58.0976 61.6113C57.8922 61.7478 57.7408 61.9515 57.6692 62.1875C57.5976 62.4235 57.6103 62.6771 57.7052 62.9047C59.4825 67.1387 62.8453 70.5097 67.075 72.2972C67.3022 72.3914 67.555 72.4041 67.7905 72.333C68.0261 72.262 68.2297 72.1117 68.367 71.9076L69.9466 69.5503C70.209 69.157 70.6126 68.8796 71.0738 68.7757C71.5351 68.6718 72.0186 68.7493 72.4243 68.9921L76.1686 71.2248C76.357 71.3377 76.506 71.5061 76.595 71.707C76.684 71.9078 76.7088 72.1313 76.6658 72.3468ZM68.4987 61.5008C68.4001 61.4022 68.3218 61.2852 68.2683 61.1563C68.2149 61.0275 68.1874 60.8894 68.1874 60.7499C68.1874 60.6105 68.2149 60.4724 68.2683 60.3435C68.3218 60.2147 68.4001 60.0977 68.4987 59.9991L73.7673 54.7291H71.6112C71.3294 54.7291 71.0591 54.6172 70.8599 54.4179C70.6606 54.2186 70.5487 53.9484 70.5487 53.6666C70.5487 53.3848 70.6606 53.1146 70.8599 52.9153C71.0591 52.716 71.3294 52.6041 71.6112 52.6041H76.3329C76.6144 52.6052 76.884 52.7175 77.083 52.9165C77.282 53.1156 77.3943 53.3852 77.3954 53.6666V58.3883C77.3954 58.6701 77.2835 58.9404 77.0842 59.1397C76.885 59.3389 76.6147 59.4508 76.3329 59.4508C76.0511 59.4508 75.7809 59.3389 75.5816 59.1397C75.3824 58.9404 75.2704 58.6701 75.2704 58.3883V56.2322L70.0004 61.5008C69.902 61.5996 69.7849 61.6781 69.6561 61.7316C69.5273 61.7851 69.3891 61.8127 69.2496 61.8127C69.1101 61.8127 68.9719 61.7851 68.8431 61.7316C68.7142 61.6781 68.5972 61.5996 68.4987 61.5008Z" fill="white"/>
<path d="M68.2689 17.6666C67.742 17.6245 67.2874 17.4862 66.905 17.2518C66.5232 17.0105 66.239 16.6955 66.0525 16.3067C65.866 15.9179 65.7922 15.4803 65.8311 14.9939L66.018 12.6533C66.0569 12.1669 66.1992 11.7466 66.445 11.3923C66.6909 11.0381 67.0212 10.7755 67.4359 10.6047C67.8506 10.4339 68.3215 10.3695 68.8484 10.4116C69.3685 10.4531 69.8167 10.5875 70.1928 10.8147C70.5763 11.0357 70.8618 11.3338 71.0493 11.7091C71.2442 12.0782 71.323 12.4958 71.2858 12.9619C71.2809 13.0227 71.2374 13.0566 71.1553 13.0636L69.9641 13.0398L69.9438 13.0382C69.8763 13.0328 69.8455 12.993 69.8514 12.9187C69.88 12.5607 69.7915 12.2647 69.5858 12.0307C69.3869 11.7973 69.1085 11.6662 68.7504 11.6376C68.3857 11.6085 68.0832 11.6931 67.843 11.8915C67.6096 12.0904 67.4786 12.3688 67.45 12.7269L67.2549 15.1688C67.2269 15.5201 67.3123 15.8125 67.5112 16.0459C67.7168 16.2799 68.0021 16.4114 68.3668 16.4406C68.7249 16.4691 69.0206 16.384 69.254 16.1851C69.4942 15.9867 69.6283 15.7119 69.6564 15.3607C69.6623 15.2863 69.7058 15.2524 69.7869 15.2589L70.9683 15.4043C71.0021 15.407 71.0283 15.4192 71.047 15.4411C71.0724 15.4636 71.084 15.4883 71.0818 15.5153C71.0446 15.9814 70.9002 16.3846 70.6487 16.7248C70.404 17.0655 70.0745 17.318 69.6603 17.482C69.2528 17.6466 68.789 17.7082 68.2689 17.6666Z" fill="#222629"/>
<path d="M75.4363 18.7059C74.8813 18.5791 74.4389 18.3251 74.1089 17.9438C73.7789 17.5626 73.5986 17.1043 73.568 16.569C73.5464 16.2374 73.5771 15.8899 73.6601 15.5266C73.7492 15.1368 73.8754 14.7972 74.0389 14.5078C74.3025 14.0537 74.6642 13.7331 75.124 13.5462C75.5837 13.3593 76.0911 13.3292 76.646 13.456C77.1878 13.5798 77.6185 13.8241 77.9383 14.1891C78.2596 14.5475 78.4437 14.9893 78.4906 15.5144C78.5208 15.8689 78.4944 16.2278 78.4114 16.5911C78.3299 16.9479 78.2074 17.2709 78.044 17.5603C77.781 18.0424 77.4173 18.3868 76.953 18.5936C76.4968 18.7952 75.9912 18.8326 75.4363 18.7059ZM75.7102 17.5068C75.9282 17.5566 76.1283 17.5328 76.3104 17.4354C76.4926 17.338 76.6431 17.1812 76.762 16.965C76.8631 16.7657 76.9424 16.5405 76.9997 16.2895C77.0631 16.012 77.0902 15.7714 77.0812 15.5678C77.0598 15.3266 76.9875 15.1258 76.8642 14.9656C76.7409 14.8054 76.5703 14.7003 76.3523 14.6505C76.1277 14.5992 75.9251 14.619 75.7444 14.7098C75.5704 14.8021 75.4247 14.953 75.3073 15.1625C75.2183 15.309 75.1383 15.5375 75.0673 15.848C74.9994 16.1453 74.9697 16.3818 74.9782 16.5575C74.9915 16.8039 75.059 17.0104 75.1807 17.1773C75.3091 17.3456 75.4856 17.4555 75.7102 17.5068Z" fill="#222629"/>
<path d="M83.6755 15.5589C84.1837 15.7478 84.5356 16.0557 84.7311 16.4827C84.9266 16.9096 84.9252 17.3899 84.7269 17.9234L83.5651 21.0486C83.5533 21.0803 83.53 21.1042 83.4951 21.1202C83.469 21.1321 83.44 21.1322 83.4083 21.1204L82.2935 20.706C82.2617 20.6942 82.2367 20.674 82.2184 20.6455C82.2088 20.613 82.2099 20.5809 82.2217 20.5492L83.2807 17.7003C83.3752 17.4462 83.3789 17.2126 83.2918 16.9995C83.2111 16.7888 83.0532 16.6397 82.8182 16.5524C82.5832 16.465 82.3631 16.4735 82.158 16.578C81.9592 16.6849 81.8126 16.8653 81.7181 17.1194L80.6591 19.9683C80.6473 20 80.624 20.0239 80.5891 20.0399C80.563 20.0518 80.534 20.0519 80.5023 20.0401L79.3875 19.6257C79.3557 19.6139 79.3307 19.5937 79.3124 19.5652C79.3028 19.5327 79.3039 19.5006 79.3157 19.4689L81.0512 14.8002C81.063 14.7684 81.082 14.7466 81.1082 14.7346C81.143 14.7186 81.1763 14.7165 81.2081 14.7283L82.3228 15.1428C82.3546 15.1546 82.3753 15.1767 82.3849 15.2092C82.4032 15.2377 82.4065 15.2678 82.3947 15.2996L82.2707 15.6331C82.2636 15.6521 82.2652 15.6672 82.2756 15.6783C82.2859 15.6893 82.2966 15.6897 82.3077 15.6794C82.7051 15.4078 83.161 15.3676 83.6755 15.5589Z" fill="#222629"/>
<path d="M89.5 19.387C89.4851 19.4174 89.4595 19.4388 89.4232 19.4512C89.3959 19.4604 89.3671 19.4576 89.3367 19.4426L88.4612 19.0117C88.4308 18.9967 88.4081 19.0044 88.3932 19.0348L87.4415 20.9683C87.3427 21.1689 87.3089 21.3373 87.3401 21.4735C87.3773 21.6127 87.4871 21.7272 87.6695 21.817L87.9705 21.9651C88.0009 21.9801 88.0192 22.0042 88.0255 22.0375C88.0409 22.0677 88.041 22.098 88.0261 22.1284L87.5996 22.9948C87.5667 23.0617 87.5108 23.0832 87.4318 23.0595C87.1705 22.946 86.9851 22.8623 86.8756 22.8084C86.371 22.56 86.0344 22.2924 85.866 22.0055C85.7005 21.7126 85.7284 21.3336 85.9498 20.8685L87.1528 18.4243C87.1678 18.3939 87.1601 18.3712 87.1297 18.3563L86.6098 18.1004C86.5794 18.0854 86.5566 18.0628 86.5412 18.0326C86.535 17.9993 86.5393 17.9675 86.5543 17.9371L86.9538 17.1254C86.9688 17.095 86.9898 17.0752 87.0171 17.0659C87.0534 17.0536 87.0867 17.0549 87.1171 17.0698L87.6369 17.3257C87.6673 17.3407 87.69 17.3329 87.705 17.3025L88.2392 16.2173C88.2541 16.1869 88.2752 16.167 88.3025 16.1578C88.3387 16.1454 88.3721 16.1467 88.4025 16.1617L89.4239 16.6645C89.4543 16.6794 89.4727 16.7036 89.4789 16.7369C89.4943 16.7671 89.4945 16.7974 89.4795 16.8278L88.9453 17.9131C88.9303 17.9435 88.9381 17.9661 88.9685 17.9811L89.844 18.412C89.8744 18.427 89.8927 18.4511 89.899 18.4844C89.9143 18.5147 89.9145 18.545 89.8996 18.5754L89.5 19.387Z" fill="#222629"/>
<path d="M92.6504 19.9583C93.0247 20.1906 93.3176 20.464 93.5291 20.7786C93.7442 21.0875 93.8627 21.4043 93.8846 21.7289C93.9123 22.0571 93.8404 22.3594 93.6689 22.6358L91.8522 25.5639C91.8344 25.5927 91.8068 25.6115 91.7695 25.6202C91.7415 25.6268 91.7131 25.6211 91.6843 25.6033L90.6737 24.9763C90.6449 24.9584 90.6243 24.9337 90.612 24.9022C90.609 24.8684 90.6165 24.8371 90.6343 24.8083L90.8112 24.5233C90.8219 24.506 90.8233 24.4909 90.8153 24.478C90.8074 24.4651 90.7923 24.4637 90.7701 24.4739C90.3317 24.6405 89.8448 24.5577 89.3092 24.2255C88.8601 23.9468 88.5652 23.6124 88.4245 23.222C88.2839 22.8317 88.3457 22.4235 88.6101 21.9974C88.8852 21.554 89.2533 21.3078 89.7143 21.2589C90.1788 21.2042 90.699 21.3555 91.2749 21.7127L92.1559 22.2593C92.1847 22.2772 92.2081 22.2717 92.2259 22.243L92.3438 22.0529C92.4617 21.8629 92.4952 21.6803 92.4444 21.5052C92.3971 21.3244 92.2583 21.1625 92.0279 21.0196C91.8494 20.9088 91.68 20.8476 91.5198 20.8359C91.3653 20.8278 91.2351 20.8706 91.1291 20.9644C91.0725 21.017 91.0172 21.0226 90.9632 20.9811L90.0038 20.1945C89.9419 20.1401 89.9263 20.0945 89.957 20.0578C90.1301 19.8302 90.3609 19.6703 90.6493 19.5781C90.9436 19.4895 91.2628 19.4763 91.6071 19.5383C91.9571 19.604 92.3049 19.744 92.6504 19.9583ZM90.2002 23.5222C90.4478 23.6758 90.699 23.74 90.954 23.7147C91.2089 23.6894 91.4007 23.5732 91.5293 23.3658L91.7222 23.0549C91.74 23.0261 91.7346 23.0028 91.7058 22.9849L91.0839 22.5991C90.8247 22.4383 90.59 22.3604 90.3795 22.3654C90.1748 22.374 90.0171 22.4676 89.9063 22.6461C89.8099 22.8015 89.7878 22.9593 89.84 23.1193C89.8958 23.2736 90.0159 23.4079 90.2002 23.5222Z" fill="#222629"/>
<path d="M94.7448 28.013C94.3229 27.6726 94.0414 27.2714 93.9004 26.8094C93.7646 26.3517 93.7797 25.885 93.9457 25.4094C94.0688 25.0734 94.2749 24.726 94.5643 24.3673C94.8493 24.0139 95.1409 23.7442 95.4391 23.5581C95.855 23.3015 96.3015 23.1959 96.7786 23.2412C97.2558 23.2865 97.7053 23.4793 98.1273 23.8197C98.5492 24.1601 98.8334 24.5634 98.9796 25.0297C99.1312 25.5002 99.13 25.9389 98.9759 26.3457C98.916 26.5063 98.8605 26.6183 98.8095 26.6816L98.7967 26.6974C98.7584 26.7449 98.7087 26.7526 98.6474 26.7206L97.629 26.1212L97.6132 26.1084C97.5657 26.0701 97.5554 26.0182 97.5821 25.9527L97.6605 25.807C97.7342 25.6401 97.7439 25.4607 97.6896 25.2689C97.6354 25.0772 97.5212 24.9111 97.3471 24.7707C97.1784 24.6345 97.0019 24.5618 96.8178 24.5526C96.6337 24.5434 96.4583 24.5935 96.2917 24.7029C96.1061 24.8144 95.9026 25.0072 95.6814 25.2815C95.4601 25.5558 95.3121 25.7933 95.2372 25.9941C95.157 26.1906 95.1388 26.3805 95.1825 26.5638C95.2315 26.7513 95.3404 26.9131 95.5091 27.0493C95.6727 27.1812 95.8491 27.2539 96.0385 27.2673C96.2374 27.2798 96.4223 27.2286 96.5932 27.114C96.6069 27.1077 96.6223 27.094 96.6394 27.0729C96.6489 27.0719 96.6579 27.0661 96.6664 27.0555C96.7227 26.9965 96.7809 26.9999 96.841 27.0658L97.636 27.9421C97.6802 27.9952 97.6832 28.0455 97.6449 28.0929C97.6109 28.1351 97.5312 28.2015 97.406 28.292C97.0102 28.5561 96.5705 28.6585 96.0871 28.5994C95.609 28.5446 95.1615 28.3491 94.7448 28.013Z" fill="#222629"/>
<path d="M102.614 29.4139C102.591 29.4381 102.559 29.4504 102.521 29.4507C102.492 29.451 102.466 29.4392 102.442 29.4155L101.746 28.7317C101.721 28.708 101.697 28.7082 101.674 28.7323L100.164 30.2698C100.007 30.4293 99.922 30.5786 99.9089 30.7177C99.9006 30.8616 99.969 31.0047 100.114 31.1472L100.353 31.3822C100.378 31.406 100.387 31.4346 100.383 31.4682C100.388 31.5017 100.379 31.5305 100.355 31.5547L99.6783 32.2437C99.626 32.2968 99.5661 32.2998 99.4986 32.2525C99.2861 32.0627 99.1363 31.9251 99.0493 31.8396C98.648 31.4455 98.4123 31.0858 98.3423 30.7606C98.2771 30.4305 98.4225 30.0794 98.7785 29.7072L100.687 27.7636C100.711 27.7395 100.711 27.7155 100.687 27.6918L100.273 27.2858C100.249 27.262 100.235 27.2334 100.23 27.1999C100.234 27.1663 100.248 27.1374 100.272 27.1133L100.906 26.4678C100.93 26.4437 100.956 26.4314 100.985 26.4312C101.023 26.4308 101.054 26.4425 101.078 26.4663L101.492 26.8723C101.516 26.896 101.54 26.8958 101.564 26.8716L102.411 26.0086C102.435 25.9845 102.461 25.9723 102.49 25.972C102.528 25.9717 102.559 25.9833 102.584 26.0071L103.396 26.8048C103.42 26.8286 103.43 26.8573 103.425 26.8908C103.43 26.9243 103.421 26.9532 103.397 26.9773L102.55 27.8403C102.526 27.8645 102.526 27.8885 102.55 27.9122L103.247 28.596C103.271 28.6197 103.281 28.6484 103.276 28.682C103.281 28.7155 103.272 28.7443 103.248 28.7685L102.614 29.4139Z" fill="#222629"/>
<path d="M110.085 34.2741C110.113 34.2546 110.141 34.2472 110.169 34.2521C110.207 34.2585 110.236 34.2756 110.256 34.3033L110.942 35.2742C110.962 35.3019 110.966 35.3318 110.956 35.3641C110.955 35.3979 110.941 35.4247 110.913 35.4442L105.303 39.4126C105.276 39.4321 105.243 39.4387 105.205 39.4322C105.177 39.4274 105.153 39.4111 105.133 39.3834L104.47 38.4457C104.431 38.3904 104.426 38.336 104.454 38.2826L106.486 33.6207C106.494 33.5979 106.492 33.5829 106.479 33.5758C106.471 33.5647 106.456 33.567 106.434 33.5827L102.944 36.0766C102.916 36.0961 102.883 36.1027 102.845 36.0962C102.817 36.0913 102.793 36.0751 102.773 36.0474L102.087 35.0765C102.067 35.0488 102.058 35.0181 102.059 34.9842C102.069 34.9519 102.088 34.926 102.116 34.9065L107.726 30.9381C107.753 30.9186 107.781 30.9112 107.81 30.9161C107.847 30.9225 107.876 30.9396 107.896 30.9673L108.559 31.905C108.598 31.9603 108.603 32.0147 108.575 32.0681L106.554 36.7099C106.545 36.7327 106.545 36.7497 106.553 36.7607C106.566 36.7679 106.584 36.7636 106.606 36.748L110.085 34.2741Z" fill="#222629"/>
<path d="M107.321 43.4575C107.063 42.95 106.975 42.4475 107.057 41.9499C107.138 41.4524 107.375 41.0205 107.767 40.6544C108.008 40.4256 108.294 40.2268 108.627 40.0581C108.983 39.877 109.325 39.7567 109.652 39.6971C110.17 39.609 110.647 39.6818 111.085 39.9155C111.523 40.1491 111.871 40.5197 112.129 41.0273C112.38 41.5227 112.468 42.0101 112.392 42.4894C112.323 42.9657 112.101 43.3899 111.728 43.7619C111.475 44.012 111.182 44.2214 110.85 44.3902C110.523 44.5559 110.197 44.6685 109.87 44.7282C109.331 44.8346 108.834 44.7755 108.378 44.5511C107.931 44.3296 107.578 43.9651 107.321 43.4575ZM108.417 42.9006C108.518 43.1 108.665 43.2385 108.856 43.3161C109.048 43.3937 109.264 43.4091 109.507 43.3621C109.725 43.3122 109.948 43.229 110.178 43.1124C110.432 42.9835 110.634 42.8505 110.785 42.7131C110.956 42.5423 111.064 42.3583 111.108 42.161C111.153 41.9638 111.124 41.7654 111.023 41.5661C110.919 41.3606 110.774 41.2176 110.588 41.1369C110.406 41.0623 110.197 41.0469 109.961 41.0908C109.791 41.1161 109.564 41.2009 109.28 41.3451C109.008 41.4831 108.808 41.6117 108.678 41.7307C108.497 41.8985 108.382 42.0826 108.332 42.2829C108.284 42.4893 108.313 42.6952 108.417 42.9006Z" fill="#222629"/>
<path d="M109.502 48.0164C109.479 47.9455 109.497 47.8899 109.555 47.8495L113.843 44.9067L113.879 44.8844C113.943 44.8633 113.987 44.8882 114.01 44.9591L114.393 46.1281C114.416 46.1989 114.398 46.2545 114.34 46.2949L111.65 47.9449C111.633 47.9576 111.626 47.9705 111.631 47.9833C111.635 47.9962 111.648 48.0027 111.669 48.0029L114.824 47.7731C114.895 47.7714 114.942 47.8059 114.965 47.8768L115.296 48.8912C115.32 48.9621 115.302 49.0177 115.244 49.0581L112.566 50.7788C112.549 50.7916 112.543 50.8044 112.547 50.8173C112.551 50.8302 112.564 50.8367 112.585 50.8368L115.759 50.6329C115.83 50.6311 115.877 50.6657 115.9 50.7365L116.26 51.9022C116.273 51.9408 116.268 51.9708 116.247 51.9921C116.234 52.0178 116.207 52.0337 116.166 52.0399L110.971 52.1778C110.9 52.1795 110.854 52.1482 110.833 52.0838L110.45 50.9147C110.427 50.8439 110.445 50.7883 110.503 50.7479L112.849 49.1571C112.866 49.1443 112.872 49.1315 112.868 49.1186C112.864 49.1057 112.851 49.0992 112.83 49.0991L110.026 49.289C109.955 49.2908 109.908 49.2562 109.885 49.1854L109.502 48.0164Z" fill="#222629"/>
<path d="M116.168 58.5219C116.165 58.4882 116.171 58.4568 116.189 58.4277C116.213 58.4045 116.242 58.391 116.276 58.3873L117.187 58.2973C117.207 58.2951 117.22 58.2868 117.225 58.2726C117.23 58.2584 117.225 58.2453 117.21 58.2333L116.622 57.4391C116.605 57.4137 116.596 57.3942 116.595 57.3807C116.59 57.3336 116.609 57.2939 116.653 57.2618L117.148 56.921C117.173 56.9046 117.196 56.8953 117.216 56.893C117.263 56.8878 117.299 56.9077 117.325 56.9526L117.873 57.7513C117.897 57.7827 117.917 57.7805 117.934 57.7446L118.275 56.848C118.284 56.8129 118.305 56.7867 118.338 56.7695C118.371 56.7591 118.405 56.7621 118.441 56.7786L118.997 57.0036C119.033 57.0201 119.056 57.0415 119.066 57.0677C119.083 57.0999 119.083 57.1339 119.067 57.1698L118.675 58.072C118.67 58.0862 118.672 58.0997 118.68 58.1124C118.688 58.1251 118.702 58.1304 118.722 58.1282L119.61 58.0201C119.644 58.0164 119.672 58.0236 119.695 58.0415C119.725 58.0655 119.741 58.0943 119.745 58.128L119.808 58.7039C119.812 58.7376 119.802 58.7661 119.777 58.7892C119.76 58.8184 119.734 58.8348 119.701 58.8385L118.81 58.9264C118.79 58.9286 118.777 58.9368 118.772 58.951C118.767 58.9652 118.768 58.9787 118.777 58.9914L119.355 59.7868C119.371 59.8122 119.38 59.8317 119.382 59.8452C119.387 59.8923 119.368 59.9319 119.323 59.9641L118.829 60.3049C118.804 60.3213 118.781 60.3306 118.761 60.3329C118.72 60.3373 118.687 60.3171 118.662 60.2721L118.123 59.4623C118.099 59.4308 118.079 59.433 118.062 59.4689L117.702 60.3778C117.692 60.413 117.671 60.4358 117.638 60.4463C117.606 60.4634 117.572 60.4638 117.536 60.4473L116.979 60.2222C116.943 60.2057 116.917 60.1814 116.9 60.1492C116.89 60.123 116.893 60.0919 116.91 60.056L117.312 59.1528C117.323 59.1378 117.325 59.124 117.317 59.1113C117.309 59.0985 117.295 59.0933 117.275 59.0955L116.366 59.2057C116.333 59.2095 116.301 59.1993 116.271 59.1753C116.248 59.1574 116.235 59.1315 116.232 59.0978L116.168 58.5219Z" fill="#222629"/>
<path d="M112.366 68.568C112.412 68.0414 112.553 67.5877 112.79 67.2068C113.034 66.8265 113.35 66.5443 113.74 66.3603C114.13 66.1763 114.568 66.1052 115.054 66.1472L117.394 66.3489C117.88 66.3909 118.299 66.5359 118.652 66.7839C119.005 67.032 119.265 67.364 119.433 67.7798C119.602 68.1956 119.663 68.6668 119.618 69.1934C119.573 69.7133 119.436 70.1606 119.206 70.5353C118.983 70.9173 118.683 71.2009 118.306 71.3861C117.936 71.5787 117.518 71.6548 117.052 71.6146C116.991 71.6094 116.958 71.5657 116.951 71.4835L116.982 70.2925L116.984 70.2722C116.99 70.2047 117.03 70.1742 117.104 70.1806C117.462 70.2114 117.759 70.1248 117.994 69.9206C118.229 69.7232 118.361 69.4456 118.392 69.0877C118.424 68.7231 118.341 68.4201 118.144 68.1787C117.947 67.944 117.669 67.8112 117.311 67.7804L114.871 67.5699C114.519 67.5396 114.227 67.6232 113.992 67.8206C113.757 68.0248 113.623 68.3091 113.592 68.6737C113.561 69.0316 113.644 69.3278 113.842 69.5625C114.039 69.8039 114.312 69.9398 114.664 69.9701C114.738 69.9765 114.771 70.0202 114.764 70.1012L114.612 71.2817C114.609 71.3155 114.596 71.3416 114.574 71.3601C114.552 71.3854 114.527 71.3969 114.5 71.3945C114.034 71.3544 113.632 71.2074 113.293 70.9538C112.954 70.7069 112.704 70.3758 112.542 69.9606C112.38 69.5521 112.322 69.0879 112.366 68.568Z" fill="#222629"/>
<path d="M111.281 75.7306C111.411 75.1765 111.668 74.7357 112.052 74.4082C112.435 74.0807 112.894 73.9033 113.43 73.8762C113.762 73.8567 114.109 73.8897 114.472 73.9751C114.861 74.0666 115.2 74.195 115.488 74.3603C115.94 74.6269 116.259 74.9907 116.443 75.4516C116.627 75.9126 116.653 76.4201 116.523 76.9743C116.396 77.5152 116.149 77.9443 115.782 78.2618C115.421 78.5807 114.978 78.762 114.453 78.8055C114.098 78.8334 113.739 78.8047 113.377 78.7194C113.02 78.6356 112.698 78.511 112.41 78.3457C111.929 78.0796 111.587 77.7137 111.384 77.248C111.185 76.7906 111.151 76.2848 111.281 75.7306ZM112.478 76.0123C112.427 76.23 112.45 76.4302 112.546 76.613C112.642 76.7957 112.798 76.9472 113.013 77.0675C113.212 77.17 113.437 77.2507 113.687 77.3096C113.964 77.3748 114.205 77.4035 114.408 77.3957C114.65 77.3759 114.851 77.3049 115.012 77.1827C115.173 77.0605 115.279 76.8905 115.33 76.6728C115.383 76.4485 115.365 76.2458 115.275 76.0646C115.184 75.89 115.034 75.7433 114.825 75.6246C114.679 75.5345 114.451 75.4531 114.141 75.3801C113.844 75.3103 113.608 75.2791 113.432 75.2865C113.186 75.2981 112.979 75.3643 112.811 75.485C112.642 75.6122 112.531 75.788 112.478 76.0123Z" fill="#222629"/>
<path d="M114.376 83.9849C114.184 84.4918 113.874 84.8417 113.446 85.0345C113.018 85.2274 112.537 85.2229 112.005 85.0212L108.887 83.8396C108.856 83.8275 108.832 83.8041 108.816 83.7691C108.804 83.7429 108.805 83.7139 108.817 83.6823L109.238 82.5702C109.25 82.5385 109.27 82.5136 109.299 82.4954C109.332 82.486 109.364 82.4873 109.395 82.4993L112.237 83.5765C112.491 83.6725 112.724 83.6777 112.938 83.592C113.149 83.5126 113.299 83.3557 113.388 83.1213C113.477 82.8868 113.47 82.6667 113.367 82.4609C113.261 82.2614 113.082 82.1137 112.828 82.0176L109.986 80.9405C109.955 80.9285 109.931 80.905 109.915 80.87C109.903 80.8438 109.903 80.8149 109.915 80.7832L110.337 79.6711C110.349 79.6394 110.369 79.6145 110.398 79.5963C110.43 79.5869 110.462 79.5882 110.494 79.6002L115.152 81.3655C115.183 81.3775 115.205 81.3966 115.217 81.4228C115.233 81.4577 115.235 81.4911 115.223 81.5227L114.801 82.6349C114.789 82.6665 114.767 82.6871 114.734 82.6965C114.706 82.7146 114.675 82.7177 114.644 82.7057L114.311 82.5796C114.292 82.5724 114.277 82.5739 114.266 82.5842C114.255 82.5945 114.254 82.6052 114.265 82.6163C114.534 83.0154 114.571 83.4716 114.376 83.9849Z" fill="#222629"/>
<path d="M110.51 89.7875C110.48 89.7723 110.459 89.7466 110.447 89.7102C110.438 89.6829 110.441 89.6541 110.456 89.6238L110.892 88.7511C110.908 88.7208 110.9 88.698 110.87 88.6829L108.942 87.7189C108.742 87.6188 108.574 87.584 108.438 87.6143C108.298 87.6506 108.183 87.7597 108.092 87.9415L107.942 88.2415C107.927 88.2718 107.903 88.29 107.869 88.2961C107.839 88.3112 107.809 88.3112 107.779 88.296L106.915 87.8641C106.848 87.8307 106.827 87.7746 106.851 87.6959C106.966 87.4352 107.051 87.2504 107.106 87.1413C107.358 86.6382 107.627 86.3034 107.915 86.1368C108.209 85.9731 108.588 86.0035 109.052 86.2278L111.488 87.4465C111.518 87.4616 111.541 87.4541 111.556 87.4238L111.816 86.9056C111.831 86.8753 111.853 86.8525 111.884 86.8374C111.917 86.8313 111.949 86.8359 111.979 86.851L112.788 87.2557C112.819 87.2709 112.838 87.2921 112.847 87.3194C112.859 87.3557 112.858 87.3891 112.843 87.4194L112.584 87.9376C112.568 87.9679 112.576 87.9906 112.606 88.0058L113.688 88.5469C113.719 88.5621 113.738 88.5833 113.747 88.6105C113.759 88.6469 113.758 88.6802 113.743 88.7106L113.233 89.7288C113.218 89.7591 113.194 89.7773 113.161 89.7833C113.13 89.7985 113.1 89.7985 113.07 89.7833L111.988 89.2422C111.958 89.227 111.935 89.2346 111.92 89.2649L111.483 90.1377C111.468 90.168 111.444 90.1861 111.41 90.1922C111.38 90.2073 111.35 90.2073 111.32 90.1922L110.51 89.7875Z" fill="#222629"/>
<path d="M109.92 92.9328C109.685 93.3056 109.41 93.5968 109.094 93.8063C108.784 94.0194 108.466 94.1359 108.142 94.1558C107.813 94.1814 107.511 94.1075 107.236 93.9343L104.319 92.0992C104.291 92.0811 104.272 92.0534 104.264 92.016C104.257 91.988 104.263 91.9597 104.281 91.931L104.915 90.9244C104.933 90.8957 104.957 90.8753 104.989 90.8632C105.023 90.8604 105.054 90.868 105.083 90.8861L105.367 91.0647C105.384 91.0755 105.399 91.077 105.412 91.0692C105.425 91.0613 105.426 91.0462 105.416 91.0239C105.252 90.5845 105.338 90.0981 105.674 89.5647C105.955 89.1173 106.292 88.8245 106.683 88.6863C107.074 88.5482 107.482 88.6126 107.906 88.8797C108.348 89.1576 108.592 89.5272 108.638 89.9885C108.69 90.4534 108.535 90.9726 108.174 91.5462L107.622 92.4238C107.604 92.4524 107.609 92.4758 107.638 92.4938L107.827 92.6129C108.017 92.732 108.199 92.7667 108.374 92.717C108.555 92.6708 108.718 92.533 108.863 92.3036C108.974 92.1258 109.037 91.9568 109.049 91.7967C109.059 91.6422 109.017 91.5117 108.923 91.4051C108.871 91.3482 108.866 91.2929 108.908 91.2392L109.701 90.2847C109.755 90.2231 109.801 90.2078 109.837 90.2388C110.064 90.4133 110.222 90.6451 110.313 90.9342C110.399 91.2289 110.411 91.5483 110.346 91.8922C110.279 92.2418 110.136 92.5887 109.92 92.9328ZM106.372 90.46C106.216 90.7067 106.151 90.9575 106.174 91.2126C106.198 91.4677 106.313 91.6602 106.52 91.7901L106.829 91.985C106.858 92.003 106.881 91.9977 106.899 91.969L107.289 91.3496C107.452 91.0915 107.531 90.8572 107.527 90.6467C107.52 90.4419 107.427 90.2836 107.25 90.1718C107.095 90.0743 106.937 90.0512 106.777 90.1025C106.622 90.1573 106.487 90.2765 106.372 90.46Z" fill="#222629"/>
<path d="M101.852 94.9768C102.195 94.557 102.597 94.2781 103.06 94.14C103.519 94.0071 103.986 94.0252 104.46 94.1941C104.795 94.3193 105.141 94.5277 105.498 94.8193C105.85 95.1066 106.118 95.3999 106.302 95.6992C106.556 96.1167 106.659 96.5639 106.61 97.0407C106.562 97.5175 106.366 97.9659 106.023 98.3857C105.68 98.8055 105.275 99.087 104.808 99.2304C104.337 99.379 103.898 99.375 103.492 99.2184C103.332 99.1574 103.22 99.1012 103.157 99.0498L103.141 99.0369C103.094 98.9983 103.087 98.9485 103.119 98.8875L103.725 97.8729L103.738 97.8572C103.777 97.8099 103.828 97.7999 103.894 97.827L104.039 97.9063C104.206 97.9811 104.385 97.9919 104.577 97.9389C104.769 97.8858 104.936 97.7727 105.077 97.5995C105.215 97.4316 105.288 97.2556 105.299 97.0716C105.309 96.8875 105.26 96.7119 105.152 96.5446C105.042 96.3582 104.85 96.1535 104.577 95.9306C104.304 95.7076 104.068 95.558 103.867 95.4819C103.671 95.4005 103.481 95.381 103.298 95.4236C103.11 95.4714 102.948 95.5793 102.81 95.7472C102.677 95.9099 102.604 96.0859 102.589 96.2752C102.575 96.474 102.625 96.6592 102.739 96.8308C102.745 96.8446 102.759 96.8601 102.78 96.8772C102.781 96.8868 102.786 96.8958 102.797 96.9044C102.856 96.9611 102.852 97.0193 102.785 97.0789L101.904 97.8684C101.851 97.9123 101.8 97.9149 101.753 97.8763C101.711 97.842 101.645 97.762 101.556 97.6361C101.294 97.2387 101.194 96.7984 101.257 96.3153C101.314 95.8376 101.513 95.3914 101.852 94.9768Z" fill="#222629"/>
<path d="M100.401 102.836C100.377 102.813 100.365 102.781 100.365 102.743C100.365 102.714 100.377 102.688 100.401 102.664L101.089 101.972C101.113 101.948 101.113 101.924 101.089 101.9L99.561 100.381C99.4024 100.223 99.2536 100.137 99.1146 100.123C98.9709 100.114 98.8273 100.181 98.6839 100.325L98.4474 100.563C98.4235 100.587 98.3947 100.597 98.3612 100.592C98.3277 100.597 98.2989 100.588 98.2749 100.564L97.5902 99.8827C97.5373 99.8301 97.5348 99.7702 97.5825 99.703C97.7736 99.4917 97.9122 99.3427 97.9982 99.2563C98.3949 98.8575 98.756 98.6241 99.0817 98.5561C99.4121 98.4929 99.7623 98.6406 100.132 98.9989L102.064 100.92C102.088 100.944 102.112 100.944 102.136 100.92L102.544 100.509C102.568 100.485 102.597 100.471 102.63 100.466C102.664 100.47 102.693 100.485 102.717 100.509L103.358 101.147C103.382 101.17 103.394 101.197 103.394 101.226C103.394 101.264 103.383 101.295 103.359 101.319L102.95 101.73C102.926 101.754 102.926 101.778 102.95 101.802L103.808 102.655C103.832 102.679 103.844 102.705 103.844 102.734C103.844 102.772 103.832 102.803 103.808 102.827L103.005 103.635C102.982 103.659 102.953 103.668 102.919 103.663C102.886 103.668 102.857 103.659 102.833 103.635L101.975 102.782C101.951 102.758 101.927 102.758 101.903 102.782L101.215 103.474C101.191 103.498 101.163 103.508 101.129 103.503C101.096 103.508 101.067 103.498 101.043 103.474L100.401 102.836Z" fill="#222629"/>
<path d="M95.4933 110.278C95.5127 110.305 95.5199 110.334 95.5149 110.362C95.5082 110.4 95.4909 110.428 95.4631 110.448L94.4878 111.128C94.4601 111.148 94.4301 111.152 94.3979 111.141C94.364 111.14 94.3374 111.126 94.318 111.098L90.3853 105.463C90.3659 105.435 90.3596 105.403 90.3663 105.365C90.3714 105.337 90.3878 105.313 90.4155 105.293L91.3575 104.636C91.413 104.597 91.4675 104.592 91.5207 104.621L96.1696 106.682C96.1923 106.691 96.2073 106.689 96.2145 106.675C96.2257 106.668 96.2235 106.653 96.2079 106.63L93.7362 103.124C93.7169 103.097 93.7105 103.064 93.7172 103.026C93.7223 102.998 93.7387 102.974 93.7665 102.955L94.7417 102.274C94.7695 102.255 94.8003 102.245 94.8342 102.247C94.8664 102.257 94.8922 102.276 94.9116 102.304L98.8443 107.939C98.8636 107.967 98.8708 107.995 98.8658 108.023C98.8591 108.061 98.8418 108.089 98.814 108.109L97.8721 108.766C97.8165 108.805 97.7621 108.81 97.7089 108.781L93.08 106.731C93.0572 106.722 93.0403 106.721 93.0292 106.729C93.022 106.743 93.0261 106.76 93.0416 106.783L95.4933 110.278Z" fill="#222629"/>
<path d="M86.3272 107.455C86.8363 107.2 87.3394 107.115 87.8364 107.2C88.3334 107.285 88.7638 107.525 89.1274 107.919C89.3546 108.161 89.5516 108.449 89.7182 108.783C89.897 109.14 90.0151 109.483 90.0726 109.81C90.1574 110.328 90.0816 110.806 89.8451 111.242C89.6087 111.678 89.2359 112.024 88.7267 112.278C88.2296 112.527 87.7417 112.612 87.2629 112.533C86.7871 112.46 86.3643 112.236 85.9946 111.86C85.7462 111.605 85.5386 111.311 85.372 110.978C85.2084 110.65 85.0978 110.323 85.0403 109.996C84.9373 109.456 84.9995 108.959 85.2269 108.505C85.4512 108.059 85.818 107.709 86.3272 107.455ZM86.877 108.555C86.677 108.655 86.5376 108.8 86.4588 108.991C86.3799 109.182 86.3632 109.399 86.4087 109.641C86.4571 109.86 86.5389 110.084 86.654 110.314C86.7813 110.569 86.9131 110.772 87.0494 110.923C87.2191 111.096 87.4025 111.205 87.5994 111.251C87.7964 111.296 87.9949 111.269 88.195 111.169C88.4011 111.066 88.545 110.922 88.6269 110.737C88.7027 110.555 88.7194 110.346 88.677 110.11C88.6528 109.94 88.5695 109.713 88.4271 109.428C88.2907 109.155 88.1635 108.954 88.0453 108.823C87.8786 108.641 87.6953 108.525 87.4953 108.473C87.2892 108.425 87.0831 108.452 86.877 108.555Z" fill="#222629"/>
<path d="M81.7557 109.607C81.8267 109.584 81.8822 109.602 81.9222 109.661L84.8376 113.968L84.8596 114.004C84.8803 114.068 84.8551 114.112 84.7841 114.134L83.6127 114.509C83.5417 114.532 83.4862 114.514 83.4462 114.456L81.8134 111.755C81.8008 111.738 81.788 111.731 81.7751 111.735C81.7622 111.74 81.7556 111.752 81.7554 111.774L81.9649 114.93C81.9662 115.001 81.9314 115.047 81.8604 115.07L80.8438 115.395C80.7728 115.418 80.7173 115.4 80.6773 115.342L78.9737 112.653C78.9611 112.636 78.9483 112.629 78.9354 112.634C78.9225 112.638 78.9159 112.65 78.9156 112.672L79.0993 115.847C79.1006 115.918 79.0657 115.964 78.9947 115.987L77.8268 116.34C77.788 116.352 77.7581 116.347 77.7369 116.326C77.7114 116.313 77.6956 116.286 77.6897 116.245L77.585 111.049C77.5837 110.978 77.6153 110.932 77.6799 110.911L78.8513 110.537C78.9223 110.514 78.9778 110.532 79.0178 110.59L80.5936 112.946C80.6063 112.963 80.6191 112.97 80.632 112.966C80.6449 112.962 80.6515 112.949 80.6517 112.927L80.4797 110.122C80.4784 110.051 80.5133 110.005 80.5843 109.982L81.7557 109.607Z" fill="#222629"/>
<path d="M71.2079 116.206C71.2416 116.202 71.273 116.209 71.3021 116.227C71.3251 116.252 71.3383 116.281 71.3418 116.315L71.4261 117.226C71.4282 117.246 71.4364 117.259 71.4505 117.264C71.4647 117.269 71.4779 117.265 71.4899 117.25L72.2878 116.666C72.3134 116.65 72.3329 116.641 72.3464 116.64C72.3936 116.635 72.4331 116.655 72.465 116.699L72.8026 117.195C72.8189 117.221 72.8281 117.244 72.8302 117.264C72.8351 117.311 72.815 117.347 72.7699 117.372L71.9678 117.916C71.9362 117.939 71.9383 117.959 71.9741 117.976L72.8685 118.323C72.9036 118.333 72.9296 118.354 72.9466 118.386C72.9568 118.419 72.9536 118.454 72.9369 118.489L72.7083 119.045C72.6916 119.08 72.6701 119.103 72.6438 119.113C72.6115 119.13 72.5775 119.13 72.5417 119.113L71.642 118.716C71.6278 118.71 71.6144 118.712 71.6016 118.72C71.5888 118.728 71.5834 118.742 71.5855 118.763L71.688 119.651C71.6914 119.685 71.6841 119.713 71.666 119.735C71.6418 119.765 71.6129 119.782 71.5792 119.785L71.0029 119.845C70.9692 119.848 70.9408 119.838 70.9178 119.813C70.8888 119.795 70.8725 119.77 70.869 119.736L70.7868 118.845C70.7847 118.825 70.7766 118.812 70.7624 118.807C70.7482 118.802 70.7347 118.803 70.7219 118.811L69.923 119.385C69.8974 119.401 69.8779 119.41 69.8644 119.411C69.8172 119.416 69.7777 119.396 69.7459 119.352L69.4082 118.856C69.3919 118.83 69.3828 118.807 69.3807 118.787C69.3765 118.746 69.3969 118.714 69.442 118.689L70.2553 118.154C70.2869 118.131 70.2848 118.111 70.249 118.094L69.3424 117.728C69.3073 117.718 69.2846 117.697 69.2743 117.664C69.2574 117.631 69.2572 117.597 69.274 117.561L69.5025 117.006C69.5193 116.97 69.5438 116.944 69.5761 116.927C69.6023 116.918 69.6334 116.921 69.6692 116.938L70.5699 117.345C70.5847 117.357 70.5986 117.359 70.6114 117.351C70.6241 117.343 70.6295 117.329 70.6274 117.309L70.5229 116.4C70.5194 116.366 70.5297 116.334 70.5539 116.304C70.572 116.282 70.5979 116.269 70.6316 116.266L71.2079 116.206Z" fill="#222629"/>
<path d="M61.1851 112.341C61.7115 112.389 62.1643 112.533 62.5437 112.773C62.9224 113.019 63.2026 113.337 63.3841 113.729C63.5657 114.12 63.634 114.558 63.589 115.044L63.3724 117.382C63.3274 117.868 63.1797 118.286 62.9294 118.638C62.6791 118.989 62.3455 119.247 61.9287 119.413C61.5118 119.578 61.0402 119.637 60.5139 119.588C59.9943 119.54 59.5479 119.4 59.1746 119.168C58.794 118.942 58.5123 118.64 58.3295 118.263C58.1393 117.891 58.0658 117.472 58.1089 117.007C58.1146 116.946 58.1585 116.913 58.2407 116.907L59.4315 116.946L59.4517 116.947C59.5192 116.954 59.5495 116.994 59.5427 117.068C59.5095 117.426 59.5943 117.723 59.797 117.959C59.9929 118.195 60.2697 118.33 60.6273 118.363C60.9917 118.397 61.2952 118.316 61.5379 118.121C61.7738 117.925 61.9084 117.648 61.9415 117.29L62.1674 114.851C62.1999 114.5 62.1182 114.207 61.9223 113.971C61.7196 113.734 61.4361 113.599 61.0717 113.565C60.7141 113.532 60.4173 113.614 60.1814 113.81C59.9387 114.005 59.8011 114.278 59.7686 114.629C59.7617 114.703 59.7178 114.736 59.6368 114.729L58.4573 114.569C58.4235 114.566 58.3975 114.553 58.3791 114.531C58.354 114.508 58.3427 114.483 58.3452 114.456C58.3883 113.991 58.5378 113.589 58.7936 113.252C59.0426 112.915 59.3753 112.666 59.7915 112.508C60.201 112.348 60.6656 112.293 61.1851 112.341Z" fill="#222629"/>
<path d="M54.0282 111.209C54.5815 111.343 55.0206 111.603 55.3457 111.988C55.6707 112.374 55.8451 112.834 55.8688 113.37C55.8861 113.702 55.8509 114.049 55.7632 114.411C55.6691 114.8 55.5385 115.138 55.3714 115.425C55.1019 115.876 54.7361 116.192 54.274 116.373C53.8118 116.554 53.3041 116.577 52.7508 116.443C52.2108 116.312 51.7832 116.063 51.4681 115.693C51.1515 115.331 50.9731 114.887 50.933 114.361C50.9074 114.006 50.9384 113.648 51.0261 113.286C51.1122 112.93 51.2388 112.608 51.4059 112.321C51.6752 111.842 52.0433 111.503 52.5102 111.302C52.969 111.106 53.475 111.075 54.0282 111.209ZM53.7389 112.405C53.5215 112.352 53.3211 112.373 53.1378 112.468C52.9544 112.564 52.8019 112.718 52.6802 112.933C52.5765 113.131 52.4943 113.355 52.4338 113.605C52.3668 113.882 52.3365 114.122 52.343 114.326C52.3612 114.567 52.431 114.769 52.5522 114.931C52.6733 115.093 52.8426 115.2 53.06 115.253C53.2839 115.307 53.4868 115.29 53.6686 115.201C53.8437 115.111 53.9914 114.962 54.1115 114.754C54.2024 114.609 54.2854 114.381 54.3603 114.072C54.432 113.775 54.4648 113.539 54.4585 113.363C54.4485 113.117 54.3836 112.909 54.264 112.741C54.1379 112.571 53.9628 112.459 53.7389 112.405Z" fill="#222629"/>
<path d="M45.7586 114.253C45.2529 114.058 44.905 113.746 44.7149 113.316C44.5248 112.887 44.5323 112.407 44.7374 111.876L45.9388 108.766C45.951 108.734 45.9746 108.71 46.0097 108.695C46.036 108.683 46.0649 108.684 46.0965 108.696L47.2059 109.124C47.2376 109.137 47.2623 109.157 47.2803 109.186C47.2895 109.218 47.288 109.25 47.2758 109.282L46.1806 112.117C46.0829 112.37 46.0763 112.604 46.1606 112.818C46.2386 113.03 46.3946 113.181 46.6285 113.271C46.8624 113.361 47.0825 113.356 47.289 113.254C47.4891 113.149 47.638 112.971 47.7357 112.718L48.8308 109.883C48.8431 109.851 48.8667 109.828 48.9017 109.812C48.928 109.8 48.957 109.801 48.9886 109.813L50.098 110.241C50.1296 110.254 50.1544 110.274 50.1723 110.303C50.1815 110.336 50.18 110.368 50.1678 110.399L48.3731 115.045C48.3609 115.077 48.3416 115.099 48.3153 115.11C48.2803 115.126 48.2469 115.128 48.2153 115.115L47.1059 114.687C47.0743 114.675 47.0539 114.652 47.0447 114.62C47.0267 114.591 47.0239 114.561 47.0361 114.529L47.1643 114.197C47.1716 114.178 47.1702 114.163 47.16 114.152C47.1498 114.141 47.1391 114.14 47.1279 114.15C46.7271 114.417 46.2706 114.451 45.7586 114.253Z" fill="#222629"/>
<path d="M39.9779 110.349C39.9932 110.319 40.0191 110.298 40.0556 110.286C40.0829 110.277 40.1117 110.28 40.1419 110.296L41.0118 110.738C41.042 110.753 41.0648 110.746 41.0802 110.715L42.0565 108.794C42.1578 108.595 42.1937 108.427 42.1643 108.29C42.1288 108.151 42.0205 108.035 41.8393 107.943L41.5402 107.791C41.51 107.775 41.492 107.751 41.4861 107.718C41.4712 107.687 41.4714 107.657 41.4867 107.627L41.9242 106.766C41.958 106.699 42.0142 106.678 42.0928 106.703C42.3527 106.82 42.537 106.906 42.6458 106.961C43.1472 107.216 43.4803 107.488 43.6451 107.777C43.8068 108.072 43.7741 108.451 43.5468 108.913L42.3126 111.342C42.2972 111.372 42.3047 111.395 42.3349 111.41L42.8514 111.672C42.8816 111.688 42.9042 111.711 42.9192 111.741C42.925 111.774 42.9202 111.806 42.9049 111.836L42.495 112.643C42.4797 112.673 42.4583 112.693 42.431 112.702C42.3946 112.714 42.3612 112.712 42.331 112.696L41.8145 112.434C41.7843 112.419 41.7615 112.426 41.7462 112.456L41.1982 113.535C41.1828 113.565 41.1615 113.584 41.1341 113.593C41.0977 113.605 41.0644 113.603 41.0341 113.588L40.0192 113.072C39.989 113.057 39.971 113.033 39.9651 112.999C39.9502 112.969 39.9504 112.939 39.9657 112.908L40.5137 111.83C40.5291 111.8 40.5217 111.777 40.4915 111.762L39.6215 111.32C39.5913 111.304 39.5733 111.28 39.5674 111.246C39.5525 111.216 39.5527 111.186 39.568 111.156L39.9779 110.349Z" fill="#222629"/>
<path d="M36.8381 109.74C36.4668 109.503 36.1774 109.226 35.9699 108.908C35.7587 108.597 35.6442 108.279 35.6264 107.954C35.6029 107.625 35.6786 107.324 35.8536 107.05L37.7071 104.145C37.7254 104.116 37.7532 104.098 37.7906 104.089C37.8187 104.083 37.847 104.089 37.8756 104.108L38.8782 104.747C38.9067 104.765 38.927 104.79 38.9389 104.822C38.9415 104.856 38.9336 104.887 38.9154 104.916L38.735 105.198C38.724 105.216 38.7225 105.231 38.7302 105.244C38.738 105.257 38.7531 105.258 38.7754 105.248C39.2159 105.087 39.7017 105.176 40.233 105.515C40.6786 105.8 40.9693 106.138 41.105 106.53C41.2407 106.922 41.1736 107.329 40.9039 107.752C40.6232 108.192 40.2521 108.433 39.7905 108.476C39.3253 108.525 38.807 108.367 38.2357 108.003L37.3617 107.445C37.3331 107.427 37.3097 107.432 37.2915 107.461L37.1712 107.649C37.0509 107.838 37.0151 108.02 37.0637 108.196C37.1087 108.377 37.2455 108.541 37.474 108.687C37.6511 108.8 37.8197 108.863 37.9797 108.877C38.1341 108.887 38.2649 108.845 38.372 108.753C38.4293 108.701 38.4846 108.696 38.5381 108.738L39.4875 109.537C39.5488 109.592 39.5638 109.638 39.5326 109.674C39.3566 109.9 39.1238 110.057 38.8342 110.145C38.5389 110.23 38.2195 110.239 37.876 110.173C37.5269 110.103 37.1809 109.959 36.8381 109.74ZM39.3333 106.207C39.0876 106.051 38.8372 105.983 38.582 106.005C38.3267 106.027 38.1335 106.141 38.0023 106.347L37.8055 106.655C37.7872 106.684 37.7924 106.707 37.821 106.725L38.4379 107.119C38.695 107.283 38.9288 107.364 39.1393 107.362C39.3441 107.356 39.503 107.264 39.616 107.087C39.7144 106.933 39.7385 106.775 39.6883 106.615C39.6344 106.46 39.5161 106.324 39.3333 106.207Z" fill="#222629"/>
<path d="M34.8449 101.658C35.2625 102.004 35.5389 102.409 35.6741 102.872C35.804 103.332 35.783 103.798 35.6111 104.272C35.4838 104.606 35.2732 104.951 34.9794 105.306C34.6899 105.656 34.3949 105.922 34.0944 106.104C33.6753 106.355 33.2275 106.455 32.751 106.404C32.2744 106.353 31.8274 106.154 31.4097 105.808C30.9921 105.463 30.7131 105.056 30.5727 104.588C30.4271 104.115 30.4339 103.677 30.593 103.272C30.655 103.112 30.7119 103.001 30.7637 102.938L30.7767 102.922C30.8156 102.875 30.8655 102.868 30.9263 102.901L31.937 103.513L31.9527 103.526C31.9996 103.565 32.0094 103.617 31.9818 103.682L31.9016 103.827C31.8258 103.993 31.8138 104.172 31.8657 104.365C31.9175 104.557 32.0295 104.725 32.2018 104.867C32.3689 105.006 32.5444 105.081 32.7284 105.092C32.9124 105.104 33.0883 105.056 33.2563 104.948C33.4434 104.839 33.6492 104.649 33.8739 104.378C34.0986 104.106 34.2497 103.871 34.3271 103.671C34.4097 103.475 34.4303 103.286 34.389 103.102C34.3423 102.914 34.2355 102.75 34.0685 102.612C33.9066 102.478 33.7311 102.403 33.5419 102.387C33.3432 102.372 33.1576 102.421 32.9853 102.534C32.9715 102.54 32.9559 102.553 32.9386 102.574C32.9291 102.575 32.92 102.581 32.9114 102.591C32.8543 102.65 32.7961 102.645 32.7369 102.579L31.9531 101.693C31.9095 101.639 31.9072 101.589 31.946 101.542C31.9806 101.5 32.0611 101.434 32.1875 101.346C32.5866 101.087 33.0275 100.99 33.5101 101.055C33.9875 101.116 34.4325 101.317 34.8449 101.658Z" fill="#222629"/>
<path d="M26.9941 100.159C27.0181 100.135 27.0493 100.123 27.0876 100.123C27.1164 100.123 27.1427 100.135 27.1666 100.159L27.8541 100.852C27.878 100.876 27.9019 100.876 27.926 100.852L29.4553 99.3338C29.614 99.1763 29.7008 99.028 29.7156 98.8891C29.7257 98.7454 29.6592 98.6014 29.5159 98.4571L29.2796 98.2191C29.2557 98.195 29.2463 98.1662 29.2512 98.1327C29.2465 98.0992 29.2562 98.0704 29.2802 98.0466L29.9655 97.3662C30.0184 97.3137 30.0783 97.3115 30.1452 97.3597C30.3554 97.5521 30.5034 97.6916 30.5894 97.7782C30.9857 98.1773 31.2167 98.54 31.2827 98.866C31.3438 99.1969 31.1939 99.5462 30.8332 99.9138L28.9 101.833C28.8759 101.857 28.8758 101.881 28.8997 101.905L29.3079 102.316C29.3318 102.34 29.3461 102.369 29.3507 102.403C29.3458 102.436 29.3313 102.465 29.3073 102.489L28.6653 103.126C28.6412 103.15 28.6148 103.162 28.5861 103.162C28.5478 103.162 28.5166 103.15 28.4928 103.125L28.0846 102.714C28.0607 102.69 28.0367 102.69 28.0127 102.714L27.1543 103.566C27.1302 103.59 27.1038 103.602 27.0751 103.602C27.0367 103.602 27.0056 103.59 26.9818 103.566L26.1796 102.758C26.1558 102.734 26.1463 102.705 26.1512 102.671C26.1465 102.638 26.1562 102.609 26.1803 102.585L27.0387 101.733C27.0627 101.709 27.0628 101.685 27.039 101.661L26.3514 100.969C26.3276 100.945 26.3181 100.916 26.323 100.882C26.3183 100.849 26.328 100.82 26.3521 100.796L26.9941 100.159Z" fill="#222629"/>
<path d="M19.5839 95.2026C19.556 95.2218 19.5279 95.2288 19.4996 95.2236C19.4619 95.2166 19.4335 95.1992 19.4143 95.1713L18.7398 94.1917C18.7206 94.1638 18.7164 94.1338 18.7272 94.1017C18.7286 94.0678 18.7432 94.0413 18.7711 94.0221L24.4308 90.1252C24.4587 90.106 24.4915 90.0999 24.5292 90.1069C24.5575 90.1121 24.5813 90.1286 24.6005 90.1565L25.2519 91.1026C25.2903 91.1584 25.2949 91.2129 25.2656 91.2659L23.1752 95.9016C23.1662 95.9243 23.1683 95.9393 23.1815 95.9466C23.1892 95.9578 23.2042 95.9557 23.2266 95.9403L26.7482 93.4909C26.7761 93.4717 26.8089 93.4656 26.8466 93.4726C26.8749 93.4778 26.8986 93.4943 26.9178 93.5222L27.5923 94.5018C27.6115 94.5297 27.6204 94.5606 27.619 94.5945C27.6082 94.6266 27.5889 94.6522 27.561 94.6714L21.9013 98.5683C21.8733 98.5875 21.8453 98.5945 21.817 98.5893C21.7793 98.5823 21.7508 98.5649 21.7316 98.537L21.0802 97.5909C21.0418 97.5351 21.0372 97.4806 21.0665 97.4276L23.1459 92.8118C23.1549 92.7891 23.1556 92.7722 23.1479 92.761C23.1347 92.7537 23.1169 92.7577 23.0945 92.7731L19.5839 95.2026Z" fill="#222629"/>
<path d="M22.4646 86.0544C22.7159 86.5652 22.7974 87.0689 22.7093 87.5653C22.6212 88.0618 22.379 88.4905 21.9826 88.8516C21.7387 89.0773 21.4495 89.2724 21.1151 89.4369C20.7563 89.6134 20.4131 89.7294 20.0854 89.7848C19.5666 89.8663 19.0898 89.7874 18.655 89.5481C18.2201 89.3089 17.8771 88.9339 17.6258 88.4231C17.3806 87.9245 17.2989 87.436 17.3808 86.9577C17.4567 86.4824 17.6837 86.0611 18.0619 85.6938C18.3181 85.4469 18.6134 85.2413 18.9479 85.0768C19.2762 84.9153 19.6043 84.8068 19.9319 84.7514C20.472 84.6518 20.9686 84.7172 21.4217 84.9475C21.8658 85.1747 22.2134 85.5436 22.4646 86.0544ZM21.3609 86.5973C21.2622 86.3966 21.1177 86.2563 20.9273 86.1762C20.7369 86.0962 20.5203 86.0781 20.2776 86.122C20.059 86.169 19.8342 86.2494 19.6032 86.363C19.3478 86.4887 19.1439 86.6192 18.9914 86.7545C18.8176 86.9231 18.7073 87.1058 18.6605 87.3024C18.6138 87.4991 18.6398 87.6978 18.7385 87.8985C18.8402 88.1052 18.9832 88.2501 19.1675 88.3332C19.3488 88.4101 19.5578 88.4281 19.7945 88.3873C19.9644 88.3641 20.1922 88.2823 20.478 88.1417C20.7516 88.0071 20.954 87.8811 21.0851 87.7638C21.268 87.5983 21.3859 87.4157 21.4387 87.2161C21.4886 87.0103 21.4626 86.804 21.3609 86.5973Z" fill="#222629"/>
<path d="M20.3423 81.4698C20.3646 81.5409 20.3464 81.5963 20.2878 81.636L15.9619 84.5237L15.9261 84.5456C15.8614 84.5658 15.818 84.5404 15.7957 84.4692L15.4283 83.2954C15.406 83.2243 15.4242 83.1689 15.4828 83.1292L18.1939 81.5138C18.2113 81.5013 18.2179 81.4885 18.2139 81.4756C18.2098 81.4627 18.1971 81.456 18.1757 81.4556L15.0183 81.645C14.9475 81.6458 14.901 81.6107 14.8787 81.5395L14.5599 80.5209C14.5377 80.4498 14.5558 80.3944 14.6144 80.3548L17.3139 78.6684C17.3313 78.6559 17.338 78.6431 17.3339 78.6302C17.3299 78.6173 17.3172 78.6106 17.2957 78.6102L14.1195 78.7735C14.0488 78.7744 14.0023 78.7392 13.98 78.6681L13.6351 77.4979C13.6229 77.4591 13.6277 77.4292 13.6496 77.4081C13.6629 77.3827 13.69 77.3671 13.7308 77.3614L18.9276 77.29C18.9983 77.2891 19.0438 77.321 19.064 77.3857L19.4314 78.5595C19.4537 78.6307 19.4355 78.6861 19.3769 78.7257L17.0109 80.2864C16.9935 80.2989 16.9868 80.3117 16.9909 80.3246C16.9949 80.3375 17.0077 80.3442 17.0291 80.3446L19.8354 80.1905C19.9061 80.1897 19.9526 80.2248 19.9749 80.296L20.3423 81.4698Z" fill="#222629"/>
<path d="M13.8105 70.8805C13.8138 70.9142 13.8066 70.9456 13.789 70.9745C13.764 70.9974 13.7346 71.0104 13.7009 71.0137L12.7894 71.0922C12.7691 71.0942 12.7563 71.1023 12.7509 71.1164C12.7454 71.1306 12.7501 71.1437 12.7649 71.1559L13.3434 71.9575C13.3595 71.9832 13.3682 72.0027 13.3695 72.0162C13.3741 72.0634 13.3541 72.1028 13.3095 72.1344L12.811 72.4689C12.7854 72.485 12.7624 72.4941 12.7422 72.496C12.695 72.5006 12.6589 72.4803 12.6341 72.4351L12.0961 71.6295C12.0726 71.5978 12.0524 71.5997 12.0354 71.6354L11.6831 72.5276C11.6729 72.5627 11.6516 72.5886 11.6192 72.6053C11.5861 72.6154 11.5517 72.6119 11.516 72.595L10.9624 72.3629C10.9267 72.3459 10.9041 72.3243 10.8948 72.298C10.878 72.2656 10.8781 72.2315 10.895 72.1958L11.2979 71.2987C11.3034 71.2846 11.302 71.2711 11.294 71.2582C11.2859 71.2454 11.2718 71.24 11.2515 71.2419L10.3622 71.3387C10.3285 71.342 10.3005 71.3345 10.2783 71.3163C10.2487 71.2919 10.2323 71.2629 10.229 71.2291L10.1729 70.6525C10.1696 70.6187 10.1804 70.5904 10.2055 70.5676C10.2231 70.5386 10.2487 70.5225 10.2825 70.5192L11.1737 70.4427C11.194 70.4407 11.2068 70.4327 11.2122 70.4185C11.2177 70.4044 11.2164 70.3909 11.2083 70.378L10.64 69.5755C10.6238 69.5498 10.6151 69.5302 10.6138 69.5167C10.6092 69.4695 10.6292 69.4301 10.6738 69.3986L11.1723 69.0641C11.198 69.048 11.2209 69.0389 11.2412 69.0369C11.2816 69.033 11.3143 69.0537 11.3391 69.0989L11.868 69.9155C11.8915 69.9473 11.9117 69.9453 11.9287 69.9096L12.3002 69.0053C12.3105 68.9703 12.3321 68.9478 12.3652 68.9377C12.3976 68.921 12.4316 68.9211 12.4673 68.938L13.021 69.1701C13.0567 69.187 13.0829 69.2117 13.0997 69.2441C13.109 69.2704 13.1053 69.3015 13.0883 69.3371L12.6753 70.2352C12.6631 70.25 12.6611 70.2639 12.6691 70.2767C12.6772 70.2895 12.6913 70.295 12.7116 70.293L13.6211 70.1942C13.6548 70.191 13.6865 70.2015 13.7161 70.2258C13.7383 70.2441 13.7511 70.2701 13.7543 70.3038L13.8105 70.8805Z" fill="#222629"/>
<path d="M17.7385 60.8822C17.6864 61.4082 17.5395 61.8601 17.2978 62.238C17.0493 62.6152 16.729 62.8933 16.3367 63.0724C15.9444 63.2515 15.5055 63.317 15.02 63.2689L12.6833 63.0375C12.1978 62.9895 11.7802 62.8392 11.4307 62.5866C11.0811 62.3341 10.8249 61.9989 10.662 61.581C10.4991 61.1631 10.4437 60.6911 10.4957 60.1651C10.5472 59.6459 10.69 59.2004 10.9243 58.8286C11.1525 58.4494 11.456 58.1696 11.8348 57.9892C12.2075 57.8014 12.6265 57.7305 13.0918 57.7766C13.1525 57.7826 13.1856 57.8267 13.1911 57.909L13.1447 59.0995L13.1427 59.1197C13.136 59.1872 13.0956 59.2172 13.0214 59.2099C12.664 59.1745 12.3664 59.2574 12.1285 59.4585C11.8914 59.653 11.7551 59.9289 11.7197 60.2863C11.6837 60.6505 11.7625 60.9545 11.9563 61.1984C12.1507 61.4356 12.4266 61.5719 12.7841 61.6072L15.2219 61.8486C15.5726 61.8833 15.8665 61.8035 16.1036 61.609C16.3415 61.4079 16.4784 61.1252 16.5145 60.761C16.5499 60.4036 16.4703 60.1063 16.2759 59.8692C16.0821 59.6253 15.8099 59.4859 15.4593 59.4512C15.3851 59.4439 15.352 59.3997 15.36 59.3188L15.5278 58.1403C15.5311 58.1066 15.5439 58.0806 15.5661 58.0624C15.589 58.0374 15.614 58.0263 15.6409 58.0289C16.1062 58.075 16.5066 58.227 16.842 58.4849C17.178 58.7361 17.4241 59.0703 17.5803 59.4876C17.7371 59.8981 17.7899 60.363 17.7385 60.8822Z" fill="#222629"/>
<path d="M18.9158 53.73C18.7783 54.2824 18.5158 54.7198 18.1282 55.0424C17.7407 55.3649 17.279 55.5363 16.7432 55.5566C16.4113 55.5717 16.0644 55.5343 15.7027 55.4443C15.3148 55.3477 14.9777 55.2149 14.6915 55.0459C14.2425 54.7736 13.9291 54.4057 13.7511 53.9424C13.5731 53.4791 13.5528 52.9713 13.6903 52.4189C13.8245 51.8797 14.0772 51.4537 14.4483 51.1411C14.8129 50.8268 15.2581 50.6512 15.784 50.6145C16.139 50.5912 16.4973 50.6245 16.859 50.7145C17.2141 50.8029 17.5347 50.9316 17.8209 51.1006C18.2978 51.3729 18.6351 51.7432 18.8329 52.2114C19.0256 52.6714 19.0533 53.1776 18.9158 53.73ZM17.7222 53.4329C17.7763 53.2159 17.7563 53.0154 17.6624 52.8314C17.5686 52.6474 17.4147 52.4939 17.2009 52.3709C17.0036 52.2659 16.78 52.1823 16.5301 52.1201C16.2539 52.0514 16.0139 52.0196 15.8101 52.0247C15.5685 52.0414 15.3664 52.1098 15.2038 52.23C15.0413 52.3501 14.933 52.5187 14.8789 52.7357C14.8233 52.9593 14.8391 53.1623 14.9264 53.3446C15.0154 53.5204 15.1634 53.669 15.3707 53.7904C15.5154 53.8823 15.7423 53.9667 16.0514 54.0436C16.3473 54.1172 16.5832 54.1515 16.759 54.1464C17.0056 54.1379 17.2134 54.0744 17.3826 53.9559C17.5534 53.8308 17.6666 53.6565 17.7222 53.4329Z" fill="#222629"/>
<path d="M15.9235 45.4458C16.1221 44.9413 16.4366 44.5954 16.8672 44.408C17.2978 44.2207 17.778 44.2312 18.3077 44.4397L21.4101 45.6608C21.4416 45.6732 21.4651 45.697 21.4804 45.7321C21.4918 45.7585 21.4914 45.7875 21.4789 45.819L21.0434 46.9257C21.031 46.9572 21.0103 46.9818 20.9815 46.9996C20.9488 47.0086 20.9167 47.0069 20.8852 46.9945L18.057 45.8813C17.8048 45.7821 17.5713 45.7739 17.3566 45.8569C17.1444 45.9336 16.9923 46.0886 16.9005 46.3219C16.8087 46.5552 16.813 46.7754 16.9136 46.9825C17.0166 47.1833 17.1943 47.3333 17.4465 47.4326L20.2746 48.5457C20.3062 48.5581 20.3296 48.5819 20.3449 48.617C20.3563 48.6434 20.3559 48.6724 20.3435 48.7039L19.9079 49.8106C19.8955 49.8421 19.8749 49.8667 19.846 49.8845C19.8133 49.8935 19.7812 49.8918 19.7497 49.8794L15.115 48.0552C15.0834 48.0428 15.0619 48.0234 15.0505 47.997C15.0352 47.9619 15.0337 47.9285 15.0461 47.897L15.4817 46.7903C15.4941 46.7588 15.5167 46.7385 15.5493 46.7295C15.5782 46.7118 15.6084 46.7091 15.6399 46.7215L15.9709 46.8518C15.9899 46.8592 16.0049 46.8579 16.0162 46.8478C16.0275 46.8376 16.0281 46.8269 16.0179 46.8157C15.7539 46.4132 15.7225 45.9566 15.9235 45.4458Z" fill="#222629"/>
<path d="M19.8655 39.6876C19.8956 39.7032 19.9165 39.7292 19.9282 39.7657C19.9369 39.7931 19.9335 39.8219 19.918 39.852L19.4703 40.7191C19.4548 40.7492 19.4621 40.772 19.4922 40.7876L21.4071 41.7761C21.6058 41.8787 21.7735 41.9157 21.9103 41.8871C22.0501 41.8526 22.1667 41.745 22.2599 41.5643L22.4138 41.2663C22.4294 41.2361 22.4538 41.2183 22.4872 41.2126C22.5177 41.1979 22.5481 41.1983 22.5782 41.2138L23.4362 41.6568C23.5025 41.691 23.523 41.7473 23.4977 41.8258C23.3792 42.0849 23.292 42.2687 23.236 42.3771C22.978 42.8769 22.704 43.2082 22.4139 43.3712C22.1179 43.531 21.7395 43.4958 21.2787 43.2656L18.858 42.016C18.8279 42.0004 18.8051 42.0077 18.7896 42.0378L18.5238 42.5527C18.5082 42.5828 18.4852 42.6052 18.4547 42.62C18.4213 42.6256 18.3895 42.6206 18.3594 42.6051L17.5555 42.1901C17.5254 42.1746 17.506 42.1531 17.4973 42.1257C17.4856 42.0892 17.4876 42.0559 17.5031 42.0258L17.7689 41.5109C17.7844 41.4808 17.7772 41.458 17.747 41.4424L16.6722 40.8876C16.6421 40.872 16.6227 40.8505 16.6139 40.8232C16.6023 40.7866 16.6042 40.7533 16.6198 40.7232L17.142 39.7116C17.1575 39.6815 17.182 39.6636 17.2154 39.658C17.2459 39.6432 17.2762 39.6436 17.3063 39.6591L18.3812 40.214C18.4113 40.2296 18.4341 40.2223 18.4497 40.1922L18.8973 39.3251C18.9128 39.295 18.9373 39.2771 18.9707 39.2715C19.0012 39.2567 19.0315 39.2571 19.0616 39.2726L19.8655 39.6876Z" fill="#222629"/>
<path d="M20.4939 36.5537C20.7332 36.1839 21.0121 35.8962 21.3307 35.6907C21.6437 35.4815 21.9626 35.369 22.2876 35.3533C22.6162 35.3319 22.9171 35.4095 23.1902 35.5862L26.0834 37.458C26.1118 37.4765 26.1301 37.5044 26.1381 37.5419C26.1441 37.57 26.1379 37.5983 26.1195 37.6267L25.4735 38.6253C25.4551 38.6537 25.43 38.6738 25.3982 38.6855C25.3644 38.6878 25.3333 38.6798 25.3048 38.6614L25.0232 38.4792C25.0061 38.4681 24.991 38.4665 24.978 38.4742C24.9649 38.4819 24.9633 38.4969 24.973 38.5194C25.1313 38.9608 25.0393 39.4461 24.6969 39.9752C24.4098 40.419 24.0698 40.7075 23.6769 40.8407C23.284 40.9739 22.877 40.9043 22.456 40.6319C22.0179 40.3485 21.7787 39.9758 21.7386 39.514C21.6927 39.0485 21.8538 38.5312 22.2219 37.9623L22.7851 37.0917C22.8035 37.0633 22.7985 37.0399 22.7701 37.0215L22.5823 36.9C22.3946 36.7785 22.2127 36.7415 22.0366 36.7891C21.8549 36.8329 21.6904 36.9686 21.5432 37.1962C21.4291 37.3726 21.3646 37.5408 21.3499 37.7007C21.3389 37.855 21.3792 37.9861 21.4709 38.0938C21.5225 38.1514 21.527 38.2068 21.4845 38.26L20.6798 39.2043C20.6242 39.2652 20.5784 39.2799 20.5423 39.2485C20.318 39.0711 20.1625 38.8374 20.0759 38.5472C19.9928 38.2514 19.9856 37.9319 20.0542 37.5889C20.1265 37.2401 20.2731 36.8951 20.4939 36.5537ZM24.0106 39.0711C24.1689 38.8265 24.2379 38.5765 24.2174 38.3211C24.197 38.0657 24.0844 37.8718 23.8796 37.7393L23.5723 37.5405C23.5439 37.5221 23.5204 37.5271 23.502 37.5556L23.1045 38.17C22.9388 38.4261 22.8565 38.6594 22.8575 38.8699C22.8622 39.0747 22.9527 39.2342 23.1291 39.3483C23.2827 39.4477 23.44 39.4728 23.601 39.4235C23.7563 39.3707 23.8929 39.2532 24.0106 39.0711Z" fill="#222629"/>
<path d="M28.5887 34.6101C28.2404 35.0255 27.8339 35.2994 27.3693 35.4316C26.9091 35.5586 26.4428 35.5347 25.9704 35.3597C25.6368 35.2303 25.2934 35.0176 24.9403 34.7215C24.5923 34.4298 24.3281 34.1332 24.1477 33.8316C23.8991 33.4109 23.8019 32.9624 23.8563 32.4862C23.9106 32.0101 24.1119 31.5642 24.4603 31.1488C24.8086 30.7334 25.2172 30.4569 25.6861 30.3195C26.1594 30.1769 26.598 30.1864 27.0019 30.3482C27.1613 30.4111 27.2722 30.4687 27.3345 30.5209L27.3501 30.534C27.3968 30.5732 27.4036 30.6231 27.3705 30.6837L26.7519 31.6906L26.7388 31.7061C26.6996 31.7529 26.6475 31.7623 26.5826 31.7343L26.4383 31.6532C26.2728 31.5763 26.0937 31.5632 25.9009 31.6138C25.7082 31.6644 25.5399 31.7754 25.3963 31.9468C25.2569 32.113 25.1809 32.288 25.1682 32.4719C25.1555 32.6558 25.2023 32.8321 25.3085 33.0008C25.4164 33.1885 25.6054 33.3956 25.8754 33.622C26.1455 33.8484 26.3801 34.0009 26.5795 34.0796C26.7744 34.1635 26.964 34.1853 27.148 34.1451C27.3364 34.0996 27.5003 33.9938 27.6396 33.8277C27.7746 33.6667 27.8506 33.4916 27.8677 33.3025C27.8839 33.1039 27.8363 32.9181 27.7249 32.7451C27.7188 32.7312 27.7054 32.7155 27.6846 32.6981C27.6838 32.6885 27.6782 32.6794 27.6678 32.6707C27.6098 32.6133 27.6144 32.5552 27.6813 32.4963L28.5726 31.7181C28.6265 31.6749 28.6768 31.6729 28.7236 31.7121C28.7651 31.7469 28.83 31.8278 28.9181 31.9547C29.1746 32.3555 29.2687 32.797 29.2005 33.2792C29.1366 33.7562 28.9326 34.1998 28.5887 34.6101Z" fill="#222629"/>
<path d="M30.1375 26.7695C30.1612 26.7937 30.1729 26.8249 30.1725 26.8633C30.1722 26.892 30.16 26.9183 30.1358 26.942L29.439 27.6251C29.4148 27.6488 29.4145 27.6728 29.4382 27.697L30.9468 29.2358C31.1034 29.3955 31.2511 29.4833 31.3899 29.499C31.5335 29.51 31.678 29.4444 31.8231 29.302L32.0627 29.0672C32.0869 29.0435 32.1157 29.0342 32.1492 29.0393C32.1828 29.0349 32.2114 29.0447 32.2352 29.0689L32.9112 29.7585C32.9634 29.8117 32.9652 29.8717 32.9166 29.9383C32.7228 30.1472 32.5824 30.2943 32.4953 30.3797C32.0937 30.7735 31.7296 31.0023 31.4031 31.0661C31.0719 31.1252 30.7235 30.9731 30.3582 30.6101L28.4511 28.6648C28.4273 28.6406 28.4034 28.6403 28.3792 28.6641L27.9654 29.0697C27.9412 29.0934 27.9124 29.1075 27.8788 29.1119C27.8453 29.1068 27.8167 29.0922 27.7929 29.068L27.1596 28.4219C27.1359 28.3977 27.1242 28.3713 27.1245 28.3425C27.1248 28.3042 27.1371 28.2732 27.1613 28.2494L27.5751 27.8438C27.5993 27.8201 27.5995 27.7962 27.5758 27.772L26.729 26.9082C26.7053 26.884 26.6935 26.8575 26.6938 26.8288C26.6942 26.7904 26.7065 26.7594 26.7307 26.7357L27.5437 25.9387C27.5679 25.915 27.5967 25.9057 27.6302 25.9108C27.6638 25.9063 27.6924 25.9162 27.7162 25.9404L28.563 26.8042C28.5867 26.8284 28.6107 26.8286 28.6348 26.8049L29.3317 26.1218C29.3559 26.098 29.3847 26.0887 29.4182 26.0939C29.4518 26.0894 29.4805 26.0993 29.5042 26.1235L30.1375 26.7695Z" fill="#222629"/>
<path d="M35.1413 19.3897C35.1222 19.3617 35.1154 19.3335 35.1208 19.3053C35.128 19.2676 35.1456 19.2393 35.1736 19.2203L36.1575 18.552C36.1855 18.533 36.2155 18.529 36.2476 18.54C36.2814 18.5416 36.3079 18.5564 36.3269 18.5844L40.1877 24.2688C40.2067 24.2968 40.2127 24.3297 40.2055 24.3673C40.2001 24.3956 40.1834 24.4192 40.1553 24.4382L39.2051 25.0836C39.1491 25.1217 39.0946 25.1259 39.0417 25.0963L34.4194 22.9765C34.3968 22.9673 34.3818 22.9693 34.3744 22.9825C34.3632 22.9902 34.3652 23.0052 34.3804 23.0276L36.8074 26.5647C36.8264 26.5927 36.8323 26.6256 36.8251 26.6632C36.8197 26.6915 36.803 26.7151 36.775 26.7341L35.7912 27.4024C35.7631 27.4214 35.7322 27.4301 35.6983 27.4285C35.6663 27.4175 35.6408 27.398 35.6217 27.37L31.7609 21.6856C31.7419 21.6576 31.7351 21.6295 31.7405 21.6012C31.7476 21.5636 31.7653 21.5352 31.7933 21.5162L32.7435 20.8708C32.7995 20.8327 32.854 20.8285 32.9069 20.8581L37.5094 22.9668C37.532 22.976 37.5489 22.9768 37.5601 22.9692C37.5675 22.9559 37.5636 22.9381 37.5484 22.9157L35.1413 19.3897Z" fill="#222629"/>
<path d="M44.2713 22.3287C43.7589 22.5767 43.2548 22.655 42.7589 22.5637C42.263 22.4725 41.8358 22.2275 41.4772 21.8289C41.2531 21.5835 41.0599 21.2931 40.8975 20.9576C40.7233 20.5977 40.6096 20.2537 40.5562 19.9257C40.4781 19.4064 40.56 18.9301 40.802 18.4968C41.044 18.0635 41.4212 17.7228 41.9336 17.4749C42.4338 17.2328 42.9228 17.1543 43.4006 17.2392C43.8754 17.3181 44.2952 17.5478 44.6601 17.9284C44.9053 18.1861 45.1091 18.4828 45.2714 18.8183C45.4308 19.1477 45.5372 19.4764 45.5905 19.8044C45.6866 20.3451 45.6181 20.8413 45.3849 21.2929C45.1549 21.7355 44.7837 22.0807 44.2713 22.3287ZM43.7355 21.2216C43.9368 21.1242 44.0781 20.9805 44.1593 20.7906C44.2406 20.6007 44.2601 20.3843 44.2178 20.1413C44.1721 19.9224 44.0932 19.6971 43.981 19.4653C43.857 19.2091 43.7278 19.0044 43.5934 18.8511C43.4259 18.6762 43.244 18.5647 43.0476 18.5167C42.8513 18.4687 42.6524 18.4934 42.4511 18.5908C42.2437 18.6912 42.0979 18.8333 42.0137 19.0171C41.9356 19.1979 41.9162 19.4068 41.9556 19.6437C41.9776 19.8137 42.058 20.0421 42.1968 20.3288C42.3296 20.6033 42.4543 20.8064 42.5708 20.9383C42.7351 21.1223 42.9169 21.2413 43.1163 21.2954C43.3217 21.3466 43.5281 21.3219 43.7355 21.2216Z" fill="#222629"/>
<path d="M48.8682 20.2356C48.7969 20.2574 48.7416 20.2389 48.7024 20.1801L45.8424 15.8357L45.8208 15.7998C45.8009 15.735 45.8267 15.6917 45.8979 15.6699L47.0741 15.3101C47.1454 15.2882 47.2006 15.3068 47.2399 15.3656L48.8379 18.087C48.8504 18.1044 48.8631 18.1112 48.876 18.1072C48.889 18.1032 48.8957 18.0905 48.8963 18.0691L48.7271 14.9106C48.7267 14.8398 48.7621 14.7935 48.8334 14.7717L49.854 14.4595C49.9253 14.4376 49.9806 14.4562 50.0199 14.515L51.6889 17.2253C51.7013 17.2427 51.714 17.2495 51.727 17.2455C51.74 17.2415 51.7467 17.2288 51.7472 17.2074L51.6042 14.0302C51.6039 13.9595 51.6393 13.9132 51.7106 13.8914L52.883 13.5539C52.9218 13.542 52.9517 13.5471 52.9726 13.569C52.998 13.5825 53.0134 13.6097 53.0188 13.6506L53.057 18.8477C53.0574 18.9184 53.0252 18.9637 52.9604 18.9835L51.7842 19.3434C51.713 19.3652 51.6577 19.3467 51.6184 19.2878L50.0729 16.9118C50.0605 16.8944 50.0478 16.8876 50.0348 16.8916C50.0219 16.8956 50.0151 16.9083 50.0146 16.9297L50.1507 19.7369C50.1511 19.8077 50.1156 19.854 50.0443 19.8758L48.8682 20.2356Z" fill="#222629"/>
<path d="M59.4996 13.7725C59.4658 13.7756 59.4345 13.7682 59.4057 13.7505C59.383 13.7253 59.3701 13.6959 59.3671 13.6621L59.2943 12.7501C59.2925 12.7299 59.2845 12.717 59.2704 12.7114C59.2563 12.7059 59.2431 12.7105 59.2308 12.7253L58.4256 13.2986C58.3998 13.3146 58.3802 13.3232 58.3667 13.3244C58.3194 13.3287 58.2802 13.3085 58.2489 13.2637L57.9175 12.7631C57.9016 12.7373 57.8927 12.7143 57.8909 12.694C57.8866 12.6468 57.9071 12.6109 57.9525 12.5864L58.7614 12.0535C58.7933 12.0301 58.7915 12.0099 58.7559 11.9927L57.8659 11.6348C57.831 11.6243 57.8052 11.6029 57.7886 11.5704C57.7788 11.5372 57.7825 11.5029 57.7997 11.4673L58.0352 10.9151C58.0524 10.8795 58.0742 10.8571 58.1006 10.8479C58.1331 10.8313 58.1672 10.8317 58.2027 10.8488L59.0973 11.2574C59.1114 11.2629 59.1249 11.2617 59.1378 11.2537C59.1507 11.2457 59.1562 11.2316 59.1543 11.2114L59.0632 10.3215C59.0601 10.2877 59.0678 10.2598 59.0862 10.2377C59.1107 10.2083 59.1399 10.192 59.1736 10.1889L59.7506 10.1364C59.7844 10.1334 59.8126 10.1444 59.8353 10.1696C59.8641 10.1874 59.8801 10.2131 59.8832 10.2469L59.9541 11.1386C59.9559 11.1589 59.9639 11.1718 59.978 11.1773C59.9921 11.1828 60.0056 11.1816 60.0185 11.1736L60.8246 10.6103C60.8504 10.5944 60.87 10.5858 60.8835 10.5846C60.9308 10.5803 60.97 10.6005 61.0013 10.6453L61.3327 11.1459C61.3486 11.1717 61.3575 11.1947 61.3594 11.2149C61.363 11.2554 61.3422 11.288 61.2968 11.3125L60.4768 11.8362C60.4449 11.8595 60.4468 11.8798 60.4824 11.8969L61.3843 12.2742C61.4192 12.2846 61.4416 12.3064 61.4514 12.3395C61.468 12.3721 61.4677 12.4061 61.4505 12.4417L61.215 12.9939C61.1978 13.0295 61.1729 13.0555 61.1404 13.0721C61.114 13.0813 61.0831 13.0773 61.0475 13.0602L60.152 12.6415C60.1373 12.6292 60.1235 12.627 60.1106 12.635C60.0977 12.643 60.0922 12.6571 60.094 12.6774L60.187 13.5875C60.1901 13.6213 60.1794 13.6529 60.1548 13.6823C60.1364 13.7044 60.1103 13.717 60.0766 13.7201L59.4996 13.7725Z" fill="#222629"/>
</svg>
