<svg width="181" height="181" viewBox="0 0 181 181" fill="none" xmlns="http://www.w3.org/2000/svg">
<rect x="0.507812" y="0.0864258" width="180" height="180" rx="90" fill="white"/>
<circle cx="90.5078" cy="90.0864" r="40" fill="url(#paint0_linear_91_13)"/>
<path d="M90.5076 70.0864C79.4654 70.0864 70.564 78.9878 70.564 90.0301C70.564 101.072 79.4654 110.086 90.5076 110.086C101.55 110.086 110.451 101.185 110.451 90.1428C110.451 79.1005 101.55 70.0864 90.5076 70.0864ZM90.5076 105.354C82.0569 105.354 75.2964 98.4808 75.2964 90.1428C75.2964 81.6921 82.1696 74.9315 90.5076 74.9315C98.9583 74.9315 105.719 81.8047 105.719 90.1428C105.719 98.4808 98.9583 105.354 90.5076 105.354Z" fill="white"/>
<path d="M90.5077 82.03C86.0007 82.03 82.395 85.6357 82.395 90.1427C82.395 94.6497 86.0007 98.2554 90.5077 98.2554C95.0147 98.2554 98.6204 94.6497 98.6204 90.1427C98.6204 85.6357 95.0147 82.03 90.5077 82.03ZM90.5077 94.7624C87.9161 94.7624 85.7753 92.6216 85.7753 90.03C85.7753 87.4385 87.9161 85.2976 90.5077 85.2976C93.0992 85.2976 95.2401 87.4385 95.2401 90.03C95.2401 92.7343 93.0992 94.7624 90.5077 94.7624Z" fill="white"/>
<path d="M90.5074 87.439C89.0427 87.439 87.8032 88.6784 87.8032 90.1432C87.8032 91.608 89.0427 92.8474 90.5074 92.8474C91.9722 92.8474 93.2117 91.608 93.2117 90.1432C93.2117 88.6784 91.9722 87.439 90.5074 87.439ZM88.8173 88.6784C88.8173 88.115 89.268 87.6643 89.8314 87.6643C90.3948 87.6643 90.8455 88.115 90.8455 88.6784C90.8455 89.2418 90.3948 89.6925 89.8314 89.6925C89.268 89.6925 88.8173 89.2418 88.8173 88.6784ZM90.2821 92.5094C89.8314 92.5094 89.4934 92.1714 89.4934 91.7207C89.4934 91.2699 89.8314 90.9319 90.2821 90.9319C90.7328 90.9319 91.0708 91.2699 91.0708 91.7207C91.0708 92.1714 90.7328 92.5094 90.2821 92.5094Z" fill="white"/>
<path d="M90.5077 80.4526C91.6278 80.4526 92.5358 79.5445 92.5358 78.4244C92.5358 77.3043 91.6278 76.3962 90.5077 76.3962C89.3875 76.3962 88.4795 77.3043 88.4795 78.4244C88.4795 79.5445 89.3875 80.4526 90.5077 80.4526Z" fill="white"/>
<path d="M90.5077 103.777C91.6278 103.777 92.5358 102.869 92.5358 101.748C92.5358 100.628 91.6278 99.7202 90.5077 99.7202C89.3875 99.7202 88.4795 100.628 88.4795 101.748C88.4795 102.869 89.3875 103.777 90.5077 103.777Z" fill="white"/>
<path d="M82.2821 83.8327C83.4022 83.8327 84.3102 82.9247 84.3102 81.8045C84.3102 80.6844 83.4022 79.7764 82.2821 79.7764C81.1619 79.7764 80.2539 80.6844 80.2539 81.8045C80.2539 82.9247 81.1619 83.8327 82.2821 83.8327Z" fill="white"/>
<path d="M98.7332 100.396C99.8534 100.396 100.761 99.4884 100.761 98.3683C100.761 97.2481 99.8534 96.3401 98.7332 96.3401C97.6131 96.3401 96.7051 97.2481 96.7051 98.3683C96.7051 99.4884 97.6131 100.396 98.7332 100.396Z" fill="white"/>
<path d="M78.9022 92.1713C80.0223 92.1713 80.9304 91.2633 80.9304 90.1432C80.9304 89.023 80.0223 88.115 78.9022 88.115C77.7821 88.115 76.874 89.023 76.874 90.1432C76.874 91.2633 77.7821 92.1713 78.9022 92.1713Z" fill="white"/>
<path d="M102.226 92.1713C103.346 92.1713 104.254 91.2633 104.254 90.1432C104.254 89.023 103.346 88.115 102.226 88.115C101.106 88.115 100.198 89.023 100.198 90.1432C100.198 91.2633 101.106 92.1713 102.226 92.1713Z" fill="white"/>
<path d="M82.2821 100.396C83.4022 100.396 84.3102 99.4884 84.3102 98.3683C84.3102 97.2481 83.4022 96.3401 82.2821 96.3401C81.1619 96.3401 80.2539 97.2481 80.2539 98.3683C80.2539 99.4884 81.1619 100.396 82.2821 100.396Z" fill="white"/>
<path d="M98.7332 83.8327C99.8534 83.8327 100.761 82.9247 100.761 81.8045C100.761 80.6844 99.8534 79.7764 98.7332 79.7764C97.6131 79.7764 96.7051 80.6844 96.7051 81.8045C96.7051 82.9247 97.6131 83.8327 98.7332 83.8327Z" fill="white"/>
<path d="M95.079 25.8532C94.3408 25.7942 93.7038 25.6005 93.1681 25.2719C92.6331 24.9339 92.2349 24.4926 91.9737 23.9478C91.7124 23.4031 91.6089 22.79 91.6634 22.1085L91.9253 18.829C91.9797 18.1475 92.1792 17.5586 92.5236 17.0623C92.8681 16.5659 93.3308 16.198 93.9119 15.9587C94.493 15.7194 95.1527 15.6292 95.8909 15.6881C96.6197 15.7463 97.2476 15.9346 97.7747 16.2529C98.3119 16.5625 98.7119 16.9803 98.9747 17.5061C99.2478 18.0232 99.3582 18.6083 99.306 19.2613C99.2992 19.3465 99.2383 19.394 99.1232 19.4039L97.4542 19.3706L97.4258 19.3683C97.3312 19.3608 97.288 19.3049 97.2963 19.2008C97.3364 18.6992 97.2123 18.2845 96.9242 17.9567C96.6455 17.6296 96.2554 17.446 95.7537 17.406C95.2426 17.3652 94.8188 17.4837 94.4823 17.7616C94.1552 18.0403 93.9717 18.4305 93.9316 18.9321L93.6583 22.3536C93.619 22.8457 93.7387 23.2554 94.0174 23.5824C94.3055 23.9102 94.7052 24.0945 95.2162 24.1354C95.7179 24.1754 96.1322 24.0561 96.4593 23.7774C96.7958 23.4995 96.9837 23.1145 97.023 22.6223C97.0313 22.5182 97.0923 22.4707 97.2059 22.4798L98.8613 22.6834C98.9086 22.6872 98.9453 22.7044 98.9714 22.7351C99.007 22.7665 99.0233 22.8011 99.0203 22.839C98.9681 23.4921 98.7658 24.0569 98.4134 24.5336C98.0705 25.011 97.6089 25.3647 97.0285 25.5946C96.4576 25.8252 95.8078 25.9114 95.079 25.8532Z" fill="#222629"/>
<path d="M104.793 27.2805C104.015 27.1028 103.395 26.7469 102.933 26.2128C102.471 25.6786 102.218 25.0366 102.175 24.2865C102.145 23.8219 102.188 23.335 102.304 22.8259C102.429 22.2798 102.606 21.804 102.835 21.3986C103.204 20.7622 103.711 20.3131 104.355 20.0512C104.999 19.7893 105.71 19.7472 106.488 19.9248C107.247 20.0982 107.85 20.4406 108.298 20.9521C108.749 21.4542 109.006 22.0732 109.072 22.8089C109.115 23.3055 109.078 23.8084 108.961 24.3175C108.847 24.8174 108.675 25.27 108.446 25.6754C108.078 26.3509 107.568 26.8335 106.918 27.1231C106.279 27.4057 105.57 27.4581 104.793 27.2805ZM105.177 25.6004C105.482 25.6702 105.762 25.6369 106.018 25.5004C106.273 25.3639 106.484 25.1442 106.65 24.8414C106.792 24.5621 106.903 24.2466 106.983 23.8949C107.072 23.5061 107.11 23.169 107.097 22.8837C107.068 22.5457 106.966 22.2645 106.793 22.04C106.621 21.8155 106.382 21.6683 106.076 21.5985C105.761 21.5266 105.478 21.5543 105.225 21.6815C104.981 21.8109 104.777 22.0223 104.612 22.3159C104.487 22.5211 104.375 22.8413 104.276 23.2763C104.181 23.6929 104.139 24.0242 104.151 24.2705C104.17 24.6156 104.264 24.905 104.435 25.1388C104.615 25.3747 104.862 25.5285 105.177 25.6004Z" fill="#222629"/>
<path d="M116.069 22.8095C116.781 23.0742 117.274 23.5056 117.548 24.1038C117.822 24.702 117.82 25.3749 117.542 26.1225L115.915 30.5012C115.898 30.5457 115.865 30.5791 115.817 30.6015C115.78 30.6183 115.739 30.6184 115.695 30.6018L114.133 30.0212C114.089 30.0046 114.053 29.9764 114.028 29.9365C114.014 29.8909 114.016 29.8459 114.032 29.8014L115.516 25.8099C115.649 25.4539 115.654 25.1266 115.532 24.828C115.419 24.5327 115.197 24.3239 114.868 24.2015C114.539 24.0791 114.231 24.0911 113.943 24.2375C113.665 24.3872 113.459 24.64 113.327 24.996L111.843 28.9876C111.826 29.0321 111.794 29.0655 111.745 29.0878C111.708 29.1046 111.668 29.1047 111.623 29.0882L110.061 28.5076C110.017 28.491 109.982 28.4628 109.956 28.4228C109.943 28.3773 109.944 28.3323 109.961 28.2878L112.392 21.7465C112.409 21.702 112.436 21.6713 112.472 21.6546C112.521 21.6322 112.568 21.6293 112.612 21.6458L114.174 22.2265C114.219 22.243 114.248 22.2741 114.261 22.3196C114.287 22.3595 114.291 22.4017 114.275 22.4462L114.101 22.9135C114.091 22.9402 114.093 22.9613 114.108 22.9768C114.122 22.9923 114.137 22.9928 114.153 22.9783C114.71 22.5978 115.349 22.5415 116.069 22.8095Z" fill="#222629"/>
<path d="M123.981 28.0776C123.96 28.1202 123.924 28.1501 123.873 28.1674C123.835 28.1804 123.795 28.1764 123.752 28.1554L122.525 27.5516C122.483 27.5307 122.451 27.5415 122.43 27.5841L121.097 30.293C120.958 30.5742 120.911 30.8101 120.955 31.0009C121.007 31.1959 121.161 31.3563 121.416 31.4821L121.838 31.6897C121.881 31.7107 121.906 31.7445 121.915 31.7911C121.936 31.8334 121.937 31.8759 121.916 31.9185L121.318 33.1324C121.272 33.2261 121.194 33.2563 121.083 33.2231C120.717 33.064 120.457 32.9467 120.304 32.8712C119.597 32.5232 119.125 32.1482 118.889 31.7463C118.657 31.3359 118.696 30.8049 119.007 30.1532L120.692 26.7287C120.713 26.6861 120.702 26.6543 120.66 26.6333L119.931 26.2748C119.889 26.2539 119.857 26.2222 119.835 26.1799C119.827 26.1332 119.833 26.0886 119.854 26.046L120.413 24.9088C120.434 24.8662 120.464 24.8384 120.502 24.8254C120.553 24.8081 120.6 24.8099 120.642 24.8309L121.371 25.1894C121.413 25.2104 121.445 25.1995 121.466 25.157L122.214 23.6363C122.235 23.5938 122.265 23.566 122.303 23.553C122.354 23.5357 122.401 23.5375 122.443 23.5585L123.874 24.2629C123.917 24.2839 123.943 24.3177 123.951 24.3644C123.973 24.4067 123.973 24.4491 123.952 24.4917L123.204 26.0123C123.183 26.0549 123.194 26.0867 123.236 26.1077L124.463 26.7115C124.505 26.7324 124.531 26.7663 124.54 26.8129C124.561 26.8552 124.562 26.8977 124.541 26.9403L123.981 28.0776Z" fill="#222629"/>
<path d="M128.257 28.8122C128.781 29.1376 129.192 29.5207 129.488 29.9616C129.789 30.3944 129.956 30.8382 129.986 31.293C130.025 31.7528 129.924 32.1763 129.684 32.5636L127.139 36.6663C127.114 36.7066 127.075 36.7329 127.023 36.7452C126.983 36.7544 126.944 36.7465 126.903 36.7214L125.487 35.843C125.447 35.8179 125.418 35.7833 125.401 35.7391C125.397 35.6918 125.407 35.648 125.432 35.6076L125.68 35.2083C125.695 35.184 125.697 35.1629 125.686 35.1448C125.675 35.1267 125.654 35.1248 125.622 35.139C125.008 35.3725 124.326 35.2565 123.576 34.791C122.946 34.4006 122.533 33.9319 122.336 33.3851C122.139 32.8382 122.226 32.2662 122.596 31.6692C122.981 31.0479 123.497 30.703 124.143 30.6345C124.794 30.5578 125.523 30.7698 126.33 31.2704L127.564 32.0362C127.604 32.0612 127.637 32.0536 127.662 32.0132L127.827 31.747C127.993 31.4807 128.04 31.2249 127.968 30.9796C127.902 30.7262 127.707 30.4994 127.385 30.2992C127.135 30.144 126.897 30.0582 126.673 30.0418C126.456 30.0305 126.274 30.0905 126.125 30.2218C126.046 30.2955 125.969 30.3033 125.893 30.2452L124.549 29.1431C124.462 29.0669 124.44 29.003 124.483 28.9516C124.726 28.6327 125.049 28.4087 125.453 28.2796C125.865 28.1554 126.313 28.1368 126.795 28.2238C127.286 28.3158 127.773 28.5119 128.257 28.8122ZM124.824 33.8056C125.171 34.0208 125.523 34.1107 125.88 34.0753C126.237 34.0399 126.506 33.877 126.686 33.5865L126.956 33.1509C126.981 33.1105 126.974 33.0778 126.933 33.0528L126.062 32.5122C125.699 32.287 125.37 32.1778 125.075 32.1848C124.788 32.1969 124.567 32.3279 124.412 32.5781C124.277 32.7959 124.246 33.0169 124.319 33.2411C124.397 33.4572 124.566 33.6454 124.824 33.8056Z" fill="#222629"/>
<path d="M130.974 39.9625C130.383 39.4856 129.989 38.9235 129.791 38.2762C129.601 37.6349 129.622 36.981 129.855 36.3147C130.027 35.8438 130.316 35.3571 130.721 34.8546C131.121 34.3594 131.529 33.9815 131.947 33.7207C132.53 33.3612 133.155 33.2132 133.824 33.2767C134.492 33.3402 135.122 33.6104 135.713 34.0873C136.305 34.5642 136.703 35.1293 136.908 35.7825C137.12 36.4418 137.118 37.0564 136.902 37.6265C136.819 37.8515 136.741 38.0084 136.669 38.0971L136.651 38.1192C136.598 38.1857 136.528 38.1966 136.442 38.1518L135.015 37.3119L134.993 37.294C134.927 37.2404 134.912 37.1677 134.95 37.0759L135.059 36.8717C135.163 36.6378 135.176 36.3865 135.1 36.1178C135.024 35.8491 134.864 35.6164 134.62 35.4197C134.384 35.2289 134.137 35.1271 133.879 35.1142C133.621 35.1013 133.375 35.1715 133.142 35.3247C132.881 35.4809 132.596 35.7511 132.286 36.1354C131.976 36.5197 131.769 36.8525 131.664 37.1338C131.552 37.4092 131.526 37.6752 131.587 37.932C131.656 38.1948 131.809 38.4215 132.045 38.6123C132.274 38.7971 132.521 38.8989 132.787 38.9178C133.065 38.9352 133.325 38.8636 133.564 38.7029C133.583 38.6941 133.605 38.6749 133.629 38.6453C133.642 38.6439 133.655 38.6358 133.667 38.621C133.745 38.5383 133.827 38.5431 133.911 38.6354L135.025 39.8632C135.087 39.9376 135.091 40.008 135.038 40.0746C134.99 40.1337 134.878 40.2266 134.703 40.3535C134.148 40.7234 133.532 40.867 132.855 40.7842C132.185 40.7074 131.558 40.4335 130.974 39.9625Z" fill="#222629"/>
<path d="M141.8 41.7605C141.766 41.7944 141.723 41.8116 141.669 41.8121C141.629 41.8124 141.592 41.796 141.558 41.7627L140.582 40.8046C140.549 40.7714 140.515 40.7717 140.482 40.8055L138.366 42.9597C138.146 43.1832 138.027 43.3924 138.009 43.5873C137.997 43.7888 138.093 43.9894 138.296 44.189L138.632 44.5183C138.666 44.5516 138.679 44.5917 138.673 44.6388C138.68 44.6857 138.667 44.7261 138.634 44.76L137.686 45.7253C137.613 45.7998 137.529 45.8039 137.434 45.7376C137.136 45.4717 136.927 45.2789 136.805 45.1592C136.242 44.6069 135.912 44.103 135.814 43.6473C135.723 43.1849 135.926 42.6929 136.425 42.1714L139.1 39.4483C139.133 39.4144 139.133 39.3809 139.099 39.3476L138.52 38.7787C138.486 38.7455 138.465 38.7054 138.458 38.6584C138.465 38.6114 138.484 38.5709 138.518 38.537L139.406 37.6327C139.439 37.5989 139.476 37.5817 139.516 37.5814C139.57 37.5809 139.614 37.5973 139.647 37.6306L140.227 38.1994C140.261 38.2327 140.294 38.2324 140.327 38.1985L141.515 36.9893C141.548 36.9555 141.585 36.9384 141.625 36.938C141.679 36.9375 141.723 36.9539 141.757 36.9872L142.895 38.1049C142.929 38.1382 142.942 38.1783 142.936 38.2254C142.943 38.2723 142.93 38.3127 142.897 38.3466L141.709 39.5558C141.676 39.5896 141.676 39.6232 141.71 39.6565L142.686 40.6145C142.719 40.6478 142.733 40.6879 142.727 40.735C142.734 40.7819 142.721 40.8223 142.688 40.8562L141.8 41.7605Z" fill="#222629"/>
<path d="M152.071 48.3719C152.109 48.3445 152.149 48.3342 152.188 48.341C152.241 48.3501 152.282 48.374 152.309 48.4128L153.271 49.7732C153.299 49.8119 153.305 49.8539 153.291 49.8991C153.289 49.9465 153.269 49.984 153.23 50.0114L145.37 55.5715C145.332 55.5989 145.286 55.6081 145.233 55.599C145.193 55.5922 145.16 55.5694 145.132 55.5306L144.203 54.2168C144.148 54.1393 144.141 54.0631 144.181 53.9882L147.027 47.4565C147.039 47.4245 147.036 47.4035 147.017 47.3935C147.006 47.378 146.985 47.3812 146.954 47.4031L142.064 50.8973C142.025 50.9248 141.979 50.9339 141.926 50.9249C141.887 50.9181 141.853 50.8953 141.826 50.8565L140.863 49.4961C140.836 49.4574 140.823 49.4143 140.824 49.3668C140.839 49.3216 140.866 49.2853 140.904 49.2579L148.764 43.6978C148.803 43.6704 148.842 43.6601 148.882 43.6669C148.935 43.676 148.975 43.6999 149.003 43.7386L149.932 45.0525C149.987 45.13 149.994 45.2062 149.954 45.2811L147.123 51.7848C147.111 51.8167 147.11 51.8404 147.121 51.8559C147.14 51.866 147.165 51.86 147.196 51.8381L152.071 48.3719Z" fill="#222629"/>
<path d="M148.002 60.9576C147.641 60.2465 147.518 59.5424 147.633 58.8453C147.747 58.1482 148.079 57.5431 148.628 57.0302C148.965 56.7096 149.367 56.4311 149.833 56.1946C150.332 55.941 150.811 55.7724 151.269 55.6889C151.994 55.5654 152.664 55.6674 153.277 55.9948C153.891 56.3222 154.378 56.8414 154.739 57.5526C155.092 58.2468 155.215 58.9297 155.109 59.6012C155.011 60.2685 154.7 60.8628 154.177 61.3841C153.823 61.7345 153.413 62.028 152.947 62.2644C152.49 62.4966 152.032 62.6544 151.574 62.7379C150.819 62.887 150.122 62.8043 149.483 62.4898C148.857 62.1795 148.364 61.6688 148.002 60.9576ZM149.539 60.1774C149.681 60.4567 149.886 60.6508 150.154 60.7595C150.422 60.8682 150.726 60.8897 151.065 60.8239C151.371 60.7541 151.684 60.6374 152.006 60.4741C152.361 60.2935 152.645 60.107 152.856 59.9146C153.096 59.6753 153.248 59.4175 153.31 59.1411C153.372 58.8647 153.332 58.5868 153.19 58.3075C153.044 58.0196 152.841 57.8192 152.581 57.7062C152.325 57.6016 152.032 57.5801 151.702 57.6416C151.464 57.677 151.146 57.7958 150.748 57.9978C150.367 58.1913 150.086 58.3714 149.905 58.5381C149.651 58.7733 149.489 59.0312 149.419 59.3119C149.353 59.601 149.393 59.8895 149.539 60.1774Z" fill="#222629"/>
<path d="M150.936 67.1095C150.903 67.0103 150.928 66.9323 151.009 66.8757L157.018 62.7525L157.068 62.7213C157.158 62.6918 157.219 62.7266 157.252 62.8259L157.788 64.4638C157.82 64.5631 157.796 64.641 157.714 64.6976L153.945 67.0094C153.921 67.0273 153.912 67.0452 153.918 67.0633C153.924 67.0813 153.941 67.0904 153.972 67.0906L158.392 66.7687C158.491 66.7663 158.556 66.8147 158.589 66.9139L159.054 68.3353C159.086 68.4345 159.062 68.5125 158.98 68.5691L155.229 70.98C155.205 70.9979 155.195 71.0159 155.201 71.0339C155.207 71.052 155.225 71.0611 155.255 71.0612L159.702 70.7755C159.801 70.7731 159.867 70.8215 159.9 70.9208L160.404 72.554C160.421 72.6081 160.415 72.6501 160.385 72.68C160.367 72.7159 160.329 72.7382 160.272 72.7469L152.993 72.9401C152.894 72.9425 152.829 72.8986 152.8 72.8084L152.264 71.1705C152.232 71.0712 152.256 70.9933 152.337 70.9367L155.624 68.7078C155.648 68.6899 155.658 68.6719 155.652 68.6539C155.646 68.6358 155.628 68.6267 155.598 68.6266L151.669 68.8927C151.57 68.8951 151.504 68.8467 151.472 68.7474L150.936 67.1095Z" fill="#222629"/>
<path d="M160.141 81.3494C160.135 81.3022 160.145 81.2581 160.169 81.2173C160.204 81.1848 160.245 81.166 160.292 81.1608L161.567 81.0346C161.596 81.0315 161.614 81.02 161.621 81.0001C161.628 80.9801 161.621 80.9618 161.601 80.945L160.776 79.8322C160.753 79.7965 160.74 79.7693 160.738 79.7504C160.731 79.6843 160.758 79.6288 160.82 79.5838L161.513 79.1063C161.548 79.0833 161.58 79.0702 161.609 79.0671C161.675 79.0598 161.726 79.0876 161.761 79.1506L162.529 80.2696C162.563 80.3137 162.591 80.3105 162.614 80.2602L163.092 79.004C163.106 78.9548 163.135 78.9181 163.18 78.894C163.226 78.8794 163.274 78.8836 163.325 78.9068L164.105 79.2221C164.155 79.2452 164.187 79.2751 164.2 79.3118C164.224 79.3569 164.225 79.4046 164.202 79.4549L163.653 80.7189C163.646 80.7388 163.648 80.7577 163.659 80.7756C163.671 80.7934 163.691 80.8008 163.719 80.7976L164.963 80.6463C165.011 80.6411 165.05 80.6511 165.081 80.6763C165.123 80.7099 165.147 80.7503 165.152 80.7975L165.241 81.6044C165.246 81.6516 165.231 81.6914 165.197 81.7239C165.173 81.7647 165.137 81.7878 165.09 81.793L163.842 81.916C163.814 81.9191 163.796 81.9306 163.789 81.9506C163.782 81.9705 163.784 81.9894 163.795 82.0072L164.606 83.1215C164.629 83.1572 164.641 83.1845 164.643 83.2033C164.651 83.2694 164.623 83.3249 164.561 83.37L163.869 83.8474C163.833 83.8705 163.801 83.8835 163.773 83.8867C163.716 83.8929 163.67 83.8645 163.635 83.8016L162.879 82.6669C162.846 82.6228 162.817 82.6259 162.794 82.6762L162.29 83.9497C162.276 83.999 162.246 84.0309 162.2 84.0455C162.155 84.0696 162.107 84.0701 162.057 84.047L161.277 83.7317C161.227 83.7085 161.189 83.6744 161.165 83.6293C161.152 83.5926 161.157 83.5491 161.18 83.4988L161.742 82.2332C161.759 82.2123 161.762 82.1929 161.75 82.1751C161.739 82.1572 161.719 82.1499 161.691 82.153L160.418 82.3075C160.371 82.3126 160.326 82.2984 160.284 82.2649C160.253 82.2397 160.235 82.2035 160.229 82.1563L160.141 81.3494Z" fill="#222629"/>
<path d="M154.782 95.0643C154.846 94.3264 155.044 93.6907 155.376 93.157C155.717 92.6242 156.161 92.2289 156.707 91.971C157.254 91.7132 157.867 91.6136 158.549 91.6724L161.826 91.9551C162.507 92.0138 163.095 92.217 163.589 92.5646C164.083 92.9121 164.448 93.3772 164.684 93.9598C164.92 94.5424 165.006 95.2027 164.942 95.9405C164.879 96.6689 164.687 97.2956 164.365 97.8206C164.052 98.3559 163.632 98.7533 163.105 99.0127C162.586 99.2825 162 99.3892 161.347 99.3329C161.262 99.3256 161.215 99.2643 161.206 99.1492L161.25 97.4804L161.252 97.4521C161.26 97.3575 161.316 97.3146 161.421 97.3236C161.922 97.3669 162.337 97.2454 162.667 96.9594C162.996 96.6828 163.182 96.2938 163.225 95.7924C163.269 95.2816 163.153 94.8571 162.878 94.5188C162.601 94.19 162.212 94.0039 161.711 93.9607L158.291 93.6658C157.799 93.6233 157.389 93.7404 157.06 94.017C156.73 94.3031 156.543 94.7015 156.499 95.2124C156.456 95.7137 156.573 96.1288 156.849 96.4576C157.125 96.7959 157.509 96.9863 158.001 97.0287C158.105 97.0377 158.152 97.0989 158.142 97.2124L157.928 98.8665C157.924 98.9138 157.907 98.9504 157.876 98.9763C157.844 99.0117 157.809 99.0278 157.772 99.0245C157.119 98.9682 156.555 98.7624 156.081 98.407C155.606 98.061 155.255 97.5971 155.029 97.0154C154.802 96.443 154.72 95.7927 154.782 95.0643Z" fill="#222629"/>
<path d="M153.293 104.771C153.475 103.994 153.835 103.377 154.372 102.918C154.91 102.459 155.553 102.21 156.304 102.172C156.768 102.145 157.255 102.191 157.763 102.311C158.309 102.439 158.783 102.619 159.187 102.851C159.821 103.224 160.267 103.734 160.525 104.38C160.782 105.026 160.82 105.737 160.637 106.513C160.459 107.271 160.113 107.872 159.598 108.317C159.093 108.764 158.473 109.018 157.737 109.079C157.24 109.118 156.737 109.078 156.229 108.958C155.73 108.841 155.278 108.666 154.874 108.435C154.201 108.062 153.722 107.549 153.436 106.897C153.158 106.256 153.11 105.547 153.293 104.771ZM154.97 105.165C154.899 105.47 154.93 105.751 155.065 106.007C155.2 106.263 155.418 106.475 155.72 106.644C155.998 106.787 156.313 106.9 156.664 106.983C157.052 107.074 157.389 107.114 157.675 107.104C158.013 107.076 158.295 106.976 158.52 106.805C158.746 106.634 158.895 106.396 158.966 106.091C159.04 105.776 159.014 105.492 158.889 105.238C158.761 104.994 158.551 104.788 158.258 104.622C158.054 104.496 157.735 104.382 157.3 104.28C156.884 104.182 156.553 104.138 156.307 104.148C155.962 104.165 155.672 104.257 155.437 104.426C155.2 104.605 155.044 104.851 154.97 105.165Z" fill="#222629"/>
<path d="M157.694 116.07C157.424 116.78 156.99 117.27 156.39 117.541C155.79 117.811 155.117 117.805 154.371 117.522L150.003 115.866C149.959 115.849 149.926 115.817 149.903 115.768C149.887 115.731 149.887 115.69 149.904 115.646L150.494 114.088C150.511 114.043 150.54 114.008 150.58 113.983C150.625 113.97 150.67 113.972 150.715 113.988L154.697 115.498C155.052 115.632 155.379 115.64 155.679 115.519C155.975 115.408 156.185 115.188 156.309 114.86C156.434 114.531 156.424 114.223 156.279 113.935C156.131 113.655 155.88 113.448 155.525 113.314L151.543 111.804C151.498 111.788 151.465 111.755 151.443 111.706C151.426 111.669 151.427 111.628 151.443 111.584L152.034 110.026C152.051 109.981 152.079 109.946 152.119 109.921C152.165 109.908 152.21 109.91 152.254 109.927L158.78 112.4C158.824 112.417 158.855 112.443 158.871 112.48C158.893 112.529 158.896 112.576 158.879 112.62L158.289 114.178C158.272 114.223 158.241 114.252 158.195 114.265C158.155 114.29 158.113 114.294 158.068 114.278L157.602 114.101C157.576 114.091 157.554 114.093 157.539 114.107C157.523 114.122 157.523 114.137 157.537 114.152C157.914 114.712 157.966 115.351 157.694 116.07Z" fill="#222629"/>
<path d="M152.373 123.951C152.331 123.929 152.301 123.893 152.284 123.842C152.272 123.804 152.276 123.764 152.297 123.721L152.909 122.498C152.93 122.456 152.919 122.424 152.877 122.403L150.176 121.052C149.896 120.912 149.661 120.863 149.469 120.906C149.274 120.957 149.113 121.109 148.985 121.364L148.775 121.784C148.754 121.827 148.72 121.852 148.673 121.861C148.631 121.882 148.588 121.882 148.546 121.861L147.336 121.256C147.242 121.209 147.213 121.13 147.247 121.02C147.408 120.655 147.527 120.396 147.603 120.243C147.956 119.538 148.334 119.069 148.737 118.835C149.149 118.606 149.68 118.649 150.33 118.963L153.743 120.671C153.786 120.692 153.818 120.681 153.839 120.639L154.202 119.913C154.223 119.87 154.255 119.838 154.298 119.817C154.344 119.809 154.389 119.815 154.431 119.836L155.565 120.403C155.607 120.425 155.635 120.454 155.648 120.492C155.665 120.543 155.663 120.59 155.641 120.633L155.278 121.359C155.257 121.401 155.268 121.433 155.31 121.454L156.826 122.212C156.868 122.234 156.896 122.263 156.909 122.302C156.926 122.352 156.924 122.399 156.902 122.442L156.189 123.868C156.167 123.911 156.134 123.936 156.087 123.945C156.044 123.966 156.002 123.966 155.959 123.945L154.444 123.187C154.401 123.165 154.369 123.176 154.348 123.218L153.736 124.441C153.715 124.484 153.681 124.509 153.635 124.518C153.592 124.539 153.55 124.539 153.507 124.518L152.373 123.951Z" fill="#222629"/>
<path d="M151.613 128.22C151.285 128.742 150.899 129.15 150.456 129.444C150.022 129.742 149.577 129.905 149.122 129.933C148.662 129.969 148.239 129.866 147.853 129.623L143.767 127.052C143.726 127.026 143.7 126.988 143.688 126.935C143.679 126.896 143.688 126.856 143.713 126.816L144.6 125.406C144.626 125.366 144.66 125.337 144.705 125.32C144.752 125.316 144.796 125.327 144.836 125.352L145.234 125.602C145.258 125.618 145.279 125.62 145.297 125.609C145.315 125.598 145.317 125.576 145.303 125.545C145.074 124.93 145.194 124.248 145.664 123.501C146.059 122.874 146.53 122.464 147.078 122.27C147.626 122.076 148.198 122.167 148.792 122.541C149.411 122.93 149.753 123.448 149.817 124.094C149.89 124.746 149.673 125.473 149.168 126.277L148.394 127.507C148.369 127.547 148.376 127.579 148.416 127.605L148.681 127.772C148.947 127.938 149.202 127.987 149.448 127.917C149.702 127.853 149.93 127.66 150.132 127.338C150.289 127.089 150.376 126.852 150.394 126.628C150.407 126.412 150.348 126.229 150.217 126.079C150.144 126 150.137 125.922 150.195 125.847L151.306 124.51C151.383 124.423 151.447 124.402 151.498 124.445C151.815 124.69 152.037 125.014 152.164 125.419C152.285 125.832 152.301 126.28 152.211 126.762C152.116 127.252 151.917 127.738 151.613 128.22ZM146.642 124.755C146.424 125.101 146.332 125.452 146.365 125.81C146.399 126.167 146.56 126.437 146.849 126.619L147.283 126.892C147.323 126.917 147.356 126.91 147.381 126.869L147.927 126.001C148.155 125.64 148.266 125.312 148.261 125.017C148.251 124.73 148.121 124.508 147.872 124.351C147.655 124.215 147.434 124.182 147.21 124.254C146.993 124.331 146.804 124.498 146.642 124.755Z" fill="#222629"/>
<path d="M140.445 130.868C140.926 130.279 141.491 129.888 142.139 129.695C142.782 129.509 143.435 129.534 144.1 129.771C144.57 129.946 145.055 130.238 145.555 130.647C146.047 131.049 146.423 131.46 146.681 131.88C147.037 132.465 147.181 133.091 147.113 133.759C147.045 134.427 146.771 135.055 146.291 135.644C145.81 136.232 145.242 136.626 144.588 136.827C143.927 137.035 143.313 137.03 142.744 136.81C142.519 136.725 142.363 136.646 142.275 136.574L142.253 136.556C142.187 136.502 142.176 136.432 142.222 136.347L143.07 134.925L143.088 134.903C143.143 134.837 143.215 134.823 143.307 134.861L143.51 134.972C143.744 135.077 143.995 135.092 144.264 135.018C144.533 134.943 144.767 134.785 144.965 134.542C145.157 134.307 145.261 134.06 145.275 133.802C145.29 133.545 145.221 133.298 145.069 133.064C144.915 132.803 144.646 132.516 144.264 132.204C143.882 131.891 143.55 131.682 143.27 131.575C142.995 131.461 142.729 131.434 142.472 131.494C142.209 131.56 141.981 131.712 141.789 131.947C141.603 132.175 141.499 132.421 141.479 132.687C141.459 132.965 141.529 133.225 141.689 133.465C141.697 133.484 141.716 133.506 141.746 133.53C141.747 133.544 141.755 133.556 141.77 133.568C141.852 133.648 141.847 133.729 141.754 133.813L140.519 134.919C140.444 134.98 140.374 134.984 140.308 134.93C140.249 134.882 140.157 134.77 140.031 134.594C139.664 134.037 139.525 133.42 139.612 132.743C139.693 132.073 139.971 131.448 140.445 130.868Z" fill="#222629"/>
<path d="M138.58 141.681C138.546 141.648 138.529 141.604 138.529 141.55C138.529 141.51 138.545 141.473 138.579 141.439L139.543 140.47C139.577 140.436 139.576 140.403 139.543 140.369L137.402 138.24C137.18 138.019 136.971 137.899 136.777 137.879C136.575 137.866 136.374 137.961 136.173 138.163L135.842 138.496C135.808 138.53 135.768 138.543 135.721 138.537C135.674 138.543 135.634 138.53 135.6 138.497L134.641 137.542C134.567 137.469 134.563 137.385 134.63 137.291C134.898 136.995 135.092 136.786 135.212 136.665C135.768 136.106 136.274 135.779 136.73 135.684C137.194 135.595 137.684 135.802 138.203 136.304L140.909 138.996C140.942 139.029 140.976 139.029 141.009 138.996L141.582 138.42C141.615 138.386 141.656 138.366 141.703 138.359C141.75 138.366 141.79 138.386 141.824 138.419L142.722 139.313C142.756 139.347 142.773 139.384 142.773 139.424C142.773 139.478 142.756 139.521 142.723 139.555L142.15 140.131C142.117 140.164 142.117 140.198 142.151 140.231L143.352 141.427C143.386 141.46 143.403 141.497 143.403 141.537C143.403 141.591 143.387 141.635 143.353 141.668L142.228 142.799C142.195 142.833 142.154 142.846 142.107 142.84C142.06 142.847 142.02 142.833 141.986 142.8L140.785 141.605C140.751 141.571 140.718 141.571 140.684 141.605L139.72 142.574C139.686 142.608 139.646 142.621 139.599 142.615C139.552 142.622 139.512 142.608 139.478 142.575L138.58 141.681Z" fill="#222629"/>
<path d="M131.902 151.911C131.929 151.95 131.939 151.989 131.932 152.029C131.923 152.082 131.899 152.122 131.86 152.149L130.493 153.103C130.454 153.13 130.412 153.136 130.367 153.121C130.32 153.119 130.282 153.099 130.255 153.06L124.745 145.165C124.718 145.126 124.709 145.08 124.718 145.027C124.726 144.988 124.749 144.954 124.787 144.927L126.107 144.006C126.185 143.952 126.261 143.945 126.336 143.985L132.849 146.873C132.881 146.886 132.902 146.882 132.912 146.864C132.928 146.853 132.925 146.832 132.903 146.801L129.44 141.888C129.413 141.85 129.404 141.804 129.413 141.751C129.421 141.711 129.444 141.678 129.482 141.651L130.849 140.697C130.888 140.67 130.931 140.657 130.978 140.659C131.024 140.673 131.06 140.7 131.087 140.739L136.597 148.634C136.624 148.673 136.634 148.712 136.627 148.752C136.618 148.805 136.594 148.845 136.555 148.872L135.235 149.793C135.157 149.848 135.081 149.855 135.006 149.814L128.521 146.942C128.489 146.929 128.465 146.928 128.449 146.939C128.439 146.958 128.445 146.983 128.467 147.014L131.902 151.911Z" fill="#222629"/>
<path d="M119.342 147.763C120.056 147.406 120.76 147.287 121.457 147.406C122.153 147.525 122.756 147.861 123.266 148.413C123.584 148.753 123.86 149.156 124.093 149.623C124.344 150.124 124.509 150.604 124.59 151.063C124.709 151.789 124.603 152.458 124.271 153.069C123.94 153.681 123.418 154.165 122.704 154.521C122.008 154.869 121.324 154.988 120.653 154.877C119.987 154.775 119.394 154.461 118.876 153.935C118.528 153.578 118.237 153.166 118.004 152.699C117.775 152.24 117.62 151.782 117.539 151.323C117.395 150.567 117.482 149.871 117.801 149.234C118.115 148.61 118.629 148.119 119.342 147.763ZM120.113 149.304C119.832 149.444 119.637 149.648 119.527 149.916C119.416 150.183 119.393 150.487 119.456 150.826C119.524 151.132 119.639 151.446 119.8 151.769C119.978 152.126 120.163 152.41 120.354 152.623C120.592 152.865 120.849 153.018 121.125 153.081C121.401 153.145 121.679 153.107 121.959 152.967C122.248 152.823 122.45 152.621 122.564 152.362C122.671 152.107 122.694 151.814 122.635 151.483C122.601 151.245 122.484 150.927 122.284 150.527C122.093 150.145 121.915 149.863 121.749 149.68C121.516 149.425 121.259 149.262 120.979 149.19C120.69 149.122 120.401 149.16 120.113 149.304Z" fill="#222629"/>
<path d="M113.173 150.656C113.273 150.625 113.35 150.649 113.406 150.731L117.491 156.766L117.522 156.816C117.551 156.907 117.516 156.968 117.416 157L115.775 157.525C115.675 157.557 115.598 157.532 115.542 157.45L113.254 153.666C113.236 153.642 113.218 153.633 113.2 153.638C113.182 153.644 113.173 153.662 113.173 153.692L113.466 158.114C113.468 158.213 113.419 158.279 113.32 158.311L111.895 158.766C111.796 158.798 111.718 158.773 111.662 158.692L109.275 154.924C109.257 154.9 109.24 154.891 109.221 154.897C109.203 154.903 109.194 154.92 109.194 154.95L109.451 159.399C109.453 159.498 109.404 159.564 109.305 159.596L107.668 160.089C107.614 160.107 107.572 160.1 107.542 160.07C107.506 160.051 107.484 160.014 107.476 159.956L107.329 152.676C107.328 152.577 107.372 152.513 107.462 152.484L109.104 151.959C109.203 151.927 109.281 151.952 109.337 152.034L111.545 155.335C111.563 155.359 111.58 155.368 111.599 155.362C111.617 155.356 111.626 155.339 111.626 155.309L111.385 151.378C111.383 151.279 111.432 151.213 111.532 151.182L113.173 150.656Z" fill="#222629"/>
<path d="M98.8753 159.77C98.9225 159.765 98.9664 159.775 99.0072 159.8C99.0394 159.835 99.058 159.876 99.0629 159.923L99.181 161.199C99.1839 161.228 99.1953 161.245 99.2152 161.253C99.235 161.26 99.2534 161.254 99.2704 161.233L100.388 160.415C100.424 160.392 100.452 160.38 100.47 160.378C100.537 160.371 100.592 160.399 100.637 160.461L101.11 161.157C101.132 161.192 101.145 161.225 101.148 161.253C101.155 161.319 101.127 161.37 101.064 161.405L99.9399 162.166C99.8956 162.199 99.8985 162.227 99.9487 162.251L101.202 162.736C101.251 162.75 101.288 162.78 101.311 162.825C101.326 162.872 101.321 162.92 101.298 162.97L100.977 163.748C100.954 163.798 100.924 163.83 100.887 163.843C100.842 163.867 100.794 163.867 100.744 163.844L99.4835 163.287C99.4636 163.279 99.4447 163.281 99.4268 163.293C99.4089 163.304 99.4014 163.324 99.4043 163.352L99.5478 164.598C99.5527 164.645 99.5425 164.684 99.5171 164.715C99.4832 164.757 99.4427 164.78 99.3955 164.785L98.588 164.869C98.5408 164.874 98.501 164.859 98.4688 164.824C98.4281 164.8 98.4053 164.764 98.4004 164.717L98.2852 163.469C98.2823 163.44 98.2709 163.422 98.251 163.415C98.2311 163.407 98.2122 163.409 98.1943 163.421L97.0749 164.224C97.0391 164.247 97.0117 164.259 96.9928 164.261C96.9267 164.268 96.8714 164.24 96.8267 164.178L96.3537 163.483C96.3309 163.447 96.318 163.415 96.315 163.387C96.3092 163.33 96.3378 163.284 96.401 163.249L97.5404 162.501C97.5847 162.467 97.5818 162.439 97.5316 162.416L96.2614 161.903C96.2122 161.889 96.1804 161.859 96.1661 161.813C96.1423 161.767 96.1421 161.72 96.1656 161.669L96.4858 160.892C96.5092 160.842 96.5436 160.805 96.5888 160.781C96.6256 160.767 96.6691 160.772 96.7193 160.796L97.9812 161.367C98.0021 161.384 98.0215 161.386 98.0394 161.375C98.0573 161.363 98.0648 161.344 98.0618 161.315L97.9154 160.042C97.9105 159.995 97.925 159.95 97.9589 159.908C97.9842 159.877 98.0206 159.859 98.0678 159.854L98.8753 159.77Z" fill="#222629"/>
<path d="M85.1928 154.326C85.9302 154.395 86.5647 154.596 87.0962 154.932C87.6269 155.276 88.0194 155.723 88.2738 156.271C88.5282 156.819 88.6238 157.433 88.5608 158.114L88.2573 161.39C88.1943 162.071 87.9874 162.657 87.6367 163.149C87.286 163.641 86.8186 164.003 86.2345 164.235C85.6505 164.467 84.9897 164.549 84.2523 164.48C83.5243 164.413 82.8988 164.217 82.3758 163.892C81.8425 163.575 81.4478 163.153 81.1917 162.623C80.9253 162.103 80.8222 161.516 80.8827 160.864C80.8905 160.779 80.9521 160.732 81.0673 160.724L82.7357 160.778L82.7641 160.781C82.8586 160.79 82.9011 160.846 82.8915 160.95C82.845 161.451 82.9638 161.867 83.2478 162.199C83.5223 162.529 83.9101 162.718 84.4112 162.764C84.9217 162.812 85.347 162.698 85.687 162.425C86.0176 162.15 86.2061 161.762 86.2525 161.261L86.5691 157.844C86.6146 157.352 86.5001 156.941 86.2256 156.61C85.9416 156.279 85.5444 156.09 85.0338 156.042C84.5327 155.996 84.1169 156.11 83.7864 156.384C83.4463 156.658 83.2536 157.041 83.208 157.532C83.1984 157.636 83.1369 157.683 83.0234 157.673L81.3707 157.448C81.3235 157.444 81.287 157.426 81.2612 157.395C81.226 157.363 81.2102 157.328 81.2137 157.29C81.2741 156.638 81.4835 156.076 81.8419 155.604C82.1909 155.13 82.657 154.783 83.2402 154.56C83.8139 154.337 84.4648 154.259 85.1928 154.326Z" fill="#222629"/>
<path d="M75.4938 152.774C76.2689 152.962 76.8842 153.326 77.3396 153.866C77.7951 154.406 78.0394 155.051 78.0726 155.802C78.0968 156.267 78.0475 156.753 77.9246 157.26C77.7928 157.805 77.6099 158.278 77.3757 158.681C76.9981 159.312 76.4856 159.755 75.8381 160.008C75.1905 160.262 74.4792 160.295 73.704 160.107C72.9473 159.924 72.3482 159.574 71.9068 159.057C71.4631 158.549 71.2132 157.927 71.1571 157.19C71.1211 156.693 71.1645 156.191 71.2874 155.683C71.408 155.185 71.5854 154.734 71.8196 154.332C72.1969 153.661 72.7126 153.185 73.3669 152.904C74.0096 152.63 74.7186 152.586 75.4938 152.774ZM75.0883 154.449C74.7838 154.375 74.5031 154.405 74.2461 154.538C73.9892 154.671 73.7755 154.888 73.605 155.189C73.4597 155.466 73.3446 155.78 73.2597 156.131C73.1659 156.519 73.1235 156.855 73.1326 157.141C73.1581 157.479 73.2558 157.762 73.4256 157.988C73.5954 158.215 73.8326 158.365 74.1371 158.439C74.4509 158.515 74.7351 158.491 74.9898 158.367C75.2353 158.241 75.4421 158.032 75.6104 157.741C75.7378 157.537 75.854 157.218 75.959 156.785C76.0595 156.369 76.1054 156.038 76.0967 155.792C76.0826 155.447 75.9917 155.156 75.8242 154.92C75.6474 154.682 75.4021 154.525 75.0883 154.449Z" fill="#222629"/>
<path d="M64.1724 157.104C63.4638 156.831 62.9764 156.393 62.71 155.791C62.4437 155.19 62.4542 154.517 62.7416 153.773L64.4249 149.415C64.442 149.371 64.4751 149.338 64.5242 149.316C64.561 149.3 64.6016 149.3 64.6459 149.317L66.2003 149.918C66.2446 149.935 66.2793 149.964 66.3045 150.004C66.3174 150.05 66.3152 150.095 66.2981 150.139L64.7637 154.111C64.6268 154.466 64.6175 154.793 64.7357 155.093C64.845 155.39 65.0635 155.601 65.3912 155.728C65.7189 155.854 66.0274 155.846 66.3166 155.704C66.597 155.557 66.8056 155.307 66.9425 154.953L68.477 150.981C68.4941 150.936 68.5272 150.903 68.5763 150.881C68.6131 150.865 68.6537 150.866 68.698 150.883L70.2524 151.483C70.2967 151.5 70.3314 151.529 70.3565 151.569C70.3694 151.615 70.3673 151.66 70.3502 151.704L67.8355 158.214C67.8184 158.258 67.7915 158.289 67.7546 158.305C67.7055 158.327 67.6588 158.329 67.6145 158.312L66.0601 157.711C66.0159 157.694 65.9873 157.663 65.9744 157.617C65.9492 157.577 65.9452 157.535 65.9623 157.49L66.1419 157.025C66.1522 156.999 66.1502 156.978 66.1359 156.962C66.1216 156.946 66.1066 156.946 66.0909 156.96C65.5293 157.333 64.8898 157.381 64.1724 157.104Z" fill="#222629"/>
<path d="M56.3227 151.733C56.3442 151.691 56.3804 151.661 56.4315 151.644C56.4698 151.632 56.5101 151.636 56.5524 151.658L57.7713 152.277C57.8137 152.299 57.8456 152.289 57.8671 152.246L59.235 149.554C59.3769 149.275 59.4273 149.04 59.3861 148.848C59.3364 148.653 59.1846 148.49 58.9307 148.361L58.5117 148.148C58.4693 148.127 58.4441 148.093 58.4359 148.046C58.4149 148.003 58.4152 147.961 58.4367 147.919L59.0497 146.712C59.097 146.619 59.1758 146.59 59.2859 146.625C59.65 146.789 59.9083 146.909 60.0606 146.987C60.7632 147.344 61.2299 147.725 61.4608 148.129C61.6874 148.543 61.6415 149.073 61.3231 149.721L59.5939 153.124C59.5723 153.166 59.5828 153.198 59.6251 153.219L60.3488 153.587C60.3911 153.609 60.4228 153.641 60.4437 153.683C60.4519 153.73 60.4452 153.775 60.4237 153.817L59.8495 154.947C59.828 154.989 59.7981 155.017 59.7598 155.029C59.7087 155.046 59.662 155.043 59.6197 155.022L58.896 154.654C58.8536 154.633 58.8217 154.643 58.8002 154.685L58.0324 156.196C58.0109 156.239 57.981 156.266 57.9427 156.279C57.8916 156.295 57.8449 156.293 57.8026 156.271L56.3806 155.549C56.3382 155.527 56.313 155.493 56.3048 155.446C56.2838 155.404 56.2841 155.361 56.3056 155.319L57.0734 153.808C57.095 153.766 57.0845 153.734 57.0422 153.712L55.8233 153.093C55.781 153.071 55.7558 153.037 55.7476 152.99C55.7266 152.948 55.7269 152.905 55.7484 152.863L56.3227 151.733Z" fill="#222629"/>
<path d="M52.0607 150.946C51.5404 150.614 51.1349 150.226 50.8442 149.782C50.5483 149.345 50.3879 148.899 50.363 148.444C50.33 147.984 50.4361 147.561 50.6813 147.177L53.2783 143.107C53.3038 143.067 53.3428 143.041 53.3953 143.03C53.4346 143.021 53.4743 143.029 53.5143 143.055L54.9191 143.951C54.9591 143.977 54.9874 144.012 55.0041 144.056C55.0077 144.104 54.9967 144.147 54.9712 144.187L54.7184 144.583C54.7031 144.607 54.7009 144.629 54.7118 144.647C54.7227 144.665 54.7438 144.667 54.7751 144.653C55.3922 144.428 56.0729 144.552 56.8173 145.027C57.4417 145.426 57.8489 145.899 58.039 146.449C58.2291 146.998 58.1352 147.569 57.7573 148.161C57.3641 148.778 56.8441 149.116 56.1973 149.176C55.5455 149.245 54.8194 149.024 54.0189 148.513L52.7943 147.731C52.7543 147.706 52.7215 147.713 52.6959 147.753L52.5274 148.017C52.3589 148.281 52.3087 148.537 52.3768 148.783C52.4399 149.037 52.6315 149.266 52.9517 149.471C53.1998 149.629 53.436 149.718 53.6603 149.737C53.8765 149.751 54.0597 149.693 54.2099 149.564C54.2901 149.491 54.3677 149.484 54.4426 149.543L55.7728 150.662C55.8586 150.74 55.8797 150.804 55.8359 150.855C55.5894 151.171 55.2633 151.39 54.8575 151.514C54.4437 151.633 53.9962 151.646 53.515 151.553C53.0257 151.455 52.541 151.253 52.0607 150.946ZM55.5567 145.997C55.2125 145.777 54.8616 145.683 54.504 145.714C54.1464 145.745 53.8757 145.904 53.6918 146.192L53.4161 146.625C53.3905 146.665 53.3978 146.697 53.4378 146.723L54.3022 147.274C54.6624 147.504 54.99 147.618 55.2849 147.614C55.5719 147.606 55.7945 147.478 55.9528 147.229C56.0907 147.013 56.1245 146.793 56.0541 146.568C55.9786 146.351 55.8128 146.16 55.5567 145.997Z" fill="#222629"/>
<path d="M49.4823 139.761C50.0675 140.245 50.4547 140.812 50.6441 141.462C50.8262 142.106 50.7967 142.759 50.5558 143.423C50.3775 143.891 50.0824 144.374 49.6708 144.872C49.2651 145.362 48.8518 145.735 48.4308 145.99C47.8436 146.342 47.2162 146.482 46.5485 146.41C45.8809 146.338 45.2545 146.06 44.6693 145.576C44.0842 145.092 43.6932 144.522 43.4965 143.866C43.2925 143.204 43.302 142.589 43.525 142.022C43.6118 141.798 43.6915 141.642 43.7642 141.554L43.7823 141.532C43.8368 141.467 43.9067 141.457 43.992 141.503L45.4081 142.36L45.43 142.379C45.4958 142.433 45.5094 142.506 45.4709 142.597L45.3585 142.8C45.2523 143.033 45.2355 143.284 45.3081 143.553C45.3807 143.823 45.5377 144.058 45.7791 144.257C46.0132 144.451 46.2591 144.556 46.5169 144.572C46.7746 144.588 47.0212 144.521 47.2565 144.371C47.5186 144.218 47.8071 143.952 48.1219 143.571C48.4367 143.191 48.6483 142.861 48.7568 142.581C48.8726 142.307 48.9015 142.041 48.8435 141.784C48.7782 141.52 48.6285 141.291 48.3945 141.098C48.1677 140.91 47.9218 140.805 47.6567 140.783C47.3782 140.762 47.1183 140.83 46.8769 140.988C46.8575 140.996 46.8357 141.015 46.8114 141.045C46.7981 141.046 46.7853 141.054 46.7732 141.068C46.6933 141.15 46.6118 141.144 46.5288 141.051L45.4306 139.809C45.3695 139.734 45.3662 139.664 45.4207 139.598C45.4692 139.539 45.5819 139.448 45.759 139.323C46.3182 138.96 46.9359 138.824 47.6122 138.916C48.2811 139.001 48.9045 139.283 49.4823 139.761Z" fill="#222629"/>
<path d="M38.6812 137.827C38.7149 137.794 38.7586 137.777 38.8123 137.777C38.8525 137.777 38.8894 137.794 38.9229 137.828L39.8862 138.798C39.9196 138.832 39.9532 138.832 39.9869 138.799L42.1296 136.671C42.3519 136.451 42.4735 136.243 42.4944 136.048C42.5085 135.847 42.4153 135.645 42.2146 135.443L41.8835 135.11C41.85 135.076 41.8367 135.036 41.8436 134.989C41.8371 134.942 41.8506 134.901 41.8843 134.868L42.8445 133.915C42.9186 133.841 43.0026 133.838 43.0963 133.905C43.3907 134.175 43.5982 134.371 43.7186 134.492C44.2738 135.051 44.5976 135.559 44.6899 136.016C44.7755 136.48 44.5656 136.969 44.0602 137.484L41.3515 140.173C41.3178 140.207 41.3177 140.24 41.3512 140.274L41.9231 140.85C41.9566 140.884 41.9766 140.924 41.9831 140.971C41.9762 141.018 41.9559 141.058 41.9222 141.092L41.0227 141.985C40.989 142.018 40.952 142.035 40.9118 142.035C40.858 142.035 40.8145 142.018 40.781 141.984L40.2091 141.408C40.1756 141.374 40.142 141.374 40.1084 141.408L38.9056 142.602C38.8719 142.635 38.8349 142.652 38.7946 142.652C38.7409 142.651 38.6974 142.634 38.6639 142.601L37.5401 141.469C37.5066 141.435 37.4933 141.395 37.5002 141.348C37.4937 141.301 37.5072 141.261 37.5409 141.227L38.7437 140.033C38.7774 140 38.7775 139.966 38.744 139.932L37.7808 138.962C37.7473 138.928 37.734 138.888 37.7409 138.841C37.7344 138.794 37.7479 138.754 37.7816 138.72L38.6812 137.827Z" fill="#222629"/>
<path d="M28.4925 131.084C28.4534 131.111 28.4141 131.121 28.3745 131.114C28.3217 131.104 28.2818 131.079 28.2549 131.04L27.3099 129.668C27.283 129.629 27.2771 129.587 27.2922 129.542C27.2941 129.494 27.3146 129.457 27.3537 129.43L35.2836 123.97C35.3227 123.943 35.3687 123.935 35.4215 123.944C35.4611 123.952 35.4944 123.975 35.5213 124.014L36.434 125.34C36.4878 125.418 36.4942 125.494 36.4532 125.568L33.5244 132.064C33.5117 132.095 33.5146 132.116 33.5332 132.127C33.544 132.142 33.565 132.139 33.5963 132.118L38.5305 128.686C38.5696 128.659 38.6155 128.65 38.6684 128.66C38.708 128.667 38.7413 128.691 38.7682 128.73L39.7132 130.102C39.7401 130.141 39.7526 130.185 39.7507 130.232C39.7355 130.277 39.7084 130.313 39.6693 130.34L31.7394 135.8C31.7003 135.827 31.6609 135.837 31.6213 135.829C31.5685 135.819 31.5286 135.795 31.5017 135.756L30.589 134.43C30.5352 134.352 30.5288 134.276 30.5698 134.202L33.4833 127.734C33.4959 127.703 33.4969 127.679 33.4861 127.663C33.4676 127.653 33.4426 127.659 33.4113 127.68L28.4925 131.084Z" fill="#222629"/>
<path d="M32.7204 118.55C33.0724 119.266 33.1867 119.972 33.0632 120.667C32.9398 121.363 32.6004 121.964 32.0451 122.47C31.7033 122.786 31.2981 123.059 30.8295 123.29C30.3268 123.537 29.8459 123.699 29.3868 123.777C28.6599 123.891 27.9919 123.781 27.3826 123.446C26.7733 123.11 26.2927 122.585 25.9407 121.869C25.597 121.171 25.4826 120.486 25.5974 119.816C25.7037 119.15 26.0218 118.56 26.5517 118.045C26.9106 117.699 27.3244 117.411 27.793 117.181C28.2531 116.954 28.7127 116.802 29.1718 116.725C29.9285 116.585 30.6243 116.677 31.2592 117C31.8813 117.318 32.3684 117.835 32.7204 118.55ZM31.174 119.311C31.0357 119.03 30.8332 118.833 30.5664 118.721C30.2996 118.609 29.9961 118.584 29.656 118.645C29.3499 118.711 29.0349 118.824 28.7111 118.983C28.3533 119.159 28.0676 119.342 27.8541 119.531C27.6105 119.768 27.4559 120.024 27.3904 120.299C27.3249 120.575 27.3613 120.853 27.4996 121.134C27.6421 121.424 27.8425 121.627 28.1007 121.743C28.3548 121.851 28.6476 121.876 28.9792 121.819C29.2172 121.787 29.5365 121.672 29.9369 121.475C30.3203 121.286 30.6038 121.11 30.7875 120.946C31.0438 120.714 31.2089 120.458 31.283 120.178C31.3528 119.89 31.3165 119.601 31.174 119.311Z" fill="#222629"/>
<path d="M29.8669 112.364C29.8981 112.464 29.8727 112.541 29.7906 112.597L23.7295 116.643L23.6794 116.674C23.5888 116.702 23.5279 116.666 23.4967 116.567L22.9819 114.922C22.9507 114.822 22.9762 114.745 23.0583 114.689L26.8568 112.426C26.8811 112.408 26.8905 112.39 26.8848 112.372C26.8791 112.354 26.8613 112.345 26.8312 112.344L22.4074 112.61C22.3083 112.611 22.2431 112.561 22.2119 112.462L21.7652 111.035C21.734 110.935 21.7595 110.857 21.8416 110.802L25.6239 108.439C25.6482 108.421 25.6576 108.404 25.6519 108.385C25.6462 108.367 25.6284 108.358 25.5984 108.357L21.1482 108.586C21.049 108.587 20.9839 108.538 20.9527 108.439L20.4694 106.799C20.4523 106.745 20.4591 106.703 20.4897 106.673C20.5084 106.638 20.5463 106.616 20.6035 106.608L27.8847 106.508C27.9838 106.506 28.0476 106.551 28.0759 106.642L28.5907 108.286C28.6219 108.386 28.5964 108.464 28.5143 108.519L25.1992 110.706C25.1749 110.724 25.1656 110.741 25.1712 110.759C25.1769 110.778 25.1947 110.787 25.2248 110.788L29.1567 110.572C29.2558 110.57 29.321 110.62 29.3522 110.719L29.8669 112.364Z" fill="#222629"/>
<path d="M20.8442 98.0087C20.8488 98.0559 20.8388 98.0998 20.8141 98.1404C20.7791 98.1724 20.7379 98.1907 20.6907 98.1953L19.4135 98.3054C19.3852 98.3081 19.3672 98.3194 19.3596 98.3392C19.352 98.359 19.3586 98.3775 19.3793 98.3945L20.1898 99.5177C20.2124 99.5536 20.2246 99.581 20.2264 99.5999C20.2329 99.6661 20.2048 99.7213 20.1424 99.7655L19.4439 100.234C19.4079 100.257 19.3758 100.269 19.3474 100.272C19.2813 100.279 19.2308 100.25 19.196 100.187L18.4422 99.0581C18.4093 99.0137 18.3809 99.0164 18.3572 99.0664L17.8635 100.316C17.8492 100.366 17.8194 100.402 17.774 100.425C17.7276 100.439 17.6795 100.435 17.6295 100.411L16.8537 100.086C16.8037 100.062 16.7721 100.032 16.759 99.9947C16.7355 99.9493 16.7356 99.9016 16.7594 99.8516L17.3239 98.5946C17.3315 98.5748 17.3297 98.5559 17.3184 98.5379C17.3071 98.5199 17.2873 98.5123 17.2589 98.5151L16.0129 98.6507C15.9656 98.6553 15.9264 98.6448 15.8953 98.6192C15.8538 98.5851 15.8308 98.5444 15.8262 98.4972L15.7475 97.6892C15.7429 97.6419 15.7582 97.6023 15.7932 97.5702C15.8179 97.5297 15.8538 97.5071 15.9011 97.5025L17.1499 97.3953C17.1782 97.3925 17.1962 97.3812 17.2038 97.3614C17.2114 97.3416 17.2096 97.3227 17.1983 97.3047L16.402 96.1802C16.3794 96.1442 16.3672 96.1168 16.3654 96.0979C16.3589 96.0317 16.3869 95.9766 16.4494 95.9323L17.1479 95.4637C17.1839 95.4411 17.216 95.4284 17.2444 95.4256C17.3011 95.4201 17.3468 95.4491 17.3816 95.5125L18.1226 96.6566C18.1555 96.7011 18.1839 96.6984 18.2076 96.6484L18.7282 95.3814C18.7425 95.3323 18.7729 95.3007 18.8192 95.2867C18.8646 95.2632 18.9123 95.2633 18.9623 95.287L19.7381 95.6122C19.7881 95.6359 19.8248 95.6705 19.8483 95.7159C19.8615 95.7528 19.8562 95.7963 19.8324 95.8463L19.2537 97.1046C19.2367 97.1253 19.2338 97.1447 19.2451 97.1627C19.2564 97.1807 19.2762 97.1883 19.3045 97.1855L20.5789 97.0472C20.6262 97.0426 20.6705 97.0573 20.712 97.0914C20.7431 97.117 20.761 97.1534 20.7656 97.2007L20.8442 98.0087Z" fill="#222629"/>
<path d="M26.3745 84.3608C26.3015 85.0978 26.0957 85.731 25.7571 86.2604C25.409 86.7888 24.9601 87.1785 24.4105 87.4294C23.8609 87.6803 23.2459 87.7721 22.5656 87.7047L19.2917 87.3806C18.6114 87.3132 18.0263 87.1027 17.5366 86.7489C17.0469 86.395 16.6879 85.9254 16.4596 85.3398C16.2313 84.7543 16.1537 84.093 16.2267 83.356C16.2987 82.6285 16.4988 82.0043 16.8271 81.4834C17.1469 80.9521 17.5721 80.5601 18.1028 80.3073C18.625 80.0442 19.2121 79.9449 19.864 80.0094C19.9491 80.0178 19.9954 80.0797 20.0031 80.1949L19.9381 81.863L19.9353 81.8913C19.926 81.9858 19.8693 82.0279 19.7654 82.0176C19.2646 81.968 18.8476 82.0842 18.5144 82.366C18.1821 82.6385 17.9912 83.0251 17.9416 83.5258C17.8911 84.0361 18.0016 84.462 18.273 84.8038C18.5455 85.1361 18.9321 85.327 19.4328 85.3766L22.8485 85.7148C23.3398 85.7634 23.7517 85.6515 24.0839 85.3791C24.4172 85.0972 24.609 84.7012 24.6596 84.191C24.7091 83.6902 24.5977 83.2737 24.3253 82.9414C24.0538 82.5996 23.6724 82.4044 23.1811 82.3558C23.0771 82.3455 23.0308 82.2837 23.042 82.1703L23.2771 80.5191C23.2817 80.4718 23.2997 80.4354 23.3308 80.4099C23.3629 80.3749 23.3978 80.3593 23.4356 80.363C24.0876 80.4276 24.6485 80.6405 25.1184 81.0019C25.5893 81.3539 25.9341 81.8221 26.1529 82.4067C26.3727 82.9819 26.4465 83.6332 26.3745 84.3608Z" fill="#222629"/>
<path d="M27.9884 74.669C27.7957 75.443 27.4279 76.0559 26.8849 76.5078C26.3419 76.9597 25.6951 77.1999 24.9444 77.2283C24.4792 77.2495 23.9933 77.1971 23.4865 77.071C22.9429 76.9357 22.4706 76.7496 22.0697 76.5128C21.4406 76.1312 21.0014 75.6159 20.752 74.9667C20.5026 74.3176 20.4743 73.606 20.6669 72.8321C20.8549 72.0766 21.209 71.4797 21.7289 71.0417C22.2397 70.6013 22.8635 70.3554 23.6004 70.304C24.0977 70.2712 24.5998 70.3179 25.1066 70.444C25.6041 70.5678 26.0534 70.7481 26.4543 70.9849C27.1225 71.3665 27.5951 71.8853 27.8722 72.5413C28.1423 73.1858 28.181 73.8951 27.9884 74.669ZM26.3161 74.2528C26.3918 73.9487 26.3638 73.6678 26.2323 73.41C26.1008 73.1523 25.8852 72.9372 25.5857 72.7648C25.3092 72.6177 24.9959 72.5006 24.6458 72.4134C24.2588 72.3171 23.9225 72.2725 23.637 72.2798C23.2985 72.3031 23.0153 72.399 22.7875 72.5673C22.5597 72.7357 22.408 72.9719 22.3323 73.2759C22.2543 73.5892 22.2765 73.8736 22.3988 74.1291C22.5234 74.3753 22.7309 74.5835 23.0212 74.7536C23.224 74.8824 23.5419 75.0007 23.975 75.1084C24.3896 75.2116 24.7201 75.2596 24.9665 75.2525C25.3119 75.2406 25.6031 75.1516 25.8402 74.9856C26.0795 74.8103 26.2381 74.5661 26.3161 74.2528Z" fill="#222629"/>
<path d="M23.729 63.3265C24.0072 62.6197 24.4479 62.135 25.0513 61.8725C25.6546 61.6099 26.3273 61.6247 27.0694 61.9168L31.4163 63.6277C31.4605 63.6451 31.4933 63.6784 31.5147 63.7277C31.5308 63.7646 31.5302 63.8052 31.5128 63.8494L30.9025 65.3999C30.8851 65.4441 30.8562 65.4786 30.8158 65.5035C30.77 65.5161 30.725 65.5137 30.6808 65.4964L26.7183 63.9367C26.3649 63.7976 26.0378 63.7862 25.7369 63.9025C25.4395 64.0099 25.2265 64.2271 25.0978 64.554C24.9692 64.8809 24.9753 65.1894 25.1162 65.4795C25.2606 65.7609 25.5094 65.9711 25.8628 66.1102L29.8254 67.6698C29.8696 67.6872 29.9024 67.7205 29.9238 67.7697C29.9399 67.8067 29.9392 67.8472 29.9218 67.8914L29.3115 69.442C29.2942 69.4862 29.2653 69.5207 29.2248 69.5456C29.1791 69.5582 29.1341 69.5558 29.0899 69.5384L22.5961 66.9825C22.5519 66.9651 22.5218 66.9379 22.5057 66.901C22.4843 66.8518 22.4823 66.805 22.4997 66.7609L23.11 65.2103C23.1273 65.1661 23.1589 65.1377 23.2047 65.1252C23.2451 65.1002 23.2874 65.0965 23.3316 65.1139L23.7954 65.2964C23.8219 65.3069 23.8431 65.305 23.8589 65.2908C23.8747 65.2766 23.8755 65.2616 23.8613 65.2458C23.4914 64.6819 23.4473 64.0421 23.729 63.3265Z" fill="#222629"/>
<path d="M29.152 55.5073C29.1942 55.5291 29.2235 55.5656 29.2398 55.6167C29.252 55.6551 29.2473 55.6954 29.2255 55.7376L28.5983 56.9525C28.5765 56.9947 28.5867 57.0266 28.6289 57.0484L31.3119 58.4335C31.5903 58.5772 31.8253 58.6291 32.0169 58.5891C32.2129 58.5406 32.3762 58.3899 32.5069 58.1368L32.7225 57.7191C32.7442 57.6769 32.7785 57.6519 32.8253 57.644C32.8681 57.6233 32.9105 57.6239 32.9527 57.6457L34.155 58.2663C34.2478 58.3142 34.2765 58.3932 34.2411 58.5031C34.075 58.8662 33.9528 59.1236 33.8744 59.2755C33.5129 59.9758 33.129 60.4401 32.7226 60.6684C32.3078 60.8923 31.7776 60.843 31.1321 60.5205L27.7404 58.7696C27.6982 58.7478 27.6662 58.758 27.6445 58.8002L27.2721 59.5215C27.2503 59.5637 27.218 59.5951 27.1753 59.6158C27.1285 59.6237 27.084 59.6168 27.0418 59.595L25.9155 59.0135C25.8733 58.9918 25.8461 58.9617 25.8338 58.9233C25.8175 58.8721 25.8202 58.8255 25.842 58.7833L26.2144 58.0619C26.2362 58.0197 26.226 57.9878 26.1838 57.966L24.6778 57.1885C24.6356 57.1668 24.6084 57.1367 24.5962 57.0983C24.5798 57.0471 24.5826 57.0005 24.6043 56.9583L25.336 55.5409C25.3578 55.4987 25.3921 55.4736 25.4389 55.4658C25.4817 55.4451 25.5241 55.4456 25.5663 55.4674L27.0723 56.2448C27.1145 56.2666 27.1465 56.2564 27.1682 56.2142L27.7954 54.9993C27.8172 54.9571 27.8515 54.9321 27.8983 54.9242C27.9411 54.9035 27.9835 54.9041 28.0257 54.9258L29.152 55.5073Z" fill="#222629"/>
<path d="M29.9643 51.2527C30.2996 50.7345 30.6904 50.3314 31.1368 50.0435C31.5752 49.7504 32.0221 49.5928 32.4774 49.5708C32.9379 49.5407 33.3594 49.6495 33.7421 49.8971L37.7957 52.5198C37.8356 52.5455 37.8612 52.5847 37.8724 52.6372C37.8809 52.6766 37.8722 52.7162 37.8464 52.7561L36.9412 54.1551C36.9154 54.195 36.8803 54.2231 36.8357 54.2396C36.7884 54.2428 36.7447 54.2316 36.7049 54.2058L36.3103 53.9505C36.2864 53.935 36.2653 53.9327 36.247 53.9435C36.2287 53.9542 36.2264 53.9754 36.24 54.0068C36.4618 54.6253 36.3329 55.3052 35.8532 56.0466C35.4509 56.6684 34.9745 57.0726 34.424 57.2593C33.8735 57.4459 33.3033 57.3484 32.7134 56.9667C32.0995 56.5696 31.7645 56.0475 31.7082 55.4004C31.6439 54.7481 31.8697 54.0234 32.3854 53.2262L33.1745 52.0065C33.2003 51.9667 33.1933 51.9338 33.1534 51.908L32.8904 51.7378C32.6273 51.5676 32.3724 51.5158 32.1258 51.5824C31.8712 51.6439 31.6407 51.834 31.4344 52.1529C31.2745 52.4 31.1843 52.6357 31.1636 52.8598C31.1482 53.076 31.2047 53.2596 31.3332 53.4105C31.4054 53.4912 31.4117 53.5688 31.3522 53.6434L30.2247 54.9665C30.1469 55.0518 30.0827 55.0724 30.032 55.0284C29.7178 54.7799 29.5 54.4523 29.3785 54.0458C29.2622 53.6313 29.2521 53.1837 29.3482 52.703C29.4495 52.2144 29.6548 51.731 29.9643 51.2527ZM34.8916 54.7798C35.1134 54.4371 35.21 54.0868 35.1814 53.729C35.1527 53.3712 34.9949 53.0995 34.7079 52.9138L34.2775 52.6353C34.2376 52.6095 34.2048 52.6165 34.179 52.6564L33.622 53.5173C33.3899 53.8761 33.2745 54.2029 33.276 54.4979C33.2825 54.7848 33.4094 55.0083 33.6565 55.1682C33.8718 55.3074 34.0921 55.3426 34.3177 55.2736C34.5353 55.1995 34.7266 55.0349 34.8916 54.7798Z" fill="#222629"/>
<path d="M41.1661 48.7439C40.6781 49.326 40.1086 49.7096 39.4577 49.8949C38.8128 50.0729 38.1595 50.0394 37.4977 49.7942C37.0302 49.6129 36.549 49.3149 36.0543 48.9001C35.5668 48.4913 35.1966 48.0757 34.9438 47.6531C34.5955 47.0636 34.4593 46.4353 34.5355 45.7681C34.6116 45.101 34.8937 44.4763 35.3817 43.8942C35.8697 43.3122 36.4423 42.9249 37.0993 42.7323C37.7625 42.5325 38.377 42.5459 38.9428 42.7724C39.1662 42.8606 39.3216 42.9413 39.4089 43.0145L39.4307 43.0328C39.4962 43.0877 39.5057 43.1577 39.4593 43.2426L38.5925 44.6533L38.5742 44.6751C38.5193 44.7406 38.4464 44.7538 38.3553 44.7146L38.1532 44.6009C37.9214 44.4933 37.6704 44.4749 37.4003 44.5458C37.1302 44.6167 36.8945 44.7722 36.6932 45.0123C36.498 45.2452 36.3915 45.4904 36.3737 45.7481C36.3559 46.0058 36.4214 46.2528 36.5702 46.489C36.7214 46.7521 36.9862 47.0422 37.3645 47.3594C37.7429 47.6766 38.0717 47.8904 38.351 48.0006C38.6242 48.1181 38.8897 48.1487 39.1476 48.0923C39.4116 48.0287 39.6412 47.8804 39.8364 47.6476C40.0255 47.4221 40.132 47.1768 40.1559 46.9119C40.1786 46.6335 40.1119 46.3732 39.9558 46.1308C39.9473 46.1113 39.9286 46.0894 39.8995 46.065C39.8983 46.0516 39.8904 46.0388 39.8759 46.0266C39.7947 45.9461 39.801 45.8647 39.8948 45.7823L41.1436 44.6919C41.2191 44.6313 41.2896 44.6285 41.3551 44.6834C41.4133 44.7322 41.5042 44.8455 41.6276 45.0234C41.987 45.5849 42.1189 46.2035 42.0233 46.8791C41.9338 47.5475 41.648 48.1691 41.1661 48.7439Z" fill="#222629"/>
<path d="M43.168 37.9553C43.2012 37.9892 43.2176 38.033 43.217 38.0867C43.2166 38.127 43.1995 38.1638 43.1656 38.197L42.1892 39.1541C42.1553 39.1874 42.155 39.2209 42.1882 39.2548L44.302 41.4109C44.5213 41.6347 44.7282 41.7576 44.9227 41.7797C45.124 41.7951 45.3263 41.7031 45.5297 41.5037L45.8653 41.1747C45.8992 41.1414 45.9397 41.1284 45.9866 41.1356C46.0337 41.1293 46.0738 41.1432 46.107 41.1771L47.0542 42.1432C47.1273 42.2178 47.1299 42.3018 47.0618 42.3951C46.7903 42.6878 46.5936 42.894 46.4715 43.0137C45.9088 43.5654 45.3987 43.8859 44.9412 43.9754C44.4771 44.0581 43.9891 43.8451 43.4771 43.3364L40.8051 40.6108C40.7719 40.5769 40.7383 40.5766 40.7044 40.6098L40.1247 41.1781C40.0908 41.2114 40.0503 41.2311 40.0032 41.2373C39.9563 41.2302 39.9162 41.2096 39.883 41.1757L38.9956 40.2706C38.9624 40.2367 38.946 40.1996 38.9464 40.1593C38.9469 40.1056 38.9641 40.0621 38.998 40.0289L39.5777 39.4606C39.6116 39.4273 39.612 39.3938 39.5787 39.3599L38.3923 38.1496C38.359 38.1157 38.3426 38.0786 38.343 38.0383C38.3435 37.9846 38.3608 37.9412 38.3947 37.9079L39.5337 36.7913C39.5676 36.758 39.608 36.745 39.655 36.7522C39.702 36.7459 39.7422 36.7598 39.7754 36.7937L40.9619 38.0039C40.9951 38.0378 41.0287 38.0381 41.0626 38.0049L42.0389 37.0478C42.0728 37.0145 42.1132 37.0015 42.1602 37.0087C42.2072 37.0024 42.2474 37.0163 42.2806 37.0502L43.168 37.9553Z" fill="#222629"/>
<path d="M49.9773 27.8086C49.9506 27.7693 49.9411 27.7299 49.9486 27.6903C49.9587 27.6376 49.9834 27.5978 50.0226 27.5712L51.4011 26.6349C51.4404 26.6083 51.4825 26.6026 51.5274 26.618C51.5748 26.6203 51.6118 26.641 51.6385 26.6803L57.0479 34.6447C57.0746 34.684 57.0829 34.73 57.0728 34.7828C57.0652 34.8223 57.0418 34.8554 57.0026 34.8821L55.6712 35.7864C55.5927 35.8397 55.5164 35.8456 55.4423 35.8041L48.9659 32.8341C48.9342 32.8212 48.9132 32.824 48.9028 32.8425C48.8871 32.8532 48.8899 32.8743 48.9112 32.9057L52.3117 37.8615C52.3383 37.9008 52.3466 37.9468 52.3366 37.9996C52.329 38.0392 52.3056 38.0723 52.2663 38.099L50.8879 39.0352C50.8486 39.0619 50.8052 39.0741 50.7578 39.0719C50.7129 39.0565 50.6771 39.0291 50.6504 38.9898L45.241 31.0254C45.2144 30.9861 45.2048 30.9467 45.2124 30.9072C45.2225 30.8544 45.2471 30.8147 45.2864 30.788L46.6177 29.8838C46.6963 29.8304 46.7726 29.8245 46.8467 29.866L53.2953 32.8205C53.327 32.8334 53.3507 32.8345 53.3664 32.8238C53.3768 32.8053 53.3713 32.7803 53.3499 32.7489L49.9773 27.8086Z" fill="#222629"/>
<path d="M62.4836 32.1162C61.7657 32.4636 61.0593 32.5734 60.3645 32.4455C59.6697 32.3176 59.0712 31.9743 58.5688 31.4158C58.2548 31.072 57.984 30.6651 57.7565 30.195C57.5125 29.6908 57.3531 29.2088 57.2784 28.7492C57.1689 28.0217 57.2837 27.3543 57.6228 26.7472C57.9618 26.1401 58.4903 25.6628 59.2083 25.3154C59.9091 24.9762 60.5942 24.8662 61.2636 24.9852C61.9289 25.0958 62.5171 25.4176 63.0283 25.9508C63.3719 26.312 63.6574 26.7276 63.8849 27.1976C64.1082 27.6592 64.2573 28.1197 64.332 28.5793C64.4666 29.3369 64.3705 30.0321 64.0439 30.6649C63.7216 31.285 63.2015 31.7687 62.4836 32.1162ZM61.7329 30.5649C62.0149 30.4285 62.2129 30.2272 62.3267 29.9611C62.4406 29.6951 62.4679 29.3918 62.4086 29.0513C62.3446 28.7447 62.234 28.429 62.0768 28.1043C61.9031 27.7453 61.7221 27.4584 61.5338 27.2437C61.2992 26.9986 61.0443 26.8424 60.7691 26.7752C60.4939 26.7079 60.2154 26.7425 59.9333 26.879C59.6427 27.0196 59.4384 27.2187 59.3205 27.4762C59.211 27.7296 59.1839 28.0222 59.239 28.3542C59.2699 28.5924 59.3826 28.9124 59.577 29.314C59.7631 29.6986 59.9377 29.9833 60.101 30.168C60.3312 30.4258 60.586 30.5926 60.8653 30.6684C61.1531 30.74 61.4423 30.7056 61.7329 30.5649Z" fill="#222629"/>
<path d="M68.6869 29.3026C68.5871 29.3332 68.5096 29.3072 68.4546 29.2248L64.4474 23.1379L64.4172 23.0876C64.3894 22.9968 64.4254 22.9361 64.5253 22.9056L66.1732 22.4014C66.2731 22.3708 66.3505 22.3968 66.4055 22.4792L68.6446 26.2921C68.662 26.3166 68.6798 26.326 68.6979 26.3205C68.7161 26.3149 68.7255 26.2971 68.7263 26.2671L68.4892 21.8417C68.4887 21.7425 68.5384 21.6777 68.6382 21.6471L70.0682 21.2096C70.1681 21.179 70.2455 21.205 70.3006 21.2874L72.6391 25.0848C72.6565 25.1093 72.6743 25.1187 72.6924 25.1131C72.7106 25.1076 72.7201 25.0898 72.7208 25.0598L72.5205 20.6082C72.5199 20.5091 72.5696 20.4442 72.6695 20.4137L74.3121 19.9409C74.3665 19.9242 74.4084 19.9312 74.4377 19.962C74.4733 19.9809 74.4948 20.019 74.5024 20.0762L74.5559 27.3579C74.5565 27.4571 74.5113 27.5205 74.4205 27.5483L72.7726 28.0525C72.6728 28.0831 72.5953 28.0571 72.5403 27.9747L70.3749 24.6456C70.3575 24.6212 70.3397 24.6117 70.3215 24.6173C70.3034 24.6228 70.2939 24.6406 70.2932 24.6706L70.4838 28.6039C70.4844 28.703 70.4347 28.7679 70.3348 28.7984L68.6869 29.3026Z" fill="#222629"/>
<path d="M83.1 20.372C83.0527 20.3763 83.0089 20.366 82.9684 20.3411C82.9366 20.3058 82.9186 20.2646 82.9143 20.2173L82.8124 18.9395C82.8098 18.9111 82.7986 18.893 82.7788 18.8853C82.7591 18.8776 82.7406 18.884 82.7234 18.9046L81.5952 19.708C81.5591 19.7304 81.5316 19.7424 81.5126 19.7441C81.4465 19.7501 81.3914 19.7218 81.3476 19.659L80.8834 18.9576C80.861 18.9215 80.8485 18.8893 80.846 18.8609C80.8399 18.7947 80.8687 18.7444 80.9324 18.71L82.0657 17.9634C82.1104 17.9307 82.1078 17.9024 82.058 17.8783L80.8111 17.3768C80.7621 17.3622 80.726 17.3321 80.7028 17.2865C80.689 17.2401 80.6942 17.192 80.7182 17.1421L81.0483 16.3684C81.0723 16.3186 81.1029 16.2872 81.1398 16.2743C81.1854 16.2511 81.2331 16.2515 81.283 16.2756L82.5363 16.848C82.5561 16.8557 82.575 16.854 82.593 16.8428C82.6111 16.8317 82.6188 16.8119 82.6163 16.7835L82.4885 15.5367C82.4842 15.4894 82.495 15.4503 82.5208 15.4193C82.5551 15.3781 82.596 15.3553 82.6433 15.351L83.4517 15.2774C83.499 15.2731 83.5386 15.2886 83.5704 15.3238C83.6108 15.3488 83.6331 15.3849 83.6374 15.4322L83.7368 16.6816C83.7393 16.71 83.7505 16.728 83.7703 16.7358C83.7901 16.7435 83.809 16.7418 83.827 16.7306L84.9565 15.9414C84.9926 15.9191 85.0201 15.907 85.0391 15.9053C85.1052 15.8993 85.1603 15.9277 85.2041 15.9904L85.6683 16.6918C85.6907 16.7279 85.7032 16.7602 85.7057 16.7885C85.7109 16.8453 85.6817 16.8908 85.6181 16.9252L84.4692 17.659C84.4245 17.6916 84.4271 17.72 84.477 17.7441L85.7406 18.2727C85.7896 18.2873 85.821 18.3178 85.8348 18.3642C85.858 18.4098 85.8575 18.4575 85.8335 18.5073L85.5034 19.281C85.4794 19.3309 85.4445 19.3674 85.399 19.3906C85.362 19.4035 85.3186 19.3979 85.2687 19.3739L84.0141 18.7872C83.9935 18.77 83.9741 18.767 83.9561 18.7782C83.938 18.7894 83.9303 18.8092 83.9329 18.8375L84.0632 20.1128C84.0675 20.1601 84.0524 20.2043 84.018 20.2456C83.9923 20.2765 83.9557 20.2942 83.9084 20.2985L83.1 20.372Z" fill="#222629"/>
<defs>
<linearGradient id="paint0_linear_91_13" x1="50.6509" y1="90.7111" x2="130.651" y2="90.7111" gradientUnits="userSpaceOnUse">
<stop stop-color="#E01C08"/>
<stop offset="0.685" stop-color="#C01503"/>
<stop offset="1" stop-color="#B11101"/>
</linearGradient>
</defs>
</svg>
