<svg width="180" height="180" viewBox="0 0 180 180" fill="none" xmlns="http://www.w3.org/2000/svg">
<rect width="180" height="180" rx="90" fill="white"/>
<circle cx="90" cy="90" r="40" fill="url(#paint0_linear_14_6)"/>
<path d="M89.9998 70C78.9576 70 70.0562 78.9014 70.0562 89.9437C70.0562 100.986 78.9576 110 89.9998 110C101.042 110 109.943 101.099 109.943 90.0563C109.943 79.0141 101.042 70 89.9998 70ZM89.9998 105.268C81.5491 105.268 74.7885 98.3944 74.7885 90.0563C74.7885 81.6056 81.6618 74.8451 89.9998 74.8451C98.4505 74.8451 105.211 81.7183 105.211 90.0563C105.211 98.3944 98.4505 105.268 89.9998 105.268Z" fill="white"/>
<path d="M89.9999 81.9436C85.4928 81.9436 81.8872 85.5492 81.8872 90.0563C81.8872 94.5633 85.4928 98.169 89.9999 98.169C94.5069 98.169 98.1126 94.5633 98.1126 90.0563C98.1126 85.5492 94.5069 81.9436 89.9999 81.9436ZM89.9999 94.676C87.4083 94.676 85.2675 92.5352 85.2675 89.9436C85.2675 87.3521 87.4083 85.2112 89.9999 85.2112C92.5914 85.2112 94.7323 87.3521 94.7323 89.9436C94.7323 92.6478 92.5914 94.676 89.9999 94.676Z" fill="white"/>
<path d="M89.9996 87.3525C88.5348 87.3525 87.2954 88.592 87.2954 90.0568C87.2954 91.5216 88.5348 92.761 89.9996 92.761C91.4644 92.761 92.7039 91.5216 92.7039 90.0568C92.7039 88.592 91.4644 87.3525 89.9996 87.3525ZM88.3095 88.592C88.3095 88.0286 88.7602 87.5779 89.3236 87.5779C89.887 87.5779 90.3377 88.0286 90.3377 88.592C90.3377 89.1554 89.887 89.6061 89.3236 89.6061C88.7602 89.6061 88.3095 89.1554 88.3095 88.592ZM89.7743 92.423C89.3236 92.423 88.9856 92.0849 88.9856 91.6342C88.9856 91.1835 89.3236 90.8455 89.7743 90.8455C90.225 90.8455 90.563 91.1835 90.563 91.6342C90.563 92.0849 90.225 92.423 89.7743 92.423Z" fill="white"/>
<path d="M89.9998 80.3662C91.12 80.3662 92.028 79.4581 92.028 78.338C92.028 77.2179 91.12 76.3098 89.9998 76.3098C88.8797 76.3098 87.9717 77.2179 87.9717 78.338C87.9717 79.4581 88.8797 80.3662 89.9998 80.3662Z" fill="white"/>
<path d="M89.9998 103.69C91.12 103.69 92.028 102.782 92.028 101.662C92.028 100.542 91.12 99.6339 89.9998 99.6339C88.8797 99.6339 87.9717 100.542 87.9717 101.662C87.9717 102.782 88.8797 103.69 89.9998 103.69Z" fill="white"/>
<path d="M81.7743 83.7463C82.8944 83.7463 83.8024 82.8382 83.8024 81.7181C83.8024 80.598 82.8944 79.6899 81.7743 79.6899C80.6541 79.6899 79.7461 80.598 79.7461 81.7181C79.7461 82.8382 80.6541 83.7463 81.7743 83.7463Z" fill="white"/>
<path d="M98.2254 100.31C99.3456 100.31 100.254 99.402 100.254 98.2818C100.254 97.1617 99.3456 96.2537 98.2254 96.2537C97.1053 96.2537 96.1973 97.1617 96.1973 98.2818C96.1973 99.402 97.1053 100.31 98.2254 100.31Z" fill="white"/>
<path d="M78.3944 92.0849C79.5145 92.0849 80.4225 91.1769 80.4225 90.0567C80.4225 88.9366 79.5145 88.0286 78.3944 88.0286C77.2743 88.0286 76.3662 88.9366 76.3662 90.0567C76.3662 91.1769 77.2743 92.0849 78.3944 92.0849Z" fill="white"/>
<path d="M101.718 92.0849C102.838 92.0849 103.746 91.1769 103.746 90.0567C103.746 88.9366 102.838 88.0286 101.718 88.0286C100.598 88.0286 99.6899 88.9366 99.6899 90.0567C99.6899 91.1769 100.598 92.0849 101.718 92.0849Z" fill="white"/>
<path d="M81.7743 100.31C82.8944 100.31 83.8024 99.402 83.8024 98.2818C83.8024 97.1617 82.8944 96.2537 81.7743 96.2537C80.6541 96.2537 79.7461 97.1617 79.7461 98.2818C79.7461 99.402 80.6541 100.31 81.7743 100.31Z" fill="white"/>
<path d="M98.2254 83.7463C99.3456 83.7463 100.254 82.8382 100.254 81.7181C100.254 80.598 99.3456 79.6899 98.2254 79.6899C97.1053 79.6899 96.1973 80.598 96.1973 81.7181C96.1973 82.8382 97.1053 83.7463 98.2254 83.7463Z" fill="white"/>
<path d="M94.0168 22.4133C93.9942 22.4328 93.9873 22.4535 93.9963 22.4753C94.0052 22.4972 94.0255 22.5093 94.0571 22.5117L98.3412 22.8344C98.3939 22.8383 98.4345 22.8626 98.4629 22.9071C98.5027 22.9419 98.5206 22.9857 98.5166 23.0384L98.4011 24.5718C98.3972 24.6245 98.3725 24.6703 98.3272 24.7093C98.2932 24.7385 98.2499 24.7512 98.1972 24.7472L91.0834 24.2114C91.0307 24.2075 90.9844 24.1881 90.9446 24.1533C90.9162 24.1088 90.904 24.0601 90.9079 24.0074L91.0175 22.5531C91.0246 22.4582 91.0622 22.3816 91.1302 22.3231C91.6847 21.8561 92.2529 21.3478 92.8348 20.7981C93.4176 20.2378 93.783 19.8891 93.9311 19.7519C94.2524 19.4263 94.5778 19.1169 94.9072 18.8238C95.9464 17.8316 96.4855 17.0773 96.5244 16.5609C96.5521 16.192 96.443 15.8817 96.197 15.63C95.9518 15.3678 95.6184 15.2208 95.1968 15.189C94.7753 15.1573 94.4236 15.2527 94.1419 15.4752C93.861 15.6873 93.7058 15.9882 93.6765 16.3782L93.6467 16.7734C93.6427 16.8261 93.6181 16.8719 93.5727 16.9109C93.5387 16.9401 93.4954 16.9528 93.4427 16.9488L91.5773 16.8083C91.5246 16.8043 91.4784 16.785 91.4386 16.7502C91.4102 16.7056 91.3979 16.657 91.4019 16.6043L91.4578 15.8613C91.5323 15.2946 91.7492 14.8075 92.1084 14.4C92.4685 13.982 92.926 13.6773 93.4809 13.4859C94.0464 13.2953 94.6664 13.2254 95.3409 13.2762C96.0892 13.3326 96.7266 13.5237 97.2532 13.8495C97.7911 14.1656 98.1898 14.5718 98.4491 15.0683C98.7191 15.5656 98.8322 16.104 98.7885 16.6837C98.7552 17.1263 98.6104 17.5712 98.3542 18.0182C98.0979 18.4653 97.7282 18.9409 97.2451 19.445C96.8875 19.8314 96.5039 20.2106 96.0943 20.5825C95.6847 20.9544 95.0772 21.4916 94.2718 22.194L94.0168 22.4133Z" fill="#222629"/>
<path d="M108.723 21.6972C108.763 22.2373 108.729 22.7444 108.621 23.2185C108.502 23.7441 108.312 24.1995 108.051 24.5847C107.664 25.1905 107.128 25.6214 106.441 25.8774C105.757 26.1231 105.012 26.1547 104.208 25.9723C103.425 25.7945 102.777 25.4522 102.263 24.9455C101.762 24.4308 101.462 23.8208 101.362 23.1153C101.32 22.824 101.307 22.523 101.323 22.2124L101.33 22.1815C101.356 22.0681 101.43 22.0254 101.554 22.0535L103.425 22.4781C103.528 22.5014 103.582 22.5733 103.587 22.6937C103.583 22.7579 103.587 22.813 103.598 22.8589C103.61 22.9048 103.617 22.9443 103.62 22.9776C103.662 23.269 103.77 23.5102 103.944 23.7013C104.117 23.8923 104.343 24.0195 104.621 24.0826C104.91 24.1481 105.18 24.1281 105.431 24.0226C105.683 23.9172 105.892 23.737 106.058 23.4821C106.208 23.2993 106.32 23.0431 106.395 22.7132C106.463 22.4144 106.477 22.1359 106.438 21.8777C106.427 21.5934 106.329 21.3545 106.146 21.1611C105.962 20.9677 105.726 20.8382 105.437 20.7727C105.149 20.7072 104.866 20.7134 104.588 20.7913C104.31 20.8691 104.105 21.0069 103.974 21.2046C103.919 21.3007 103.841 21.337 103.738 21.3136L101.836 20.8821C101.785 20.8704 101.742 20.8444 101.707 20.8041C101.686 20.7558 101.681 20.706 101.693 20.6544L103.107 14.424C103.118 14.3725 103.143 14.3348 103.181 14.3109C103.232 14.279 103.283 14.2689 103.334 14.2806L109.719 15.7297C109.771 15.7414 109.807 15.7713 109.829 15.8196C109.863 15.8599 109.874 15.9058 109.863 15.9573L109.522 17.4569C109.511 17.5085 109.48 17.5502 109.429 17.582C109.391 17.6059 109.346 17.612 109.295 17.6003L104.981 16.6214C104.93 16.6097 104.898 16.6297 104.887 16.6812L104.352 18.9658C104.335 19.0379 104.363 19.0604 104.434 19.0332C104.966 18.8396 105.536 18.8118 106.144 18.9498C106.865 19.1135 107.452 19.4417 107.903 19.9344C108.368 20.4191 108.641 21.0067 108.723 21.6972Z" fill="#222629"/>
<path d="M118.104 24.3159C118.154 24.3355 118.185 24.3707 118.199 24.4218C118.226 24.4669 118.23 24.514 118.211 24.563L117.641 25.9916C117.622 26.0406 117.585 26.077 117.53 26.1006C117.489 26.1183 117.443 26.1174 117.394 26.0978L115.377 25.2938C115.328 25.2743 115.293 25.289 115.274 25.3381L114.481 27.3262C114.462 27.3753 114.425 27.4117 114.37 27.4353C114.329 27.453 114.283 27.4521 114.234 27.4325L112.821 26.8691C112.771 26.8496 112.733 26.8172 112.706 26.7721C112.692 26.7211 112.695 26.6711 112.714 26.622L113.507 24.6339C113.526 24.5848 113.511 24.5504 113.462 24.5309L111.445 23.7268C111.396 23.7073 111.357 23.675 111.33 23.6298C111.316 23.5788 111.319 23.5288 111.338 23.4797L111.908 22.0512C111.927 22.0021 111.958 21.9687 111.999 21.951C112.054 21.9274 112.106 21.9253 112.155 21.9449L114.172 22.7489C114.221 22.7685 114.256 22.7537 114.275 22.7046L115.085 20.6723C115.105 20.6232 115.135 20.5898 115.176 20.5721C115.231 20.5485 115.283 20.5465 115.332 20.566L116.746 21.1294C116.795 21.149 116.827 21.1843 116.84 21.2353C116.868 21.2804 116.872 21.3275 116.852 21.3766L116.043 23.4089C116.023 23.458 116.038 23.4923 116.087 23.5119L118.104 24.3159Z" fill="#222629"/>
<path d="M126.658 35.4665C126.615 35.4365 126.585 35.3964 126.568 35.3463C126.566 35.2935 126.58 35.2453 126.61 35.2019L128.891 31.9029C128.915 31.8682 128.929 31.8391 128.932 31.8157L129.979 24.56C129.986 24.5132 129.995 24.4811 130.007 24.4637C130.055 24.3941 130.127 24.3924 130.223 24.4586L131.865 25.5947C131.952 25.6548 131.986 25.736 131.967 25.8383L131.198 30.4338C131.188 30.504 131.214 30.522 131.277 30.4879L135.305 28.1465C135.394 28.0924 135.482 28.0953 135.569 28.1554L137.238 29.3096C137.299 29.3517 137.326 29.3961 137.319 29.4429C137.327 29.487 137.297 29.5305 137.229 29.5733L130.784 33.0961C130.763 33.1074 130.741 33.1305 130.717 33.1653L128.435 36.4642C128.405 36.5077 128.361 36.5348 128.302 36.5455C128.258 36.5535 128.214 36.5425 128.171 36.5125L126.658 35.4665Z" fill="#222629"/>
<path d="M140.644 40.7032C140.416 41.0399 140.125 41.3824 139.77 41.7308C139.675 41.8162 139.582 41.8156 139.489 41.729L135.911 38.3832C135.865 38.3399 135.832 38.3447 135.811 38.3978C135.69 38.5738 135.588 38.7679 135.505 38.98C135.302 39.6 135.509 40.1988 136.126 40.7762C136.627 41.2305 137.205 41.3943 137.859 41.2677C137.933 41.2503 137.989 41.2596 138.028 41.2957C138.051 41.3174 138.064 41.3581 138.066 41.4178L138.131 43.0196C138.133 43.0942 138.12 43.147 138.091 43.1779C138.077 43.1933 138.032 43.2098 137.958 43.2272C137.407 43.3055 136.848 43.2458 136.281 43.0479C135.721 42.8424 135.201 42.5159 134.723 42.0683C134.059 41.4475 133.636 40.77 133.454 40.0358C133.28 39.3089 133.346 38.5814 133.65 37.8533C133.849 37.3158 134.241 36.7343 134.826 36.109C135.223 35.6845 135.631 35.3642 136.05 35.1483C136.74 34.7662 137.456 34.6188 138.199 34.706C138.95 34.8005 139.631 35.1328 140.241 35.7031C141.013 36.425 141.421 37.2263 141.465 38.1072C141.518 38.9952 141.244 39.8606 140.644 40.7032ZM138.931 37.1266C138.445 36.6718 137.912 36.6 137.331 36.9111C137.207 36.9826 137.064 37.0808 136.904 37.2058C136.868 37.2444 136.869 37.2818 136.907 37.3179L138.911 39.1911C138.957 39.2344 138.991 39.2295 139.011 39.1765C139.182 38.9165 139.264 38.7904 139.256 38.7981C139.404 38.5016 139.446 38.2085 139.384 37.919C139.337 37.629 139.186 37.3648 138.931 37.1266Z" fill="#222629"/>
<path d="M147.421 43.3855C147.851 43.9209 148.141 44.4747 148.289 45.0471C148.446 45.6128 148.456 46.1402 148.32 46.6291C148.191 47.1262 147.929 47.5338 147.534 47.8517L143.346 51.2197C143.304 51.2528 143.254 51.2661 143.195 51.2597C143.15 51.2548 143.111 51.2318 143.078 51.1906L141.916 49.7452C141.883 49.7041 141.865 49.6571 141.863 49.6042C141.876 49.553 141.904 49.5109 141.945 49.4778L142.352 49.1499C142.377 49.13 142.387 49.1086 142.382 49.0855C142.377 49.0624 142.355 49.0525 142.318 49.0559C141.586 49.0743 140.913 48.7005 140.297 47.9346C139.78 47.2922 139.519 46.6475 139.514 46.0004C139.51 45.3534 139.812 44.7849 140.421 44.2947C141.055 43.7847 141.724 43.613 142.428 43.7796C143.14 43.9395 143.827 44.4313 144.489 45.2549L145.502 46.515C145.536 46.5561 145.573 46.5602 145.614 46.5271L145.886 46.3085C146.157 46.0899 146.301 45.8387 146.317 45.5547C146.341 45.2642 146.221 44.9542 145.956 44.6247C145.75 44.3694 145.533 44.1917 145.303 44.0916C145.08 43.9997 144.866 43.9953 144.662 44.0784C144.551 44.1265 144.467 44.1061 144.409 44.0171L143.405 42.3634C143.342 42.2513 143.342 42.1762 143.407 42.138C143.779 41.8928 144.201 41.777 144.673 41.7907C145.152 41.8125 145.629 41.9582 146.103 42.2277C146.584 42.5054 147.023 42.8914 147.421 43.3855ZM141.972 47.3608C142.256 47.715 142.593 47.9394 142.981 48.0342C143.369 48.1289 143.711 48.0571 144.008 47.8186L144.453 47.461C144.494 47.4278 144.498 47.3907 144.465 47.3495L143.749 46.46C143.451 46.0894 143.146 45.8533 142.834 45.7518C142.528 45.6585 142.248 45.7145 141.993 45.9198C141.77 46.0987 141.656 46.3193 141.65 46.5818C141.652 46.8376 141.76 47.0973 141.972 47.3608Z" fill="#222629"/>
<path d="M153.623 52.2597C153.826 52.5817 153.924 52.876 153.917 53.1427C153.926 53.2367 153.876 53.3058 153.766 53.3498L152.06 54.0309C151.947 54.0895 151.876 54.0466 151.847 53.9021C151.808 53.7398 151.731 53.5692 151.619 53.3903C151.574 53.3188 151.503 53.226 151.406 53.1121C151.177 52.807 150.884 52.6102 150.529 52.5217C150.182 52.4276 149.835 52.4903 149.486 52.7099L145.823 55.0154C145.778 55.0436 145.727 55.051 145.669 55.0378C145.625 55.0278 145.589 55.0005 145.561 54.9558L144.573 53.386C144.545 53.3413 144.533 53.2926 144.537 53.24C144.556 53.1906 144.588 53.1519 144.632 53.1237L151.207 48.9855C151.251 48.9574 151.295 48.9483 151.339 48.9582C151.397 48.9715 151.441 49.0005 151.469 49.0452L152.457 50.6149C152.485 50.6596 152.49 50.7067 152.471 50.756C152.467 50.8087 152.442 50.8491 152.397 50.8773L151.887 51.1982C151.861 51.2151 151.848 51.2353 151.851 51.2588C151.853 51.2823 151.866 51.2929 151.889 51.2906C152.657 51.3195 153.235 51.6425 153.623 52.2597Z" fill="#222629"/>
<path d="M149.028 61.4146C148.72 60.7769 148.541 60.1765 148.492 59.6133C148.443 59.0502 148.516 58.5572 148.711 58.1344C148.911 57.7212 149.215 57.4158 149.624 57.2181L149.767 57.1492C149.815 57.1262 149.86 57.1221 149.902 57.1368C149.958 57.1565 149.998 57.1902 150.021 57.2377L150.786 58.8223C150.809 58.8699 150.809 58.9172 150.784 58.9641C150.774 59.016 150.745 59.0534 150.698 59.0764L150.683 59.0833C150.474 59.1844 150.348 59.3859 150.306 59.6879C150.279 59.9947 150.35 60.3242 150.52 60.6764C150.676 60.9999 150.864 61.2318 151.085 61.3719C151.314 61.5074 151.524 61.5292 151.715 61.4373C151.886 61.3545 151.973 61.2068 151.976 60.9942C151.979 60.7815 151.934 60.4571 151.841 60.0209C151.739 59.5184 151.678 59.1135 151.659 58.8059C151.574 58.0957 151.596 57.4863 151.726 56.9775C151.856 56.4688 152.207 56.0766 152.778 55.8008C153.482 55.4606 154.17 55.463 154.841 55.8078C155.526 56.1576 156.087 56.7845 156.524 57.6886C156.818 58.2977 156.976 58.8789 156.996 59.4323C157.027 59.981 156.925 60.4641 156.693 60.8816C156.465 61.3087 156.127 61.6302 155.68 61.8462C155.632 61.8692 155.58 61.8708 155.524 61.8512C155.481 61.8364 155.449 61.8052 155.426 61.7576L154.688 60.2302C154.665 60.1826 154.659 60.1329 154.669 60.081C154.693 60.0341 154.729 59.9991 154.777 59.9761C154.986 59.875 155.109 59.6805 155.146 59.3927C155.188 59.1144 155.124 58.7991 154.954 58.447C154.802 58.1329 154.621 57.9036 154.41 57.7589C154.199 57.6142 153.994 57.5901 153.794 57.6866C153.604 57.7785 153.507 57.9426 153.504 58.1789C153.505 58.4248 153.564 58.8014 153.68 59.3087C153.702 59.4272 153.726 59.5623 153.752 59.7139C153.788 59.8609 153.819 60.0221 153.845 60.1973C153.971 60.9695 153.972 61.6266 153.846 62.1685C153.72 62.7103 153.358 63.1261 152.758 63.4156C152.054 63.7558 151.366 63.7416 150.696 63.3731C150.039 63.0096 149.483 62.3567 149.028 61.4146Z" fill="#222629"/>
<path d="M153.6 74.0461C153.389 73.1837 153.434 72.3893 153.735 71.6629C154.036 70.9364 154.55 70.3648 155.275 69.9481C155.722 69.6864 156.228 69.4865 156.793 69.3484C157.398 69.2002 157.96 69.139 158.478 69.1647C159.295 69.215 159.995 69.4954 160.576 70.0059C161.158 70.5164 161.555 71.2029 161.766 72.0652C161.972 72.9071 161.932 73.6784 161.646 74.3793C161.371 75.0777 160.884 75.643 160.184 76.0752C159.711 76.365 159.192 76.579 158.627 76.7171C158.073 76.8527 157.537 76.9076 157.019 76.8819C156.163 76.8519 155.429 76.5854 154.816 76.0825C154.217 75.5872 153.811 74.9085 153.6 74.0461ZM155.464 73.5903C155.546 73.9291 155.719 74.1915 155.982 74.3774C156.246 74.5633 156.569 74.6636 156.954 74.6784C157.302 74.6802 157.672 74.6333 158.062 74.5379C158.493 74.4325 158.847 74.3023 159.125 74.1473C159.446 73.949 159.676 73.7079 159.813 73.4241C159.95 73.1403 159.978 72.829 159.895 72.4902C159.809 72.1411 159.64 71.8724 159.388 71.684C159.137 71.5058 158.825 71.4081 158.451 71.3908C158.184 71.369 157.81 71.417 157.327 71.5351C156.865 71.6481 156.515 71.7719 156.276 71.9065C155.942 72.0971 155.701 72.3355 155.553 72.6219C155.408 72.9185 155.378 73.2413 155.464 73.5903Z" fill="#222629"/>
<path d="M163.612 83.5762C163.619 83.6287 163.603 83.6732 163.565 83.7097C163.538 83.7555 163.499 83.7816 163.446 83.7879L161.951 83.9685C161.899 83.9748 161.849 83.9596 161.802 83.9227C161.767 83.895 161.746 83.8549 161.74 83.8024L161.555 82.2758C161.549 82.2233 161.519 82.2003 161.467 82.2066L155.502 82.9271C155.449 82.9335 155.4 82.9182 155.353 82.8813C155.317 82.8536 155.297 82.8135 155.29 82.7611L155.068 80.9196C155.061 80.8672 155.072 80.818 155.098 80.7723C155.136 80.7357 155.181 80.7143 155.234 80.7079L161.199 79.9874C161.251 79.9811 161.274 79.9517 161.268 79.8992L161.156 78.9706C161.15 78.9182 161.16 78.869 161.186 78.8233C161.224 78.7867 161.269 78.7653 161.322 78.7589L162.817 78.5783C162.87 78.572 162.913 78.5827 162.949 78.6103C162.996 78.6472 163.022 78.6919 163.029 78.7444L163.141 79.673C163.147 79.7254 163.177 79.7485 163.229 79.7422L163.575 79.7003C164.226 79.6218 164.742 79.6606 165.122 79.8169C165.514 79.9719 165.81 80.2608 166.01 80.6838C166.222 81.116 166.365 81.7268 166.439 82.5163L166.511 83.1143C166.517 83.1668 166.501 83.2113 166.463 83.2478C166.437 83.2936 166.397 83.3197 166.345 83.326L165.07 83.48C165.017 83.4863 164.968 83.4711 164.921 83.4342C164.885 83.4065 164.865 83.3664 164.858 83.3139L164.796 82.7946C164.741 82.4286 164.631 82.181 164.466 82.0519C164.313 81.932 164.048 81.8948 163.67 81.9404L163.497 81.9613C163.445 81.9677 163.422 81.9971 163.428 82.0495L163.612 83.5762Z" fill="#222629"/>
<path d="M164.602 99.1113C164.55 99.1076 164.504 99.0833 164.464 99.0382C164.435 99.0044 164.422 98.9611 164.426 98.9084L164.783 93.7208C164.786 93.6681 164.762 93.6399 164.709 93.6363L162.258 93.4676C162.205 93.4639 162.177 93.4885 162.173 93.5412L161.939 96.9416C161.936 96.9943 161.912 97.035 161.867 97.0638C161.833 97.1038 161.789 97.1219 161.736 97.1183L160.202 97.0127C160.149 97.0091 160.103 96.9847 160.064 96.9397C160.035 96.9058 160.022 96.8626 160.025 96.8099L160.259 93.4095C160.263 93.3567 160.239 93.3286 160.186 93.3249L157.624 93.1486C157.571 93.145 157.543 93.1695 157.539 93.2222L157.182 98.4098C157.178 98.4625 157.154 98.5032 157.11 98.532C157.076 98.572 157.032 98.5902 156.979 98.5865L155.445 98.4809C155.392 98.4773 155.346 98.4529 155.307 98.4079C155.278 98.374 155.265 98.3308 155.268 98.2781L155.771 90.9712C155.775 90.9184 155.794 90.8721 155.829 90.8321C155.873 90.8034 155.921 90.7908 155.974 90.7944L166.666 91.5304C166.718 91.534 166.759 91.5527 166.789 91.5865C166.828 91.6316 166.846 91.6805 166.842 91.7332L166.339 99.0401C166.336 99.0929 166.312 99.1336 166.267 99.1623C166.233 99.2023 166.189 99.2205 166.137 99.2169L164.602 99.1113Z" fill="#222629"/>
<path d="M155.039 99.9882C155.054 99.9158 155.086 99.8685 155.134 99.8463C155.19 99.8366 155.244 99.8591 155.298 99.9136L158.472 103.199C158.499 103.226 158.53 103.232 158.565 103.218L162.803 101.51C162.848 101.498 162.887 101.496 162.918 101.502C163 101.52 163.031 101.58 163.009 101.684L162.596 103.622C162.577 103.715 162.52 103.779 162.426 103.813L160.005 104.756C159.934 104.785 159.926 104.821 159.982 104.865L161.809 106.712C161.881 106.782 161.907 106.863 161.887 106.956L161.445 109.034C161.43 109.106 161.394 109.147 161.338 109.157C161.292 109.169 161.243 109.147 161.189 109.093L158.011 105.823C157.982 105.806 157.951 105.8 157.918 105.804L153.684 107.496C153.649 107.51 153.611 107.513 153.569 107.504C153.487 107.486 153.455 107.431 153.475 107.338L153.891 105.384C153.91 105.291 153.967 105.228 154.061 105.194L156.482 104.25C156.551 104.232 156.557 104.201 156.502 104.157L154.674 102.309C154.603 102.24 154.577 102.159 154.597 102.066L155.039 99.9882Z" fill="#222629"/>
<path d="M156.091 117.878C155.52 117.869 154.892 117.739 154.208 117.486C153.524 117.233 152.939 116.91 152.454 116.516C151.903 116.054 151.532 115.505 151.338 114.87C151.151 114.249 151.191 113.576 151.459 112.852C151.722 112.139 152.175 111.675 152.818 111.462C152.855 111.453 152.872 111.437 152.869 111.413C152.867 111.39 152.851 111.373 152.821 111.362L149.639 110.185C149.589 110.167 149.557 110.132 149.542 110.082C149.513 110.037 149.508 109.99 149.526 109.941L150.169 108.201C150.188 108.152 150.224 108.114 150.278 108.089C150.319 108.071 150.364 108.07 150.414 108.089L160.466 111.804C160.515 111.823 160.55 111.852 160.568 111.893C160.593 111.947 160.597 111.999 160.578 112.049L159.935 113.789C159.917 113.838 159.882 113.871 159.832 113.886C159.787 113.914 159.74 113.919 159.691 113.901L159.2 113.72C159.17 113.709 159.147 113.711 159.13 113.727C159.122 113.747 159.125 113.771 159.137 113.798C159.529 114.416 159.589 115.092 159.318 115.825C159.065 116.509 158.653 117.028 158.083 117.38C157.52 117.747 156.856 117.912 156.091 117.878ZM153.601 114.371C153.896 114.762 154.376 115.08 155.04 115.326C155.665 115.557 156.199 115.636 156.643 115.563C157.153 115.493 157.502 115.205 157.689 114.699C157.857 114.243 157.771 113.822 157.429 113.437C157.149 113.097 156.687 112.807 156.042 112.569C155.378 112.324 154.822 112.242 154.375 112.325C153.894 112.406 153.571 112.67 153.406 113.116C153.241 113.562 153.306 113.981 153.601 114.371Z" fill="#222629"/>
<path d="M150.267 126.933C149.885 126.796 149.481 126.598 149.056 126.34C148.949 126.27 148.927 126.179 148.988 126.068L151.347 121.774C151.377 121.719 151.364 121.688 151.308 121.681C151.107 121.607 150.894 121.556 150.668 121.528C150.017 121.484 149.488 121.833 149.081 122.574C148.764 123.172 148.748 123.772 149.032 124.374C149.068 124.441 149.072 124.498 149.047 124.545C149.032 124.573 148.995 124.595 148.938 124.611L147.402 125.07C147.33 125.091 147.276 125.091 147.239 125.071C147.22 125.06 147.193 125.022 147.158 124.954C146.946 124.44 146.866 123.883 146.918 123.284C146.978 122.691 147.167 122.107 147.482 121.533C147.92 120.736 148.472 120.159 149.138 119.802C149.8 119.454 150.521 119.337 151.302 119.453C151.872 119.513 152.532 119.749 153.282 120.161C153.792 120.441 154.203 120.757 154.516 121.11C155.056 121.684 155.376 122.342 155.475 123.084C155.569 123.835 155.415 124.576 155.013 125.308C154.504 126.234 153.828 126.828 152.986 127.088C152.138 127.358 151.232 127.307 150.267 126.933ZM153.31 124.391C153.631 123.807 153.569 123.272 153.124 122.787C153.024 122.684 152.893 122.57 152.733 122.445C152.686 122.42 152.65 122.43 152.625 122.477L151.304 124.88C151.274 124.936 151.287 124.967 151.343 124.974C151.637 125.075 151.78 125.124 151.771 125.118C152.094 125.188 152.389 125.157 152.654 125.025C152.923 124.908 153.142 124.696 153.31 124.391Z" fill="#222629"/>
<path d="M149.079 134.5C148.857 134.81 148.621 135.011 148.372 135.106C148.288 135.15 148.205 135.129 148.123 135.045L146.848 133.721C146.751 133.639 146.764 133.557 146.887 133.476C147.022 133.378 147.152 133.243 147.275 133.071C147.324 133.003 147.383 132.902 147.452 132.769C147.648 132.442 147.72 132.097 147.667 131.734C147.624 131.378 147.434 131.079 147.099 130.839L143.581 128.318C143.538 128.288 143.512 128.243 143.502 128.184C143.495 128.14 143.507 128.096 143.537 128.053L144.618 126.545C144.649 126.502 144.689 126.473 144.739 126.457C144.792 126.456 144.84 126.471 144.883 126.502L151.198 131.026C151.24 131.057 151.266 131.094 151.273 131.139C151.283 131.198 151.272 131.249 151.241 131.292L150.161 132.799C150.13 132.842 150.088 132.864 150.036 132.865C149.985 132.881 149.939 132.874 149.896 132.843L149.406 132.492C149.38 132.474 149.357 132.47 149.336 132.481C149.315 132.492 149.31 132.508 149.321 132.529C149.584 133.251 149.503 133.908 149.079 134.5Z" fill="#222629"/>
<path d="M147.17 138.153C147.401 137.878 147.684 137.722 148.018 137.686C148.354 137.664 148.659 137.769 148.934 138C149.218 138.239 149.373 138.521 149.402 138.849C149.43 139.177 149.325 139.482 149.087 139.765C148.849 140.048 148.566 140.204 148.239 140.232C147.911 140.261 147.606 140.156 147.323 139.918C147.048 139.687 146.895 139.4 146.866 139.057C146.837 138.73 146.939 138.428 147.17 138.153ZM140.841 131.59C140.875 131.549 140.918 131.523 140.969 131.511C141.022 131.514 141.068 131.533 141.109 131.567L147.067 136.576C147.107 136.61 147.13 136.649 147.134 136.694C147.139 136.753 147.124 136.803 147.09 136.844L145.897 138.263C145.863 138.304 145.819 138.323 145.767 138.32C145.715 138.332 145.669 138.321 145.629 138.287L139.67 133.278C139.63 133.244 139.607 133.197 139.602 133.137C139.598 133.093 139.613 133.05 139.647 133.01L140.841 131.59Z" fill="#222629"/>
<path d="M136.717 143.032C136.392 142.788 136.064 142.48 135.733 142.109C135.652 142.011 135.657 141.917 135.748 141.829L139.263 138.417C139.309 138.373 139.305 138.339 139.253 138.316C139.083 138.187 138.894 138.075 138.687 137.983C138.077 137.749 137.469 137.927 136.862 138.516C136.384 138.995 136.193 139.564 136.288 140.223C136.302 140.298 136.289 140.354 136.252 140.39C136.229 140.412 136.188 140.423 136.128 140.422L134.525 140.41C134.45 140.408 134.398 140.393 134.368 140.362C134.354 140.347 134.339 140.302 134.326 140.227C134.274 139.673 134.361 139.118 134.586 138.561C134.818 138.011 135.17 137.508 135.64 137.052C136.292 136.419 136.989 136.029 137.731 135.883C138.466 135.745 139.189 135.845 139.902 136.184C140.429 136.409 140.991 136.828 141.587 137.443C141.992 137.86 142.292 138.283 142.487 138.712C142.836 139.42 142.948 140.142 142.825 140.881C142.695 141.626 142.33 142.29 141.731 142.871C140.972 143.607 140.152 143.976 139.27 143.978C138.38 143.987 137.529 143.672 136.717 143.032ZM140.372 141.494C140.85 141.031 140.947 140.501 140.665 139.907C140.599 139.779 140.508 139.632 140.391 139.465C140.354 139.427 140.317 139.427 140.279 139.464L138.311 141.374C138.265 141.418 138.269 141.452 138.321 141.475C138.572 141.658 138.694 141.746 138.687 141.738C138.976 141.9 139.266 141.956 139.559 141.908C139.851 141.875 140.122 141.737 140.372 141.494Z" fill="#222629"/>
<path d="M132.999 150.174C132.314 150.669 131.61 150.859 130.886 150.743C130.163 150.627 129.542 150.209 129.021 149.49L125.973 145.277C125.942 145.235 125.931 145.184 125.941 145.125C125.948 145.08 125.973 145.043 126.016 145.012L127.519 143.924C127.561 143.893 127.609 143.878 127.662 143.879C127.712 143.895 127.753 143.924 127.784 143.967L130.563 147.807C130.811 148.15 131.11 148.357 131.462 148.429C131.805 148.506 132.135 148.431 132.452 148.201C132.769 147.972 132.949 147.679 132.991 147.323C133.024 146.972 132.917 146.626 132.669 146.283L129.891 142.443C129.86 142.4 129.849 142.349 129.858 142.29C129.865 142.246 129.89 142.208 129.933 142.177L131.436 141.09C131.479 141.059 131.527 141.044 131.579 141.045C131.63 141.061 131.671 141.09 131.702 141.133L136.255 147.426C136.286 147.469 136.298 147.513 136.291 147.557C136.281 147.616 136.255 147.661 136.212 147.692L134.71 148.779C134.667 148.81 134.62 148.818 134.57 148.802C134.517 148.801 134.475 148.779 134.444 148.737L134.119 148.287C134.1 148.261 134.079 148.25 134.056 148.254C134.033 148.258 134.023 148.272 134.027 148.295C134.035 149.046 133.692 149.672 132.999 150.174Z" fill="#222629"/>
<path d="M120.517 148.027C121.265 147.635 122.014 147.481 122.763 147.565C123.502 147.655 124.16 147.966 124.738 148.499C125.142 148.883 125.512 149.394 125.845 150.03C126.174 150.657 126.379 151.242 126.461 151.784C126.57 152.538 126.444 153.243 126.083 153.897C125.723 154.552 125.168 155.076 124.419 155.468C123.67 155.861 122.917 156.017 122.159 155.937C121.392 155.863 120.765 155.589 120.278 155.116C120.085 154.931 119.96 154.782 119.901 154.669L119.886 154.641C119.842 154.557 119.862 154.481 119.945 154.413L121.435 153.328L121.463 153.313C121.547 153.269 121.628 153.286 121.705 153.365L121.865 153.568C122.058 153.777 122.309 153.902 122.617 153.943C122.925 153.984 123.233 153.924 123.542 153.762C123.842 153.605 124.055 153.398 124.182 153.14C124.31 152.882 124.347 152.6 124.294 152.294C124.249 151.959 124.1 151.548 123.844 151.062C123.589 150.575 123.341 150.216 123.1 149.984C122.869 149.747 122.608 149.604 122.319 149.552C122.02 149.506 121.721 149.562 121.422 149.719C121.131 149.871 120.918 150.078 120.781 150.341C120.64 150.618 120.598 150.914 120.657 151.23C120.657 151.253 120.667 151.284 120.687 151.321C120.682 151.336 120.685 151.352 120.695 151.371C120.744 151.488 120.703 151.569 120.572 151.614L118.825 152.208C118.721 152.239 118.648 152.212 118.603 152.128C118.564 152.053 118.519 151.898 118.467 151.662C118.334 150.932 118.46 150.239 118.845 149.584C119.22 148.934 119.777 148.415 120.517 148.027Z" fill="#222629"/>
<path d="M110.318 157.707C110.124 157.35 109.954 156.933 109.809 156.458C109.776 156.335 109.82 156.252 109.94 156.21L114.558 154.577C114.618 154.556 114.629 154.524 114.591 154.481C114.491 154.292 114.366 154.112 114.216 153.941C113.759 153.475 113.133 153.383 112.335 153.664C111.701 153.9 111.29 154.337 111.101 154.975C111.082 155.049 111.048 155.095 110.998 155.113C110.968 155.123 110.926 155.115 110.872 155.09L109.421 154.409C109.353 154.377 109.313 154.341 109.298 154.301C109.291 154.281 109.297 154.234 109.316 154.16C109.5 153.635 109.811 153.167 110.248 152.754C110.689 152.352 111.218 152.042 111.836 151.823C112.693 151.52 113.489 151.457 114.224 151.635C114.95 151.816 115.565 152.209 116.071 152.815C116.456 153.239 116.791 153.855 117.077 154.662C117.27 155.21 117.367 155.72 117.365 156.191C117.386 156.979 117.186 157.683 116.766 158.303C116.336 158.925 115.728 159.376 114.941 159.654C113.944 160.007 113.045 159.999 112.243 159.633C111.43 159.27 110.789 158.628 110.318 157.707ZM114.281 157.836C114.909 157.614 115.218 157.174 115.21 156.516C115.204 156.372 115.182 156.2 115.145 156C115.128 155.951 115.094 155.934 115.044 155.952L112.458 156.866C112.399 156.887 112.388 156.919 112.425 156.962C112.577 157.233 112.651 157.364 112.648 157.354C112.843 157.621 113.084 157.794 113.369 157.873C113.648 157.964 113.952 157.952 114.281 157.836Z" fill="#222629"/>
<path d="M100.375 157.209C100.427 157.201 100.477 157.211 100.523 157.236C100.56 157.274 100.582 157.319 100.589 157.371L100.766 158.787C100.771 158.819 100.784 158.838 100.806 158.846C100.829 158.853 100.849 158.845 100.867 158.821L102.082 157.872C102.121 157.845 102.151 157.83 102.172 157.827C102.245 157.817 102.307 157.846 102.359 157.914L102.911 158.671C102.937 158.71 102.953 158.745 102.957 158.776C102.967 158.85 102.938 158.907 102.869 158.948L101.645 159.835C101.597 159.874 101.602 159.905 101.658 159.93L103.07 160.425C103.125 160.439 103.167 160.47 103.195 160.52C103.213 160.571 103.209 160.625 103.185 160.681L102.857 161.558C102.832 161.615 102.8 161.651 102.759 161.667C102.71 161.695 102.657 161.697 102.6 161.673L101.178 161.099C101.156 161.091 101.135 161.094 101.115 161.108C101.096 161.121 101.088 161.143 101.092 161.175L101.297 162.555C101.304 162.607 101.294 162.651 101.267 162.687C101.23 162.735 101.186 162.762 101.134 162.769L100.238 162.891C100.186 162.898 100.141 162.883 100.104 162.846C100.058 162.82 100.031 162.781 100.024 162.728L99.8513 161.344C99.847 161.313 99.8337 161.293 99.8113 161.286C99.789 161.278 99.768 161.281 99.7485 161.294L98.5319 162.228C98.4929 162.255 98.4629 162.269 98.4419 162.272C98.3686 162.282 98.3061 162.254 98.2542 162.186L97.7029 161.429C97.6763 161.39 97.6608 161.355 97.6565 161.323C97.6479 161.261 97.6781 161.209 97.7472 161.167L98.988 160.294C99.0361 160.255 99.0318 160.224 98.9752 160.2L97.5436 159.675C97.4884 159.661 97.452 159.629 97.4343 159.578C97.4063 159.528 97.4043 159.475 97.4286 159.419L97.757 158.542C97.7813 158.485 97.8182 158.443 97.8677 158.415C97.9081 158.398 97.9567 158.403 98.0133 158.427L99.4378 159.016C99.4616 159.035 99.4832 159.037 99.5027 159.024C99.5223 159.01 99.5299 158.988 99.5256 158.956L99.317 157.545C99.3099 157.493 99.3244 157.443 99.3606 157.395C99.3877 157.359 99.4274 157.338 99.4798 157.331L100.375 157.209Z" fill="#222629"/>
<path d="M86.3052 157.598C86.3278 157.578 86.3345 157.557 86.3255 157.536C86.3164 157.514 86.2961 157.502 86.2645 157.499L81.9789 157.197C81.9262 157.193 81.8855 157.169 81.8569 157.124C81.817 157.09 81.7988 157.046 81.8026 156.994L81.9109 155.46C81.9147 155.407 81.9391 155.361 81.9842 155.322C82.0181 155.292 82.0614 155.279 82.1141 155.283L89.2303 155.786C89.283 155.79 89.3294 155.809 89.3693 155.843C89.3979 155.888 89.4104 155.936 89.4067 155.989L89.3039 157.444C89.2972 157.539 89.26 157.616 89.1923 157.674C88.6399 158.144 88.0741 158.655 87.4947 159.207C86.9146 159.77 86.5508 160.121 86.4033 160.259C86.0835 160.586 85.7596 160.897 85.4315 161.191C84.3969 162.188 83.8614 162.945 83.8249 163.462C83.7988 163.831 83.9094 164.14 84.1566 164.391C84.403 164.652 84.7371 164.798 85.1588 164.827C85.5805 164.857 85.9317 164.76 86.2124 164.536C86.4923 164.323 86.6461 164.021 86.6736 163.631L86.7015 163.236C86.7053 163.183 86.7297 163.137 86.7748 163.098C86.8087 163.069 86.852 163.056 86.9047 163.059L88.7707 163.191C88.8235 163.195 88.8698 163.214 88.9097 163.249C88.9384 163.293 88.9508 163.342 88.9471 163.394L88.8946 164.138C88.8227 164.705 88.6081 165.193 88.2508 165.602C87.8927 166.022 87.4366 166.329 86.8826 166.523C86.318 166.716 85.6983 166.788 85.0236 166.741C84.2751 166.688 83.6367 166.5 83.1086 166.176C82.5693 165.863 82.1687 165.458 81.907 164.963C81.6348 164.467 81.5192 163.929 81.5602 163.349C81.5914 162.907 81.7342 162.461 81.9883 162.013C82.2425 161.565 82.61 161.087 83.0907 160.581C83.4466 160.193 83.8284 159.812 84.2363 159.438C84.6441 159.064 85.2491 158.524 86.0512 157.818L86.3052 157.598Z" fill="#222629"/>
<path d="M71.6045 158.383C71.5619 157.844 71.5933 157.336 71.6987 156.862C71.8155 156.335 72.0034 155.879 72.2624 155.493C72.6463 154.885 73.1809 154.452 73.8664 154.192C74.5496 153.944 75.2935 153.908 76.0983 154.087C76.8824 154.261 77.5325 154.6 78.0485 155.105C78.5518 155.617 78.8552 156.225 78.9585 156.93C79.0022 157.222 79.0166 157.523 79.0017 157.833L78.9948 157.864C78.9697 157.978 78.8952 158.021 78.7713 157.993L76.8987 157.577C76.7955 157.555 76.741 157.483 76.7353 157.363C76.7387 157.298 76.7347 157.243 76.7232 157.198C76.7117 157.152 76.7043 157.112 76.7008 157.079C76.6572 156.788 76.5482 156.547 76.3739 156.357C76.1997 156.166 75.9732 156.04 75.6947 155.979C75.4058 155.914 75.1358 155.936 74.8848 156.042C74.6337 156.149 74.4257 156.33 74.2607 156.586C74.1117 156.769 74.0006 157.026 73.9273 157.356C73.8609 157.656 73.8478 157.934 73.8879 158.192C73.9006 158.476 73.9993 158.715 74.1839 158.907C74.3685 159.1 74.6052 159.228 74.8941 159.292C75.183 159.356 75.4662 159.349 75.7436 159.27C76.021 159.191 76.225 159.052 76.3556 158.854C76.4095 158.757 76.488 158.72 76.5912 158.743L78.4948 159.166C78.5464 159.177 78.5893 159.203 78.6237 159.243C78.6455 159.291 78.6507 159.341 78.6393 159.393L77.2548 165.63C77.2433 165.682 77.2187 165.719 77.1808 165.743C77.1304 165.776 77.0794 165.786 77.0278 165.774L70.636 164.356C70.5844 164.344 70.5477 164.314 70.5259 164.266C70.4915 164.226 70.4801 164.18 70.4915 164.129L70.8248 162.627C70.8362 162.576 70.8672 162.534 70.9176 162.502C70.9554 162.478 71.0001 162.471 71.0517 162.483L75.3697 163.441C75.4212 163.453 75.4528 163.433 75.4642 163.381L75.9881 161.094C76.0042 161.022 75.9767 161 75.9056 161.027C75.3749 161.223 74.8051 161.254 74.1964 161.119C73.4742 160.958 72.886 160.633 72.432 160.142C71.9653 159.66 71.6894 159.074 71.6045 158.383Z" fill="#222629"/>
<path d="M62.2047 155.807C62.1556 155.787 62.1239 155.752 62.1099 155.701C62.0822 155.656 62.078 155.609 62.0973 155.56L62.6599 154.129C62.6793 154.08 62.7163 154.043 62.7711 154.019C62.8122 154.002 62.8574 154.002 62.9066 154.022L64.9279 154.816C64.9771 154.836 65.0113 154.821 65.0306 154.771L65.8137 152.78C65.833 152.73 65.8701 152.694 65.9249 152.67C65.966 152.652 66.0112 152.653 66.0603 152.672L67.4767 153.229C67.5259 153.248 67.5644 153.281 67.5921 153.325C67.6061 153.376 67.6035 153.426 67.5842 153.476L66.8011 155.467C66.7818 155.517 66.7967 155.551 66.8459 155.57L68.8672 156.365C68.9164 156.384 68.9548 156.416 68.9826 156.461C68.9966 156.512 68.994 156.562 68.9746 156.612L68.412 158.043C68.3927 158.092 68.3625 158.125 68.3213 158.143C68.2665 158.167 68.2145 158.169 68.1654 158.15L66.1441 157.355C66.0949 157.336 66.0606 157.351 66.0413 157.4L65.2408 159.436C65.2215 159.485 65.1913 159.519 65.1502 159.537C65.0954 159.561 65.0434 159.563 64.9942 159.544L63.5778 158.987C63.5286 158.968 63.497 158.932 63.483 158.881C63.4552 158.837 63.451 158.789 63.4704 158.74L64.2708 156.704C64.2901 156.655 64.2752 156.621 64.226 156.601L62.2047 155.807Z" fill="#222629"/>
<path d="M53.6022 144.698C53.6458 144.728 53.6761 144.768 53.6931 144.818C53.6954 144.871 53.6816 144.919 53.6517 144.962L51.3859 148.272C51.362 148.307 51.3484 148.336 51.3452 148.359L50.3321 155.62C50.3257 155.667 50.3165 155.699 50.3046 155.716C50.2568 155.786 50.1849 155.788 50.089 155.722L48.4408 154.594C48.3536 154.534 48.3194 154.453 48.3383 154.351L49.0854 149.752C49.0951 149.682 49.0689 149.664 49.0069 149.698L44.9895 152.058C44.9009 152.113 44.813 152.11 44.7258 152.05L43.0514 150.904C42.9903 150.862 42.963 150.818 42.9695 150.771C42.9612 150.727 42.9911 150.683 43.059 150.64L49.4877 147.088C49.5083 147.076 49.5306 147.053 49.5545 147.018L51.8204 143.709C51.8502 143.665 51.8945 143.638 51.9533 143.627C51.9974 143.618 52.0412 143.629 52.0848 143.659L53.6022 144.698Z" fill="#222629"/>
<path d="M39.5915 139.525C39.8179 139.187 40.1077 138.843 40.4608 138.493C40.5547 138.408 40.6482 138.408 40.7413 138.494L44.3347 141.823C44.3812 141.866 44.4147 141.861 44.4351 141.808C44.5555 141.632 44.6565 141.437 44.7381 141.224C44.9388 140.604 44.729 140.006 44.1088 139.431C43.6054 138.979 43.0272 138.818 42.374 138.948C42.2999 138.965 42.2434 138.956 42.2047 138.92C42.1814 138.899 42.1686 138.858 42.1664 138.799L42.094 137.197C42.0912 137.122 42.1041 137.07 42.1328 137.039C42.1472 137.023 42.1915 137.006 42.2656 136.989C42.8159 136.908 43.3752 136.965 43.9436 137.16C44.5048 137.363 45.0257 137.687 45.5064 138.133C46.1731 138.75 46.599 139.426 46.7841 140.159C46.9613 140.885 46.8994 141.613 46.5981 142.343C46.4018 142.881 46.0127 143.464 45.4309 144.092C45.0359 144.519 44.6294 144.841 44.2114 145.059C43.5231 145.444 42.8071 145.595 42.0636 145.511C41.3122 145.42 40.6303 145.091 40.0178 144.523C39.2425 143.805 38.8306 143.005 38.7821 142.125C38.7257 141.237 38.9955 140.37 39.5915 139.525ZM41.3207 143.094C41.8091 143.546 42.3427 143.616 42.9216 143.302C43.046 143.23 43.188 143.131 43.3477 143.005C43.3837 142.966 43.3822 142.929 43.3435 142.893L41.3316 141.029C41.2851 140.986 41.2516 140.991 41.2312 141.044C41.0617 141.305 40.9805 141.431 40.9877 141.424C40.842 141.721 40.8008 142.014 40.8642 142.303C40.9127 142.593 41.0648 142.857 41.3207 143.094Z" fill="#222629"/>
<path d="M32.8024 136.875C32.3694 136.341 32.0774 135.789 31.9264 135.217C31.7672 134.652 31.7543 134.125 31.8878 133.635C32.0146 133.138 32.2749 132.729 32.6688 132.409L36.8411 129.022C36.8821 128.989 36.9324 128.975 36.9918 128.981C37.0364 128.986 37.0754 129.009 37.1087 129.05L38.2778 130.49C38.3111 130.531 38.3288 130.578 38.3308 130.63C38.318 130.682 38.291 130.724 38.25 130.757L37.8439 131.087C37.8192 131.107 37.8095 131.129 37.8146 131.152C37.8197 131.175 37.8413 131.184 37.8792 131.181C38.6103 131.159 39.2855 131.53 39.9051 132.293C40.4247 132.933 40.6884 133.576 40.6964 134.223C40.7043 134.87 40.4047 135.44 39.7975 135.933C39.1657 136.446 38.4977 136.621 37.7933 136.458C37.0808 136.301 36.3915 135.812 35.7253 134.992L34.7061 133.737C34.6728 133.695 34.6356 133.692 34.5946 133.725L34.3238 133.945C34.0531 134.165 33.9105 134.417 33.896 134.701C33.8733 134.991 33.9952 135.301 34.2617 135.629C34.4682 135.883 34.6865 136.06 34.9167 136.159C35.1401 136.25 35.3539 136.253 35.558 136.169C35.6682 136.121 35.7526 136.141 35.811 136.229L36.8231 137.878C36.8866 137.99 36.8863 138.065 36.8222 138.104C36.451 138.351 36.0293 138.468 35.5571 138.457C35.0783 138.437 34.6011 138.294 34.1254 138.027C33.6431 137.751 33.2021 137.367 32.8024 136.875ZM38.233 132.874C37.9466 132.521 37.6091 132.299 37.2205 132.206C36.832 132.113 36.49 132.186 36.1946 132.426L35.7515 132.786C35.7105 132.819 35.7067 132.856 35.74 132.897L36.4594 133.783C36.7592 134.153 37.0654 134.387 37.3781 134.487C37.6841 134.579 37.9643 134.522 38.2187 134.315C38.4402 134.136 38.5533 133.914 38.558 133.652C38.5545 133.396 38.4462 133.137 38.233 132.874Z" fill="#222629"/>
<path d="M26.5565 128.028C26.3523 127.707 26.2531 127.413 26.2589 127.147C26.2492 127.053 26.299 126.983 26.4085 126.939L28.1121 126.25C28.2248 126.191 28.2957 126.233 28.3249 126.378C28.3653 126.54 28.4423 126.71 28.5557 126.888C28.6011 126.96 28.6724 127.052 28.7697 127.166C29.0006 127.47 29.294 127.665 29.6498 127.752C29.9967 127.844 30.3441 127.78 30.6919 127.559L34.3438 125.236C34.3884 125.208 34.4399 125.2 34.4983 125.213C34.542 125.223 34.5781 125.25 34.6064 125.295L35.6018 126.86C35.6302 126.905 35.6423 126.953 35.6382 127.006C35.6196 127.055 35.588 127.094 35.5434 127.123L28.9885 131.291C28.944 131.32 28.8998 131.329 28.856 131.319C28.7976 131.306 28.7543 131.277 28.7259 131.233L27.7306 129.668C27.7022 129.623 27.6974 129.576 27.716 129.527C27.7201 129.474 27.7444 129.433 27.789 129.405L28.2973 129.082C28.3241 129.065 28.3363 129.045 28.3338 129.021C28.3314 128.997 28.3184 128.987 28.2949 128.989C27.5273 128.964 26.9478 128.644 26.5565 128.028Z" fill="#222629"/>
<path d="M31.1116 118.854C31.4225 119.49 31.6038 120.09 31.6555 120.653C31.7071 121.215 31.6365 121.709 31.4436 122.132C31.246 122.547 30.9431 122.853 30.5348 123.053L30.3924 123.123C30.3449 123.146 30.3 123.15 30.2576 123.136C30.201 123.116 30.1611 123.083 30.1379 123.035L29.3652 121.454C29.342 121.407 29.3424 121.36 29.3665 121.313C29.3764 121.261 29.4051 121.223 29.4526 121.2L29.4668 121.193C29.6757 121.091 29.8005 120.889 29.841 120.587C29.8674 120.28 29.7948 119.95 29.623 119.599C29.4653 119.276 29.2759 119.045 29.055 118.906C28.8246 118.772 28.6145 118.751 28.4246 118.844C28.2536 118.927 28.1672 119.075 28.1653 119.288C28.1634 119.501 28.2101 119.825 28.3054 120.261C28.4096 120.763 28.4721 121.167 28.493 121.475C28.5811 122.185 28.5614 122.794 28.4339 123.303C28.3064 123.813 27.9578 124.207 27.3881 124.485C26.6854 124.829 25.9977 124.829 25.3248 124.488C24.6379 124.141 24.0739 123.517 23.6331 122.615C23.336 122.007 23.1758 121.427 23.1525 120.874C23.1196 120.325 23.2185 119.841 23.4492 119.423C23.6752 118.995 24.0114 118.672 24.4576 118.453C24.5051 118.43 24.5571 118.428 24.6137 118.448C24.6561 118.462 24.6889 118.493 24.7121 118.541L25.457 120.065C25.4802 120.112 25.4868 120.162 25.4769 120.214C25.4528 120.261 25.4171 120.296 25.3696 120.319C25.1607 120.421 25.0384 120.616 25.0027 120.904C24.9624 121.183 25.0281 121.498 25.1998 121.849C25.3529 122.163 25.5352 122.391 25.7466 122.535C25.958 122.678 26.1634 122.702 26.3628 122.604C26.5527 122.511 26.6488 122.347 26.6509 122.11C26.6484 121.865 26.588 121.488 26.4697 120.981C26.4471 120.863 26.4223 120.728 26.3953 120.577C26.3588 120.43 26.3272 120.269 26.3004 120.094C26.1703 119.322 26.1668 118.665 26.2899 118.123C26.4129 117.58 26.7736 117.163 27.3718 116.87C28.0744 116.527 28.7621 116.538 29.4347 116.903C30.0932 117.264 30.6522 117.914 31.1116 118.854Z" fill="#222629"/>
<path d="M26.4812 106.246C26.6962 107.107 26.6549 107.902 26.3572 108.629C26.0596 109.357 25.5493 109.931 24.8263 110.351C24.3802 110.615 23.8751 110.818 23.3112 110.958C22.7062 111.109 22.1448 111.173 21.627 111.15C20.8093 111.104 20.1083 110.826 19.5241 110.319C18.9399 109.811 18.5402 109.126 18.3252 108.265C18.1154 107.424 18.1515 106.653 18.4338 105.95C18.7057 105.251 19.1904 104.683 19.8878 104.248C20.3596 103.956 20.8774 103.739 21.4414 103.598C21.9951 103.46 22.5309 103.403 23.0487 103.426C23.9048 103.452 24.6404 103.715 25.2554 104.215C25.8576 104.707 26.2662 105.384 26.4812 106.246ZM24.62 106.71C24.5356 106.372 24.3614 106.11 24.0974 105.926C23.8335 105.741 23.5092 105.642 23.1247 105.629C22.7761 105.629 22.407 105.678 22.0173 105.775C21.5867 105.882 21.2329 106.014 20.956 106.17C20.6355 106.37 20.4073 106.612 20.2713 106.897C20.1353 107.181 20.1096 107.493 20.1941 107.831C20.2811 108.18 20.4514 108.448 20.7051 108.635C20.9563 108.812 21.269 108.908 21.6432 108.924C21.9098 108.944 22.284 108.895 22.766 108.774C23.2274 108.659 23.5774 108.534 23.8158 108.398C24.1491 108.206 24.3889 107.966 24.5351 107.679C24.6787 107.382 24.7071 107.059 24.62 106.71Z" fill="#222629"/>
<path d="M16.4227 96.7585C16.4161 96.7061 16.4318 96.6615 16.4698 96.6248C16.496 96.5789 16.5353 96.5526 16.5878 96.5461L18.0821 96.3585C18.1345 96.352 18.1844 96.367 18.2316 96.4037C18.267 96.4312 18.288 96.4712 18.2946 96.5236L18.486 98.0494C18.4926 98.1018 18.5221 98.1248 18.5746 98.1182L24.5362 97.3701C24.5886 97.3635 24.6384 97.3785 24.6856 97.4152C24.721 97.4427 24.742 97.4827 24.7486 97.5351L24.9796 99.3755C24.9861 99.428 24.9763 99.4771 24.9501 99.523C24.9121 99.5597 24.8669 99.5814 24.8145 99.588L18.8529 100.336C18.8004 100.343 18.7775 100.372 18.7841 100.425L18.9006 101.353C18.9071 101.405 18.8973 101.454 18.8711 101.5C18.8331 101.537 18.7879 101.559 18.7355 101.565L17.2412 101.753C17.1887 101.759 17.1448 101.749 17.1094 101.721C17.0622 101.685 17.0353 101.64 17.0287 101.588L16.9122 100.66C16.9057 100.607 16.8762 100.584 16.8237 100.591L16.4777 100.634C15.8275 100.716 15.3116 100.679 14.9301 100.525C14.5381 100.372 14.241 100.084 14.0389 99.662C13.825 99.2308 13.6792 98.6206 13.6015 97.8315L13.5265 97.2338C13.5199 97.1814 13.5356 97.1368 13.5736 97.1001C13.5998 97.0542 13.6391 97.0279 13.6916 97.0213L14.9657 96.8615C15.0181 96.8549 15.0679 96.8699 15.1152 96.9066C15.1506 96.9341 15.1716 96.9741 15.1781 97.0265L15.2433 97.5456C15.2998 97.9113 15.4107 98.1584 15.5759 98.2868C15.7294 98.406 15.9949 98.4419 16.3724 98.3945L16.5454 98.3728C16.5978 98.3662 16.6208 98.3367 16.6142 98.2843L16.4227 96.7585Z" fill="#222629"/>
<path d="M15.3619 81.2313C15.4146 81.2346 15.4608 81.2588 15.5002 81.3037C15.5298 81.3374 15.543 81.3806 15.5396 81.4333L15.2066 86.6225C15.2032 86.6752 15.2279 86.7033 15.2806 86.7067L17.7328 86.864C17.7855 86.8674 17.8136 86.8427 17.817 86.79L18.0353 83.3885C18.0386 83.3358 18.0625 83.295 18.1067 83.266C18.141 83.2259 18.1846 83.2075 18.2373 83.2109L19.7719 83.3094C19.8246 83.3127 19.8707 83.3369 19.9102 83.3818C19.9398 83.4155 19.953 83.4587 19.9496 83.5114L19.7313 86.9128C19.7279 86.9656 19.7526 86.9936 19.8053 86.997L22.3683 87.1615C22.421 87.1649 22.4491 87.1402 22.4524 87.0875L22.7854 81.8983C22.7888 81.8455 22.8126 81.8047 22.8569 81.7758C22.8912 81.7356 22.9347 81.7172 22.9875 81.7206L24.5221 81.8191C24.5748 81.8225 24.6209 81.8466 24.6604 81.8915C24.69 81.9252 24.7031 81.9684 24.6997 82.0211L24.2307 89.3303C24.2273 89.383 24.2085 89.4295 24.1741 89.4696C24.1299 89.4986 24.0814 89.5113 24.0287 89.5079L13.3339 88.8216C13.2812 88.8182 13.24 88.7997 13.2104 88.766C13.1709 88.7212 13.1528 88.6723 13.1562 88.6196L13.6253 81.3104C13.6287 81.2577 13.6525 81.2169 13.6967 81.1879C13.731 81.1478 13.7746 81.1294 13.8273 81.1328L15.3619 81.2313Z" fill="#222629"/>
<path d="M24.9217 80.3115C24.9067 80.384 24.8752 80.4314 24.8274 80.4538C24.7713 80.4638 24.7166 80.4416 24.6631 80.3873L21.4727 77.1175C21.446 77.0903 21.4149 77.0839 21.3796 77.0981L17.1506 78.8262C17.1049 78.8383 17.0665 78.8411 17.0355 78.8347C16.9527 78.8175 16.9221 78.7571 16.9436 78.6536L17.3468 76.7134C17.3661 76.6203 17.4226 76.5565 17.5161 76.5219L19.9328 75.5669C20.0035 75.5384 20.0111 75.5022 19.9554 75.4582L18.1193 73.6194C18.0472 73.5505 18.0209 73.4694 18.0402 73.3763L18.4724 71.2964C18.4875 71.224 18.523 71.1828 18.5791 71.1728C18.6248 71.1607 18.6744 71.1818 18.7278 71.2361L21.9214 74.4905C21.9503 74.5073 21.9814 74.5137 22.0146 74.5098L26.2403 72.7972C26.2757 72.783 26.314 72.7802 26.3554 72.7888C26.4382 72.806 26.4699 72.8611 26.4506 72.9543L26.0442 74.91C26.0248 75.0031 25.9684 75.067 25.8748 75.1015L23.4581 76.0566C23.3895 76.0747 23.3831 76.1057 23.4387 76.1497L25.2749 77.9885C25.3469 78.0575 25.3733 78.1385 25.3539 78.2316L24.9217 80.3115Z" fill="#222629"/>
<path d="M23.7863 62.4224C24.3578 62.4282 24.9862 62.5559 25.6714 62.8056C26.3566 63.0552 26.9428 63.3757 27.4302 63.767C27.9825 64.227 28.3568 64.774 28.5533 65.408C28.7434 66.0284 28.7064 66.7011 28.4423 67.426C28.1817 68.141 27.7309 68.6066 27.0896 68.8229C27.0526 68.8319 27.0354 68.8481 27.0381 68.8716C27.0408 68.8951 27.0571 68.9123 27.0869 68.9231L30.2744 70.0846C30.3241 70.1027 30.3566 70.137 30.3719 70.1876C30.4008 70.2318 30.4061 70.2788 30.388 70.3285L29.753 72.0712C29.735 72.1208 29.6988 72.1583 29.6446 72.1835C29.604 72.2025 29.5588 72.2029 29.5092 72.1848L19.44 68.5159C19.3903 68.4978 19.3561 68.4684 19.3371 68.4278C19.3119 68.3736 19.3083 68.3217 19.3264 68.272L19.9614 66.5293C19.9795 66.4796 20.0138 66.4471 20.0644 66.4318C20.1086 66.403 20.1556 66.3976 20.2053 66.4157L20.6968 66.5948C20.7266 66.6056 20.7501 66.6029 20.7672 66.5867C20.7745 66.5668 20.7718 66.5434 20.7592 66.5163C20.365 65.9002 20.3017 65.2247 20.5695 64.4899C20.8192 63.8047 21.2281 63.2844 21.7963 62.929C22.3581 62.5601 23.0215 62.3912 23.7863 62.4224ZM26.2924 65.9171C25.9956 65.5278 25.5145 65.2119 24.8492 64.9694C24.2236 64.7415 23.6891 64.6648 23.2457 64.7395C22.7355 64.8123 22.3881 65.1019 22.2036 65.6084C22.0371 66.0652 22.1258 66.4855 22.4696 66.8695C22.7511 67.2083 23.2146 67.4953 23.86 67.7305C24.5253 67.9729 25.0815 68.0518 25.5285 67.9672C26.0089 67.8836 26.3306 67.6183 26.4934 67.1715C26.6562 66.7246 26.5892 66.3065 26.2924 65.9171Z" fill="#222629"/>
<path d="M29.5662 53.3404C29.9494 53.4764 30.3541 53.6723 30.7805 53.928C30.8869 53.9978 30.9098 54.0885 30.8493 54.1999L28.5107 58.5043C28.4804 58.56 28.4935 58.5912 28.5501 58.5978C28.7509 58.6709 28.9644 58.7207 29.1905 58.7473C29.8417 58.7884 30.3692 58.4375 30.7728 57.6946C31.0865 57.0952 31.0998 56.495 30.8129 55.8941C30.7773 55.8267 30.7722 55.7697 30.7974 55.7233C30.8125 55.6955 30.8488 55.673 30.9061 55.6561L32.4401 55.1905C32.5117 55.1693 32.5661 55.1688 32.6033 55.1889C32.6218 55.199 32.6489 55.2378 32.6844 55.3052C32.8987 55.8185 32.9814 56.3747 32.9326 56.9736C32.8746 57.5675 32.6891 58.1524 32.3763 58.7281C31.9424 59.5268 31.393 60.1063 30.7281 60.4668C30.0682 60.8179 29.3476 60.9376 28.5664 60.8259C27.9961 60.7686 27.3348 60.5356 26.5826 60.1269C26.0719 59.8494 25.6593 59.5351 25.3449 59.1839C24.8016 58.612 24.4788 57.9555 24.3763 57.2142C24.2789 56.4637 24.4295 55.7216 24.8281 54.988C25.3327 54.0593 26.0056 53.4627 26.847 53.1981C27.6934 52.9243 28.5998 52.9717 29.5662 53.3404ZM26.5351 55.8974C26.2173 56.4824 26.2818 57.0167 26.7288 57.5001C26.8294 57.6028 26.9603 57.7161 27.1216 57.8398C27.1681 57.865 27.2039 57.8544 27.2291 57.808L28.5384 55.3981C28.5687 55.3424 28.5556 55.3112 28.4991 55.3045C28.2045 55.2046 28.0619 55.1572 28.0712 55.1623C27.7472 55.0945 27.4528 55.127 27.1882 55.2599C26.9193 55.3784 26.7017 55.5909 26.5351 55.8974Z" fill="#222629"/>
<path d="M30.7191 45.7689C30.9393 45.4585 31.1739 45.2557 31.423 45.1603C31.5064 45.1158 31.5894 45.1358 31.672 45.2204L32.9533 46.5377C33.0506 46.6197 33.038 46.7014 32.9154 46.7829C32.7805 46.8816 32.652 47.0172 32.5296 47.1896C32.4807 47.2585 32.4221 47.3595 32.3537 47.4924C32.1594 47.821 32.0892 48.1665 32.1432 48.5287C32.1885 48.8849 32.3793 49.1822 32.7154 49.4207L36.2451 51.9252C36.2882 51.9558 36.3148 52.0005 36.3248 52.0595C36.3323 52.1037 36.3207 52.1473 36.2902 52.1904L35.2168 53.7032C35.1862 53.7463 35.1458 53.7759 35.0955 53.792C35.0426 53.7934 34.9947 53.7788 34.9516 53.7482L28.6163 49.253C28.5732 49.2225 28.5479 49.1851 28.5403 49.1409C28.5303 49.0819 28.5406 49.0309 28.5712 48.9878L29.6445 47.4751C29.6751 47.432 29.7168 47.4097 29.7696 47.4083C29.82 47.3922 29.8667 47.3994 29.9098 47.43L30.4011 47.7786C30.4269 47.797 30.4503 47.8006 30.4711 47.7895C30.492 47.7783 30.4969 47.7623 30.4857 47.7415C30.2193 47.0211 30.2971 46.3636 30.7191 45.7689Z" fill="#222629"/>
<path d="M32.6124 42.106C32.3825 42.3822 32.1004 42.5392 31.7662 42.5772C31.4306 42.6003 31.1247 42.4969 30.8486 42.2669C30.5644 42.0302 30.4073 41.7481 30.3774 41.4206C30.3476 41.0932 30.451 40.7873 30.6877 40.5031C30.9244 40.2188 31.2065 40.0618 31.534 40.0319C31.8615 40.002 32.1673 40.1055 32.4516 40.3422C32.7277 40.5722 32.8813 40.8583 32.9126 41.2007C32.9424 41.5281 32.8424 41.8299 32.6124 42.106ZM38.9718 48.64C38.938 48.6806 38.8953 48.707 38.8439 48.7192C38.7911 48.7165 38.7444 48.6983 38.7038 48.6645L32.7225 43.6832C32.6819 43.6493 32.6596 43.6101 32.6555 43.5654C32.6501 43.5059 32.6643 43.4558 32.6981 43.4152L33.8851 41.9899C33.9189 41.9493 33.9622 41.9304 34.015 41.9331C34.0664 41.9209 34.1124 41.9317 34.153 41.9655L40.1343 46.9468C40.1749 46.9806 40.1979 47.0273 40.2034 47.0869C40.2075 47.1315 40.1926 47.1741 40.1588 47.2148L38.9718 48.64Z" fill="#222629"/>
<path d="M43.043 37.1794C43.3694 37.4219 43.6988 37.728 44.0314 38.0976C44.1126 38.1956 44.1079 38.289 44.0173 38.3777L40.5181 41.8059C40.4728 41.8503 40.4762 41.884 40.5283 41.9069C40.6988 42.0357 40.8883 42.146 41.0966 42.2379C41.7071 42.4683 42.3143 42.2877 42.9183 41.696C43.394 41.2151 43.583 40.6453 43.4851 39.9866C43.4709 39.9117 43.4827 39.8558 43.5205 39.8188C43.5431 39.7966 43.5843 39.7858 43.6441 39.7864L45.2472 39.7917C45.3219 39.7924 45.374 39.8079 45.4036 39.8381C45.4184 39.8532 45.4329 39.8982 45.4471 39.9731C45.5012 40.5267 45.417 41.0826 45.1946 41.6409C44.9647 42.1916 44.6157 42.6962 44.1477 43.1548C43.4984 43.7908 42.8031 44.1836 42.0617 44.3329C41.3278 44.4748 40.6038 44.3777 39.8898 44.0416C39.3614 43.8194 38.7977 43.4026 38.1986 42.7911C37.7918 42.3759 37.4897 41.9542 37.2923 41.5262C36.9408 40.8201 36.8249 40.0977 36.9446 39.359C37.0718 38.613 37.4336 37.9478 38.0301 37.3635C38.785 36.6238 39.6035 36.2511 40.4854 36.2452C41.3749 36.2319 42.2275 36.5433 43.043 37.1794ZM39.3949 38.7339C38.9193 39.1999 38.8242 39.7296 39.1096 40.3229C39.1755 40.4506 39.2674 40.5973 39.3853 40.7629C39.4223 40.8007 39.4597 40.8011 39.4974 40.7641L41.4565 38.8448C41.5018 38.8004 41.4984 38.7667 41.4463 38.7438C41.1941 38.5618 41.0717 38.4746 41.0791 38.4821C40.7892 38.3222 40.4983 38.2669 40.2063 38.3163C39.9145 38.3506 39.644 38.4899 39.3949 38.7339Z" fill="#222629"/>
<path d="M46.726 30.021C47.4087 29.5223 48.1119 29.3292 48.8356 29.4418C49.5592 29.5545 50.1829 29.9692 50.7067 30.6861L53.7742 34.8847C53.8054 34.9274 53.8164 34.9783 53.8072 35.0373C53.8003 35.0816 53.7755 35.1194 53.7328 35.1506L52.2351 36.2448C52.1925 36.2759 52.1447 36.2912 52.0919 36.2905C52.0413 36.2751 52.0005 36.2461 51.9693 36.2034L49.173 32.376C48.9236 32.0346 48.6228 31.829 48.2707 31.759C47.927 31.6828 47.5974 31.7601 47.2816 31.9908C46.9659 32.2215 46.7878 32.5152 46.7474 32.8719C46.7155 33.2225 46.8243 33.5684 47.0737 33.9097L49.87 37.7372C49.9012 37.7798 49.9122 37.8307 49.903 37.8898C49.8961 37.9341 49.8713 37.9718 49.8286 38.003L48.3309 39.0972C48.2883 39.1284 48.2405 39.1437 48.1877 39.143C48.1371 39.1276 48.0963 39.0985 48.0651 39.0558L43.4825 32.7835C43.4513 32.7408 43.4391 32.6973 43.446 32.653C43.4552 32.5939 43.4812 32.5488 43.5238 32.5176L45.0215 31.4234C45.0642 31.3922 45.1108 31.3844 45.1613 31.3998C45.2142 31.4005 45.2562 31.4221 45.2874 31.4648L45.6147 31.9128C45.6334 31.9384 45.6544 31.9493 45.6777 31.9453C45.701 31.9414 45.7107 31.9278 45.7068 31.9045C45.695 31.1539 46.0348 30.5261 46.726 30.021Z" fill="#222629"/>
<path d="M59.2189 32.1096C58.4719 32.5058 57.724 32.6632 56.975 32.5819C56.2354 32.4957 55.5755 32.1877 54.9955 31.6579C54.5891 31.2753 54.2176 30.7665 53.8808 30.1316C53.549 29.5061 53.3411 28.9224 53.2572 28.3807C53.1445 27.627 53.2671 26.922 53.6248 26.2656C53.9825 25.6093 54.5349 25.0831 55.2818 24.6869C56.0287 24.2907 56.7813 24.1308 57.5396 24.2071C58.3073 24.2785 58.9355 24.5494 59.4243 25.0199C59.6179 25.2044 59.7444 25.3526 59.8038 25.4647L59.8186 25.4927C59.8632 25.5767 59.8438 25.6528 59.7603 25.721L58.276 26.8134L58.248 26.8282C58.164 26.8728 58.0832 26.8558 58.0057 26.7773L57.8448 26.5755C57.6507 26.3674 57.3995 26.2435 57.0912 26.2036C56.7829 26.1637 56.4747 26.2255 56.1666 26.3889C55.8679 26.5474 55.6554 26.7558 55.5292 27.0141C55.403 27.2725 55.3673 27.5547 55.4219 27.8607C55.4678 28.1952 55.6195 28.6053 55.877 29.0908C56.1345 29.5763 56.3842 29.9343 56.6262 30.1649C56.8588 30.4004 57.1199 30.5431 57.4095 30.5929C57.7084 30.6377 58.0072 30.5809 58.306 30.4224C58.5955 30.2689 58.8079 30.0605 58.9434 29.7972C59.0833 29.5196 59.1235 29.2231 59.0639 28.9078C59.0633 28.8842 59.0531 28.8537 59.0333 28.8163C59.0377 28.8021 59.035 28.7856 59.0251 28.7669C58.975 28.6499 59.0156 28.5686 59.1468 28.5229L60.8911 27.9207C60.9944 27.8898 61.0683 27.9164 61.1129 28.0004C61.1525 28.0751 61.1988 28.23 61.2517 28.4652C61.3875 29.1947 61.2646 29.888 60.8833 30.5448C60.5113 31.1968 59.9565 31.7184 59.2189 32.1096Z" fill="#222629"/>
<path d="M69.3757 22.3808C69.571 22.7374 69.7425 23.1531 69.8904 23.6278C69.9233 23.7507 69.88 23.8336 69.7606 23.8764L65.1498 25.5306C65.0901 25.5521 65.0791 25.5841 65.1168 25.6267C65.2181 25.8149 65.3442 25.9943 65.4951 26.1647C65.9536 26.629 66.5808 26.7183 67.3766 26.4328C68.0097 26.1945 68.4193 25.7556 68.6054 25.1162C68.6238 25.0422 68.6578 24.9963 68.7076 24.9785C68.7374 24.9678 68.7794 24.9752 68.8334 25.0007L70.2879 25.6747C70.3555 25.7066 70.3964 25.7424 70.4107 25.7822C70.4178 25.8021 70.4122 25.8491 70.3938 25.923C70.2119 26.4487 69.9033 26.9187 69.4681 27.3331C69.0293 27.7375 68.5015 28.0504 67.8848 28.2716C67.0292 28.5786 66.2334 28.6451 65.4974 28.4713C64.7712 28.2939 64.1539 27.9034 63.6455 27.2998C63.2581 26.8774 62.9199 26.2633 62.6308 25.4575C62.4345 24.9103 62.336 24.4011 62.3354 23.9297C62.3108 23.1414 62.507 22.4365 62.9242 21.8153C63.3513 21.1905 63.9577 20.7371 64.7436 20.4551C65.7384 20.0982 66.6378 20.1012 67.4417 20.4641C68.2555 20.8233 68.9001 21.4623 69.3757 22.3808ZM65.4117 22.2703C64.785 22.4951 64.4774 22.9367 64.489 23.595C64.4956 23.7386 64.5179 23.9103 64.5559 24.11C64.5737 24.1597 64.6075 24.1757 64.6572 24.1578L67.2387 23.2317C67.2984 23.2103 67.3094 23.1783 67.2717 23.1357C67.1184 22.865 67.0436 22.7347 67.0472 22.7446C66.8506 22.4783 66.6093 22.3066 66.3234 22.2295C66.0439 22.1389 65.74 22.1525 65.4117 22.2703Z" fill="#222629"/>
<path d="M80.5421 21.6648C80.4898 21.6722 80.4405 21.6631 80.3942 21.6376C80.3569 21.6002 80.3346 21.5553 80.3272 21.503L80.1435 20.088C80.139 20.0566 80.1256 20.0372 80.1032 20.0296C80.0808 20.0221 80.0606 20.0303 80.0426 20.0542L78.8326 21.0095C78.7937 21.0363 78.7638 21.0512 78.7428 21.0542C78.6696 21.0645 78.6069 21.036 78.5547 20.9687L77.9999 20.2144C77.9731 20.1755 77.9574 20.1404 77.953 20.109C77.9427 20.0357 77.9719 19.9782 78.0407 19.9365L79.2597 19.044C79.3075 19.0052 79.3031 18.9738 79.2464 18.9498L77.8325 18.4609C77.7772 18.4474 77.7354 18.4159 77.7071 18.3665C77.6892 18.3157 77.6923 18.2619 77.7163 18.2051L78.0407 17.3268C78.0647 17.2701 78.0969 17.2335 78.1373 17.2171C78.1866 17.1888 78.2397 17.1867 78.2964 17.2107L79.7214 17.778C79.7438 17.7856 79.7647 17.7826 79.7842 17.7692C79.8036 17.7558 79.8111 17.7334 79.8067 17.702L79.5961 16.3228C79.5887 16.2705 79.5985 16.2264 79.6254 16.1906C79.6614 16.1428 79.7055 16.1152 79.7578 16.1078L80.6526 15.9815C80.7049 15.9742 80.7497 15.9892 80.787 16.0266C80.8333 16.0521 80.8602 16.091 80.8676 16.1433L81.0468 17.5269C81.0513 17.5583 81.0647 17.5778 81.0871 17.5853C81.1095 17.5928 81.1304 17.5899 81.1499 17.5764L82.3621 16.6368C82.401 16.61 82.431 16.5951 82.4519 16.5922C82.5251 16.5818 82.5879 16.6103 82.6401 16.6777L83.1948 17.4319C83.2217 17.4708 83.2373 17.506 83.2417 17.5374C83.2506 17.6002 83.2206 17.6524 83.1518 17.6942L81.915 18.5732C81.8671 18.612 81.8715 18.6433 81.9283 18.6674L83.3622 19.1854C83.4175 19.199 83.4541 19.2312 83.4719 19.282C83.5003 19.3314 83.5024 19.3845 83.4784 19.4412L83.1541 20.3195C83.1301 20.3763 83.0934 20.4188 83.044 20.4471C83.0036 20.4635 82.955 20.4597 82.8983 20.4357L81.4711 19.8526C81.4472 19.8346 81.4256 19.8323 81.4061 19.8458C81.3867 19.8592 81.3792 19.8816 81.3836 19.913L81.5987 21.3236C81.6061 21.3759 81.5918 21.4259 81.5558 21.4737C81.5289 21.5095 81.4892 21.5311 81.4369 21.5385L80.5421 21.6648Z" fill="#222629"/>
<defs>
<linearGradient id="paint0_linear_14_6" x1="50.143" y1="90.6246" x2="130.143" y2="90.6246" gradientUnits="userSpaceOnUse">
<stop stop-color="#E01C08"/>
<stop offset="0.685" stop-color="#C01503"/>
<stop offset="1" stop-color="#B11101"/>
</linearGradient>
</defs>
</svg>
