<svg width="182" height="47" viewBox="0 0 182 47" fill="none" xmlns="http://www.w3.org/2000/svg">
<path d="M23.1383 0.865234C10.4397 0.865234 0.203125 11.1019 0.203125 23.8004C0.203125 36.499 10.4397 46.8652 23.1383 46.8652C35.8369 46.8652 46.0735 36.6286 46.0735 23.93C46.0735 11.2314 35.8369 0.865234 23.1383 0.865234ZM23.1383 41.423C13.42 41.423 5.64538 33.5188 5.64538 23.93C5.64538 14.2117 13.5496 6.43706 23.1383 6.43706C32.8566 6.43706 40.6313 14.3413 40.6313 23.93C40.6313 33.5188 32.8566 41.423 23.1383 41.423Z" fill="white"/>
<path d="M23.1387 14.6011C17.9556 14.6011 13.8091 18.7476 13.8091 23.9306C13.8091 29.1137 17.9556 33.2602 23.1387 33.2602C28.3218 33.2602 32.4682 29.1137 32.4682 23.9306C32.4682 18.7476 28.3218 14.6011 23.1387 14.6011ZM23.1387 29.2433C20.1584 29.2433 17.6964 26.7814 17.6964 23.8011C17.6964 20.8208 20.1584 18.3588 23.1387 18.3588C26.1189 18.3588 28.5809 20.8208 28.5809 23.8011C28.5809 26.9109 26.1189 29.2433 23.1387 29.2433Z" fill="white"/>
<path d="M23.1382 20.8203C21.4537 20.8203 20.0283 22.2457 20.0283 23.9302C20.0283 25.6147 21.4537 27.04 23.1382 27.04C24.8227 27.04 26.248 25.6147 26.248 23.9302C26.248 22.2457 24.8227 20.8203 23.1382 20.8203ZM21.1945 22.2457C21.1945 21.5978 21.7128 21.0795 22.3607 21.0795C23.0086 21.0795 23.5269 21.5978 23.5269 22.2457C23.5269 22.8936 23.0086 23.4119 22.3607 23.4119C21.7128 23.4119 21.1945 22.8936 21.1945 22.2457ZM22.879 26.6513C22.3607 26.6513 21.972 26.2626 21.972 25.7443C21.972 25.2259 22.3607 24.8372 22.879 24.8372C23.3973 24.8372 23.7861 25.2259 23.7861 25.7443C23.7861 26.2626 23.3973 26.6513 22.879 26.6513Z" fill="white"/>
<path d="M23.1381 12.7864C24.4262 12.7864 25.4705 11.7421 25.4705 10.454C25.4705 9.16583 24.4262 8.12158 23.1381 8.12158C21.8499 8.12158 20.8057 9.16583 20.8057 10.454C20.8057 11.7421 21.8499 12.7864 23.1381 12.7864Z" fill="white"/>
<path d="M23.1381 39.6086C24.4262 39.6086 25.4705 38.5644 25.4705 37.2762C25.4705 35.9881 24.4262 34.9438 23.1381 34.9438C21.8499 34.9438 20.8057 35.9881 20.8057 37.2762C20.8057 38.5644 21.8499 39.6086 23.1381 39.6086Z" fill="white"/>
<path d="M13.6791 16.6736C14.9672 16.6736 16.0115 15.6293 16.0115 14.3412C16.0115 13.053 14.9672 12.0088 13.6791 12.0088C12.3909 12.0088 11.3467 13.053 11.3467 14.3412C11.3467 15.6293 12.3909 16.6736 13.6791 16.6736Z" fill="white"/>
<path d="M32.5975 35.7219C33.8857 35.7219 34.9299 34.6777 34.9299 33.3895C34.9299 32.1014 33.8857 31.0571 32.5975 31.0571C31.3094 31.0571 30.2651 32.1014 30.2651 33.3895C30.2651 34.6777 31.3094 35.7219 32.5975 35.7219Z" fill="white"/>
<path d="M9.79187 26.2629C11.08 26.2629 12.1243 25.2187 12.1243 23.9305C12.1243 22.6424 11.08 21.5981 9.79187 21.5981C8.50372 21.5981 7.45947 22.6424 7.45947 23.9305C7.45947 25.2187 8.50372 26.2629 9.79187 26.2629Z" fill="white"/>
<path d="M36.6141 26.2629C37.9023 26.2629 38.9465 25.2187 38.9465 23.9305C38.9465 22.6424 37.9023 21.5981 36.6141 21.5981C35.326 21.5981 34.2817 22.6424 34.2817 23.9305C34.2817 25.2187 35.326 26.2629 36.6141 26.2629Z" fill="white"/>
<path d="M13.6791 35.7219C14.9672 35.7219 16.0115 34.6777 16.0115 33.3895C16.0115 32.1014 14.9672 31.0571 13.6791 31.0571C12.3909 31.0571 11.3467 32.1014 11.3467 33.3895C11.3467 34.6777 12.3909 35.7219 13.6791 35.7219Z" fill="white"/>
<path d="M32.5975 16.6736C33.8857 16.6736 34.9299 15.6293 34.9299 14.3412C34.9299 13.053 33.8857 12.0088 32.5975 12.0088C31.3094 12.0088 30.2651 13.053 30.2651 14.3412C30.2651 15.6293 31.3094 16.6736 32.5975 16.6736Z" fill="white"/>
<path d="M179.526 34.0425C178.874 34.0425 178.328 33.8317 177.887 33.41C177.465 32.9692 177.254 32.4229 177.254 31.7713C177.254 31.1004 177.465 30.5542 177.887 30.1325C178.309 29.7108 178.855 29.5 179.526 29.5C180.196 29.5 180.743 29.7108 181.164 30.1325C181.586 30.5542 181.797 31.1004 181.797 31.7713C181.797 32.4229 181.576 32.9692 181.136 33.41C180.714 33.8317 180.177 34.0425 179.526 34.0425Z" fill="#222629"/>
<path d="M169.89 18.9199C171.385 18.9199 172.554 19.3703 173.397 20.2712C174.241 21.172 174.662 22.437 174.662 24.0662V33.5824C174.662 33.6783 174.624 33.7645 174.547 33.8412C174.49 33.8987 174.413 33.9274 174.317 33.9274H170.954C170.858 33.9274 170.772 33.8987 170.695 33.8412C170.637 33.7645 170.609 33.6783 170.609 33.5824V24.9574C170.609 24.1716 170.407 23.5487 170.005 23.0887C169.602 22.6287 169.066 22.3987 168.395 22.3987C167.724 22.3987 167.178 22.6287 166.756 23.0887C166.335 23.5487 166.124 24.162 166.124 24.9287V33.5824C166.124 33.6783 166.085 33.7645 166.009 33.8412C165.951 33.8987 165.875 33.9274 165.779 33.9274H162.444C162.348 33.9274 162.262 33.8987 162.185 33.8412C162.127 33.7645 162.099 33.6783 162.099 33.5824V24.9574C162.099 24.1908 161.888 23.5774 161.466 23.1174C161.045 22.6383 160.498 22.3987 159.827 22.3987C159.214 22.3987 158.697 22.5808 158.275 22.9449C157.872 23.3091 157.633 23.817 157.556 24.4687V33.5824C157.556 33.6783 157.518 33.7645 157.441 33.8412C157.384 33.8987 157.307 33.9274 157.211 33.9274H153.847C153.752 33.9274 153.665 33.8987 153.589 33.8412C153.531 33.7645 153.502 33.6783 153.502 33.5824V19.4949C153.502 19.3991 153.531 19.3224 153.589 19.2649C153.665 19.1883 153.752 19.1499 153.847 19.1499H157.211C157.307 19.1499 157.384 19.1883 157.441 19.2649C157.518 19.3224 157.556 19.3991 157.556 19.4949V20.6162C157.556 20.6737 157.575 20.712 157.614 20.7312C157.652 20.7503 157.69 20.7312 157.729 20.6737C158.515 19.5045 159.732 18.9199 161.38 18.9199C162.338 18.9199 163.172 19.1212 163.881 19.5237C164.61 19.9262 165.165 20.5012 165.549 21.2487C165.606 21.3637 165.673 21.3637 165.75 21.2487C166.172 20.4628 166.737 19.8783 167.446 19.4949C168.175 19.1116 168.989 18.9199 169.89 18.9199Z" fill="white"/>
<path d="M144.207 18.9199C145.453 18.9199 146.565 19.1403 147.542 19.5812C148.52 20.0028 149.277 20.5874 149.813 21.3349C150.369 22.0824 150.647 22.9162 150.647 23.8362V33.5824C150.647 33.6783 150.609 33.7645 150.532 33.8412C150.475 33.8987 150.398 33.9274 150.302 33.9274H146.938C146.843 33.9274 146.756 33.8987 146.68 33.8412C146.622 33.7645 146.593 33.6783 146.593 33.5824V32.6337C146.593 32.5762 146.574 32.5378 146.536 32.5187C146.498 32.4995 146.459 32.5187 146.421 32.5762C145.616 33.6303 144.322 34.1574 142.54 34.1574C141.045 34.1574 139.837 33.7933 138.917 33.0649C137.997 32.3366 137.537 31.2633 137.537 29.8449C137.537 28.3691 138.055 27.2287 139.09 26.4237C140.125 25.5995 141.6 25.1874 143.517 25.1874H146.45C146.545 25.1874 146.593 25.1395 146.593 25.0437V24.4112C146.593 23.7787 146.402 23.2899 146.018 22.9449C145.635 22.5808 145.06 22.3987 144.293 22.3987C143.699 22.3987 143.201 22.5041 142.798 22.7149C142.415 22.9258 142.166 23.2228 142.051 23.6062C141.993 23.817 141.869 23.9128 141.677 23.8937L138.198 23.4337C137.968 23.3953 137.863 23.3091 137.882 23.1749C137.959 22.3699 138.275 21.6416 138.831 20.9899C139.406 20.3383 140.153 19.8303 141.073 19.4662C142.013 19.102 143.057 18.9199 144.207 18.9199ZM143.632 31.1387C144.456 31.1387 145.156 30.9183 145.731 30.4774C146.306 30.0366 146.593 29.4712 146.593 28.7812V27.7462C146.593 27.6503 146.545 27.6024 146.45 27.6024H144.38C143.517 27.6024 142.837 27.7653 142.338 28.0912C141.859 28.417 141.62 28.877 141.62 29.4712C141.62 29.9887 141.802 30.4008 142.166 30.7074C142.53 30.9949 143.019 31.1387 143.632 31.1387Z" fill="white"/>
<path d="M128.238 34.1578C126.743 34.1578 125.43 33.8703 124.299 33.2953C123.168 32.7011 122.296 31.8769 121.683 30.8228C121.069 29.7686 120.763 28.5515 120.763 27.1715V20.5303C120.763 19.1503 121.069 17.9332 121.683 16.879C122.296 15.8248 123.168 15.0103 124.299 14.4353C125.43 13.8603 126.743 13.5728 128.238 13.5728C129.714 13.5728 131.007 13.8507 132.119 14.4065C133.25 14.9432 134.122 15.7194 134.735 16.7353C135.368 17.7319 135.684 18.8915 135.684 20.214C135.684 20.3865 135.569 20.4919 135.339 20.5303L131.975 20.7315H131.918C131.726 20.7315 131.63 20.6261 131.63 20.4153C131.63 19.3994 131.314 18.5848 130.681 17.9715C130.068 17.3582 129.254 17.0515 128.238 17.0515C127.203 17.0515 126.369 17.3582 125.736 17.9715C125.123 18.5848 124.816 19.3994 124.816 20.4153V27.344C124.816 28.3407 125.123 29.1457 125.736 29.759C126.369 30.3723 127.203 30.679 128.238 30.679C129.254 30.679 130.068 30.3723 130.681 29.759C131.314 29.1457 131.63 28.3407 131.63 27.344C131.63 27.1332 131.745 27.0278 131.975 27.0278L135.339 27.1715C135.435 27.1715 135.511 27.2003 135.569 27.2578C135.646 27.3153 135.684 27.3823 135.684 27.459C135.684 28.7815 135.368 29.9507 134.735 30.9665C134.122 31.9823 133.25 32.7682 132.119 33.324C131.007 33.8798 129.714 34.1578 128.238 34.1578Z" fill="white"/>
<path d="M111.611 18.9199C112.857 18.9199 113.968 19.1403 114.946 19.5812C115.923 20.0028 116.68 20.5874 117.217 21.3349C117.773 22.0824 118.051 22.9162 118.051 23.8362V33.5824C118.051 33.6783 118.013 33.7645 117.936 33.8412C117.878 33.8987 117.802 33.9274 117.706 33.9274H114.342C114.246 33.9274 114.16 33.8987 114.083 33.8412C114.026 33.7645 113.997 33.6783 113.997 33.5824V32.6337C113.997 32.5762 113.978 32.5378 113.94 32.5187C113.901 32.4995 113.863 32.5187 113.825 32.5762C113.02 33.6303 111.726 34.1574 109.943 34.1574C108.448 34.1574 107.241 33.7933 106.321 33.0649C105.401 32.3366 104.941 31.2633 104.941 29.8449C104.941 28.3691 105.458 27.2287 106.493 26.4237C107.528 25.5995 109.004 25.1874 110.921 25.1874H113.853C113.949 25.1874 113.997 25.1395 113.997 25.0437V24.4112C113.997 23.7787 113.805 23.2899 113.422 22.9449C113.039 22.5808 112.464 22.3987 111.697 22.3987C111.103 22.3987 110.605 22.5041 110.202 22.7149C109.819 22.9258 109.57 23.2228 109.455 23.6062C109.397 23.817 109.273 23.9128 109.081 23.8937L105.602 23.4337C105.372 23.3953 105.267 23.3091 105.286 23.1749C105.363 22.3699 105.679 21.6416 106.235 20.9899C106.81 20.3383 107.557 19.8303 108.477 19.4662C109.416 19.102 110.461 18.9199 111.611 18.9199ZM111.036 31.1387C111.86 31.1387 112.56 30.9183 113.135 30.4774C113.71 30.0366 113.997 29.4712 113.997 28.7812V27.7462C113.997 27.6503 113.949 27.6024 113.853 27.6024H111.783C110.921 27.6024 110.24 27.7653 109.742 28.0912C109.263 28.417 109.023 28.877 109.023 29.4712C109.023 29.9887 109.206 30.4008 109.57 30.7074C109.934 30.9949 110.423 31.1387 111.036 31.1387Z" fill="white"/>
<path d="M102.239 18.9487C102.929 18.9487 103.476 19.0829 103.878 19.3512C104.031 19.4279 104.089 19.5716 104.051 19.7825L103.447 23.06C103.428 23.29 103.294 23.3571 103.044 23.2612C102.757 23.1654 102.421 23.1175 102.038 23.1175C101.885 23.1175 101.674 23.1366 101.406 23.175C100.716 23.2325 100.131 23.4912 99.6519 23.9512C99.1727 24.3921 98.9331 24.9862 98.9331 25.7337V33.5825C98.9331 33.6783 98.8948 33.7646 98.8181 33.8412C98.7606 33.8987 98.684 33.9275 98.5881 33.9275H95.2244C95.1286 33.9275 95.0423 33.8987 94.9656 33.8412C94.9081 33.7646 94.8794 33.6783 94.8794 33.5825V19.495C94.8794 19.3991 94.9081 19.3225 94.9656 19.265C95.0423 19.1883 95.1286 19.15 95.2244 19.15H98.5881C98.684 19.15 98.7606 19.1883 98.8181 19.265C98.8948 19.3225 98.9331 19.3991 98.9331 19.495V20.5875C98.9331 20.645 98.9523 20.6833 98.9906 20.7025C99.029 20.7216 99.0577 20.7121 99.0769 20.6737C99.8627 19.5237 100.917 18.9487 102.239 18.9487Z" fill="white"/>
<path d="M92.4391 22.054C92.4391 22.1498 92.4007 22.2361 92.3241 22.3127C92.2666 22.3702 92.1899 22.399 92.0941 22.399H89.3341C89.2382 22.399 89.1903 22.4469 89.1903 22.5427V28.6377C89.1903 29.2702 89.3149 29.7398 89.5641 30.0465C89.8324 30.3532 90.2541 30.5065 90.8291 30.5065H91.7778C91.8737 30.5065 91.9503 30.5448 92.0078 30.6215C92.0845 30.679 92.1228 30.7557 92.1228 30.8515V33.5827C92.1228 33.7936 92.0078 33.9182 91.7778 33.9565C90.9728 33.9948 90.3978 34.014 90.0528 34.014C88.462 34.014 87.2737 33.7552 86.4878 33.2377C85.702 32.7011 85.2995 31.7044 85.2803 30.2477V22.5427C85.2803 22.4469 85.2324 22.399 85.1366 22.399H83.4978C83.402 22.399 83.3157 22.3702 83.2391 22.3127C83.1816 22.2361 83.1528 22.1498 83.1528 22.054V19.4952C83.1528 19.3994 83.1816 19.3227 83.2391 19.2652C83.3157 19.1886 83.402 19.1502 83.4978 19.1502H85.1366C85.2324 19.1502 85.2803 19.1023 85.2803 19.0065V15.5852C85.2803 15.4894 85.3091 15.4127 85.3666 15.3552C85.4432 15.2786 85.5295 15.2402 85.6253 15.2402H88.8453C88.9412 15.2402 89.0178 15.2786 89.0753 15.3552C89.152 15.4127 89.1903 15.4894 89.1903 15.5852V19.0065C89.1903 19.1023 89.2382 19.1502 89.3341 19.1502H92.0941C92.1899 19.1502 92.2666 19.1886 92.3241 19.2652C92.4007 19.3227 92.4391 19.3994 92.4391 19.4952V22.054Z" fill="white"/>
<path d="M77.2835 33.9277C77.1876 33.9277 77.1014 33.899 77.0247 33.8415C76.9672 33.7648 76.9385 33.6786 76.9385 33.5827V14.1477C76.9385 14.0519 76.9672 13.9752 77.0247 13.9177C77.1014 13.8411 77.1876 13.8027 77.2835 13.8027H80.6472C80.7431 13.8027 80.8197 13.8411 80.8772 13.9177C80.9539 13.9752 80.9922 14.0519 80.9922 14.1477V33.5827C80.9922 33.6786 80.9539 33.7648 80.8772 33.8415C80.8197 33.899 80.7431 33.9277 80.6472 33.9277H77.2835Z" fill="white"/>
<path d="M66.4194 34.1577C64.9436 34.1577 63.6402 33.8702 62.5094 33.2952C61.3977 32.7202 60.5256 31.9152 59.8931 30.8802C59.2798 29.8261 58.9731 28.6186 58.9731 27.2577V14.1477C58.9731 14.0519 59.0019 13.9752 59.0594 13.9177C59.1361 13.8411 59.2223 13.8027 59.3181 13.8027H62.6819C62.7777 13.8027 62.8544 13.8411 62.9119 13.9177C62.9886 13.9752 63.0269 14.0519 63.0269 14.1477V27.2865C63.0269 28.3023 63.3336 29.1265 63.9469 29.759C64.5794 30.3723 65.4036 30.679 66.4194 30.679C67.4352 30.679 68.2498 30.3723 68.8631 29.759C69.4956 29.1265 69.8119 28.3023 69.8119 27.2865V14.1477C69.8119 14.0519 69.8406 13.9752 69.8981 13.9177C69.9748 13.8411 70.0611 13.8027 70.1569 13.8027H73.5206C73.6165 13.8027 73.6931 13.8411 73.7506 13.9177C73.8273 13.9752 73.8656 14.0519 73.8656 14.1477V27.2577C73.8656 28.6186 73.5494 29.8261 72.9169 30.8802C72.3036 31.9152 71.4315 32.7202 70.3006 33.2952C69.189 33.8702 67.8952 34.1577 66.4194 34.1577Z" fill="white"/>
</svg>
