<svg width="61" height="61" viewBox="0 0 61 61" fill="none" xmlns="http://www.w3.org/2000/svg">
<path d="M21.9493 40.7891C22.949 40.7891 23.7622 41.6023 23.7622 42.6019C23.7622 43.6014 22.949 44.4147 21.9493 44.4147C20.9497 44.4147 20.1365 43.6014 20.1365 42.6019C20.1365 41.6023 20.9497 40.7891 21.9493 40.7891ZM21.9493 43.1257C22.2381 43.1257 22.4731 42.8907 22.4731 42.6019C22.4731 42.3131 22.2381 42.0782 21.9493 42.0782C21.6606 42.0782 21.4255 42.3131 21.4255 42.6019C21.4255 42.8907 21.6606 43.1257 21.9493 43.1257Z" fill="url(#paint0_linear_84_62)"/>
<path d="M5.66893 32.6133H8.85507C10.642 32.6133 12.0958 34.0672 12.0958 35.8542V38.7863H18.8883L19.6914 36.5799L18.4022 32.8327L17.214 32.4044C17.2015 32.3999 17.1892 32.3951 17.1771 32.3898C14.6569 31.3018 13.2388 28.6404 13.1531 25.3494L11.7518 24.8393C10.1816 24.2678 9.36073 22.5712 9.88304 20.9765C9.95869 20.7457 10.0386 20.5146 10.1205 20.2899C13.1652 11.9243 18.792 7.32419 24.1214 8.84458C24.1362 8.8488 24.1508 8.85351 24.1653 8.85881L50.5153 18.4628L54.6013 19.8081C54.6076 19.8102 54.6139 19.8123 54.6202 19.8146C55.7826 20.2377 56.5368 21.0379 56.801 22.1288C57.3105 24.2324 56.0103 27.4925 52.9366 31.8186C52.3446 32.6518 51.7408 33.4466 51.1724 34.1662C50.2009 36.4618 48.7515 38.4051 47.0332 39.6931C45.6474 40.7318 44.1998 41.2651 42.822 41.2651C42.2215 41.2651 40.6594 40.8554 40.5017 40.798L30.9927 37.3706L27.5502 39.4403L25.7915 44.2724C25.174 45.9687 23.5665 47.0242 21.8578 47.0241C21.384 47.024 20.9022 46.9428 20.4318 46.7716C20.1139 46.6559 19.8192 46.5046 19.5491 46.3252H12.0958V49.2573C12.0958 51.0443 10.642 52.4981 8.85504 52.4981H5.6689C5.31289 52.4981 5.02437 52.2095 5.02437 51.8535V33.2578C5.02439 32.9019 5.31291 32.6133 5.66893 32.6133ZM23.7461 10.078C19.1133 8.77553 14.1266 13.052 11.3317 20.7309C11.2546 20.9428 11.1793 21.1605 11.108 21.3779C10.8035 22.3074 11.28 23.2958 12.1926 23.6281L37.3506 32.7848C38.8561 33.3325 40.5222 32.609 41.1442 31.1372C41.5538 30.1679 42.9631 26.9114 43.9016 25.7052C46.2632 22.6696 48.8506 20.7895 51.4418 20.1725L23.7461 10.078ZM41.5219 34.378C41.6666 35.4921 42.0969 36.2575 42.7023 36.4778C43.924 36.923 46.1145 35.1403 47.304 31.8724C48.4934 28.6043 47.961 25.8314 46.7392 25.3867C46.615 25.3415 46.481 25.3193 46.3388 25.3193C46.1768 25.3193 46.0042 25.3488 45.8245 25.4054C45.5198 25.7488 45.2178 26.1127 44.919 26.4968C44.3593 27.2161 43.3678 29.1865 42.3316 31.639C42.1247 32.1285 41.8359 32.5588 41.4893 32.9232C41.4532 33.4343 41.4628 33.9239 41.5219 34.378ZM52.1235 25.7074C52.4751 27.2125 52.5007 28.8885 52.2159 30.598C54.2923 27.591 56.0117 24.3455 55.5481 22.4322C55.4493 22.0243 55.2523 21.7008 54.9448 21.4464C53.384 21.0402 51.7567 21.2381 50.1345 22.0013C51.0725 22.8831 51.7586 24.145 52.1235 25.7074ZM38.5731 35.8638C39.0364 37.8471 40.0801 39.2264 41.5122 39.7476C42.9442 40.269 44.6304 39.8832 46.26 38.6617C47.9708 37.3794 49.3941 35.3514 50.2677 32.9511C51.8261 28.6692 51.1967 24.3892 48.9342 22.6692C48.3048 23.0748 47.6789 23.5648 47.0606 24.1377C47.1005 24.1499 47.1406 24.161 47.18 24.1754C49.3078 24.9498 49.8943 28.5244 48.5153 32.3133C47.3126 35.6175 45.0697 37.8359 43.1043 37.8359C42.816 37.8359 42.5336 37.7882 42.2614 37.6891C41.1721 37.2926 40.4554 36.1757 40.2435 34.5441C40.2146 34.3219 40.1967 34.0925 40.1873 33.8583C39.627 34.1179 39.0112 34.2569 38.382 34.2569C38.3682 34.2569 38.3543 34.2562 38.3405 34.256C38.3758 34.8109 38.4529 35.3493 38.5731 35.8638ZM38.3143 38.6394C37.876 37.9323 37.538 37.0998 37.3178 36.157C37.1601 35.482 37.0696 34.772 37.0412 34.0407C36.9974 34.0263 36.9535 34.012 36.9098 33.9961L14.4762 25.8309C14.5127 26.307 14.5799 26.7687 14.6822 27.2093C15.1296 29.1363 16.1904 30.5522 17.6703 31.1987L38.3143 38.6394ZM20.8727 45.5603C22.3718 46.1062 24.0346 45.3302 24.5802 43.8316L26.417 38.7851C26.4675 38.6464 26.564 38.5292 26.6906 38.4531L29.4286 36.8069L19.9582 33.3935L20.9844 36.3763C21.0325 36.5159 21.0312 36.6678 20.9807 36.8064L19.1439 41.8529C18.5984 43.3517 19.374 45.0149 20.8727 45.5603ZM12.0958 45.0362H18.3056C17.6586 43.9849 17.4787 42.6594 17.9326 41.4121L18.4191 40.0754H12.0958V45.0362ZM6.31346 51.2091H8.85507C9.93127 51.2091 10.8068 50.3335 10.8068 49.2573V35.8542C10.8068 34.778 9.93125 33.9024 8.85507 33.9024H6.31346V51.2091Z" fill="url(#paint1_linear_84_62)"/>
<path d="M43.1579 30.3632C43.6569 28.9925 44.7049 28.2029 45.5961 28.5275C46.4871 28.8519 46.7828 30.1301 46.2839 31.5011C46.0736 32.079 45.7475 32.5864 45.366 32.9297C45.0161 33.2445 44.629 33.4091 44.2585 33.4091C44.1175 33.4091 43.979 33.3852 43.8458 33.3368C42.9547 33.0125 42.6591 31.7341 43.1579 30.3632C43.1579 30.3633 43.158 30.3632 43.1579 30.3632ZM44.2908 32.114C44.4431 32.0653 44.8267 31.7359 45.0727 31.0601C45.3185 30.3844 45.2365 29.8855 45.1511 29.7502C44.9988 29.7991 44.6152 30.1285 44.3692 30.8041C44.1234 31.4799 44.2054 31.9788 44.2908 32.114Z" fill="url(#paint2_linear_84_62)"/>
<defs>
<linearGradient id="paint0_linear_84_62" x1="23.7557" y1="42.6302" x2="20.13" y2="42.6302" gradientUnits="userSpaceOnUse">
<stop stop-color="#E01C08"/>
<stop offset="0.685" stop-color="#C01503"/>
<stop offset="1" stop-color="#B11101"/>
</linearGradient>
<linearGradient id="paint1_linear_84_62" x1="56.8159" y1="30.8704" x2="4.9316" y2="30.8704" gradientUnits="userSpaceOnUse">
<stop stop-color="#E01C08"/>
<stop offset="0.685" stop-color="#C01503"/>
<stop offset="1" stop-color="#B11101"/>
</linearGradient>
<linearGradient id="paint2_linear_84_62" x1="46.5189" y1="30.9706" x2="42.91" y2="30.9706" gradientUnits="userSpaceOnUse">
<stop stop-color="#E01C08"/>
<stop offset="0.685" stop-color="#C01503"/>
<stop offset="1" stop-color="#B11101"/>
</linearGradient>
</defs>
</svg>
