<svg width="35" height="35" viewBox="0 0 35 35" fill="none" xmlns="http://www.w3.org/2000/svg">
<g clip-path="url(#clip0_84_438)">
<path d="M34.8725 24.4574C34.8725 22.4678 34.2767 20.5468 33.1494 18.9018C32.3386 17.7187 31.2944 16.7361 30.0844 16.006C31.509 14.6569 32.4003 12.7501 32.4003 10.6378C32.4003 6.55903 29.082 3.24066 25.0033 3.24066C22.5848 3.24066 20.3193 4.43679 18.9431 6.4003C18.5934 6.34936 18.2362 6.32189 17.8725 6.32189C17.5089 6.32189 17.1517 6.34945 16.802 6.4003C15.4258 4.43679 13.1602 3.24066 10.7418 3.24066C6.66305 3.24066 3.34468 6.55903 3.34468 10.6378C3.34468 12.7501 4.23602 14.6569 5.66071 16.006C4.45062 16.736 3.40647 17.7187 2.59573 18.9017C1.46843 20.5468 0.872559 22.4678 0.872559 24.4574V28.5718H8.00339V31.6529H27.7418V28.5718H34.8726V24.4574H34.8725ZM25.0033 5.06634C28.0754 5.06634 30.5748 7.56566 30.5748 10.6378C30.5748 13.71 28.0754 16.2094 25.0033 16.2094C24.9483 16.2094 24.8933 16.2085 24.8381 16.2069C24.8423 16.1952 24.8458 16.1832 24.8499 16.1716C24.945 15.9019 25.0243 15.625 25.088 15.3421C25.0924 15.322 25.0975 15.3021 25.1018 15.282C25.1184 15.2056 25.1329 15.1286 25.147 15.0514C25.1537 15.0149 25.1605 14.9785 25.1666 14.9419C25.1781 14.8729 25.1886 14.8037 25.1981 14.7343C25.2048 14.686 25.2108 14.6377 25.2166 14.5893C25.2238 14.528 25.2308 14.4666 25.2366 14.4048C25.2424 14.3417 25.2468 14.2785 25.251 14.2153C25.2543 14.1654 25.2584 14.1158 25.2607 14.0657C25.2657 13.9582 25.2685 13.8506 25.2689 13.7429C25.2689 13.735 25.2695 13.7272 25.2695 13.7192C25.2695 13.7149 25.2691 13.7106 25.2691 13.7063C25.269 13.5963 25.2658 13.4869 25.2608 13.378C25.2594 13.3463 25.2575 13.3147 25.2556 13.2831C25.2503 13.1905 25.2432 13.0983 25.2346 13.0065C25.2325 12.9857 25.2309 12.9649 25.2288 12.9442C24.953 10.278 23.2686 7.99595 20.8387 6.9404C21.8858 5.76408 23.4003 5.06634 25.0033 5.06634ZM15.9448 8.49132C15.9626 8.48484 15.9806 8.47873 15.9984 8.47234C16.0538 8.45253 16.1096 8.43373 16.1658 8.41556C16.2083 8.40196 16.2511 8.38882 16.2942 8.37622C16.3255 8.367 16.3569 8.35815 16.3884 8.34938C16.4446 8.33396 16.5011 8.3189 16.5582 8.30511C16.9799 8.2027 17.4197 8.14711 17.8723 8.14711C18.3253 8.14747 18.7653 8.20315 19.1871 8.30557C19.2438 8.31926 19.2999 8.33423 19.3559 8.34957C19.3878 8.35842 19.4198 8.36737 19.4515 8.37677C19.494 8.38927 19.5364 8.40223 19.5784 8.41565C19.6353 8.434 19.6918 8.45299 19.7478 8.47307C19.7651 8.47918 19.7824 8.48502 19.7995 8.49132C21.6628 9.18039 23.0598 10.8387 23.376 12.8511C23.3785 12.8672 23.3809 12.8833 23.3832 12.8995C23.3934 12.9677 23.4018 13.0364 23.4094 13.1053C23.4122 13.1307 23.4151 13.156 23.4176 13.1814C23.4236 13.2443 23.428 13.3077 23.4321 13.3712C23.4337 13.3984 23.436 13.4255 23.4373 13.4528C23.4411 13.534 23.4432 13.6156 23.4435 13.6976C23.4435 13.7047 23.4439 13.7117 23.4439 13.7188C23.4439 13.7221 23.4437 13.7255 23.4437 13.7287C23.4436 13.8082 23.4412 13.887 23.4377 13.9656C23.4366 13.9904 23.4355 14.0151 23.4341 14.0397C23.4298 14.1157 23.4241 14.1913 23.4168 14.2663C23.414 14.2953 23.4102 14.3243 23.4069 14.3532C23.4013 14.4018 23.3951 14.4502 23.3883 14.4984C23.383 14.5359 23.3778 14.5735 23.3717 14.6109C23.3625 14.6677 23.3523 14.7242 23.3413 14.7806C23.3316 14.8307 23.3209 14.8806 23.3097 14.9304C23.3031 14.9605 23.2961 14.9905 23.2889 15.0204C23.2711 15.0944 23.2516 15.1679 23.2308 15.2412C23.2225 15.2704 23.2147 15.2997 23.206 15.3285C23.1933 15.3705 23.1796 15.4121 23.166 15.4537C23.155 15.4871 23.1438 15.5202 23.1322 15.5532C23.1191 15.5908 23.1061 15.6284 23.0922 15.6656C23.0686 15.7289 23.0438 15.7916 23.0179 15.8537C23.0064 15.8815 22.9942 15.909 22.9822 15.9366C22.9597 15.9884 22.9365 16.0399 22.9124 16.0908C22.9096 16.0968 22.9068 16.1028 22.9039 16.1089C22.8953 16.1269 22.8867 16.1451 22.8778 16.1632C22.8508 16.2183 22.8227 16.2728 22.7938 16.3268C22.7826 16.3478 22.7717 16.3691 22.7602 16.39C22.7595 16.3914 22.7588 16.3926 22.7581 16.3939C22.7265 16.4514 22.6935 16.508 22.66 16.5642C22.6467 16.5865 22.6336 16.6089 22.62 16.6309C22.5834 16.6901 22.5459 16.7487 22.5073 16.8064C22.4833 16.8423 22.4582 16.8774 22.4334 16.9128C22.4123 16.9427 22.3913 16.9727 22.3697 17.0022C22.3416 17.0404 22.3131 17.0781 22.284 17.1156C22.2643 17.141 22.2444 17.1663 22.2243 17.1915C22.1937 17.2299 22.1627 17.268 22.1312 17.3055C22.1115 17.3288 22.0914 17.3516 22.0714 17.3745C22.0385 17.4122 22.0057 17.45 21.972 17.4868C21.9519 17.5086 21.9311 17.5296 21.9106 17.5512C21.8557 17.6091 21.7994 17.6658 21.7421 17.7214C21.7081 17.7543 21.6742 17.7874 21.6393 17.8194C21.6152 17.8416 21.5905 17.8632 21.5659 17.885C21.526 17.9205 21.4857 17.9556 21.4447 17.9899C21.4239 18.0074 21.4029 18.0246 21.3818 18.0418C21.3323 18.0821 21.2821 18.1217 21.231 18.1604C21.2172 18.1709 21.2035 18.1815 21.1895 18.1919C20.2621 18.8814 19.1142 19.29 17.8724 19.29C16.6306 19.29 15.4825 18.8813 14.5551 18.1917C14.5414 18.1814 14.5279 18.1709 14.5143 18.1606C14.4631 18.1218 14.4127 18.082 14.3629 18.0415C14.342 18.0244 14.3211 18.0074 14.3005 17.99C14.2593 17.9555 14.219 17.9202 14.1788 17.8846C14.1544 17.8629 14.1298 17.8415 14.1058 17.8194C14.0708 17.7873 14.0369 17.7542 14.0027 17.7212C13.9451 17.6654 13.8888 17.6086 13.8337 17.5504C13.8135 17.5292 13.7929 17.5084 13.7731 17.4869C13.7392 17.45 13.7064 17.4121 13.6736 17.3744C13.6536 17.3515 13.6335 17.3288 13.6139 17.3055C13.5822 17.268 13.5513 17.2299 13.5207 17.1916C13.5006 17.1664 13.4806 17.1411 13.4609 17.1156C13.432 17.0782 13.4034 17.0405 13.3754 17.0023C13.3537 16.9727 13.3326 16.9426 13.3116 16.9126C13.2867 16.8773 13.2617 16.8423 13.2378 16.8065C13.199 16.7485 13.1613 16.6898 13.1247 16.6303C13.1113 16.6085 13.0983 16.5865 13.0852 16.5645C13.0511 16.5075 13.0178 16.4502 12.9858 16.3918C12.974 16.3704 12.9629 16.3486 12.9513 16.327C12.9224 16.2728 12.8942 16.2181 12.8671 16.1629C12.8574 16.1433 12.848 16.1235 12.8386 16.1037C12.8372 16.1007 12.8358 16.0977 12.8344 16.0947C12.8092 16.0414 12.785 15.9875 12.7613 15.9332C12.7501 15.9074 12.7387 15.8817 12.7279 15.8557C12.7014 15.7922 12.6762 15.7281 12.652 15.6635C12.6389 15.6286 12.6269 15.5934 12.6145 15.5583C12.6019 15.5222 12.5896 15.4859 12.5777 15.4495C12.5648 15.41 12.5518 15.3706 12.5398 15.331C12.5218 15.2717 12.5048 15.2121 12.4889 15.1522C12.4776 15.1101 12.4675 15.0676 12.4572 15.0253C12.4492 14.992 12.4414 14.9586 12.434 14.9251C12.4249 14.8841 12.4157 14.8431 12.4074 14.8018C12.3947 14.7376 12.3832 14.6729 12.3728 14.608C12.3671 14.5729 12.3622 14.5378 12.3571 14.5027C12.3497 14.4508 12.3431 14.3986 12.3372 14.3462C12.3342 14.3203 12.3309 14.2945 12.3282 14.2687C12.3206 14.1917 12.3149 14.1142 12.3105 14.0365C12.3092 14.0141 12.3082 13.9917 12.3072 13.9694C12.3035 13.8862 12.3008 13.8028 12.3008 13.7188C12.3008 13.6288 12.3034 13.5394 12.3077 13.4504C12.3089 13.4262 12.3109 13.4022 12.3122 13.3781C12.3162 13.3113 12.3211 13.2447 12.3275 13.1784C12.3297 13.1553 12.3323 13.1323 12.3348 13.1093C12.3426 13.0376 12.3515 12.9662 12.3621 12.8953C12.3641 12.8815 12.3661 12.8676 12.3683 12.8538C12.6835 10.8402 14.0808 9.18085 15.9448 8.49132ZM5.17026 10.6378C5.17026 7.56575 7.66958 5.06634 10.7418 5.06634C12.3449 5.06634 13.8593 5.76417 14.9064 6.94021C12.4757 7.99613 10.791 10.2793 10.5159 12.9466C10.514 12.9646 10.5127 12.9828 10.5109 13.001C10.5018 13.096 10.4946 13.1914 10.4891 13.2873C10.4875 13.3165 10.4856 13.3456 10.4843 13.3749C10.4791 13.4891 10.4755 13.6037 10.4755 13.7191C10.4755 13.8355 10.4789 13.9517 10.4844 14.0679C10.4866 14.1146 10.4904 14.1609 10.4934 14.2073C10.4979 14.2741 10.5024 14.341 10.5086 14.4076C10.5141 14.4668 10.5209 14.5257 10.5278 14.5846C10.5338 14.6359 10.5402 14.687 10.5473 14.7381C10.5567 14.8052 10.5667 14.872 10.5777 14.9386C10.5844 14.9781 10.5917 15.0175 10.5989 15.057C10.6126 15.1314 10.6266 15.2057 10.6425 15.2794C10.6478 15.3037 10.6538 15.3278 10.6593 15.352C10.7212 15.6261 10.7982 15.8944 10.8898 16.1561C10.8957 16.173 10.9008 16.1901 10.9067 16.2069C10.8517 16.2085 10.7965 16.2094 10.7416 16.2094C7.66958 16.2093 5.17026 13.7099 5.17026 10.6378ZM9.53387 22.2761C9.51379 22.3077 9.49462 22.34 9.47491 22.3718C9.43319 22.4392 9.39184 22.5067 9.35186 22.5749C9.3295 22.613 9.30796 22.6513 9.28623 22.6896C9.25027 22.7529 9.21476 22.8163 9.18026 22.8803C9.15853 22.9206 9.13717 22.961 9.116 23.0015C9.08277 23.0651 9.05037 23.1291 9.0186 23.1932C8.99861 23.2336 8.97871 23.2738 8.95936 23.3144C8.92705 23.382 8.89592 23.4502 8.86516 23.5185C8.84846 23.5556 8.8313 23.5925 8.81514 23.6298C8.77954 23.7116 8.74558 23.794 8.71227 23.8767C8.7025 23.9009 8.69209 23.9248 8.6826 23.949C8.64034 24.0565 8.5999 24.1646 8.56156 24.2733C8.5528 24.2983 8.54495 24.3235 8.53628 24.3484C8.50744 24.4322 8.47932 24.5162 8.45276 24.6007C8.44062 24.6395 8.42939 24.6784 8.41771 24.7173C8.39626 24.7889 8.37517 24.8605 8.35536 24.9326C8.34359 24.9755 8.33236 25.0185 8.32113 25.0616C8.30306 25.1308 8.28572 25.2002 8.26929 25.2698C8.25879 25.3139 8.24857 25.358 8.2388 25.4022C8.2231 25.4727 8.2084 25.5436 8.19426 25.6145C8.18577 25.6571 8.177 25.6998 8.16906 25.7426C8.15473 25.8198 8.14186 25.8974 8.12936 25.9751C8.12352 26.0116 8.11703 26.0479 8.11156 26.0844C8.09458 26.1985 8.07915 26.3129 8.06619 26.4278C8.06601 26.4292 8.06592 26.4305 8.06583 26.4319C8.05405 26.5364 8.04392 26.6411 8.03543 26.7462H2.69815V24.4574C2.69815 21.3303 4.4958 18.523 7.31213 17.1887C8.33811 17.728 9.50439 18.0349 10.7417 18.0349C11.0995 18.0349 11.4584 18.0085 11.8146 17.9561C11.8701 18.0352 11.9265 18.1135 11.9849 18.1904C12.0046 18.2162 12.0251 18.2414 12.0451 18.267C12.1028 18.3407 12.1613 18.4137 12.2218 18.4851C12.2465 18.5144 12.2719 18.5431 12.2971 18.572C12.3537 18.637 12.4112 18.7012 12.47 18.7641C12.5008 18.7972 12.5322 18.8298 12.5636 18.8624C12.6174 18.9178 12.6719 18.9724 12.7273 19.0261C12.7481 19.0463 12.7677 19.0677 12.7887 19.0877C12.7094 19.1356 12.6308 19.1847 12.5529 19.2348C12.5402 19.2429 12.5278 19.2515 12.5152 19.2597C12.4374 19.3103 12.3603 19.362 12.284 19.4146C12.2576 19.4329 12.2314 19.4513 12.2051 19.4698C12.1371 19.5177 12.0698 19.5664 12.0031 19.616C11.982 19.6317 11.9606 19.647 11.9397 19.6629C11.8548 19.7271 11.7709 19.7924 11.6882 19.8593C11.6701 19.8739 11.6524 19.8889 11.6343 19.9037C11.5684 19.9577 11.5031 20.0125 11.4387 20.0682C11.4137 20.0897 11.3889 20.1115 11.364 20.1333C11.2995 20.1901 11.2358 20.2478 11.1727 20.3063C11.1563 20.3216 11.1395 20.3366 11.1231 20.352C11.0457 20.4248 10.9695 20.499 10.8944 20.5745C10.8749 20.5941 10.8558 20.6141 10.8364 20.6338C10.7789 20.6925 10.7221 20.7519 10.6659 20.812C10.6436 20.8359 10.6214 20.8599 10.5993 20.884C10.5361 20.9531 10.4739 21.023 10.4126 21.0939C10.403 21.105 10.3931 21.1158 10.3835 21.127C10.3137 21.2085 10.2454 21.2916 10.178 21.3755C10.1592 21.3989 10.1409 21.4226 10.1223 21.4462C10.0717 21.5106 10.0218 21.5756 9.97265 21.6412C9.95367 21.6666 9.93459 21.6918 9.91588 21.7173C9.85161 21.805 9.78818 21.8933 9.72656 21.9832C9.66039 22.0798 9.59631 22.1776 9.53387 22.2761ZM9.82898 29.8274V28.5719V27.5386C9.82898 27.4373 9.8309 27.3363 9.83464 27.2356C9.83582 27.2025 9.83847 27.1696 9.84011 27.1366C9.8434 27.0694 9.8465 27.0021 9.85143 26.9352C9.85444 26.8946 9.85901 26.8544 9.86266 26.8138C9.86795 26.7549 9.8727 26.6958 9.87927 26.6372C9.88411 26.5943 9.89041 26.5517 9.89589 26.5089C9.90301 26.4531 9.90967 26.3972 9.91788 26.3417C9.92455 26.2975 9.93258 26.2537 9.93988 26.2097C9.94883 26.1562 9.95713 26.1026 9.96718 26.0494C9.97566 26.0044 9.98552 25.9598 9.99474 25.915C10.0053 25.8633 10.0155 25.8115 10.0271 25.7602C10.0373 25.7149 10.049 25.6701 10.0599 25.625C10.0722 25.5748 10.084 25.5243 10.0972 25.4744C10.1093 25.429 10.1226 25.3841 10.1354 25.3391C10.1493 25.2901 10.1628 25.241 10.1776 25.1923C10.1914 25.1471 10.2065 25.1022 10.221 25.0572C10.2365 25.0094 10.2516 24.9616 10.2679 24.9142C10.2835 24.8694 10.3002 24.8249 10.3164 24.7805C10.3336 24.7336 10.3504 24.6865 10.3683 24.6399C10.3855 24.5956 10.4038 24.5519 10.4216 24.5079C10.4403 24.462 10.4587 24.4158 10.4782 24.3703C10.4971 24.3264 10.517 24.2829 10.5367 24.2395C10.5568 24.1947 10.5768 24.1497 10.5978 24.1053C10.6184 24.0619 10.6399 24.0191 10.6612 23.9761C10.6829 23.9323 10.7043 23.8884 10.7268 23.8451C10.749 23.8023 10.7721 23.7602 10.795 23.7179C10.8182 23.6751 10.8411 23.6323 10.865 23.5899C10.8887 23.5479 10.9134 23.5066 10.9377 23.4651C10.9624 23.4233 10.9869 23.3814 11.0123 23.3399C11.0376 23.2987 11.0637 23.2582 11.0897 23.2175C11.1158 23.1767 11.1418 23.1359 11.1686 23.0956C11.1954 23.0552 11.223 23.0154 11.2506 22.9756C11.278 22.9359 11.3054 22.8962 11.3335 22.857C11.3618 22.8175 11.391 22.7786 11.4201 22.7397C11.4489 22.7011 11.4777 22.6624 11.5071 22.6244C11.5369 22.5859 11.5674 22.5481 11.5979 22.5101C11.6281 22.4725 11.6584 22.435 11.6893 22.3979C11.7204 22.3607 11.7521 22.3239 11.7839 22.2872C11.8156 22.2506 11.8473 22.214 11.8798 22.1778C11.9122 22.1417 11.9453 22.1061 11.9783 22.0705C12.0114 22.035 12.0444 21.9997 12.0781 21.9648C12.1119 21.9297 12.1463 21.8952 12.1808 21.8608C12.2152 21.8264 12.2498 21.7922 12.2848 21.7583C12.3198 21.7246 12.3553 21.6914 12.391 21.6583C12.4268 21.625 12.4628 21.5919 12.4992 21.5592C12.5355 21.5267 12.5722 21.4947 12.6092 21.4628C12.6462 21.4308 12.6836 21.399 12.7213 21.3676C12.7588 21.3363 12.7967 21.3056 12.8348 21.275C12.8732 21.2441 12.9119 21.2136 12.951 21.1833C12.9896 21.1536 13.0286 21.1242 13.0678 21.095C13.1075 21.0653 13.1476 21.036 13.1881 21.0071C13.2278 20.9787 13.2677 20.9508 13.308 20.923C13.3493 20.8946 13.3907 20.8666 13.4325 20.839C13.4731 20.8121 13.5141 20.7856 13.5553 20.7594C13.5979 20.7322 13.6408 20.7055 13.684 20.6792C13.7256 20.6538 13.7675 20.6287 13.8097 20.6041C13.8535 20.5784 13.8977 20.5532 13.9421 20.5282C13.9847 20.5043 14.0276 20.4807 14.0708 20.4575C14.116 20.4332 14.1616 20.4094 14.2074 20.3858C14.2508 20.3635 14.2945 20.3415 14.3385 20.3198C14.373 20.3029 14.408 20.2864 14.443 20.2699C15.4689 20.8092 16.6353 21.1161 17.8725 21.1161C19.1098 21.1161 20.2762 20.8092 21.3021 20.2699C21.3367 20.2863 21.3714 20.3027 21.4058 20.3195C21.4503 20.3414 21.4944 20.3637 21.5384 20.3862C21.5837 20.4095 21.6287 20.433 21.6735 20.457C21.7171 20.4805 21.7605 20.5044 21.8035 20.5286C21.8475 20.5532 21.8911 20.5782 21.9344 20.6035C21.9772 20.6286 22.0196 20.654 22.0618 20.6798C22.1044 20.7058 22.1467 20.7321 22.1887 20.7588C22.2305 20.7854 22.2719 20.8122 22.3131 20.8395C22.3544 20.8668 22.3954 20.8945 22.4361 20.9226C22.4767 20.9506 22.5172 20.9788 22.5572 21.0075C22.5973 21.0361 22.6369 21.0651 22.6764 21.0945C22.716 21.1239 22.7553 21.1536 22.7943 21.1837C22.833 21.2137 22.8713 21.244 22.9095 21.2745C22.9478 21.3053 22.986 21.3362 23.0238 21.3676C23.0613 21.3989 23.0983 21.4305 23.1352 21.4624C23.1724 21.4944 23.2093 21.5267 23.2459 21.5594C23.282 21.5918 23.3177 21.6247 23.3532 21.6576C23.3892 21.691 23.425 21.7246 23.4604 21.7587C23.4951 21.7922 23.5294 21.8261 23.5634 21.8602C23.5981 21.8949 23.6328 21.9296 23.6668 21.9649C23.7002 21.9996 23.7332 22.0346 23.766 22.0699C23.7994 22.1057 23.8327 22.1417 23.8654 22.1781C23.8975 22.2139 23.929 22.2501 23.9604 22.2865C23.9924 22.3234 24.0245 22.3605 24.0558 22.3981C24.0865 22.4349 24.1166 22.4722 24.1466 22.5095C24.1773 22.5477 24.2079 22.5858 24.2379 22.6245C24.2673 22.6623 24.2958 22.7008 24.3245 22.7392C24.3537 22.7783 24.3829 22.8174 24.4114 22.857C24.4394 22.896 24.4667 22.9356 24.494 22.9752C24.5217 23.0151 24.5494 23.0551 24.5763 23.0957C24.603 23.1357 24.6287 23.1763 24.6547 23.2168C24.6809 23.2578 24.7071 23.2987 24.7326 23.3401C24.7578 23.3811 24.7821 23.4227 24.8065 23.4641C24.8312 23.506 24.856 23.5477 24.8798 23.5899C24.9037 23.6321 24.9265 23.6748 24.9496 23.7174C24.9726 23.7598 24.9958 23.8022 25.018 23.845C25.0404 23.8882 25.0618 23.9321 25.0835 23.9759C25.1048 24.0189 25.1264 24.0618 25.1469 24.1052C25.1679 24.1496 25.1878 24.1944 25.2079 24.2391C25.2276 24.2828 25.2476 24.3263 25.2665 24.3704C25.2859 24.4156 25.3041 24.4613 25.3227 24.5069C25.3408 24.5513 25.3592 24.5955 25.3765 24.6402C25.3944 24.6865 25.4111 24.7333 25.4282 24.78C25.4445 24.8247 25.4612 24.8691 25.4767 24.9141C25.4932 24.9617 25.5083 25.0098 25.5238 25.0577C25.5383 25.1025 25.5534 25.1472 25.5671 25.1923C25.582 25.241 25.5954 25.2902 25.6094 25.3392C25.6221 25.3842 25.6355 25.429 25.6475 25.4744C25.6607 25.5243 25.6725 25.5747 25.6848 25.625C25.6959 25.67 25.7075 25.7149 25.7177 25.7602C25.7293 25.8115 25.7393 25.8632 25.75 25.9148C25.7592 25.9596 25.7691 26.0043 25.7776 26.0494C25.7875 26.1021 25.7957 26.1553 25.8047 26.2085C25.8121 26.2529 25.8203 26.2971 25.827 26.3418C25.8352 26.3969 25.8417 26.4524 25.8489 26.5077C25.8544 26.5508 25.8608 26.5937 25.8657 26.6371C25.8722 26.6957 25.877 26.7548 25.8823 26.8137C25.8859 26.8543 25.8905 26.8945 25.8935 26.9351C25.8985 27.002 25.9015 27.0694 25.9048 27.1367C25.9065 27.1696 25.9091 27.2025 25.9103 27.2355C25.914 27.3362 25.916 27.4372 25.916 27.5385V28.5717V29.8274H9.82898ZM27.7101 26.7462C27.6922 26.5238 27.6664 26.3028 27.6337 26.0832C27.6285 26.0484 27.6223 26.0139 27.6168 25.9793C27.6041 25.8998 27.5908 25.8204 27.5761 25.7414C27.5684 25.6998 27.5599 25.6583 27.5516 25.6168C27.5373 25.5446 27.5223 25.4726 27.5063 25.4008C27.4966 25.3576 27.4866 25.3143 27.4764 25.2712C27.4597 25.2007 27.4421 25.1305 27.4239 25.0605C27.4128 25.0181 27.4018 24.9757 27.3901 24.9334C27.3701 24.8605 27.3488 24.7881 27.327 24.7157C27.3155 24.6775 27.3046 24.6393 27.2926 24.6012C27.2657 24.5155 27.2372 24.4302 27.2079 24.3452C27.1997 24.3214 27.1922 24.2974 27.1838 24.2737C27.1453 24.1646 27.1049 24.0562 27.0624 23.9484C27.0533 23.9253 27.0433 23.9025 27.034 23.8794C27.0004 23.7957 26.9659 23.7122 26.9298 23.6293C26.9138 23.5925 26.8969 23.5562 26.8805 23.5196C26.8495 23.4505 26.8181 23.3818 26.7854 23.3135C26.7663 23.2736 26.7466 23.2338 26.727 23.1941C26.6949 23.1293 26.6622 23.0648 26.6287 23.0006C26.6077 22.9605 26.5866 22.9205 26.565 22.8806C26.5304 22.8164 26.4948 22.7527 26.4586 22.6892C26.4369 22.651 26.4154 22.6129 26.3933 22.575C26.3531 22.5064 26.3116 22.4386 26.2696 22.3709C26.25 22.3393 26.2311 22.3075 26.2112 22.2761C26.1486 22.1777 26.0845 22.0799 26.0183 21.9832C25.9566 21.8932 25.8931 21.8049 25.8289 21.7172C25.8103 21.6919 25.7913 21.6668 25.7725 21.6416C25.7231 21.5756 25.673 21.5104 25.6221 21.4458C25.6038 21.4225 25.5856 21.399 25.567 21.3759C25.4995 21.2917 25.431 21.2085 25.361 21.1268C25.3519 21.1162 25.3424 21.1059 25.3333 21.0953C25.2716 21.0238 25.2088 20.9533 25.1452 20.8838C25.1233 20.8599 25.1013 20.8362 25.0792 20.8125C25.0228 20.752 24.9656 20.6922 24.9077 20.6332C24.8886 20.6138 24.8699 20.5941 24.8506 20.5749C24.7753 20.4993 24.6988 20.4248 24.6213 20.3518C24.6053 20.3367 24.5888 20.3221 24.5728 20.3072C24.5093 20.2483 24.4453 20.1903 24.3805 20.1332C24.3558 20.1115 24.331 20.0899 24.3062 20.0684C24.2415 20.0126 24.1763 19.9577 24.1103 19.9037C24.0923 19.889 24.0747 19.8739 24.0566 19.8593C23.9739 19.7925 23.89 19.7272 23.8052 19.6631C23.784 19.6471 23.7625 19.6316 23.7412 19.6158C23.6748 19.5665 23.6079 19.518 23.5401 19.4703C23.5136 19.4516 23.487 19.433 23.4604 19.4145C23.3848 19.3624 23.3086 19.3113 23.2315 19.2613C23.218 19.2525 23.2048 19.2434 23.1913 19.2347C23.1135 19.1848 23.0352 19.1358 22.956 19.0879C22.9764 19.0685 22.9956 19.0478 23.0157 19.0281C23.0723 18.9733 23.1279 18.9176 23.1827 18.861C23.2133 18.8294 23.2437 18.7978 23.2736 18.7656C23.3334 18.7017 23.3916 18.6366 23.4491 18.5706C23.4736 18.5425 23.4981 18.5147 23.5222 18.4862C23.5834 18.4138 23.6429 18.3397 23.7014 18.2648C23.7206 18.2403 23.7402 18.2162 23.759 18.1915C23.8177 18.1144 23.8744 18.0357 23.9302 17.9563C24.2863 18.0086 24.6453 18.035 25.0031 18.035C26.2404 18.035 27.4067 17.7282 28.4326 17.1888C31.249 18.5231 33.0466 21.3304 33.0466 24.4574V26.7462H27.7101Z" fill="url(#paint0_linear_84_438)"/>
</g>
<defs>
<linearGradient id="paint0_linear_84_438" x1="0.933351" y1="17.6686" x2="34.9334" y2="17.6686" gradientUnits="userSpaceOnUse">
<stop stop-color="#E01C08"/>
<stop offset="0.685" stop-color="#C01503"/>
<stop offset="1" stop-color="#B11101"/>
</linearGradient>
<clipPath id="clip0_84_438">
<rect width="34" height="34" fill="white" transform="translate(0.872559 0.446777)"/>
</clipPath>
</defs>
</svg>
