<svg width="61" height="61" viewBox="0 0 61 61" fill="none" xmlns="http://www.w3.org/2000/svg">
<g clip-path="url(#clip0_84_73)">
<path d="M38.6753 46.2393C40.2614 46.2393 41.5518 44.9488 41.5518 43.3628C41.5518 41.7768 40.2614 40.4863 38.6753 40.4863C37.0892 40.4863 35.7988 41.7768 35.7988 43.3628C35.7988 44.9488 37.0893 46.2393 38.6753 46.2393ZM38.6753 42.2441C39.2922 42.2441 39.794 42.7459 39.794 43.3628C39.794 43.9797 39.2922 44.4815 38.6753 44.4815C38.0584 44.4815 37.5566 43.9797 37.5566 43.3628C37.5566 42.7459 38.0586 42.2441 38.6753 42.2441Z" fill="url(#paint0_linear_84_73)"/>
<path d="M38.6751 50.1048C42.3927 50.1048 45.4172 47.0803 45.4172 43.3629C45.4172 39.6452 42.3927 36.6208 38.6751 36.6208C34.9576 36.6208 31.9331 39.6453 31.9331 43.3629C31.9332 47.0804 34.9576 50.1048 38.6751 50.1048ZM38.6751 38.3787C41.4234 38.3787 43.6594 40.6146 43.6594 43.3629C43.6594 46.1112 41.4234 48.347 38.6751 48.347C35.9269 48.347 33.6909 46.1112 33.6909 43.3629C33.6909 40.6146 35.9269 38.3787 38.6751 38.3787Z" fill="url(#paint1_linear_84_73)"/>
<path d="M58.9329 25.8066H56.9251C55.662 22.2074 53.3043 18.9908 50.2328 16.6966C46.8747 14.1884 42.8781 12.8625 38.6752 12.8625C34.4722 12.8625 30.4756 14.1882 27.1176 16.6966C26.8833 16.8716 26.6537 17.0525 26.4279 17.238H14.1233C14.0257 17.238 13.9464 17.1586 13.9464 17.0611V14.0948H17.9624C20.1922 14.0948 22.0063 12.2808 22.0063 10.0509V6.30199C22.0063 5.55551 21.399 4.94824 20.6527 4.94824H2.08361C1.33725 4.94824 0.72998 5.55551 0.72998 6.30199V10.0511C0.72998 12.2808 2.54404 14.095 4.77389 14.095H8.79014V17.0612C8.79014 20.0019 11.1826 22.3944 14.1233 22.3944H22.016C21.3761 23.4775 20.8412 24.6212 20.4252 25.8067H18.4174C17.4265 25.8067 16.6204 26.6128 16.6204 27.6038V33.2401C16.6204 34.2311 17.4265 35.0372 18.4174 35.0372H19.3432V38.6437C19.3432 41.6657 21.8017 44.1243 24.8236 44.1243H26.3383C26.4922 46.3198 27.2219 48.4185 28.4732 50.2402C28.6436 50.4882 28.9186 50.6216 29.1985 50.6216C29.3699 50.6216 29.5432 50.5714 29.6952 50.4671C30.0954 50.1922 30.1969 49.6451 29.9221 49.245C28.7067 47.4756 28.0643 45.4009 28.0643 43.2454V35.0372H49.2858V43.2454C49.2858 49.0962 44.5259 53.8561 38.6751 53.8561C36.4496 53.8561 34.3195 53.1749 32.5151 51.8859C32.1199 51.604 31.5712 51.6955 31.2891 52.0903C31.0069 52.4854 31.0984 53.0343 31.4935 53.3164C33.5978 54.8194 36.0811 55.6138 38.6752 55.6138C45.1997 55.6138 50.5597 50.5355 51.0121 44.1241H52.5266C55.5485 44.1241 58.007 41.6657 58.007 38.6436V35.0371H58.9328C59.9237 35.0371 60.7299 34.2309 60.7299 33.24V27.6036C60.73 26.6127 59.9238 25.8066 58.9329 25.8066ZM2.48779 10.0511V6.70605H20.2485V10.0511C20.2485 11.3116 19.223 12.3371 17.9624 12.3371H4.77389C3.5133 12.3371 2.48779 11.3116 2.48779 10.0511ZM14.1233 20.6365C12.1519 20.6365 10.5479 19.0325 10.5479 17.0611V14.0948H12.1886V17.0611C12.1886 18.128 13.0565 18.9959 14.1233 18.9959H24.5564C24.0702 19.5175 23.6131 20.0655 23.1869 20.6365H14.1233ZM26.3066 42.3663H24.8237C22.7711 42.3663 21.1012 40.6964 21.1012 38.6436V35.0371H26.3067V42.3663H26.3066ZM56.2493 38.6436C56.2493 40.6964 54.5794 42.3663 52.5267 42.3663H51.0437V35.0371H56.2493V38.6436ZM58.9722 33.24C58.9722 33.2617 58.9546 33.2793 58.9329 33.2793H18.4176C18.3959 33.2793 18.3783 33.2617 18.3783 33.24V27.6036C18.3783 27.582 18.3959 27.5644 18.4176 27.5644H43.135C43.6204 27.5644 44.0139 27.171 44.0139 26.6855C44.0139 26.2 43.6204 25.8066 43.135 25.8066H22.3019C23.4921 22.7706 25.5428 20.0668 28.1696 18.1049C31.2215 15.8252 34.8543 14.6203 38.6753 14.6203C42.4963 14.6203 46.129 15.8252 49.181 18.1049C51.8078 20.0668 53.8585 22.7705 55.0487 25.8066H47.2365C46.7512 25.8066 46.3576 26.2 46.3576 26.6855C46.3576 27.171 46.7512 27.5644 47.2365 27.5644H58.933C58.9547 27.5644 58.9723 27.582 58.9723 27.6036V33.24H58.9722Z" fill="url(#paint2_linear_84_73)"/>
</g>
<defs>
<linearGradient id="paint0_linear_84_73" x1="35.8091" y1="43.4077" x2="41.5621" y2="43.4077" gradientUnits="userSpaceOnUse">
<stop stop-color="#E01C08"/>
<stop offset="0.685" stop-color="#C01503"/>
<stop offset="1" stop-color="#B11101"/>
</linearGradient>
<linearGradient id="paint1_linear_84_73" x1="31.9572" y1="43.4681" x2="45.4413" y2="43.4681" gradientUnits="userSpaceOnUse">
<stop stop-color="#E01C08"/>
<stop offset="0.685" stop-color="#C01503"/>
<stop offset="1" stop-color="#B11101"/>
</linearGradient>
<linearGradient id="paint2_linear_84_73" x1="0.837262" y1="30.6766" x2="60.8371" y2="30.6766" gradientUnits="userSpaceOnUse">
<stop stop-color="#E01C08"/>
<stop offset="0.685" stop-color="#C01503"/>
<stop offset="1" stop-color="#B11101"/>
</linearGradient>
<clipPath id="clip0_84_73">
<rect width="60" height="60" fill="white" transform="translate(0.72998 0.281006)"/>
</clipPath>
</defs>
</svg>
