<svg width="51" height="51" viewBox="0 0 51 51" fill="none" xmlns="http://www.w3.org/2000/svg">
<g clip-path="url(#clip0_106_45)">
<path d="M47.1025 3.7627H3.89736C2.07793 3.7627 0.597656 5.24297 0.597656 7.0625V37.3799C0.597656 39.1993 2.07793 40.6796 3.89736 40.6796H15.0504L12.6599 44.7818C12.4456 45.1494 12.4428 45.5867 12.6524 45.9517C12.8627 46.3177 13.2537 46.5451 13.6729 46.5451H37.3271C37.7462 46.5451 38.1372 46.3178 38.3476 45.9518C38.5571 45.5869 38.5545 45.1496 38.3403 44.7819L35.9498 40.6796H47.1025C48.9221 40.6796 50.4023 39.1993 50.4023 37.3799V7.0625C50.4023 5.24297 48.9221 3.7627 47.1025 3.7627ZM3.89736 5.3252H47.1025C48.0605 5.3252 48.8398 6.10449 48.8398 7.0625V34.9002H2.16016V7.0625C2.16016 6.10459 2.93945 5.3252 3.89736 5.3252ZM36.6487 44.9826H14.3513L16.8588 40.6797H34.1412L36.6487 44.9826ZM47.1025 39.1171H3.89736C2.93945 39.1171 2.16016 38.3378 2.16016 37.3799V36.4626H48.8398V37.3799C48.8398 38.3378 48.0605 39.1171 47.1025 39.1171ZM8.09023 23.0773C9.45449 23.0773 10.6059 22.1507 10.9497 20.894H15.576V23.6512H13.6184C13.3715 23.6512 13.1391 23.7679 12.9916 23.966L10.9894 26.6565C10.6544 26.525 10.2903 26.452 9.90928 26.452C8.27461 26.452 6.94473 27.7818 6.94473 29.4165C6.94473 31.0512 8.27461 32.3811 9.90928 32.3811C11.5439 32.3811 12.8738 31.0512 12.8738 29.4165C12.8738 28.728 12.6372 28.094 12.242 27.5903L14.0107 25.2136H15.5759V26.908C15.5759 28.6332 16.9794 30.0367 18.7046 30.0367H25.0937C25.1759 30.2713 25.3318 30.4774 25.5479 30.6224C25.9256 30.8757 26.4043 30.8919 26.7971 30.665L27.39 30.3228L29.2146 33.4828C29.3884 33.784 29.6694 33.9996 30.0061 34.0897C30.1186 34.1199 30.2328 34.1349 30.3462 34.1349C30.572 34.1349 30.7945 34.0758 30.9949 33.9601L32.6889 32.982C33.3112 32.6227 33.5252 31.8241 33.1659 31.2018L32.4895 30.0301C34.1245 29.9294 35.424 28.5679 35.424 26.908V25.2136H36.9893L38.7579 27.5903C38.3627 28.0941 38.1261 28.728 38.1261 29.4165C38.1261 31.0512 39.4561 32.3811 41.0907 32.3811C42.7254 32.3811 44.0553 31.0512 44.0553 29.4165C44.0553 27.7818 42.7254 26.452 41.0907 26.452C40.7097 26.452 40.3456 26.525 40.0106 26.6565L38.0085 23.9659C37.861 23.7678 37.6286 23.6511 37.3817 23.6511H35.424V20.8939H40.0504C40.3941 22.1507 41.5455 23.0772 42.9098 23.0772C44.5444 23.0772 45.8743 21.7474 45.8743 20.1127C45.8743 18.478 44.5444 17.148 42.9098 17.148C41.5455 17.148 40.3941 18.0747 40.0504 19.3314H35.424V16.5742H37.3817C37.6286 16.5742 37.861 16.4575 38.0085 16.2594L40.0106 13.5688C40.3456 13.7004 40.7098 13.7734 41.0908 13.7734C42.7255 13.7734 44.0554 12.4436 44.0554 10.8089C44.0554 9.17422 42.7255 7.84434 41.0908 7.84434C39.4562 7.84434 38.1262 9.17422 38.1262 10.8089C38.1262 11.4974 38.3628 12.1312 38.758 12.6351L36.9894 15.0118H35.4241V13.3174C35.4241 11.5922 34.0206 10.1887 32.2954 10.1887H18.7046C16.9794 10.1887 15.5759 11.5922 15.5759 13.3174V15.0118H14.0107L12.2421 12.6351C12.6373 12.1312 12.8739 11.4974 12.8739 10.8089C12.8739 9.17422 11.544 7.84434 9.90938 7.84434C8.27471 7.84434 6.94482 9.17422 6.94482 10.8089C6.94482 12.4436 8.27471 13.7734 9.90938 13.7734C10.2904 13.7734 10.6545 13.7004 10.9895 13.5688L12.9917 16.2594C13.1392 16.4575 13.3716 16.5742 13.6185 16.5742H15.5761V19.3314H10.9498C10.606 18.0747 9.45459 17.148 8.09033 17.148C6.45566 17.148 5.12578 18.478 5.12578 20.1127C5.12578 21.7474 6.45547 23.0773 8.09023 23.0773ZM9.90928 30.8186C9.13613 30.8186 8.50723 30.1897 8.50723 29.4166C8.50723 28.6435 9.13613 28.0146 9.90928 28.0146C10.6824 28.0146 11.3113 28.6436 11.3113 29.4166C11.3113 30.1896 10.6824 30.8186 9.90928 30.8186ZM42.4929 29.4166C42.4929 30.1897 41.864 30.8186 41.0908 30.8186C40.3177 30.8186 39.6887 30.1897 39.6887 29.4166C39.6887 28.6435 40.3177 28.0146 41.0908 28.0146C41.864 28.0146 42.4929 28.6435 42.4929 29.4166ZM42.9097 18.7105C43.6828 18.7105 44.3117 19.3396 44.3117 20.1127C44.3117 20.8858 43.6828 21.5147 42.9097 21.5147C42.1365 21.5147 41.5076 20.8858 41.5076 20.1127C41.5076 19.3396 42.1365 18.7105 42.9097 18.7105ZM41.0907 9.40674C41.8639 9.40674 42.4928 10.0356 42.4928 10.8088C42.4928 11.5819 41.8639 12.2108 41.0907 12.2108C40.3176 12.2108 39.6886 11.5819 39.6886 10.8088C39.6886 10.0356 40.3176 9.40674 41.0907 9.40674ZM25.5 25.2421C22.6716 25.2421 20.3706 22.9411 20.3706 20.1127C20.3706 17.2843 22.6716 14.9833 25.5 14.9833C28.3283 14.9833 30.6293 17.2843 30.6293 20.1127C30.6293 21.7646 29.8517 23.2829 28.5324 24.2487L27.3042 23.7448C26.9634 23.6051 26.5854 23.6307 26.2665 23.8146C25.9479 23.9987 25.7369 24.3136 25.6877 24.6783L25.6118 25.2401C25.5746 25.241 25.5372 25.2421 25.5 25.2421ZM30.4382 32.4772L28.3525 28.8648C28.2079 28.6143 27.9453 28.4741 27.6752 28.4741C27.5428 28.4741 27.4084 28.5079 27.2854 28.5789L26.691 28.9221L27.1697 25.3786L30.4778 26.7356L29.8834 27.0788C29.704 27.1824 29.573 27.353 29.5193 27.5531C29.4657 27.7533 29.4938 27.9665 29.5975 28.146L31.683 31.7585L30.4382 32.4772ZM17.1384 13.3173C17.1384 12.4537 17.8409 11.7511 18.7046 11.7511H32.2953C33.159 11.7511 33.8615 12.4537 33.8615 13.3173V26.908C33.8615 27.7716 33.159 28.4742 32.2953 28.4742H31.5913L31.3414 28.0413L31.934 27.6992C32.3271 27.4725 32.5524 27.0498 32.522 26.596C32.4917 26.1451 32.212 25.7581 31.7922 25.5859L30.1608 24.9167C31.4508 23.6705 32.1918 21.955 32.1918 20.1126C32.1918 16.4227 29.1898 13.4207 25.5 13.4207C21.8101 13.4207 18.8081 16.4227 18.8081 20.1126C18.8081 23.7692 21.7566 26.7485 25.4009 26.802L25.1749 28.4741H18.7047C17.841 28.4741 17.1385 27.7715 17.1385 26.9079V13.3173H17.1384ZM8.50713 10.8089C8.50713 10.0357 9.13603 9.40684 9.90918 9.40684C10.6823 9.40684 11.3112 10.0357 11.3112 10.8089C11.3112 11.582 10.6823 12.2109 9.90918 12.2109C9.13603 12.2109 8.50713 11.582 8.50713 10.8089ZM8.09023 18.7105C8.86338 18.7105 9.49238 19.3396 9.49238 20.1127C9.49238 20.8858 8.86338 21.5147 8.09023 21.5147C7.31709 21.5147 6.68818 20.8858 6.68818 20.1127C6.68818 19.3396 7.31709 18.7105 8.09023 18.7105ZM28.7129 18.9403L25.3006 22.3847C25.1479 22.5388 24.9468 22.6161 24.7455 22.6161C24.5487 22.6161 24.3521 22.5423 24.2002 22.3943L22.2967 20.5389C21.9877 20.2378 21.9813 19.7432 22.2825 19.4342C22.5837 19.1253 23.0782 19.1188 23.3872 19.42L24.7358 20.7345L27.6027 17.8406C27.9064 17.534 28.4011 17.5318 28.7076 17.8355C29.0143 18.1392 29.0166 18.6339 28.7129 18.9403Z" fill="white"/>
</g>
<defs>
<clipPath id="clip0_106_45">
<rect width="50" height="50" fill="white" transform="translate(0.5 0.153931)"/>
</clipPath>
</defs>
</svg>
