<svg width="61" height="61" viewBox="0 0 61 61" fill="none" xmlns="http://www.w3.org/2000/svg">
<path d="M21.9493 40.7673C22.949 40.7673 23.7622 41.5805 23.7622 42.5801C23.7622 43.5797 22.949 44.393 21.9493 44.393C20.9497 44.393 20.1365 43.5797 20.1365 42.5801C20.1365 41.5806 20.9497 40.7673 21.9493 40.7673ZM21.9493 43.104C22.2381 43.104 22.4731 42.869 22.4731 42.5802C22.4731 42.2914 22.2381 42.0564 21.9493 42.0564C21.6606 42.0564 21.4255 42.2914 21.4255 42.5802C21.4255 42.869 21.6606 43.104 21.9493 43.104Z" fill="white"/>
<path d="M5.66893 32.5916H8.85507C10.642 32.5916 12.0958 34.0454 12.0958 35.8324V38.7645H18.8883L19.6914 36.5582L18.4022 32.8109L17.214 32.3827C17.2015 32.3782 17.1892 32.3734 17.1771 32.3681C14.6569 31.2801 13.2388 28.6187 13.1531 25.3277L11.7518 24.8176C10.1816 24.2461 9.36073 22.5494 9.88304 20.9548C9.95869 20.7239 10.0386 20.4929 10.1205 20.2682C13.1652 11.9026 18.792 7.30246 24.1214 8.82285C24.1362 8.82707 24.1508 8.83178 24.1653 8.83708L50.5153 18.4411L54.6013 19.7864C54.6076 19.7885 54.6139 19.7906 54.6202 19.7929C55.7826 20.216 56.5368 21.0162 56.801 22.1071C57.3105 24.2106 56.0103 27.4708 52.9366 31.7969C52.3446 32.6301 51.7408 33.4248 51.1724 34.1445C50.2009 36.4401 48.7515 38.3834 47.0332 39.6713C45.6474 40.7101 44.1998 41.2434 42.822 41.2434C42.2215 41.2434 40.6594 40.8336 40.5017 40.7762L30.9927 37.3489L27.5502 39.4186L25.7915 44.2507C25.174 45.947 23.5665 47.0024 21.8578 47.0024C21.384 47.0023 20.9022 46.9211 20.4318 46.7499C20.1139 46.6342 19.8192 46.4829 19.5491 46.3034H12.0958V49.2356C12.0958 51.0226 10.642 52.4763 8.85504 52.4763H5.6689C5.31289 52.4763 5.02437 52.1878 5.02437 51.8318V33.2361C5.02439 32.8802 5.31291 32.5916 5.66893 32.5916ZM23.7461 10.0563C19.1133 8.75381 14.1266 13.0302 11.3317 20.7092C11.2546 20.921 11.1793 21.1387 11.108 21.3561C10.8035 22.2857 11.28 23.2741 12.1926 23.6063L37.3506 32.7631C38.8561 33.3108 40.5222 32.5872 41.1442 31.1154C41.5538 30.1461 42.9631 26.8896 43.9016 25.6834C46.2632 22.6479 48.8506 20.7678 51.4418 20.1508L23.7461 10.0563ZM41.5219 34.3563C41.6666 35.4704 42.0969 36.2357 42.7023 36.4561C43.924 36.9013 46.1145 35.1186 47.304 31.8507C48.4934 28.5826 47.961 25.8097 46.7392 25.365C46.615 25.3198 46.481 25.2976 46.3388 25.2976C46.1768 25.2976 46.0042 25.327 45.8245 25.3837C45.5198 25.7271 45.2178 26.0909 44.919 26.475C44.3593 27.1944 43.3678 29.1648 42.3316 31.6173C42.1247 32.1068 41.8359 32.5371 41.4893 32.9015C41.4532 33.4126 41.4628 33.9021 41.5219 34.3563ZM52.1235 25.6857C52.4751 27.1908 52.5007 28.8668 52.2159 30.5763C54.2923 27.5693 56.0117 24.3238 55.5481 22.4104C55.4493 22.0026 55.2523 21.6791 54.9448 21.4247C53.384 21.0184 51.7567 21.2163 50.1345 21.9796C51.0725 22.8613 51.7586 24.1233 52.1235 25.6857ZM38.5731 35.8421C39.0364 37.8254 40.0801 39.2046 41.5122 39.7259C42.9442 40.2473 44.6304 39.8615 46.26 38.6399C47.9708 37.3577 49.3941 35.3297 50.2677 32.9294C51.8261 28.6474 51.1967 24.3675 48.9342 22.6474C48.3048 23.0531 47.6789 23.5431 47.0606 24.116C47.1005 24.1282 47.1406 24.1393 47.18 24.1536C49.3078 24.9281 49.8943 28.5026 48.5153 32.2915C47.3126 35.5958 45.0697 37.8142 43.1043 37.8142C42.816 37.8142 42.5336 37.7665 42.2614 37.6674C41.1721 37.2709 40.4554 36.154 40.2435 34.5224C40.2146 34.3002 40.1967 34.0708 40.1873 33.8366C39.627 34.0962 39.0112 34.2352 38.382 34.2352C38.3682 34.2352 38.3543 34.2344 38.3405 34.2343C38.3758 34.7892 38.4529 35.3275 38.5731 35.8421ZM38.3143 38.6177C37.876 37.9106 37.538 37.0781 37.3178 36.1353C37.1601 35.4603 37.0696 34.7503 37.0412 34.019C36.9974 34.0045 36.9535 33.9903 36.9098 33.9744L14.4762 25.8092C14.5127 26.2853 14.5799 26.747 14.6822 27.1876C15.1296 29.1145 16.1904 30.5304 17.6703 31.1769L38.3143 38.6177ZM20.8727 45.5386C22.3718 46.0845 24.0346 45.3085 24.5802 43.8098L26.417 38.7634C26.4675 38.6246 26.564 38.5075 26.6906 38.4314L29.4286 36.7852L19.9582 33.3718L20.9844 36.3546C21.0325 36.4942 21.0312 36.646 20.9807 36.7847L19.1439 41.8311C18.5984 43.33 19.374 44.9931 20.8727 45.5386ZM12.0958 45.0144H18.3056C17.6586 43.9632 17.4787 42.6377 17.9326 41.3903L18.4191 40.0536H12.0958V45.0144ZM6.31346 51.1873H8.85507C9.93127 51.1873 10.8068 50.3118 10.8068 49.2356V35.8325C10.8068 34.7563 9.93125 33.8807 8.85507 33.8807H6.31346V51.1873Z" fill="white"/>
<path d="M43.1579 30.3415C43.6569 28.9708 44.7049 28.1811 45.5961 28.5058C46.4871 28.8301 46.7828 30.1084 46.2839 31.4793C46.0736 32.0573 45.7475 32.5646 45.366 32.908C45.0161 33.2228 44.629 33.3874 44.2585 33.3874C44.1175 33.3874 43.979 33.3635 43.8458 33.315C42.9547 32.9908 42.6591 31.7124 43.1579 30.3415C43.1579 30.3416 43.158 30.3415 43.1579 30.3415ZM44.2908 32.0923C44.4431 32.0435 44.8267 31.7141 45.0727 31.0384C45.3185 30.3626 45.2365 29.8638 45.1511 29.7284C44.9988 29.7773 44.6152 30.1068 44.3692 30.7824C44.1234 31.4582 44.2054 31.957 44.2908 32.0923Z" fill="white"/>
</svg>
