<svg width="51" height="51" viewBox="0 0 51 51" fill="none" xmlns="http://www.w3.org/2000/svg">
<g clip-path="url(#clip0_107_90)">
<path d="M47.5441 0.153931H3.45547C1.84199 0.153931 0.529297 1.46663 0.529297 3.0802V8.30432C0.529297 9.91789 1.84199 11.2306 3.45557 11.2306H5.2918V17.5036C5.2918 28.6464 14.357 37.7117 25.4999 37.7117C36.6428 37.7117 45.708 28.6464 45.708 17.5036V11.2306H47.5442C49.1577 11.2306 50.4705 9.91789 50.4705 8.30432V3.0802C50.4703 1.46663 49.1576 0.153931 47.5441 0.153931ZM42.7816 17.5036C42.7816 27.0328 35.029 34.7855 25.4998 34.7855C15.9706 34.7855 8.21797 27.0328 8.21797 17.5036V11.2306H42.7816V17.5036ZM3.45547 8.30432V3.0802H47.544L47.5459 8.30432C47.545 8.30442 3.45645 8.30432 3.45547 8.30432Z" fill="white"/>
<path d="M35.6006 44.1466C40.3183 43.3399 43.6593 39.9855 44.4634 35.2839C44.5996 34.4874 44.0643 33.7314 43.2678 33.5951C42.4713 33.459 41.7152 33.9942 41.5791 34.7906C41.2495 36.7176 40.3413 38.4482 38.8041 39.6639C37.773 40.4814 36.5293 41.0191 35.1074 41.2622C34.3109 41.3984 33.7756 42.1545 33.9118 42.951C34.0483 43.7489 34.8057 44.2827 35.6006 44.1466Z" fill="white"/>
<path d="M49.2542 34.1937C48.4572 34.0572 47.7015 34.5929 47.5654 35.3892C46.5173 41.5184 42.0669 46.1606 35.7064 47.2483C34.9099 47.3846 34.3747 48.1406 34.5109 48.9371C34.6474 49.735 35.4049 50.2687 36.1997 50.1326C43.6366 48.861 49.1693 43.371 50.4498 35.8824C50.586 35.086 50.0507 34.33 49.2542 34.1937Z" fill="white"/>
<path d="M15.8922 41.2623C12.3871 40.6628 10.0134 38.2567 9.42066 34.7908C9.28443 33.9943 8.52857 33.4591 7.73189 33.5953C6.93541 33.7315 6.40015 34.4875 6.53629 35.284C7.34137 39.9913 10.6887 43.3414 15.3991 44.1467C16.1951 44.2829 16.9516 43.7479 17.0879 42.9512C17.224 42.1545 16.6887 41.3986 15.8922 41.2623Z" fill="white"/>
<path d="M15.2937 47.2485C9.03788 46.1787 4.50096 41.6246 3.43475 35.3894C3.29862 34.5931 2.54335 34.0576 1.74598 34.1939C0.949499 34.3302 0.414245 35.0862 0.550475 35.8827C1.82684 43.3472 7.33563 48.8565 14.8006 50.1329C15.5968 50.2691 16.3531 49.734 16.4893 48.9374C16.6255 48.1407 16.0902 47.3847 15.2937 47.2485Z" fill="white"/>
<path d="M25.4999 31.7868C30.3405 31.7868 34.2786 27.8487 34.2786 23.0081C34.2786 18.1675 30.3405 14.2294 25.4999 14.2294C20.6593 14.2294 16.7212 18.1675 16.7212 23.0081C16.7212 27.8487 20.6593 31.7868 25.4999 31.7868ZM25.4999 17.1555C28.727 17.1555 31.3523 19.7809 31.3523 23.008C31.3523 26.235 28.727 28.8605 25.4999 28.8605C22.2729 28.8605 19.6475 26.2351 19.6475 23.0081C19.6475 19.781 22.2729 17.1555 25.4999 17.1555Z" fill="white"/>
<path d="M25.5002 24.4711C26.3082 24.4711 26.9633 23.816 26.9633 23.008C26.9633 22.2 26.3082 21.5449 25.5002 21.5449C24.6922 21.5449 24.0371 22.2 24.0371 23.008C24.0371 23.816 24.6922 24.4711 25.5002 24.4711Z" fill="white"/>
</g>
<defs>
<clipPath id="clip0_107_90">
<rect width="50" height="50" fill="white" transform="translate(0.5 0.153931)"/>
</clipPath>
</defs>
</svg>
