<svg width="31" height="31" viewBox="0 0 31 31" fill="none" xmlns="http://www.w3.org/2000/svg">
<path d="M15.3398 15.0527C17.0199 15.0527 18.3867 13.6859 18.3867 12.0059C18.3867 10.3258 17.0199 8.95898 15.3398 8.95898C13.6598 8.95898 12.293 10.3258 12.293 12.0059C12.293 13.6859 13.6598 15.0527 15.3398 15.0527ZM15.3398 10.9902C15.8999 10.9902 16.3555 11.4458 16.3555 12.0059C16.3555 12.5659 15.8999 13.0215 15.3398 13.0215C14.7798 13.0215 14.3242 12.5659 14.3242 12.0059C14.3242 11.4458 14.7798 10.9902 15.3398 10.9902Z" fill="white"/>
<path d="M24.4805 12.0059C24.4805 6.96572 20.38 2.86523 15.3398 2.86523C10.2997 2.86523 6.19922 6.96572 6.19922 12.0059C6.19922 13.9998 6.83002 15.8947 8.02348 17.4859L12.9014 23.9893C13.4744 24.753 14.386 25.209 15.3398 25.209C16.2937 25.209 17.2053 24.753 17.7783 23.9892L22.6562 17.4859C23.8497 15.8947 24.4805 13.9998 24.4805 12.0059ZM21.0313 16.267L16.1534 22.7703C15.9591 23.0293 15.6626 23.1777 15.3398 23.1777C15.0171 23.1777 14.7206 23.0292 14.5263 22.7704L9.64843 16.267C8.72081 15.0303 8.23047 13.5568 8.23047 12.0059C8.23047 8.08575 11.4197 4.89648 15.3398 4.89648C19.26 4.89648 22.4492 8.08575 22.4492 12.0059C22.4492 13.5568 21.9589 15.0303 21.0313 16.267Z" fill="white"/>
<path d="M20.418 27.8496C20.418 27.2887 19.9633 26.834 19.4023 26.834H11.2773C10.7164 26.834 10.2617 27.2887 10.2617 27.8496C10.2617 28.4105 10.7164 28.8652 11.2773 28.8652H19.4023C19.9633 28.8652 20.418 28.4105 20.418 27.8496Z" fill="white"/>
</svg>
