<svg width="61" height="61" viewBox="0 0 61 61" fill="none" xmlns="http://www.w3.org/2000/svg">
<g clip-path="url(#clip0_84_69)">
<path d="M59.7305 30.6091L20.2031 7.78101C19.4414 7.34741 18.5508 7.23022 17.6953 7.45288C16.8398 7.68726 16.1367 8.22632 15.6914 8.98804L14.8008 10.5232C14.3672 11.2849 14.25 12.1755 14.4727 13.031C14.6953 13.8865 15.2461 14.5896 16.0078 15.0349L16.7344 15.4568L11.1211 25.1833C10.8633 25.6287 11.0156 26.2029 11.4609 26.4607L24.2695 33.8552C23.7656 35.1091 23.6836 36.4919 24.0469 37.8279C24.2578 38.6248 24.6211 39.3513 25.0898 39.9841L22.6055 44.2966C20.5547 44.0974 18.4805 45.0818 17.3906 46.9802C17.3438 47.0623 17.2969 47.1443 17.25 47.238H10.1836V45.2224C10.1836 42.6443 8.08594 40.5466 5.50781 40.5466H1.76953C1.25391 40.5466 0.832031 40.9685 0.832031 41.4841V58.0076C0.832031 58.5232 1.25391 58.9451 1.76953 58.9451H5.50781C8.08594 58.9451 10.1836 56.8474 10.1836 54.2693V52.2537H17.3203C17.7891 53.1326 18.4922 53.8591 19.3828 54.3748C20.2383 54.8669 21.1641 55.1013 22.0781 55.1013C23.9531 55.1013 25.7695 54.1287 26.7773 52.3943C27.7617 50.6834 27.7148 48.6677 26.8125 47.0505L29.4492 42.4919C29.6953 42.5154 29.9414 42.5388 30.1875 42.5388C30.7383 42.5388 31.2891 42.4685 31.8398 42.3162C33.1758 41.9646 34.3242 41.2029 35.168 40.1365L45.2109 45.9373C45.3516 46.0193 45.5156 46.0662 45.6797 46.0662C45.7617 46.0662 45.8438 46.0544 45.9258 46.031C46.1602 45.9724 46.3711 45.8084 46.5 45.5974L47.25 44.2966L47.918 44.6833C48.8555 45.2224 49.875 45.4802 50.8828 45.4802C52.9453 45.4802 54.9492 44.4138 56.0508 42.5037C57.6914 39.656 56.7188 36.0115 53.8711 34.3708L53.2031 33.9841L53.4727 33.5154L56.1094 35.0271C56.25 35.1091 56.4141 35.156 56.5781 35.156C56.8242 35.156 57.0703 35.0623 57.2578 34.8748L59.9648 32.0857C60.1641 31.8748 60.2578 31.5935 60.2227 31.3005C60.1523 30.9959 59.9883 30.7498 59.7305 30.6091ZM5.50781 57.0701H2.70703V42.4216H5.50781C7.05469 42.4216 8.30859 43.6755 8.30859 45.2224V48.1755V51.3162V54.2693C8.30859 55.8162 7.05469 57.0701 5.50781 57.0701ZM10.1836 49.1013H16.6992C16.6523 49.5232 16.6641 49.9451 16.7109 50.3787H10.1836V49.1013ZM25.1484 51.4568C24.1758 53.1443 22.0078 53.7302 20.3203 52.7459C19.5 52.2771 18.9141 51.5154 18.668 50.6013C18.4219 49.6873 18.5508 48.738 19.0195 47.9177C19.6758 46.781 20.8711 46.1482 22.0898 46.1482C22.6875 46.1482 23.2969 46.3005 23.8477 46.6169C25.5469 47.5896 26.1211 49.7576 25.1484 51.4568ZM25.5352 45.5154C25.3008 45.3279 25.0547 45.1521 24.7969 44.9998C24.6914 44.9412 24.5859 44.8826 24.4805 44.8357L26.4961 41.3435C26.6602 41.4607 26.8477 41.5779 27.0234 41.6833C27.2109 41.7888 27.3984 41.8826 27.5859 41.9763L25.5352 45.5154ZM31.3477 40.4998C30.1992 40.8044 28.9922 40.6521 27.9492 40.0544C26.918 39.4568 26.1797 38.4959 25.8633 37.3357C25.5586 36.1873 25.7109 34.9802 26.3086 33.9373C26.9062 32.8943 27.8672 32.1677 29.0273 31.8513C29.4141 31.7458 29.8008 31.699 30.1875 31.699C30.9609 31.699 31.7227 31.8982 32.4141 32.2966C34.5469 33.5271 35.2852 36.2693 34.0547 38.4021C33.4688 39.4568 32.4961 40.1951 31.3477 40.4998ZM52.9102 35.988C54.8555 37.113 55.5234 39.6091 54.3984 41.5662C53.2734 43.5115 50.7773 44.1794 48.8203 43.0544L48.1523 42.6677L52.2305 35.6013L52.9102 35.988ZM45.3281 43.8396L36.0938 38.5076C37.2305 35.6365 36.1172 32.2732 33.3633 30.6794C31.8984 29.8357 30.1875 29.6013 28.5469 30.0466C27.2109 30.3982 26.0625 31.1599 25.2188 32.2263L13.2188 25.3005L18.3633 16.3826L42.4336 30.281C42.7617 30.4685 43.1602 30.4451 43.4648 30.2224L45.3516 28.8396L51.8555 32.5779L45.3281 43.8396ZM56.4023 33.0349L53.7188 31.488C53.6836 31.4529 53.6367 31.4294 53.6016 31.406C53.5547 31.3826 53.5078 31.3591 53.4609 31.3474L45.75 26.906C45.6094 26.824 45.4453 26.7771 45.2812 26.7771C45.082 26.7771 44.8945 26.8357 44.7188 26.9646L42.832 28.3474L16.957 13.406C16.6289 13.2185 16.3945 12.9138 16.3008 12.5388C16.207 12.1638 16.2539 11.7888 16.4414 11.4607L17.332 9.92554C17.5195 9.59741 17.8242 9.36304 18.1992 9.26929C18.5625 9.17554 18.9492 9.22241 19.2773 9.40991L57.7617 31.6287L56.4023 33.0349ZM31.7461 33.4802C31.0195 33.0583 30.1758 32.9529 29.3789 33.1638C28.5703 33.3748 27.9023 33.9021 27.4805 34.6169C26.6133 36.1052 27.1289 38.0271 28.6289 38.8826C29.1211 39.1638 29.6602 39.3044 30.1875 39.3044C31.2656 39.3044 32.3203 38.7419 32.8945 37.7459C33.3164 37.0193 33.4219 36.1755 33.2109 35.3787C32.9883 34.5701 32.4727 33.8904 31.7461 33.4802ZM31.2773 36.8084C30.9375 37.406 30.1641 37.6169 29.5664 37.2654C28.9688 36.9255 28.7578 36.1521 29.1094 35.5544C29.3438 35.156 29.7656 34.9334 30.1992 34.9334C30.4102 34.9334 30.6211 34.9919 30.8203 35.0974C31.1133 35.2615 31.3125 35.531 31.4062 35.8591C31.5 36.1873 31.4414 36.5154 31.2773 36.8084ZM23.4609 47.3083C22.1484 46.5466 20.4609 47.0037 19.7109 48.3162C18.9492 49.6287 19.4062 51.3162 20.7188 52.0662C21.1406 52.3123 21.6094 52.4412 22.0898 52.4412C22.3242 52.4412 22.5703 52.406 22.8047 52.3474C23.5195 52.1599 24.1055 51.7029 24.4688 51.0701C25.2188 49.7458 24.7734 48.0583 23.4609 47.3083ZM22.8398 50.1208C22.7227 50.3201 22.5352 50.4724 22.3125 50.531C22.0898 50.5896 21.8555 50.5662 21.6445 50.449C21.2227 50.2029 21.082 49.6755 21.3281 49.2537C21.4922 48.9724 21.7852 48.8201 22.0898 48.8201C22.2422 48.8201 22.3828 48.8552 22.5234 48.9373C22.9336 49.1716 23.0742 49.699 22.8398 50.1208ZM60.4102 9.8435C60.2461 9.94897 60.0703 9.99585 59.8945 9.99585C59.5898 9.99585 59.2969 9.85522 59.1094 9.57397C56.5664 5.76538 52.3125 3.48022 47.7305 3.48022C43.1484 3.48022 38.8945 5.75366 36.3516 9.57397C36.0586 10.0076 35.4844 10.1248 35.0508 9.83179C34.6172 9.53882 34.5 8.9646 34.793 8.53101C37.6875 4.19507 42.5273 1.60522 47.7305 1.60522C52.9336 1.60522 57.7734 4.19507 60.668 8.53101C60.9609 8.97632 60.8438 9.55054 60.4102 9.8435ZM47.7422 7.47632C44.3438 7.47632 41.25 9.21069 39.4688 12.1169C39.1992 12.5623 38.625 12.7029 38.1797 12.4333C37.7344 12.1638 37.5938 11.5896 37.8633 11.1443C39.9844 7.67554 43.6758 5.60132 47.7305 5.60132C51.7852 5.60132 55.4766 7.67554 57.5977 11.1443C57.8672 11.5896 57.7266 12.1638 57.2812 12.4333C57.1289 12.5271 56.9648 12.574 56.7891 12.574C56.4727 12.574 56.168 12.4099 55.9922 12.1287C54.2344 9.21069 51.1406 7.47632 47.7422 7.47632ZM47.7422 11.4724C45.5625 11.4724 43.6055 12.6912 42.6328 14.6482C42.4688 14.9763 42.1406 15.1755 41.7891 15.1755C41.6484 15.1755 41.5078 15.1404 41.3789 15.0818C40.9102 14.8474 40.7227 14.2849 40.957 13.8279C42.2461 11.2263 44.8477 9.60913 47.7422 9.60913C50.6484 9.60913 53.25 11.2263 54.5273 13.8279C54.7617 14.2966 54.5625 14.8591 54.1055 15.0818C53.6367 15.3162 53.0742 15.1169 52.8516 14.6599C51.8789 12.6794 49.9219 11.4724 47.7422 11.4724ZM44.1562 17.1677C44.1562 19.1482 45.7617 20.7537 47.7422 20.7537C49.7227 20.7537 51.3281 19.1482 51.3281 17.1677C51.3281 15.1873 49.7227 13.5818 47.7422 13.5818C45.7617 13.5818 44.1562 15.1873 44.1562 17.1677ZM49.4531 17.1677C49.4531 18.1052 48.6914 18.8787 47.7422 18.8787C46.793 18.8787 46.0312 18.1169 46.0312 17.1677C46.0312 16.2302 46.793 15.4568 47.7422 15.4568C48.6914 15.4568 49.4531 16.2185 49.4531 17.1677Z" fill="url(#paint0_linear_84_69)"/>
</g>
<defs>
<linearGradient id="paint0_linear_84_69" x1="0.939308" y1="30.7229" x2="60.9367" y2="30.7229" gradientUnits="userSpaceOnUse">
<stop stop-color="#E01C08"/>
<stop offset="0.685" stop-color="#C01503"/>
<stop offset="1" stop-color="#B11101"/>
</linearGradient>
<clipPath id="clip0_84_69">
<rect width="60" height="60" fill="white" transform="translate(0.832031 0.281006)"/>
</clipPath>
</defs>
</svg>
