<svg width="51" height="51" viewBox="0 0 51 51" fill="none" xmlns="http://www.w3.org/2000/svg">
<g clip-path="url(#clip0_108_100)">
<path d="M29.0301 18.4023C28.2813 18.1043 27.4335 18.4699 27.1357 19.2185L21.9274 32.3138C21.6297 33.0623 21.9951 33.9104 22.7436 34.2081C22.9204 34.2784 23.1027 34.3117 23.2821 34.3117C23.862 34.3117 24.4105 33.9635 24.6378 33.3918L29.8463 20.2965C30.1441 19.5481 29.7785 18.7 29.0301 18.4023Z" fill="white"/>
<path d="M39.6651 27.2114C39.3958 26.7989 38.9364 26.5501 38.4437 26.5501H31.2397C30.4342 26.5501 29.7812 27.2031 29.7812 28.0086C29.7812 28.8141 30.4343 29.4671 31.2397 29.4671H36.2094L31.3521 40.5169C31.0279 41.2543 31.363 42.1149 32.1004 42.4391C32.2913 42.5231 32.4904 42.5628 32.6865 42.5628C33.2475 42.5628 33.7823 42.2373 34.0225 41.6908L39.779 28.5956C39.9773 28.1446 39.9345 27.624 39.6651 27.2114Z" fill="white"/>
<path d="M18.2711 25.9488C18.2641 26.7544 18.9115 27.413 19.717 27.4199C19.7213 27.42 19.7256 27.42 19.7299 27.42C20.5295 27.4199 21.1811 26.7752 21.1881 25.974C21.192 25.5226 21.1993 24.6442 21.2074 23.5551H21.4333C22.2389 23.5551 22.8918 22.9021 22.8918 22.0966C22.8918 21.291 22.2388 20.6381 21.4333 20.6381H21.2269C21.2452 17.4925 21.2548 14.1198 21.2159 13.6527C21.1294 12.6155 20.5065 11.7698 19.6291 11.4981C18.7585 11.2286 17.8325 11.5664 17.1518 12.4017C16.4081 13.3142 12.9691 19.5138 11.9329 21.3922C11.6837 21.8439 11.6917 22.3939 11.954 22.8383C12.2164 23.2826 12.694 23.5553 13.2099 23.5553H18.2901C18.2839 24.4024 18.2773 25.2156 18.2711 25.9488ZM15.6884 20.638C16.6663 18.8888 17.6205 17.2102 18.3264 16.0044C18.3262 17.2526 18.3192 18.9144 18.3093 20.638H15.6884Z" fill="white"/>
<path d="M9.58642 27.6459C10.3919 27.6358 11.0366 26.9746 11.0266 26.1691C11.0165 25.3699 10.3654 24.7289 9.56845 24.7289C9.5622 24.7289 9.55595 24.729 9.5497 24.729C8.20644 24.7459 6.78056 24.7568 5.60897 24.7588C6.33847 23.7844 7.36063 22.3894 8.75106 20.4027C9.58603 19.2097 10.1305 18.0826 10.3692 17.0529C10.4077 16.8419 10.4648 16.4309 10.4717 16.217C10.4717 13.565 8.31415 11.4076 5.6623 11.4076C3.36933 11.4076 1.38466 13.0389 0.943155 15.2864C0.787881 16.0769 1.30282 16.8435 2.09325 16.9987C2.88349 17.1539 3.65028 16.6391 3.80556 15.8486C3.97899 14.9656 4.75985 14.3247 5.6623 14.3247C6.67899 14.3247 7.51093 15.1306 7.55292 16.1371C7.4494 17.02 7.03583 17.721 6.36122 18.7301C4.28661 21.6942 3.04862 23.3152 2.38358 24.186C1.56874 25.2529 1.19687 25.7399 1.44599 26.5501C1.59218 27.0254 1.95224 27.39 2.43378 27.5506C2.63085 27.6162 2.81962 27.6794 5.34081 27.6794C6.34052 27.6795 7.70751 27.6695 9.58642 27.6459Z" fill="white"/>
<path d="M12.1597 42.9419C11.3596 42.2511 10.6056 41.4929 9.91893 40.6886C9.39578 40.0759 8.47528 40.0032 7.86268 40.5263C7.24998 41.0493 7.17733 41.9699 7.70037 42.5826C8.4827 43.499 9.34168 44.3628 10.2535 45.15C10.5292 45.388 10.8683 45.5046 11.2059 45.5046C11.6152 45.5046 12.0222 45.3332 12.3106 44.9991C12.837 44.3893 12.7695 43.4683 12.1597 42.9419Z" fill="white"/>
<path d="M5.54417 32.2902C5.34105 31.5107 4.54417 31.0436 3.76488 31.2467C2.98538 31.4498 2.5182 32.2464 2.72132 33.026C3.02503 34.1911 3.41937 35.3429 3.89339 36.4492C4.1304 37.0023 4.66878 37.3337 5.2348 37.3337C5.4264 37.3337 5.62132 37.2957 5.80862 37.2154C6.54905 36.8981 6.89202 36.0407 6.57484 35.3003C6.15794 34.3274 5.81116 33.3147 5.54417 32.2902Z" fill="white"/>
<path d="M29.9781 47.6991C28.9427 47.9 27.8844 48.0241 26.8327 48.0681C26.0279 48.1017 25.4028 48.7813 25.4364 49.5862C25.4691 50.3704 26.1151 50.984 26.8926 50.984C26.9131 50.984 26.9338 50.9835 26.9545 50.9826C28.1515 50.9326 29.3556 50.7914 30.5336 50.5629C31.3244 50.4095 31.841 49.644 31.6877 48.8532C31.5343 48.0624 30.7683 47.5458 29.9781 47.6991Z" fill="white"/>
<path d="M20.5314 47.3734C19.5121 47.1004 18.5024 46.7464 17.5304 46.3211C16.7924 45.998 15.9324 46.3346 15.6095 47.0726C15.2866 47.8106 15.623 48.6705 16.361 48.9935C17.467 49.4775 18.6163 49.8805 19.7769 50.1912C19.9033 50.2251 20.0302 50.2412 20.155 50.2412C20.7992 50.2412 21.3885 49.8113 21.563 49.1596C21.7714 48.3815 21.3095 47.5818 20.5314 47.3734Z" fill="white"/>
<path d="M48.8879 19.755C46.9598 13.6341 42.7635 8.63037 37.0719 5.66562C31.7544 2.8957 25.7171 2.22803 20.0203 3.69414L20.306 3.30322C20.7814 2.65293 20.6395 1.74033 19.9892 1.26494C19.3389 0.789549 18.4264 0.931541 17.951 1.58174L14.8162 5.87021C14.5283 6.26406 14.4564 6.77568 14.6245 7.23359C14.7926 7.6915 15.1785 8.03506 15.6527 8.14912L20.8177 9.39092C20.9323 9.41846 21.0469 9.43164 21.1598 9.43164C21.8184 9.43154 22.4159 8.98232 22.5767 8.31367C22.765 7.53047 22.2828 6.74287 21.4996 6.55459L21.0471 6.4458C25.9627 5.2581 31.1471 5.86836 35.7243 8.25264C40.7248 10.8574 44.4116 15.2536 46.1056 20.6313C47.7995 26.0091 47.2979 31.7246 44.6932 36.7251C42.5687 40.8034 39.2616 44.0084 35.1295 45.9936C34.4033 46.3424 34.0975 47.2138 34.4464 47.9398C34.6974 48.4623 35.2187 48.7671 35.7621 48.7671C35.9738 48.7671 36.1891 48.7208 36.3927 48.6228C41.0975 46.3626 44.8625 42.7144 47.2805 38.0727C50.245 32.3813 50.816 25.8759 48.8879 19.755Z" fill="white"/>
</g>
<defs>
<clipPath id="clip0_108_100">
<rect width="50" height="50" fill="white" transform="translate(0.462402 0.983887)"/>
</clipPath>
</defs>
</svg>
