<svg width="51" height="51" viewBox="0 0 51 51" fill="none" xmlns="http://www.w3.org/2000/svg">
<g clip-path="url(#clip0_108_112)">
<path d="M47.0649 4.59268H3.85977C2.04033 4.59268 0.560059 6.07296 0.560059 7.89249V38.2099C0.560059 40.0293 2.04033 41.5096 3.85977 41.5096H15.0128L12.6223 45.6118C12.408 45.9794 12.4052 46.4167 12.6148 46.7816C12.8251 47.1477 13.2161 47.3751 13.6353 47.3751H37.2896C37.7086 47.3751 38.0996 47.1478 38.31 46.7817C38.5195 46.4169 38.5169 45.9796 38.3027 45.6119L35.9122 41.5096H47.0649C48.8845 41.5096 50.3647 40.0293 50.3647 38.2099V7.89249C50.3647 6.07296 48.8845 4.59268 47.0649 4.59268ZM3.85977 6.15518H47.0649C48.0229 6.15518 48.8022 6.93448 48.8022 7.89249V35.7302H2.12256V7.89249C2.12256 6.93458 2.90186 6.15518 3.85977 6.15518ZM36.6111 45.8126H14.3137L16.8212 41.5097H34.1036L36.6111 45.8126ZM47.0649 39.9471H3.85977C2.90186 39.9471 2.12256 39.1678 2.12256 38.2099V37.2926H48.8022V38.2099C48.8022 39.1678 48.0229 39.9471 47.0649 39.9471ZM8.05264 23.9073C9.41689 23.9073 10.5683 22.9807 10.9121 21.724H15.5384V24.4812H13.5808C13.3339 24.4812 13.1015 24.5979 12.954 24.796L10.9518 27.4865C10.6168 27.355 10.2527 27.2819 9.87168 27.2819C8.23701 27.2819 6.90713 28.6118 6.90713 30.2465C6.90713 31.8812 8.23701 33.211 9.87168 33.211C11.5063 33.211 12.8362 31.8812 12.8362 30.2465C12.8362 29.558 12.5996 28.924 12.2044 28.4203L13.9731 26.0436H15.5383V27.738C15.5383 29.4632 16.9418 30.8667 18.667 30.8667H25.0561C25.1383 31.1013 25.2942 31.3074 25.5104 31.4524C25.888 31.7057 26.3667 31.7219 26.7595 31.495L27.3524 31.1527L29.177 34.3128C29.3508 34.614 29.6318 34.8296 29.9685 34.9197C30.081 34.9499 30.1952 34.9648 30.3086 34.9648C30.5344 34.9648 30.7569 34.9058 30.9573 34.79L32.6513 33.812C33.2736 33.4526 33.4876 32.6541 33.1283 32.0317L32.4519 30.8601C34.0869 30.7594 35.3864 29.3979 35.3864 27.738V26.0436H36.9517L38.7203 28.4203C38.3251 28.9241 38.0885 29.558 38.0885 30.2465C38.0885 31.8812 39.4185 33.211 41.0531 33.211C42.6878 33.211 44.0177 31.8812 44.0177 30.2465C44.0177 28.6118 42.6878 27.2819 41.0531 27.2819C40.6721 27.2819 40.308 27.355 39.973 27.4865L37.9709 24.7959C37.8234 24.5978 37.591 24.4811 37.3441 24.4811H35.3864V21.7239H40.0128C40.3565 22.9807 41.5079 23.9072 42.8722 23.9072C44.5068 23.9072 45.8367 22.5774 45.8367 20.9427C45.8367 19.308 44.5068 17.978 42.8722 17.978C41.5079 17.978 40.3565 18.9047 40.0128 20.1614H35.3864V17.4042H37.3441C37.591 17.4042 37.8234 17.2875 37.9709 17.0894L39.973 14.3988C40.308 14.5304 40.6722 14.6034 41.0532 14.6034C42.6879 14.6034 44.0178 13.2735 44.0178 11.6389C44.0178 10.0042 42.6879 8.67432 41.0532 8.67432C39.4186 8.67432 38.0886 10.0042 38.0886 11.6389C38.0886 12.3273 38.3252 12.9612 38.7204 13.465L36.9518 15.8418H35.3865V14.1474C35.3865 12.4222 33.983 11.0187 32.2578 11.0187H18.667C16.9418 11.0187 15.5383 12.4222 15.5383 14.1474V15.8418H13.9731L12.2045 13.465C12.5997 12.9612 12.8363 12.3273 12.8363 11.6389C12.8363 10.0042 11.5064 8.67432 9.87178 8.67432C8.23711 8.67432 6.90723 10.0042 6.90723 11.6389C6.90723 13.2735 8.23711 14.6034 9.87178 14.6034C10.2528 14.6034 10.6169 14.5304 10.9519 14.3988L12.9541 17.0894C13.1016 17.2875 13.334 17.4042 13.5809 17.4042H15.5385V20.1614H10.9122C10.5684 18.9047 9.41699 17.978 8.05273 17.978C6.41807 17.978 5.08818 19.308 5.08818 20.9427C5.08818 22.5774 6.41787 23.9073 8.05264 23.9073ZM9.87168 31.6486C9.09853 31.6486 8.46963 31.0197 8.46963 30.2466C8.46963 29.4734 9.09853 28.8445 9.87168 28.8445C10.6448 28.8445 11.2737 29.4735 11.2737 30.2466C11.2737 31.0196 10.6448 31.6486 9.87168 31.6486ZM42.4553 30.2466C42.4553 31.0197 41.8264 31.6486 41.0532 31.6486C40.2801 31.6486 39.6511 31.0197 39.6511 30.2466C39.6511 29.4734 40.2801 28.8445 41.0532 28.8445C41.8264 28.8445 42.4553 29.4734 42.4553 30.2466ZM42.8721 19.5405C43.6452 19.5405 44.2741 20.1695 44.2741 20.9427C44.2741 21.7158 43.6452 22.3447 42.8721 22.3447C42.0989 22.3447 41.47 21.7158 41.47 20.9427C41.47 20.1695 42.0989 19.5405 42.8721 19.5405ZM41.0531 10.2367C41.8263 10.2367 42.4552 10.8656 42.4552 11.6388C42.4552 12.4119 41.8263 13.0408 41.0531 13.0408C40.28 13.0408 39.651 12.4119 39.651 11.6388C39.651 10.8656 40.28 10.2367 41.0531 10.2367ZM25.4624 26.0721C22.634 26.0721 20.333 23.7711 20.333 20.9427C20.333 18.1143 22.634 15.8133 25.4624 15.8133C28.2907 15.8133 30.5917 18.1143 30.5917 20.9427C30.5917 22.5945 29.8141 24.1129 28.4948 25.0787L27.2666 24.5748C26.9258 24.4351 26.5478 24.4607 26.2289 24.6446C25.9103 24.8287 25.6993 25.1436 25.6501 25.5083L25.5742 26.0701C25.537 26.071 25.4996 26.0721 25.4624 26.0721ZM30.4006 33.3072L28.3149 29.6948C28.1703 29.4442 27.9077 29.3041 27.6376 29.3041C27.5052 29.3041 27.3708 29.3379 27.2478 29.4089L26.6534 29.7521L27.1321 26.2086L30.4402 27.5656L29.8458 27.9088C29.6664 28.0124 29.5354 28.183 29.4817 28.3831C29.4281 28.5833 29.4562 28.7965 29.5599 28.976L31.6454 32.5885L30.4006 33.3072ZM17.1008 14.1473C17.1008 13.2837 17.8033 12.5811 18.667 12.5811H32.2577C33.1214 12.5811 33.8239 13.2837 33.8239 14.1473V27.738C33.8239 28.6016 33.1214 29.3042 32.2577 29.3042H31.5537L31.3038 28.8713L31.8964 28.5292C32.2895 28.3024 32.5148 27.8798 32.4844 27.426C32.4541 26.9751 32.1744 26.5881 31.7546 26.4159L30.1232 25.7467C31.4132 24.5005 32.1542 22.785 32.1542 20.9426C32.1542 17.2526 29.1522 14.2507 25.4624 14.2507C21.7725 14.2507 18.7705 17.2526 18.7705 20.9426C18.7705 24.5992 21.719 27.5785 25.3633 27.6319L25.1373 29.3041H18.6671C17.8034 29.3041 17.1009 28.6015 17.1009 27.7379V14.1473H17.1008ZM8.46953 11.6389C8.46953 10.8657 9.09844 10.2368 9.87158 10.2368C10.6447 10.2368 11.2736 10.8657 11.2736 11.6389C11.2736 12.412 10.6447 13.0409 9.87158 13.0409C9.09844 13.0409 8.46953 12.412 8.46953 11.6389ZM8.05264 19.5405C8.82578 19.5405 9.45479 20.1695 9.45479 20.9427C9.45479 21.7158 8.82578 22.3447 8.05264 22.3447C7.27949 22.3447 6.65059 21.7158 6.65059 20.9427C6.65059 20.1695 7.27949 19.5405 8.05264 19.5405ZM28.6753 19.7703L25.263 23.2147C25.1103 23.3688 24.9092 23.4461 24.7079 23.4461C24.5111 23.4461 24.3145 23.3723 24.1626 23.2243L22.2591 21.3689C21.9501 21.0678 21.9437 20.5732 22.2449 20.2642C22.5461 19.9553 23.0406 19.9488 23.3496 20.25L24.6982 21.5645L27.5651 18.6706C27.8688 18.364 28.3635 18.3618 28.67 18.6654C28.9767 18.9691 28.979 19.4639 28.6753 19.7703Z" fill="white"/>
</g>
<defs>
<clipPath id="clip0_108_112">
<rect width="50" height="50" fill="white" transform="translate(0.462402 0.983887)"/>
</clipPath>
</defs>
</svg>
