<svg width="51" height="51" viewBox="0 0 51 51" fill="none" xmlns="http://www.w3.org/2000/svg">
<g clip-path="url(#clip0_106_64)">
<path d="M40.0833 50.154H10.9167C8.61875 50.154 6.75 48.2852 6.75 45.9873V27.2373H2.58333C1.41458 27.2373 0.5 26.3227 0.5 25.154C0.5 24.6019 0.725 24.0602 1.11667 23.6686L24.7708 0.451904C25.175 0.056071 25.8229 0.056071 26.2312 0.451904L33.8333 7.92065V3.27899C33.8333 2.70399 34.3 2.23732 34.875 2.23732H43.2083C43.7833 2.23732 44.25 2.70399 44.25 3.27899V18.1332L49.8771 23.6602C50.275 24.0602 50.5 24.6019 50.5 25.154C50.5 26.3227 49.5854 27.2373 48.4167 27.2373H44.25V45.9873C44.25 48.2852 42.3812 50.154 40.0833 50.154ZM25.5 2.65607L2.58333 25.1477L7.79167 25.154C8.36667 25.154 8.83333 25.6207 8.83333 26.1957V45.9873C8.83333 47.1352 9.76875 48.0707 10.9167 48.0707H40.0833C41.2312 48.0707 42.1667 47.1352 42.1667 45.9873V26.1957C42.1667 25.6207 42.6333 25.154 43.2083 25.154H48.4167C48.4167 25.1498 48.4104 25.1415 48.4104 25.1415L42.4792 19.3144C42.2792 19.1186 42.1667 18.8498 42.1667 18.5707V4.32065H35.9167V10.404C35.9167 10.8248 35.6646 11.2019 35.2771 11.3644C34.8937 11.529 34.4458 11.4436 34.1437 11.1477L25.5 2.65607Z" fill="white"/>
<path d="M25.5002 25.1539C23.2022 25.1539 21.3335 23.2851 21.3335 20.9872C21.3335 18.6893 23.2022 16.8206 25.5002 16.8206C27.7981 16.8206 29.6668 18.6893 29.6668 20.9872C29.6668 23.2851 27.7981 25.1539 25.5002 25.1539ZM25.5002 18.9039C24.3522 18.9039 23.4168 19.8393 23.4168 20.9872C23.4168 22.1351 24.3522 23.0706 25.5002 23.0706C26.6481 23.0706 27.5835 22.1351 27.5835 20.9872C27.5835 19.8393 26.6481 18.9039 25.5002 18.9039Z" fill="white"/>
<path d="M35.9167 31.4039C33.6187 31.4039 31.75 29.5351 31.75 27.2372C31.75 24.9393 33.6187 23.0706 35.9167 23.0706C38.2146 23.0706 40.0833 24.9393 40.0833 27.2372C40.0833 29.5351 38.2146 31.4039 35.9167 31.4039ZM35.9167 25.1539C34.7687 25.1539 33.8333 26.0893 33.8333 27.2372C33.8333 28.3851 34.7687 29.3206 35.9167 29.3206C37.0646 29.3206 38 28.3851 38 27.2372C38 26.0893 37.0646 25.1539 35.9167 25.1539Z" fill="white"/>
<path d="M25.5002 37.6539C24.9252 37.6539 24.4585 37.1873 24.4585 36.6123V24.6331C24.4585 24.0581 24.9252 23.5914 25.5002 23.5914C26.0752 23.5914 26.5418 24.0581 26.5418 24.6331V36.6123C26.5418 37.1873 26.0752 37.6539 25.5002 37.6539Z" fill="white"/>
<path d="M30.7082 41.8205C30.1332 41.8205 29.6665 41.3539 29.6665 40.7789V32.4455C29.6665 32.1685 29.7769 31.9039 29.9707 31.708L32.4498 29.2289C32.8561 28.8226 33.5165 28.8226 33.9228 29.2289C34.329 29.6351 34.329 30.2955 33.9228 30.7018L31.7498 32.8768V40.7789C31.7498 41.3539 31.2832 41.8205 30.7082 41.8205Z" fill="white"/>
<path d="M15.0832 31.4039C12.7853 31.4039 10.9165 29.5351 10.9165 27.2372C10.9165 24.9393 12.7853 23.0706 15.0832 23.0706C17.3811 23.0706 19.2498 24.9393 19.2498 27.2372C19.2498 29.5351 17.3811 31.4039 15.0832 31.4039ZM15.0832 25.1539C13.9353 25.1539 12.9998 26.0893 12.9998 27.2372C12.9998 28.3851 13.9353 29.3206 15.0832 29.3206C16.2311 29.3206 17.1665 28.3851 17.1665 27.2372C17.1665 26.0893 16.2311 25.1539 15.0832 25.1539Z" fill="white"/>
<path d="M20.2919 41.8205C19.7169 41.8205 19.2502 41.3539 19.2502 40.7789V32.8768L17.0752 30.7018C16.6689 30.2955 16.6689 29.6351 17.0752 29.2289C17.4814 28.8226 18.1419 28.8226 18.5481 29.2289L21.0273 31.708C21.2231 31.9039 21.3335 32.1685 21.3335 32.4455V40.7789C21.3335 41.3539 20.8669 41.8205 20.2919 41.8205Z" fill="white"/>
</g>
<defs>
<clipPath id="clip0_106_64">
<rect width="50" height="50" fill="white" transform="translate(0.5 0.153931)"/>
</clipPath>
</defs>
</svg>
