<svg width="61" height="61" viewBox="0 0 61 61" fill="none" xmlns="http://www.w3.org/2000/svg">
<g clip-path="url(#clip0_91_517)">
<path d="M38.6748 46.2176C40.261 46.2176 41.5513 44.9271 41.5513 43.3411C41.5513 41.7551 40.261 40.4646 38.6748 40.4646C37.0887 40.4646 35.7983 41.7551 35.7983 43.3411C35.7983 44.9271 37.0888 46.2176 38.6748 46.2176ZM38.6748 42.2224C39.2917 42.2224 39.7935 42.7242 39.7935 43.3411C39.7935 43.958 39.2917 44.4598 38.6748 44.4598C38.058 44.4598 37.5562 43.958 37.5562 43.3411C37.5562 42.7242 38.0581 42.2224 38.6748 42.2224Z" fill="white"/>
<path d="M38.6747 50.0831C42.3922 50.0831 45.4167 47.0586 45.4167 43.3412C45.4167 39.6235 42.3922 36.5991 38.6747 36.5991C34.9571 36.5991 31.9326 39.6236 31.9326 43.3412C31.9327 47.0587 34.9571 50.0831 38.6747 50.0831ZM38.6747 38.3569C41.4229 38.3569 43.6589 40.5929 43.6589 43.3412C43.6589 46.0894 41.4229 48.3253 38.6747 48.3253C35.9264 48.3253 33.6904 46.0894 33.6904 43.3412C33.6904 40.5929 35.9264 38.3569 38.6747 38.3569Z" fill="white"/>
<path d="M58.9324 25.7848H56.9246C55.6615 22.1857 53.3038 18.9691 50.2323 16.6749C46.8742 14.1666 42.8776 12.8408 38.6747 12.8408C34.4718 12.8408 30.4751 14.1665 27.1171 16.6749C26.8828 16.8499 26.6532 17.0308 26.4274 17.2163H14.1229C14.0252 17.2163 13.9459 17.1369 13.9459 17.0394V14.0731H17.9619C20.1918 14.0731 22.0058 12.2591 22.0058 10.0292V6.28026C22.0058 5.53378 21.3986 4.92651 20.6522 4.92651H2.08312C1.33676 4.92651 0.729492 5.53378 0.729492 6.28026V10.0293C0.729492 12.2591 2.54355 14.0732 4.7734 14.0732H8.78965V17.0395C8.78965 19.9802 11.1821 22.3727 14.1229 22.3727H22.0155C21.3756 23.4557 20.8407 24.5995 20.4247 25.785H18.417C17.426 25.785 16.6199 26.5911 16.6199 27.582V33.2184C16.6199 34.2093 17.426 35.0155 18.417 35.0155H19.3427V38.622C19.3427 41.6439 21.8012 44.1025 24.8231 44.1025H26.3378C26.4918 46.298 27.2214 48.3967 28.4727 50.2184C28.6431 50.4665 28.9181 50.5999 29.198 50.5999C29.3694 50.5999 29.5427 50.5497 29.6947 50.4454C30.0949 50.1705 30.1964 49.6233 29.9216 49.2233C28.7063 47.4539 28.0638 45.3792 28.0638 43.2236V35.0155H49.2853V43.2236C49.2853 49.0744 44.5254 53.8344 38.6746 53.8344C36.4491 53.8344 34.3191 53.1532 32.5146 51.8642C32.1195 51.5823 31.5707 51.6738 31.2886 52.0686C31.0064 52.4636 31.0979 53.0125 31.493 53.2947C33.5973 54.7976 36.0806 55.5921 38.6747 55.5921C45.1992 55.5921 50.5593 50.5137 51.0116 44.1024H52.5261C55.548 44.1024 58.0065 41.6439 58.0065 38.6219V35.0153H58.9323C59.9232 35.0153 60.7294 34.2092 60.7294 33.2183V27.5819C60.7295 26.591 59.9234 25.7848 58.9324 25.7848ZM2.4873 10.0293V6.68433H20.248V10.0293C20.248 11.2899 19.2225 12.3154 17.9619 12.3154H4.7734C3.51281 12.3154 2.4873 11.2899 2.4873 10.0293ZM14.1229 20.6148C12.1514 20.6148 10.5475 19.0108 10.5475 17.0394V14.0731H12.1881V17.0394C12.1881 18.1062 13.056 18.9741 14.1229 18.9741H24.5559C24.0697 19.4957 23.6126 20.0438 23.1864 20.6148H14.1229ZM26.3061 42.3446H24.8232C22.7706 42.3446 21.1007 40.6747 21.1007 38.6219V35.0153H26.3063V42.3446H26.3061ZM56.2488 38.6219C56.2488 40.6747 54.5789 42.3446 52.5262 42.3446H51.0432V35.0153H56.2488V38.6219ZM58.9717 33.2183C58.9717 33.24 58.9541 33.2575 58.9324 33.2575H18.4171C18.3954 33.2575 18.3778 33.24 18.3778 33.2183V27.5819C18.3778 27.5602 18.3954 27.5426 18.4171 27.5426H43.1345C43.6199 27.5426 44.0134 27.1492 44.0134 26.6637C44.0134 26.1782 43.6199 25.7848 43.1345 25.7848H22.3014C23.4916 22.7489 25.5423 20.0451 28.1691 18.0832C31.221 15.8035 34.8538 14.5986 38.6748 14.5986C42.4958 14.5986 46.1285 15.8035 49.1805 18.0832C51.8073 20.0451 53.858 22.7487 55.0482 25.7848H47.2361C46.7507 25.7848 46.3571 26.1782 46.3571 26.6637C46.3571 27.1492 46.7507 27.5426 47.2361 27.5426H58.9325C58.9542 27.5426 58.9718 27.5602 58.9718 27.5819V33.2183H58.9717Z" fill="white"/>
</g>
<defs>
<clipPath id="clip0_91_517">
<rect width="60" height="60" fill="white" transform="translate(0.729492 0.259277)"/>
</clipPath>
</defs>
</svg>
