<svg width="31" height="31" viewBox="0 0 31 31" fill="none" xmlns="http://www.w3.org/2000/svg">
<path d="M27.3701 13.497L23.873 10.5828V7.00587C23.873 6.61756 23.5582 6.30275 23.1699 6.30275H18.7447L16.1304 4.03704C15.8661 3.80796 15.4737 3.80796 15.2094 4.03704L12.5952 6.30275H8.16992C7.78161 6.30275 7.46679 6.61756 7.46679 7.00587V10.5828L3.96978 13.497C3.80952 13.6305 3.7168 13.8284 3.7168 14.0371V27.1621C3.7168 27.5504 4.03161 27.8652 4.41992 27.8652H26.9199C27.3082 27.8652 27.623 27.5504 27.623 27.1621V14.0371C27.623 13.8284 27.5303 13.6305 27.3701 13.497ZM11.7121 20.5996L5.12305 25.7245V15.4747L11.7121 20.5996ZM13.0986 21.3027H18.2411L24.8706 26.459H6.4692L13.0986 21.3027ZM19.6277 20.5996L26.2168 15.4747V25.7245L19.6277 20.5996ZM25.7989 14.0182L23.873 15.5162V12.4133L25.7989 14.0182ZM15.6699 5.49884L16.5975 6.30275H14.7423L15.6699 5.49884ZM22.4668 7.70899V16.6099L18.2412 19.8965H13.0986L8.87304 16.6099V7.70899H22.4668ZM7.46679 15.5162L5.54089 14.0182L7.46679 12.4133V15.5162Z" fill="white"/>
<path d="M12.5287 17.8683C13.3922 18.5411 14.4678 18.9281 15.5574 18.9583C15.5641 18.9585 15.5706 18.9586 15.5772 18.9586C15.9565 18.9586 16.2692 18.6565 16.2797 18.2749C16.2904 17.8867 15.9844 17.5633 15.5963 17.5526C13.9434 17.5068 12.4947 16.3556 12.0732 14.7528C11.5656 12.8228 12.6587 10.8364 14.5618 10.2306C15.5273 9.92327 16.5523 10.0137 17.4478 10.4854C18.3401 10.9553 18.993 11.7446 19.287 12.7087C19.4702 13.4042 19.4079 14.0544 19.0795 14.8802C18.9985 15.0837 18.749 15.557 18.1816 15.557C18.1189 15.557 18.063 15.5103 18.0353 15.4824C17.9553 15.402 17.9078 15.2823 17.9085 15.1624L17.9278 11.2561C17.9297 10.8678 17.6165 10.5514 17.2282 10.5495C17.227 10.5495 17.2258 10.5495 17.2246 10.5495C16.8815 10.5495 16.5958 10.7957 16.5343 11.1216C16.2171 10.9548 15.8641 10.8663 15.4926 10.8663C14.8172 10.8663 14.1557 11.1698 13.6777 11.699C13.193 12.2357 12.9261 12.9659 12.9261 13.755C12.9261 14.5405 13.177 15.2786 13.6325 15.8332C14.1049 16.4084 14.7657 16.7384 15.4453 16.7384C15.9655 16.7384 16.4434 16.5529 16.8375 16.2324C16.8974 16.3185 16.9643 16.3998 17.0385 16.4744C17.3522 16.7897 17.7582 16.9634 18.1816 16.9634C19.3486 16.9634 20.0856 16.1558 20.3862 15.3999C20.8309 14.2817 20.9101 13.3365 20.6428 12.3353C20.6409 12.328 20.6388 12.3206 20.6366 12.3134C20.2345 10.9809 19.3347 9.88985 18.103 9.24119C16.8716 8.59258 15.4624 8.46813 14.1352 8.89066C12.8772 9.29111 11.8308 10.1542 11.1886 11.3209C10.5463 12.488 10.3774 13.8339 10.7131 15.1105C11.0039 16.2159 11.6317 17.1695 12.5287 17.8683ZM15.4453 15.3321C14.9078 15.3321 14.3324 14.6984 14.3324 13.755C14.3324 12.827 14.9223 12.2725 15.4927 12.2725C16.0733 12.2725 16.4844 12.8391 16.5097 13.6605L16.5088 13.8373C16.4754 14.6699 16.0113 15.3321 15.4453 15.3321Z" fill="white"/>
</svg>
