<svg width="51" height="51" viewBox="0 0 51 51" fill="none" xmlns="http://www.w3.org/2000/svg">
<g clip-path="url(#clip0_84_366)">
<path d="M25.4624 8.70502C24.8443 8.70502 24.2402 8.8883 23.7262 9.23167C23.2123 9.57505 22.8118 10.0631 22.5753 10.6341C22.3388 11.2052 22.2769 11.8335 22.3974 12.4397C22.518 13.0459 22.8157 13.6027 23.2527 14.0397C23.6897 14.4768 24.2466 14.7744 24.8527 14.895C25.4589 15.0156 26.0873 14.9537 26.6583 14.7171C27.2293 14.4806 27.7174 14.0801 28.0607 13.5662C28.4041 13.0523 28.5874 12.4481 28.5874 11.83C28.5874 11.0012 28.2582 10.2064 27.6721 9.62031C27.0861 9.03426 26.2912 8.70502 25.4624 8.70502ZM25.4624 13.3925C25.1534 13.3925 24.8513 13.3009 24.5943 13.1292C24.3374 12.9575 24.1371 12.7135 24.0188 12.428C23.9006 12.1425 23.8696 11.8283 23.9299 11.5252C23.9902 11.2221 24.139 10.9437 24.3575 10.7252C24.5761 10.5066 24.8545 10.3578 25.1576 10.2975C25.4607 10.2373 25.7748 10.2682 26.0603 10.3865C26.3459 10.5047 26.5899 10.705 26.7616 10.9619C26.9333 11.2189 27.0249 11.521 27.0249 11.83C27.0249 12.2444 26.8603 12.6418 26.5673 12.9349C26.2742 13.2279 25.8768 13.3925 25.4624 13.3925Z" fill="white"/>
<path d="M7.49365 46.205C8.11172 46.205 8.71591 46.0217 9.22981 45.6784C9.74371 45.335 10.1443 44.8469 10.3808 44.2759C10.6173 43.7049 10.6792 43.0766 10.5586 42.4704C10.438 41.8642 10.1404 41.3073 9.70336 40.8703C9.26632 40.4333 8.7095 40.1356 8.10331 40.0151C7.49712 39.8945 6.86879 39.9564 6.29777 40.1929C5.72675 40.4294 5.23869 40.83 4.89531 41.3439C4.55193 41.8578 4.36865 42.462 4.36865 43.08C4.36865 43.9088 4.69789 44.7037 5.28394 45.2897C5.86999 45.8758 6.66485 46.205 7.49365 46.205ZM7.49365 41.5175C7.80269 41.5175 8.10478 41.6092 8.36173 41.7808C8.61868 41.9525 8.81895 42.1966 8.93721 42.4821C9.05548 42.7676 9.08642 43.0818 9.02613 43.3848C8.96584 43.6879 8.81703 43.9664 8.59851 44.1849C8.37999 44.4034 8.10158 44.5522 7.79848 44.6125C7.49539 44.6728 7.18122 44.6418 6.89571 44.5236C6.6102 44.4053 6.36617 44.205 6.19448 43.9481C6.02279 43.6911 5.93115 43.3891 5.93115 43.08C5.93115 42.6656 6.09577 42.2682 6.3888 41.9752C6.68182 41.6821 7.07925 41.5175 7.49365 41.5175Z" fill="white"/>
<path d="M15.3062 46.205C15.9242 46.205 16.5284 46.0217 17.0423 45.6784C17.5562 45.335 17.9568 44.8469 18.1933 44.2759C18.4298 43.7049 18.4917 43.0766 18.3711 42.4704C18.2505 41.8642 17.9529 41.3073 17.5159 40.8703C17.0788 40.4333 16.522 40.1356 15.9158 40.0151C15.3096 39.8945 14.6813 39.9564 14.1103 40.1929C13.5392 40.4294 13.0512 40.83 12.7078 41.3439C12.3644 41.8578 12.1812 42.462 12.1812 43.08C12.1812 43.9088 12.5104 44.7037 13.0964 45.2897C13.6825 45.8758 14.4774 46.205 15.3062 46.205ZM15.3062 41.5175C15.6152 41.5175 15.9173 41.6092 16.1742 41.7808C16.4312 41.9525 16.6315 42.1966 16.7497 42.4821C16.868 42.7676 16.8989 43.0818 16.8386 43.3848C16.7783 43.6879 16.6295 43.9664 16.411 44.1849C16.1925 44.4034 15.9141 44.5522 15.611 44.6125C15.3079 44.6728 14.9937 44.6418 14.7082 44.5236C14.4227 44.4053 14.1787 44.205 14.007 43.9481C13.8353 43.6911 13.7437 43.3891 13.7437 43.08C13.7437 42.6656 13.9083 42.2682 14.2013 41.9752C14.4943 41.6821 14.8918 41.5175 15.3062 41.5175Z" fill="white"/>
<path d="M23.1187 46.205C23.7367 46.205 24.3409 46.0217 24.8548 45.6784C25.3687 45.335 25.7693 44.8469 26.0058 44.2759C26.2423 43.7049 26.3042 43.0766 26.1836 42.4704C26.063 41.8642 25.7654 41.3073 25.3284 40.8703C24.8913 40.4333 24.3345 40.1356 23.7283 40.0151C23.1221 39.8945 22.4938 39.9564 21.9228 40.1929C21.3517 40.4294 20.8637 40.83 20.5203 41.3439C20.1769 41.8578 19.9937 42.462 19.9937 43.08C19.9937 43.9088 20.3229 44.7037 20.9089 45.2897C21.495 45.8758 22.2899 46.205 23.1187 46.205ZM23.1187 41.5175C23.4277 41.5175 23.7298 41.6092 23.9867 41.7808C24.2437 41.9525 24.444 42.1966 24.5622 42.4821C24.6805 42.7676 24.7114 43.0818 24.6511 43.3848C24.5908 43.6879 24.442 43.9664 24.2235 44.1849C24.005 44.4034 23.7266 44.5522 23.4235 44.6125C23.1204 44.6728 22.8062 44.6418 22.5207 44.5236C22.2352 44.4053 21.9912 44.205 21.8195 43.9481C21.6478 43.6911 21.5562 43.3891 21.5562 43.08C21.5562 42.6656 21.7208 42.2682 22.0138 41.9752C22.3068 41.6821 22.7043 41.5175 23.1187 41.5175Z" fill="white"/>
<path d="M28.5874 46.205H45.7749C45.9821 46.205 46.1808 46.1227 46.3273 45.9762C46.4738 45.8297 46.5562 45.631 46.5562 45.4238V40.7363C46.5562 40.5291 46.4738 40.3304 46.3273 40.1838C46.1808 40.0373 45.9821 39.955 45.7749 39.955H28.5874C28.3802 39.955 28.1815 40.0373 28.035 40.1838C27.8885 40.3304 27.8062 40.5291 27.8062 40.7363V45.4238C27.8062 45.631 27.8885 45.8297 28.035 45.9762C28.1815 46.1227 28.3802 46.205 28.5874 46.205ZM29.3687 41.5175H44.9937V44.6425H29.3687V41.5175Z" fill="white"/>
<path d="M49.6812 29.0175V7.92377C49.6799 6.88815 49.268 5.8953 48.5357 5.163C47.8034 4.43071 46.8105 4.01876 45.7749 4.01752H38.7437V1.67377C38.7437 1.46657 38.6613 1.26785 38.5148 1.12134C38.3683 0.974827 38.1696 0.892517 37.9624 0.892517H12.9624C12.7552 0.892517 12.5565 0.974827 12.41 1.12134C12.2635 1.26785 12.1812 1.46657 12.1812 1.67377V6.36127C12.1812 6.56847 12.2635 6.76718 12.41 6.91369C12.5565 7.06021 12.7552 7.14252 12.9624 7.14252H13.7835C13.9747 10.1102 15.2884 12.8937 17.4578 14.9278C19.6271 16.9619 22.4894 18.0939 25.4632 18.0939C28.437 18.0939 31.2993 16.9619 33.4686 14.9278C35.638 12.8937 36.9517 10.1102 37.1429 7.14252H37.9624C38.1696 7.14252 38.3683 7.06021 38.5148 6.91369C38.6613 6.76718 38.7437 6.56847 38.7437 6.36127V5.58002H45.7749C46.3965 5.58002 46.9926 5.82695 47.4322 6.26649C47.8717 6.70602 48.1187 7.30217 48.1187 7.92377V29.0175C48.1187 29.6391 47.8717 30.2353 47.4322 30.6748C46.9926 31.1143 46.3965 31.3613 45.7749 31.3613H44.4694L44.0187 30.8464C43.9453 30.7627 43.855 30.6957 43.7537 30.6498C43.6524 30.6038 43.5424 30.58 43.4312 30.58H7.49365C7.3824 30.58 7.27244 30.6038 7.17112 30.6498C7.0698 30.6957 6.97947 30.7627 6.90615 30.8464L1.4374 37.0964L1.44365 37.1019C1.31701 37.2416 1.24587 37.4227 1.24365 37.6113V48.5488C1.24365 48.756 1.32596 48.9547 1.47248 49.1012C1.61899 49.2477 1.8177 49.33 2.0249 49.33H48.8999C49.1071 49.33 49.3058 49.2477 49.4523 49.1012C49.5988 48.9547 49.6812 48.756 49.6812 48.5488V37.6113C49.6789 37.4227 49.6078 37.2416 49.4812 37.1019L49.4874 37.0964L45.8312 32.9183C46.8564 32.9035 47.8348 32.4862 48.5551 31.7564C49.2754 31.0266 49.6798 30.0429 49.6812 29.0175ZM17.4601 12.4777L17.4108 12.5269C16.2132 10.9713 15.4956 9.10001 15.346 7.14252H19.9554C19.7788 9.15953 18.895 11.0492 17.4601 12.4777ZM18.4538 13.6933L18.5647 13.5824C20.2922 11.8612 21.3408 9.57463 21.5179 7.14252H29.4085C29.5856 9.57463 30.6341 11.8612 32.3616 13.5824L32.4726 13.6933C30.5893 15.5053 28.0774 16.5174 25.464 16.5174C22.8505 16.5174 20.3387 15.5053 18.4554 13.6933H18.4538ZM33.514 12.5269L33.4647 12.4777C32.0298 11.0492 31.146 9.15953 30.9694 7.14252H35.5788C35.4292 9.10001 34.7116 10.9713 33.514 12.5269ZM37.1812 5.58002H13.7437V2.45502H37.1812V5.58002ZM7.84834 32.1425H43.0765L47.178 36.83H3.74365L7.84834 32.1425ZM48.1187 47.7675H2.80615V38.3925H48.1187V47.7675Z" fill="white"/>
<path d="M19.2578 23.3144C20.0635 24.1305 21.0233 24.7786 22.0814 25.2209C23.1396 25.6631 24.275 25.8909 25.4219 25.8909C26.5687 25.8909 27.7042 25.6631 28.7623 25.2209C29.8205 24.7786 30.7802 24.1305 31.5859 23.3144L30.4758 22.2144C29.8155 22.884 29.0286 23.4158 28.161 23.7787C27.2934 24.1417 26.3623 24.3286 25.4219 24.3286C24.4814 24.3286 23.5503 24.1417 22.6827 23.7787C21.8151 23.4158 21.0283 22.884 20.368 22.2144L19.2578 23.3144Z" fill="white"/>
<path d="M29.3419 21.0488L28.2317 19.955C27.8644 20.3272 27.4268 20.6227 26.9443 20.8243C26.4618 21.026 25.9441 21.1299 25.4212 21.1299C24.8983 21.1299 24.3805 21.026 23.8981 20.8243C23.4156 20.6227 22.978 20.3272 22.6106 19.955L21.5005 21.0488C22.0131 21.5677 22.6236 21.9797 23.2966 22.2609C23.9696 22.5421 24.6918 22.6869 25.4212 22.6869C26.1506 22.6869 26.8728 22.5421 27.5458 22.2609C28.2188 21.9797 28.8293 21.5677 29.3419 21.0488Z" fill="white"/>
</g>
<defs>
<clipPath id="clip0_84_366">
<rect width="50" height="50" fill="white" transform="translate(0.462402 0.111267)"/>
</clipPath>
</defs>
</svg>
