<svg width="51" height="51" viewBox="0 0 51 51" fill="none" xmlns="http://www.w3.org/2000/svg">
<path d="M25.5 9.00293C24.8819 9.00293 24.2777 9.18621 23.7638 9.52959C23.2499 9.87297 22.8494 10.361 22.6129 10.932C22.3764 11.5031 22.3145 12.1314 22.435 12.7376C22.5556 13.3438 22.8533 13.9006 23.2903 14.3376C23.7273 14.7747 24.2842 15.0723 24.8903 15.1929C25.4965 15.3135 26.1249 15.2516 26.6959 15.0151C27.2669 14.7785 27.755 14.378 28.0983 13.8641C28.4417 13.3502 28.625 12.746 28.625 12.1279C28.625 11.2991 28.2958 10.5043 27.7097 9.91822C27.1237 9.33217 26.3288 9.00293 25.5 9.00293ZM25.5 13.6904C25.191 13.6904 24.8889 13.5988 24.6319 13.4271C24.375 13.2554 24.1747 13.0114 24.0564 12.7259C23.9382 12.4404 23.9072 12.1262 23.9675 11.8231C24.0278 11.52 24.1766 11.2416 24.3951 11.0231C24.6137 10.8046 24.8921 10.6557 25.1952 10.5955C25.4983 10.5352 25.8124 10.5661 26.0979 10.6844C26.3835 10.8026 26.6275 11.0029 26.7992 11.2599C26.9709 11.5168 27.0625 11.8189 27.0625 12.1279C27.0625 12.5423 26.8979 12.9398 26.6049 13.2328C26.3118 13.5258 25.9144 13.6904 25.5 13.6904Z" fill="white"/>
<path d="M7.53125 46.5029C8.14932 46.5029 8.7535 46.3197 9.26741 45.9763C9.78131 45.6329 10.1818 45.1448 10.4184 44.5738C10.6549 44.0028 10.7168 43.3745 10.5962 42.7683C10.4756 42.1621 10.178 41.6053 9.74096 41.1682C9.30392 40.7312 8.7471 40.4336 8.14091 40.313C7.53472 40.1924 6.90638 40.2543 6.33536 40.4908C5.76435 40.7273 5.27629 41.1279 4.93291 41.6418C4.58953 42.1557 4.40625 42.7599 4.40625 43.3779C4.40625 44.2067 4.73549 45.0016 5.32154 45.5876C5.90759 46.1737 6.70245 46.5029 7.53125 46.5029ZM7.53125 41.8154C7.84028 41.8154 8.14238 41.9071 8.39933 42.0788C8.65628 42.2504 8.85655 42.4945 8.97481 42.78C9.09307 43.0655 9.12402 43.3797 9.06373 43.6828C9.00344 43.9859 8.85462 44.2643 8.6361 44.4828C8.41758 44.7013 8.13917 44.8501 7.83608 44.9104C7.53298 44.9707 7.21882 44.9398 6.93331 44.8215C6.6478 44.7032 6.40377 44.503 6.23208 44.246C6.06039 43.9891 5.96875 43.687 5.96875 43.3779C5.96875 42.9635 6.13337 42.5661 6.4264 42.2731C6.71942 41.9801 7.11685 41.8154 7.53125 41.8154Z" fill="white"/>
<path d="M15.3437 46.5029C15.9618 46.5029 16.566 46.3197 17.0799 45.9763C17.5938 45.6329 17.9943 45.1448 18.2309 44.5738C18.4674 44.0028 18.5293 43.3745 18.4087 42.7683C18.2881 42.1621 17.9905 41.6053 17.5535 41.1682C17.1164 40.7312 16.5596 40.4336 15.9534 40.313C15.3472 40.1924 14.7189 40.2543 14.1479 40.4908C13.5768 40.7273 13.0888 41.1279 12.7454 41.6418C12.402 42.1557 12.2188 42.7599 12.2188 43.3779C12.2188 44.2067 12.548 45.0016 13.134 45.5876C13.7201 46.1737 14.5149 46.5029 15.3437 46.5029ZM15.3437 41.8154C15.6528 41.8154 15.9549 41.9071 16.2118 42.0788C16.4688 42.2504 16.669 42.4945 16.7873 42.78C16.9056 43.0655 16.9365 43.3797 16.8762 43.6828C16.8159 43.9859 16.6671 44.2643 16.4486 44.4828C16.2301 44.7013 15.9517 44.8501 15.6486 44.9104C15.3455 44.9707 15.0313 44.9398 14.7458 44.8215C14.4603 44.7032 14.2163 44.503 14.0446 44.246C13.8729 43.9891 13.7812 43.687 13.7812 43.3779C13.7812 42.9635 13.9459 42.5661 14.2389 42.2731C14.5319 41.9801 14.9293 41.8154 15.3437 41.8154Z" fill="white"/>
<path d="M23.1562 46.5029C23.7743 46.5029 24.3785 46.3197 24.8924 45.9763C25.4063 45.6329 25.8068 45.1448 26.0434 44.5738C26.2799 44.0028 26.3418 43.3745 26.2212 42.7683C26.1006 42.1621 25.803 41.6053 25.366 41.1682C24.9289 40.7312 24.3721 40.4336 23.7659 40.313C23.1597 40.1924 22.5314 40.2543 21.9604 40.4908C21.3893 40.7273 20.9013 41.1279 20.5579 41.6418C20.2145 42.1557 20.0312 42.7599 20.0312 43.3779C20.0312 44.2067 20.3605 45.0016 20.9465 45.5876C21.5326 46.1737 22.3274 46.5029 23.1562 46.5029ZM23.1562 41.8154C23.4653 41.8154 23.7674 41.9071 24.0243 42.0788C24.2813 42.2504 24.4815 42.4945 24.5998 42.78C24.7181 43.0655 24.749 43.3797 24.6887 43.6828C24.6284 43.9859 24.4796 44.2643 24.2611 44.4828C24.0426 44.7013 23.7642 44.8501 23.4611 44.9104C23.158 44.9707 22.8438 44.9398 22.5583 44.8215C22.2728 44.7032 22.0288 44.503 21.8571 44.246C21.6854 43.9891 21.5937 43.687 21.5937 43.3779C21.5937 42.9635 21.7584 42.5661 22.0514 42.2731C22.3444 41.9801 22.7418 41.8154 23.1562 41.8154Z" fill="white"/>
<path d="M28.625 46.5029H45.8125C46.0197 46.5029 46.2184 46.4206 46.3649 46.2741C46.5114 46.1276 46.5938 45.9289 46.5938 45.7217V41.0342C46.5938 40.827 46.5114 40.6283 46.3649 40.4818C46.2184 40.3352 46.0197 40.2529 45.8125 40.2529H28.625C28.4178 40.2529 28.2191 40.3352 28.0726 40.4818C27.9261 40.6283 27.8438 40.827 27.8438 41.0342V45.7217C27.8438 45.9289 27.9261 46.1276 28.0726 46.2741C28.2191 46.4206 28.4178 46.5029 28.625 46.5029ZM29.4062 41.8154H45.0312V44.9404H29.4062V41.8154Z" fill="white"/>
<path d="M49.7188 29.3154V8.22168C49.7175 7.18606 49.3056 6.19321 48.5733 5.46091C47.841 4.72862 46.8481 4.31667 45.8125 4.31543H38.7812V1.97168C38.7812 1.76448 38.6989 1.56577 38.5524 1.41925C38.4059 1.27274 38.2072 1.19043 38 1.19043H13C12.7928 1.19043 12.5941 1.27274 12.4476 1.41925C12.3011 1.56577 12.2188 1.76448 12.2188 1.97168V6.65918C12.2188 6.86638 12.3011 7.06509 12.4476 7.21161C12.5941 7.35812 12.7928 7.44043 13 7.44043H13.8211C14.0123 10.4081 15.326 13.1917 17.4954 15.2257C19.6647 17.2598 22.527 18.3918 25.5008 18.3918C28.4746 18.3918 31.3369 17.2598 33.5062 15.2257C35.6756 13.1917 36.9893 10.4081 37.1805 7.44043H38C38.2072 7.44043 38.4059 7.35812 38.5524 7.21161C38.6989 7.06509 38.7812 6.86638 38.7812 6.65918V5.87793H45.8125C46.4341 5.87793 47.0302 6.12486 47.4698 6.5644C47.9093 7.00394 48.1562 7.60008 48.1562 8.22168V29.3154C48.1562 29.937 47.9093 30.5332 47.4698 30.9727C47.0302 31.4122 46.4341 31.6592 45.8125 31.6592H44.507L44.0562 31.1443C43.9829 31.0607 43.8926 30.9936 43.7913 30.9477C43.69 30.9017 43.58 30.8779 43.4688 30.8779H7.53125C7.42 30.8779 7.31004 30.9017 7.20872 30.9477C7.1074 30.9936 7.01706 31.0607 6.94375 31.1443L1.475 37.3943L1.48125 37.3998C1.35461 37.5395 1.28347 37.7207 1.28125 37.9092V48.8467C1.28125 49.0539 1.36356 49.2526 1.51007 49.3991C1.65659 49.5456 1.8553 49.6279 2.0625 49.6279H48.9375C49.1447 49.6279 49.3434 49.5456 49.4899 49.3991C49.6364 49.2526 49.7188 49.0539 49.7188 48.8467V37.9092C49.7165 37.7207 49.6454 37.5395 49.5187 37.3998L49.525 37.3943L45.8687 33.2162C46.894 33.2014 47.8724 32.7841 48.5927 32.0543C49.313 31.3246 49.7174 30.3408 49.7188 29.3154ZM17.4977 12.7756L17.4484 12.8248C16.2508 11.2692 15.5332 9.39792 15.3836 7.44043H19.993C19.8164 9.45744 18.9326 11.3471 17.4977 12.7756ZM18.4914 13.9912L18.6023 13.8803C20.3298 12.1591 21.3784 9.87254 21.5555 7.44043H29.4461C29.6232 9.87254 30.6717 12.1591 32.3992 13.8803L32.5102 13.9912C30.6269 15.8032 28.115 16.8153 25.5016 16.8153C22.8881 16.8153 20.3763 15.8032 18.493 13.9912H18.4914ZM33.5516 12.8248L33.5023 12.7756C32.0674 11.3471 31.1836 9.45744 31.007 7.44043H35.6164C35.4668 9.39792 34.7492 11.2692 33.5516 12.8248ZM37.2188 5.87793H13.7812V2.75293H37.2188V5.87793ZM7.88594 32.4404H43.1141L47.2156 37.1279H3.78125L7.88594 32.4404ZM48.1562 48.0654H2.84375V38.6904H48.1562V48.0654Z" fill="white"/>
<path d="M19.2954 23.6123C20.1011 24.4285 21.0609 25.0765 22.119 25.5188C23.1772 25.9611 24.3126 26.1888 25.4595 26.1888C26.6063 26.1888 27.7418 25.9611 28.7999 25.5188C29.858 25.0765 30.8178 24.4285 31.6235 23.6123L30.5134 22.5123C29.8531 23.182 29.0662 23.7137 28.1986 24.0767C27.331 24.4396 26.3999 24.6265 25.4595 24.6265C24.519 24.6265 23.5879 24.4396 22.7203 24.0767C21.8527 23.7137 21.0659 23.182 20.4056 22.5123L19.2954 23.6123Z" fill="white"/>
<path d="M29.3795 21.3467L28.2693 20.2529C27.902 20.6251 27.4644 20.9206 26.9819 21.1222C26.4994 21.3239 25.9817 21.4278 25.4588 21.4278C24.9359 21.4278 24.4181 21.3239 23.9357 21.1222C23.4532 20.9206 23.0156 20.6251 22.6482 20.2529L21.5381 21.3467C22.0507 21.8656 22.6612 22.2776 23.3342 22.5588C24.0072 22.84 24.7294 22.9848 25.4588 22.9848C26.1882 22.9848 26.9103 22.84 27.5834 22.5588C28.2564 22.2776 28.8669 21.8656 29.3795 21.3467Z" fill="white"/>
</svg>
