<svg width="61" height="61" viewBox="0 0 61 61" fill="none" xmlns="http://www.w3.org/2000/svg">
<g clip-path="url(#clip0_91_514)">
<path d="M59.7305 30.5874L20.2031 7.75928C19.4414 7.32568 18.5508 7.2085 17.6953 7.43115C16.8398 7.66553 16.1367 8.20459 15.6914 8.96631L14.8008 10.5015C14.3672 11.2632 14.25 12.1538 14.4727 13.0093C14.6953 13.8647 15.2461 14.5679 16.0078 15.0132L16.7344 15.4351L11.1211 25.1616C10.8633 25.6069 11.0156 26.1812 11.4609 26.439L24.2695 33.8335C23.7656 35.0874 23.6836 36.4702 24.0469 37.8062C24.2578 38.603 24.6211 39.3296 25.0898 39.9624L22.6055 44.2749C20.5547 44.0757 18.4805 45.0601 17.3906 46.9585C17.3438 47.0405 17.2969 47.1226 17.25 47.2163H10.1836V45.2007C10.1836 42.6226 8.08594 40.5249 5.50781 40.5249H1.76953C1.25391 40.5249 0.832031 40.9468 0.832031 41.4624V57.9858C0.832031 58.5015 1.25391 58.9233 1.76953 58.9233H5.50781C8.08594 58.9233 10.1836 56.8257 10.1836 54.2476V52.2319H17.3203C17.7891 53.1108 18.4922 53.8374 19.3828 54.353C20.2383 54.8452 21.1641 55.0796 22.0781 55.0796C23.9531 55.0796 25.7695 54.1069 26.7773 52.3726C27.7617 50.6616 27.7148 48.646 26.8125 47.0288L29.4492 42.4702C29.6953 42.4937 29.9414 42.5171 30.1875 42.5171C30.7383 42.5171 31.2891 42.4468 31.8398 42.2944C33.1758 41.9429 34.3242 41.1812 35.168 40.1147L45.2109 45.9155C45.3516 45.9976 45.5156 46.0444 45.6797 46.0444C45.7617 46.0444 45.8438 46.0327 45.9258 46.0093C46.1602 45.9507 46.3711 45.7866 46.5 45.5757L47.25 44.2749L47.918 44.6616C48.8555 45.2007 49.875 45.4585 50.8828 45.4585C52.9453 45.4585 54.9492 44.3921 56.0508 42.4819C57.6914 39.6343 56.7188 35.9897 53.8711 34.3491L53.2031 33.9624L53.4727 33.4937L56.1094 35.0054C56.25 35.0874 56.4141 35.1343 56.5781 35.1343C56.8242 35.1343 57.0703 35.0405 57.2578 34.853L59.9648 32.064C60.1641 31.853 60.2578 31.5718 60.2227 31.2788C60.1523 30.9741 59.9883 30.728 59.7305 30.5874ZM5.50781 57.0483H2.70703V42.3999H5.50781C7.05469 42.3999 8.30859 43.6538 8.30859 45.2007V48.1538V51.2944V54.2476C8.30859 55.7944 7.05469 57.0483 5.50781 57.0483ZM10.1836 49.0796H16.6992C16.6523 49.5015 16.6641 49.9233 16.7109 50.3569H10.1836V49.0796ZM25.1484 51.4351C24.1758 53.1226 22.0078 53.7085 20.3203 52.7241C19.5 52.2554 18.9141 51.4937 18.668 50.5796C18.4219 49.6655 18.5508 48.7163 19.0195 47.896C19.6758 46.7593 20.8711 46.1265 22.0898 46.1265C22.6875 46.1265 23.2969 46.2788 23.8477 46.5952C25.5469 47.5679 26.1211 49.7358 25.1484 51.4351ZM25.5352 45.4937C25.3008 45.3062 25.0547 45.1304 24.7969 44.978C24.6914 44.9194 24.5859 44.8608 24.4805 44.814L26.4961 41.3218C26.6602 41.439 26.8477 41.5562 27.0234 41.6616C27.2109 41.7671 27.3984 41.8608 27.5859 41.9546L25.5352 45.4937ZM31.3477 40.478C30.1992 40.7827 28.9922 40.6304 27.9492 40.0327C26.918 39.4351 26.1797 38.4741 25.8633 37.314C25.5586 36.1655 25.7109 34.9585 26.3086 33.9155C26.9062 32.8726 27.8672 32.146 29.0273 31.8296C29.4141 31.7241 29.8008 31.6772 30.1875 31.6772C30.9609 31.6772 31.7227 31.8765 32.4141 32.2749C34.5469 33.5054 35.2852 36.2476 34.0547 38.3804C33.4688 39.4351 32.4961 40.1733 31.3477 40.478ZM52.9102 35.9663C54.8555 37.0913 55.5234 39.5874 54.3984 41.5444C53.2734 43.4897 50.7773 44.1577 48.8203 43.0327L48.1523 42.646L52.2305 35.5796L52.9102 35.9663ZM45.3281 43.8179L36.0938 38.4858C37.2305 35.6147 36.1172 32.2515 33.3633 30.6577C31.8984 29.814 30.1875 29.5796 28.5469 30.0249C27.2109 30.3765 26.0625 31.1382 25.2188 32.2046L13.2188 25.2788L18.3633 16.3608L42.4336 30.2593C42.7617 30.4468 43.1602 30.4233 43.4648 30.2007L45.3516 28.8179L51.8555 32.5562L45.3281 43.8179ZM56.4023 33.0132L53.7188 31.4663C53.6836 31.4312 53.6367 31.4077 53.6016 31.3843C53.5547 31.3608 53.5078 31.3374 53.4609 31.3257L45.75 26.8843C45.6094 26.8022 45.4453 26.7554 45.2812 26.7554C45.082 26.7554 44.8945 26.814 44.7188 26.9429L42.832 28.3257L16.957 13.3843C16.6289 13.1968 16.3945 12.8921 16.3008 12.5171C16.207 12.1421 16.2539 11.7671 16.4414 11.439L17.332 9.90381C17.5195 9.57568 17.8242 9.34131 18.1992 9.24756C18.5625 9.15381 18.9492 9.20068 19.2773 9.38818L57.7617 31.6069L56.4023 33.0132ZM31.7461 33.4585C31.0195 33.0366 30.1758 32.9312 29.3789 33.1421C28.5703 33.353 27.9023 33.8804 27.4805 34.5952C26.6133 36.0835 27.1289 38.0054 28.6289 38.8608C29.1211 39.1421 29.6602 39.2827 30.1875 39.2827C31.2656 39.2827 32.3203 38.7202 32.8945 37.7241C33.3164 36.9976 33.4219 36.1538 33.2109 35.3569C32.9883 34.5483 32.4727 33.8687 31.7461 33.4585ZM31.2773 36.7866C30.9375 37.3843 30.1641 37.5952 29.5664 37.2437C28.9688 36.9038 28.7578 36.1304 29.1094 35.5327C29.3438 35.1343 29.7656 34.9116 30.1992 34.9116C30.4102 34.9116 30.6211 34.9702 30.8203 35.0757C31.1133 35.2397 31.3125 35.5093 31.4062 35.8374C31.5 36.1655 31.4414 36.4937 31.2773 36.7866ZM23.4609 47.2866C22.1484 46.5249 20.4609 46.9819 19.7109 48.2944C18.9492 49.6069 19.4062 51.2944 20.7188 52.0444C21.1406 52.2905 21.6094 52.4194 22.0898 52.4194C22.3242 52.4194 22.5703 52.3843 22.8047 52.3257C23.5195 52.1382 24.1055 51.6812 24.4688 51.0483C25.2188 49.7241 24.7734 48.0366 23.4609 47.2866ZM22.8398 50.0991C22.7227 50.2983 22.5352 50.4507 22.3125 50.5093C22.0898 50.5679 21.8555 50.5444 21.6445 50.4272C21.2227 50.1812 21.082 49.6538 21.3281 49.2319C21.4922 48.9507 21.7852 48.7983 22.0898 48.7983C22.2422 48.7983 22.3828 48.8335 22.5234 48.9155C22.9336 49.1499 23.0742 49.6772 22.8398 50.0991ZM60.4102 9.82178C60.2461 9.92725 60.0703 9.97412 59.8945 9.97412C59.5898 9.97412 59.2969 9.8335 59.1094 9.55225C56.5664 5.74365 52.3125 3.4585 47.7305 3.4585C43.1484 3.4585 38.8945 5.73193 36.3516 9.55225C36.0586 9.98584 35.4844 10.103 35.0508 9.81006C34.6172 9.51709 34.5 8.94287 34.793 8.50928C37.6875 4.17334 42.5273 1.5835 47.7305 1.5835C52.9336 1.5835 57.7734 4.17334 60.668 8.50928C60.9609 8.95459 60.8438 9.52881 60.4102 9.82178ZM47.7422 7.45459C44.3438 7.45459 41.25 9.18896 39.4688 12.0952C39.1992 12.5405 38.625 12.6812 38.1797 12.4116C37.7344 12.1421 37.5938 11.5679 37.8633 11.1226C39.9844 7.65381 43.6758 5.57959 47.7305 5.57959C51.7852 5.57959 55.4766 7.65381 57.5977 11.1226C57.8672 11.5679 57.7266 12.1421 57.2812 12.4116C57.1289 12.5054 56.9648 12.5522 56.7891 12.5522C56.4727 12.5522 56.168 12.3882 55.9922 12.1069C54.2344 9.18896 51.1406 7.45459 47.7422 7.45459ZM47.7422 11.4507C45.5625 11.4507 43.6055 12.6694 42.6328 14.6265C42.4688 14.9546 42.1406 15.1538 41.7891 15.1538C41.6484 15.1538 41.5078 15.1187 41.3789 15.0601C40.9102 14.8257 40.7227 14.2632 40.957 13.8062C42.2461 11.2046 44.8477 9.5874 47.7422 9.5874C50.6484 9.5874 53.25 11.2046 54.5273 13.8062C54.7617 14.2749 54.5625 14.8374 54.1055 15.0601C53.6367 15.2944 53.0742 15.0952 52.8516 14.6382C51.8789 12.6577 49.9219 11.4507 47.7422 11.4507ZM44.1562 17.146C44.1562 19.1265 45.7617 20.7319 47.7422 20.7319C49.7227 20.7319 51.3281 19.1265 51.3281 17.146C51.3281 15.1655 49.7227 13.5601 47.7422 13.5601C45.7617 13.5601 44.1562 15.1655 44.1562 17.146ZM49.4531 17.146C49.4531 18.0835 48.6914 18.8569 47.7422 18.8569C46.793 18.8569 46.0312 18.0952 46.0312 17.146C46.0312 16.2085 46.793 15.4351 47.7422 15.4351C48.6914 15.4351 49.4531 16.1968 49.4531 17.146Z" fill="white"/>
</g>
<defs>
<clipPath id="clip0_91_514">
<rect width="60" height="60" fill="white" transform="translate(0.832031 0.259277)"/>
</clipPath>
</defs>
</svg>
