<svg width="34" height="35" viewBox="0 0 34 35" fill="none" xmlns="http://www.w3.org/2000/svg">
<g clip-path="url(#clip0_95_1017)">
<path d="M32.5838 21.1297C32.4739 21.0266 32.3756 20.9354 32.2873 20.8535C31.941 20.5323 31.7672 20.371 31.6815 20.2226C31.5958 20.0741 31.5431 19.843 31.438 19.3825C31.4112 19.265 31.3813 19.1343 31.3469 18.9876C31.152 18.1557 30.4479 17.5649 29.5949 17.5174C29.4445 17.5091 29.3105 17.5024 29.1901 17.4964C28.7184 17.4729 28.4816 17.4611 28.3205 17.4025C28.1595 17.3439 27.9705 17.2007 27.5941 16.9155C27.498 16.8427 27.3911 16.7617 27.2705 16.6715C26.5866 16.1595 25.6674 16.1595 24.9834 16.6715C24.8629 16.7617 24.756 16.8427 24.66 16.9154C24.2834 17.2007 24.0945 17.3438 23.9334 17.4025C23.8659 17.4271 23.7849 17.4433 23.6793 17.4557C21.9369 15.8916 19.8509 14.8132 17.6078 14.2938C20.034 13.1289 21.7131 10.6475 21.7131 7.78114C21.7132 3.80022 18.4745 0.561523 14.4936 0.561523C10.5126 0.561523 7.27395 3.80022 7.27395 7.78114C7.27395 10.6476 8.95323 13.1292 11.3796 14.294C9.12011 14.8176 7.01663 15.9081 5.26808 17.4893C2.75434 19.7626 1.17215 22.8625 0.813086 26.218C0.797016 26.3679 0.845426 26.5175 0.946165 26.6296C1.0469 26.7417 1.19054 26.8058 1.34128 26.8058L14.4926 26.8057C14.4929 26.8057 14.4932 26.8058 14.4935 26.8058C14.4938 26.8058 14.4941 26.8057 14.4944 26.8057H19.8456C20.0338 27.2409 20.3825 27.6002 20.8462 27.7988C20.9846 27.8581 21.1083 27.9103 21.2193 27.957C21.2758 27.9808 21.3284 28.003 21.3779 28.024L19.8976 31.2036C19.7944 31.4253 19.8227 31.6835 19.9715 31.8774C20.1202 32.0714 20.362 32.1656 20.6029 32.1235L22.0969 31.8625L22.8588 33.1737C22.9766 33.3764 23.1911 33.4991 23.4237 33.4991C23.4337 33.4991 23.4437 33.4989 23.4538 33.4984C23.6979 33.4873 23.9137 33.3428 24.017 33.1211L25.4738 29.9921C25.7982 29.8931 25.9825 29.8432 26.127 29.8432C26.2715 29.8432 26.4558 29.8931 26.7803 29.9921L28.237 33.121C28.3401 33.3427 28.5559 33.4873 28.8001 33.4984C28.8102 33.4989 28.8203 33.4991 28.8303 33.4991C29.063 33.4991 29.2774 33.3764 29.3952 33.1737L30.1571 31.8625L31.6511 32.1236C31.8922 32.1656 32.1341 32.0712 32.2828 31.8771C32.4314 31.6831 32.4596 31.4248 32.3563 31.2034L30.8761 28.024C30.9255 28.003 30.9782 27.9809 31.0347 27.957C31.1457 27.9103 31.2693 27.8581 31.4078 27.7988C32.1932 27.4625 32.6528 26.6665 32.5514 25.8181C32.5335 25.6685 32.5168 25.5354 32.5018 25.4159C32.443 24.9472 32.4135 24.712 32.4433 24.5431C32.4731 24.3743 32.5812 24.1634 32.7968 23.7431C32.8517 23.6359 32.9129 23.5166 32.9809 23.3822C33.3664 22.6196 33.2068 21.7145 32.5838 21.1297ZM19.2732 23.3822C19.3411 23.5166 19.4023 23.6359 19.4572 23.7431C19.6728 24.1635 19.781 24.3744 19.8107 24.5432C19.8405 24.712 19.811 24.9472 19.7522 25.4159C19.7398 25.515 19.7262 25.624 19.7117 25.7433H15.6904L17.0305 24.2618C17.144 24.1362 17.191 23.9639 17.1568 23.7981L16.474 20.4879L16.6068 20.6454C16.7083 20.7657 16.8572 20.8341 17.0128 20.8341C17.0295 20.8341 17.0463 20.8333 17.0631 20.8317C17.2365 20.8152 17.3909 20.7148 17.4762 20.5628L19.9161 16.2147C20.7171 16.5935 21.48 17.0573 22.192 17.6015C21.5572 17.7983 21.065 18.3138 20.9071 18.9878C20.8727 19.1344 20.8429 19.2652 20.8161 19.3826C20.7111 19.8432 20.6583 20.0743 20.5726 20.2228C20.4869 20.3712 20.3131 20.5325 19.9668 20.8537C19.8785 20.9356 19.7801 21.0268 19.6703 21.1299C19.0473 21.7144 18.8877 22.6196 19.2732 23.3822ZM12.0624 19.3742L10.0538 15.7948C10.4261 15.6565 10.8067 15.5355 11.1943 15.4321L13.7304 17.3964L12.0624 19.3742ZM13.9491 18.7851L14.4935 18.1395L15.0378 18.785L16.0617 23.7489L14.4934 25.4827L12.9252 23.7489L13.9491 18.7851ZM15.2567 17.3964L17.79 15.4343C18.1763 15.5379 18.5569 15.6596 18.9308 15.7991L16.9247 19.3742L15.2567 17.3964ZM8.33645 7.78114C8.33645 4.38613 11.0986 1.62402 14.4936 1.62402C17.8886 1.62402 20.6507 4.38613 20.6507 7.78114C20.6507 11.1753 17.8901 13.9368 14.4962 13.9383C14.4953 13.9383 14.4944 13.9383 14.4935 13.9383C14.4926 13.9383 14.4918 13.9383 14.4908 13.9383C11.0971 13.9367 8.33645 11.1753 8.33645 7.78114ZM14.4936 15.0008H14.4962C15.1466 15.0009 15.7908 15.0512 16.4244 15.1481L14.4935 16.6436L12.5611 15.1469C13.1909 15.0512 13.8353 15.0009 14.4908 15.0008C14.4918 15.0007 14.4927 15.0008 14.4936 15.0008ZM9.06805 16.2093L11.5109 20.5627C11.5962 20.7146 11.7505 20.8151 11.924 20.8316C11.9408 20.8332 11.9576 20.834 11.9743 20.834C12.13 20.834 12.2789 20.7655 12.3803 20.6452L12.5131 20.4878L11.8303 23.7981C11.7961 23.9639 11.843 24.1361 11.9566 24.2618L13.2967 25.7433L1.94611 25.7434C2.60273 21.4713 5.34657 17.9619 9.06805 16.2093ZM23.3842 31.963L22.8296 31.0085C22.7179 30.8161 22.4982 30.7139 22.2788 30.7521L21.1914 30.9421L22.2586 28.6499C22.3302 28.7542 22.4143 28.8844 22.5206 29.0489C22.5859 29.15 22.6587 29.2627 22.7411 29.3888C23.0741 29.8979 23.608 30.2025 24.183 30.2472L23.3842 31.963ZM29.9753 30.7521C29.7561 30.7137 29.5362 30.816 29.4245 31.0085L28.8699 31.9629L28.0715 30.248C28.6463 30.2031 29.1802 29.8978 29.513 29.3887C29.5954 29.2627 29.6682 29.15 29.7335 29.0489C29.8398 28.8843 29.9239 28.7542 29.9955 28.6499L31.0627 30.9421L29.9753 30.7521ZM32.0327 22.9028C31.9657 23.0352 31.9055 23.1527 31.8514 23.2583C31.3221 24.2903 31.3033 24.3973 31.4476 25.5481C31.4624 25.6657 31.4788 25.7968 31.4964 25.9441C31.5421 26.326 31.3431 26.6707 30.9895 26.8221C30.8531 26.8804 30.7314 26.9318 30.6221 26.9779C29.5534 27.4283 29.4701 27.4981 28.841 28.4725C28.7766 28.5721 28.705 28.683 28.6238 28.8072C28.4133 29.1291 28.0392 29.2652 27.6712 29.1539C27.5292 29.111 27.403 29.0721 27.2897 29.0371C26.7355 28.8661 26.4313 28.7806 26.1271 28.7806C25.8229 28.7806 25.5186 28.8661 24.9645 29.0371C24.8512 29.0721 24.725 29.111 24.5829 29.1539C24.2148 29.265 23.8408 29.1291 23.6303 28.8072C23.5491 28.683 23.4775 28.5721 23.4132 28.4725C22.784 27.4982 22.7008 27.4283 21.632 26.9779C21.5227 26.9318 21.401 26.8805 21.2646 26.8221C20.9111 26.6707 20.7121 26.326 20.7577 25.9441C20.7753 25.7968 20.7918 25.6657 20.8065 25.5481C20.9508 24.3973 20.9321 24.2903 20.4027 23.2583C20.3486 23.1527 20.2884 23.0352 20.2214 22.9028C20.0479 22.5596 20.1171 22.1677 20.3974 21.9045C20.5056 21.803 20.6024 21.7131 20.6894 21.6324C21.5397 20.8437 21.594 20.7496 21.852 19.6188C21.8783 19.5032 21.9078 19.3744 21.9416 19.23C22.0293 18.8554 22.3342 18.5997 22.7182 18.5783C22.8663 18.57 22.9983 18.5635 23.1168 18.5576C24.2751 18.4999 24.3771 18.4627 25.3017 17.7623C25.3962 17.6907 25.5015 17.6109 25.6202 17.522C25.9282 17.2915 26.326 17.2916 26.634 17.522C26.7528 17.6109 26.858 17.6907 26.9526 17.7623C27.877 18.4627 27.9791 18.4998 29.1374 18.5576C29.2559 18.5635 29.3878 18.57 29.536 18.5783C29.92 18.5996 30.2249 18.8554 30.3126 19.2299C30.3465 19.3743 30.3758 19.5032 30.4023 19.6188C30.6602 20.7495 30.7146 20.8436 31.5648 21.6324C31.6518 21.713 31.7486 21.8028 31.8567 21.9044C32.1371 22.1677 32.2062 22.5596 32.0327 22.9028ZM26.127 19.2932C23.9338 19.2932 22.1495 21.0775 22.1495 23.2707C22.1495 25.4638 23.9338 27.2481 26.127 27.2481C28.3202 27.2481 30.1046 25.4639 30.1046 23.2707C30.1046 21.0776 28.3203 19.2932 26.127 19.2932ZM26.127 26.1857C24.5197 26.1857 23.212 24.878 23.212 23.2707C23.212 21.6634 24.5197 20.3558 26.127 20.3558C27.7344 20.3558 29.0421 21.6634 29.0421 23.2707C29.0421 24.878 27.7344 26.1857 26.127 26.1857Z" fill="white"/>
</g>
<defs>
<clipPath id="clip0_95_1017">
<rect width="34" height="34" fill="white" transform="translate(0 0.0302734)"/>
</clipPath>
</defs>
</svg>
