<svg width="35" height="35" viewBox="0 0 35 35" fill="none" xmlns="http://www.w3.org/2000/svg">
<g clip-path="url(#clip0_108_125)">
<path d="M32.5618 3.43811H3.18228C1.94506 3.43811 0.938477 4.4447 0.938477 5.68198V26.2978C0.938477 27.535 1.94506 28.5416 3.18228 28.5416H10.7663L9.14078 31.3311C8.99508 31.5811 8.99316 31.8784 9.13573 32.1266C9.2787 32.3755 9.54459 32.5302 9.82961 32.5302H25.9145C26.1995 32.5302 26.4654 32.3756 26.6084 32.1267C26.7509 31.8786 26.7491 31.5812 26.6035 31.3312L24.9779 28.5416H32.5618C33.7991 28.5416 34.8057 27.535 34.8057 26.2978V5.68198C34.8057 4.4447 33.7991 3.43811 32.5618 3.43811ZM3.18228 4.50061H32.5618C33.2132 4.50061 33.7432 5.03053 33.7432 5.68198V24.6116H2.00098V5.68198C2.00098 5.0306 2.5309 4.50061 3.18228 4.50061ZM25.4532 31.4677H10.2909L11.996 28.5417H23.7481L25.4532 31.4677ZM32.5618 27.4791H3.18228C2.5309 27.4791 2.00098 26.9492 2.00098 26.2978V25.674H33.7432V26.2978C33.7432 26.9492 33.2132 27.4791 32.5618 27.4791ZM6.03343 16.5721C6.96112 16.5721 7.74405 15.9419 7.97787 15.0874H11.1237V16.9623H9.79255C9.62468 16.9623 9.46663 17.0416 9.36636 17.1764L8.00483 19.0059C7.77706 18.9165 7.5295 18.8668 7.27038 18.8668C6.1588 18.8668 5.25448 19.7711 5.25448 20.8827C5.25448 21.9943 6.1588 22.8986 7.27038 22.8986C8.38195 22.8986 9.28627 21.9943 9.28627 20.8827C9.28627 20.4145 9.12537 19.9834 8.85663 19.6409L10.0594 18.0247H11.1237V19.1769C11.1237 20.3501 12.0781 21.3044 13.2512 21.3044H17.5958C17.6517 21.464 17.7577 21.6041 17.9047 21.7027C18.1615 21.8749 18.487 21.886 18.7541 21.7317L19.1573 21.4989L20.398 23.6478C20.5162 23.8526 20.7073 23.9992 20.9362 24.0605C21.0127 24.081 21.0904 24.0912 21.1675 24.0912C21.321 24.0912 21.4724 24.051 21.6086 23.9723L22.7605 23.3073C23.1837 23.0629 23.3292 22.5199 23.0849 22.0967L22.6249 21.2999C23.7367 21.2315 24.6204 20.3056 24.6204 19.1769V18.0247H25.6848L26.8874 19.6409C26.6187 19.9835 26.4578 20.4145 26.4578 20.8827C26.4578 21.9943 27.3622 22.8986 28.4738 22.8986C29.5853 22.8986 30.4897 21.9943 30.4897 20.8827C30.4897 19.7711 29.5853 18.8668 28.4738 18.8668C28.2146 18.8668 27.9671 18.9165 27.7393 19.0059L26.3778 17.1763C26.2776 17.0416 26.1195 16.9622 25.9517 16.9622H24.6204V15.0874H27.7663C28.0001 15.9419 28.783 16.572 29.7107 16.572C30.8223 16.572 31.7266 15.6677 31.7266 14.5561C31.7266 13.4445 30.8223 12.5401 29.7107 12.5401C28.783 12.5401 28.0001 13.1703 27.7663 14.0249H24.6204V12.1499H25.9517C26.1195 12.1499 26.2776 12.0706 26.3778 11.9359L27.7393 10.1063C27.9671 10.1957 28.2147 10.2454 28.4738 10.2454C29.5854 10.2454 30.4897 9.34109 30.4897 8.22952C30.4897 7.11795 29.5854 6.21363 28.4738 6.21363C27.3623 6.21363 26.4579 7.11795 26.4579 8.22952C26.4579 8.69768 26.6188 9.12873 26.8875 9.47132L25.6848 11.0875H24.6205V9.9353C24.6205 8.76217 23.6661 7.80777 22.4929 7.80777H13.2512C12.0781 7.80777 11.1237 8.76217 11.1237 9.9353V11.0875H10.0594L8.85669 9.47132C9.12544 9.12873 9.28634 8.69768 9.28634 8.22952C9.28634 7.11795 8.38202 6.21363 7.27045 6.21363C6.15887 6.21363 5.25455 7.11795 5.25455 8.22952C5.25455 9.34109 6.15887 10.2454 7.27045 10.2454C7.52956 10.2454 7.77713 10.1957 8.0049 10.1063L9.36643 11.9359C9.4667 12.0706 9.62475 12.1499 9.79262 12.1499H11.1238V14.0249H7.97794C7.74412 13.1703 6.96119 12.5401 6.0335 12.5401C4.92192 12.5401 4.0176 13.4445 4.0176 14.5561C4.0176 15.6677 4.92179 16.5721 6.03343 16.5721ZM7.27038 21.8362C6.74464 21.8362 6.31698 21.4085 6.31698 20.8828C6.31698 20.357 6.74464 19.9294 7.27038 19.9294C7.79612 19.9294 8.22377 20.3571 8.22377 20.8828C8.22377 21.4084 7.79612 21.8362 7.27038 21.8362ZM29.4272 20.8828C29.4272 21.4085 28.9996 21.8362 28.4738 21.8362C27.9481 21.8362 27.5204 21.4085 27.5204 20.8828C27.5204 20.357 27.9481 19.9294 28.4738 19.9294C28.9996 19.9294 29.4272 20.357 29.4272 20.8828ZM29.7106 13.6026C30.2364 13.6026 30.664 14.0304 30.664 14.5561C30.664 15.0818 30.2364 15.5095 29.7106 15.5095C29.1849 15.5095 28.7572 15.0818 28.7572 14.5561C28.7572 14.0304 29.1849 13.6026 29.7106 13.6026ZM28.4738 7.27606C28.9995 7.27606 29.4272 7.70372 29.4272 8.22945C29.4272 8.75519 28.9995 9.18285 28.4738 9.18285C27.948 9.18285 27.5203 8.75519 27.5203 8.22945C27.5203 7.70372 27.948 7.27606 28.4738 7.27606ZM17.8721 18.0441C15.9487 18.0441 14.3841 16.4794 14.3841 14.5561C14.3841 12.6328 15.9487 11.0681 17.8721 11.0681C19.7953 11.0681 21.36 12.6328 21.36 14.5561C21.36 15.6794 20.8312 16.7119 19.9341 17.3686L19.0989 17.026C18.8672 16.9309 18.6101 16.9483 18.3933 17.0734C18.1766 17.1986 18.0332 17.4127 17.9997 17.6607L17.9481 18.0428C17.9228 18.0434 17.8974 18.0441 17.8721 18.0441ZM21.23 22.964L19.8118 20.5076C19.7134 20.3372 19.5349 20.2419 19.3512 20.2419C19.2612 20.2419 19.1698 20.2649 19.0861 20.3131L18.682 20.5465L19.0075 18.1369L21.257 19.0597L20.8528 19.2931C20.7308 19.3635 20.6417 19.4795 20.6052 19.6156C20.5688 19.7517 20.5878 19.8967 20.6583 20.0188L22.0765 22.4753L21.23 22.964ZM12.1862 9.93523C12.1862 9.348 12.6639 8.87021 13.2512 8.87021H22.4929C23.0802 8.87021 23.5579 9.348 23.5579 9.93523V19.1769C23.5579 19.7642 23.0802 20.2419 22.4929 20.2419H22.0142L21.8442 19.9476L22.2472 19.7149C22.5145 19.5608 22.6677 19.2733 22.647 18.9648C22.6264 18.6582 22.4362 18.395 22.1508 18.2779L21.0414 17.8228C21.9186 16.9754 22.4225 15.8089 22.4225 14.556C22.4225 12.0469 20.3812 10.0056 17.8721 10.0056C15.3629 10.0056 13.3216 12.0469 13.3216 14.556C13.3216 17.0426 15.3266 19.0685 17.8047 19.1048L17.651 20.2419H13.2513C12.664 20.2419 12.1862 19.7641 12.1862 19.1769V9.93523H12.1862ZM6.31692 8.22952C6.31692 7.70378 6.74457 7.27613 7.27031 7.27613C7.79605 7.27613 8.22371 7.70378 8.22371 8.22952C8.22371 8.75526 7.79605 9.18291 7.27031 9.18291C6.74457 9.18291 6.31692 8.75526 6.31692 8.22952ZM6.03343 13.6026C6.55917 13.6026 6.98689 14.0304 6.98689 14.5561C6.98689 15.0818 6.55917 15.5095 6.03343 15.5095C5.50769 15.5095 5.08004 15.0818 5.08004 14.5561C5.08004 14.0304 5.50769 13.6026 6.03343 13.6026ZM20.0568 13.7589L17.7365 16.1011C17.6326 16.2058 17.4959 16.2584 17.359 16.2584C17.2252 16.2584 17.0915 16.2082 16.9882 16.1076L15.6938 14.8459C15.4837 14.6412 15.4794 14.3048 15.6842 14.0947C15.889 13.8847 16.2253 13.8803 16.4354 14.0851L17.3524 14.9789L19.3019 13.0111C19.5085 12.8026 19.8448 12.8011 20.0533 13.0076C20.2618 13.2141 20.2634 13.5505 20.0568 13.7589Z" fill="url(#paint0_linear_108_125)"/>
</g>
<defs>
<linearGradient id="paint0_linear_108_125" x1="0.999032" y1="18.2113" x2="34.8662" y2="18.2113" gradientUnits="userSpaceOnUse">
<stop stop-color="#E01C08"/>
<stop offset="0.685" stop-color="#C01503"/>
<stop offset="1" stop-color="#B11101"/>
</linearGradient>
<clipPath id="clip0_108_125">
<rect width="34" height="34" fill="white" transform="translate(0.87207 0.984131)"/>
</clipPath>
</defs>
</svg>
