<svg width="61" height="61" viewBox="0 0 61 61" fill="none" xmlns="http://www.w3.org/2000/svg">
<g clip-path="url(#clip0_84_416)">
<path d="M47.5847 35.6462C47.5751 35.6366 47.5659 35.627 47.5563 35.6174C47.5522 35.6133 47.5472 35.6082 47.5421 35.6036L44.1821 32.2437C43.2378 31.2988 41.9821 30.7788 40.6464 30.7788C39.3189 30.7788 38.0696 31.2929 37.1271 32.2267C37.1202 32.2331 37.1138 32.24 37.1069 32.2464L35.3212 34.0326L27.0975 25.8084L28.8828 24.0227C28.8896 24.0163 28.896 24.0094 28.9024 24.003C30.8356 22.052 30.8305 18.8921 28.886 16.9475L25.531 13.5921C25.5246 13.5857 25.5186 13.5797 25.5127 13.5738C24.5683 12.6312 23.3136 12.1121 21.9797 12.1121C20.6499 12.1121 19.3993 12.628 18.4563 13.5641C18.4435 13.577 18.4306 13.5898 18.4183 13.6031L16.8774 15.1434C16.0667 15.9541 15.4446 16.5762 15.4204 16.601C13.0409 18.9799 12.4847 22.7725 13.8544 27.2801C15.1086 31.4087 17.8685 35.7515 21.6249 39.5084C26.8691 44.7525 33.2915 48.0099 38.385 48.0099C40.9041 48.0099 43.0304 47.2157 44.5255 45.7202C44.5566 45.6895 45.4167 44.8294 46.438 43.8081L47.5563 42.6898C47.5581 42.688 47.56 42.6862 47.5623 42.6839C49.4835 40.7562 49.5018 37.6302 47.6144 35.6792C47.6048 35.6677 47.5943 35.6563 47.5847 35.6462ZM45.083 40.1909C45.0725 40.2014 45.062 40.2119 45.0514 40.2229L43.9523 41.322C42.9485 42.3259 42.1007 43.1737 42.0462 43.2277C41.2058 44.0681 39.9739 44.4943 38.385 44.4943C34.2528 44.4943 28.6502 41.5614 24.111 37.0227C20.7552 33.6668 18.3075 29.8441 17.218 26.2579C16.2576 23.098 16.5085 20.4842 17.9074 19.0852L19.3631 17.6295L20.9282 16.0645C20.9341 16.0585 20.9396 16.053 20.9451 16.0471C21.2239 15.7765 21.5901 15.6277 21.9797 15.6277C22.3711 15.6277 22.7396 15.7784 23.0193 16.0521C23.0229 16.0562 23.027 16.0603 23.0316 16.0645L26.3998 19.4331C26.9789 20.0122 26.9789 20.9543 26.3998 21.5334C26.3989 21.5343 26.398 21.5356 26.3966 21.5366V21.537L23.3681 24.5656C22.6819 25.2522 22.6819 26.3651 23.3681 27.0517L34.0784 37.7615C34.408 38.0916 34.8552 38.2765 35.3212 38.2765C35.7877 38.2765 36.2349 38.0911 36.5645 37.7615L39.5738 34.7513C39.5848 34.7412 39.5953 34.7302 39.6059 34.7197C39.8856 34.4455 40.2545 34.2944 40.6464 34.2944C41.0428 34.2944 41.4154 34.4492 41.696 34.7293L45.0555 38.0884L45.0629 38.0962C45.0665 38.0998 45.0702 38.1035 45.0734 38.1071C45.6447 38.6816 45.6474 39.6123 45.083 40.1909Z" fill="url(#paint0_linear_84_416)"/>
<path d="M52.1766 8.95676C46.5104 3.29056 38.977 0.169983 30.9634 0.169983C22.9498 0.169983 15.4164 3.29056 9.75015 8.95676C4.08395 14.6234 0.963379 22.1568 0.963379 30.17C0.963379 38.1831 4.08395 45.717 9.75015 51.3832C15.4164 57.0494 22.9502 60.17 30.9634 60.17C38.9765 60.17 46.5099 57.0494 52.1766 51.3832C57.8428 45.717 60.9634 38.1836 60.9634 30.17C60.9634 22.1568 57.8428 14.6234 52.1766 8.95676ZM30.9634 56.6544C16.3598 56.6544 4.479 44.7731 4.479 30.17C4.479 15.5669 16.3598 3.68607 30.9634 3.68561C45.567 3.68607 57.4478 15.5669 57.4478 30.17C57.4473 44.7736 45.5665 56.6544 30.9634 56.6544Z" fill="url(#paint1_linear_84_416)"/>
</g>
<defs>
<linearGradient id="paint0_linear_84_416" x1="13.1833" y1="30.3413" x2="49.0809" y2="30.3413" gradientUnits="userSpaceOnUse">
<stop stop-color="#E01C08"/>
<stop offset="0.685" stop-color="#C01503"/>
<stop offset="1" stop-color="#B11101"/>
</linearGradient>
<linearGradient id="paint1_linear_84_416" x1="1.07066" y1="30.6385" x2="61.0707" y2="30.6385" gradientUnits="userSpaceOnUse">
<stop stop-color="#E01C08"/>
<stop offset="0.685" stop-color="#C01503"/>
<stop offset="1" stop-color="#B11101"/>
</linearGradient>
<clipPath id="clip0_84_416">
<rect width="60" height="60" fill="white" transform="translate(0.963379 0.169983)"/>
</clipPath>
</defs>
</svg>
