<svg width="60" height="61" viewBox="0 0 60 61" fill="none" xmlns="http://www.w3.org/2000/svg">
<g clip-path="url(#clip0_91_396)">
<path d="M53.75 20.0864H6.25C2.805 20.0864 0 17.2839 0 13.8364V11.3364C0 9.26893 1.6825 7.58643 3.75 7.58643H56.25C58.3175 7.58643 60 9.26893 60 11.3364V13.8364C60 17.2839 57.195 20.0864 53.75 20.0864ZM3.75 10.0864C3.06 10.0864 2.5 10.6489 2.5 11.3364V13.8364C2.5 15.9039 4.1825 17.5864 6.25 17.5864H53.75C55.8175 17.5864 57.5 15.9039 57.5 13.8364V11.3364C57.5 10.6489 56.94 10.0864 56.25 10.0864H3.75Z" fill="white"/>
<path d="M30 52.5865C16.215 52.5865 5 41.3715 5 27.5865V19.459C5 18.769 5.56 18.209 6.25 18.209C6.94 18.209 7.5 18.769 7.5 19.459V27.5865C7.5 39.994 17.595 50.0865 30 50.0865C42.405 50.0865 52.5 39.994 52.5 27.5865V19.459C52.5 18.769 53.06 18.209 53.75 18.209C54.44 18.209 55 18.769 55 19.459V27.5865C55 41.3715 43.785 52.5865 30 52.5865Z" fill="white"/>
<path d="M43.75 47.5865C43.06 47.5865 42.5 47.0265 42.5 46.3365V19.459C42.5 18.769 43.06 18.209 43.75 18.209C44.44 18.209 45 18.769 45 19.459V46.3365C45 47.0265 44.44 47.5865 43.75 47.5865Z" fill="white"/>
<path d="M16.25 47.5865C15.56 47.5865 15 47.0265 15 46.3365V19.459C15 18.769 15.56 18.209 16.25 18.209C16.94 18.209 17.5 18.769 17.5 19.459V46.3365C17.5 47.0265 16.94 47.5865 16.25 47.5865Z" fill="white"/>
<path d="M30 45.0864C24.485 45.0864 20 40.6014 20 35.0864C20 29.5714 24.485 25.0864 30 25.0864C35.515 25.0864 40 29.5714 40 35.0864C40 40.6014 35.515 45.0864 30 45.0864ZM30 27.5864C25.865 27.5864 22.5 30.9514 22.5 35.0864C22.5 39.2214 25.865 42.5864 30 42.5864C34.135 42.5864 37.5 39.2214 37.5 35.0864C37.5 30.9514 34.135 27.5864 30 27.5864Z" fill="white"/>
<path d="M30 40.0864C27.2425 40.0864 25 37.8439 25 35.0864C25 32.3289 27.2425 30.0864 30 30.0864C32.7575 30.0864 35 32.3289 35 35.0864C35 37.8439 32.7575 40.0864 30 40.0864ZM30 32.5864C28.6225 32.5864 27.5 33.7064 27.5 35.0864C27.5 36.4664 28.6225 37.5864 30 37.5864C31.3775 37.5864 32.5 36.4664 32.5 35.0864C32.5 33.7064 31.3775 32.5864 30 32.5864Z" fill="white"/>
</g>
<defs>
<clipPath id="clip0_91_396">
<rect width="60" height="60" fill="white" transform="translate(0 0.0864258)"/>
</clipPath>
</defs>
</svg>
