<svg width="51" height="51" viewBox="0 0 51 51" fill="none" xmlns="http://www.w3.org/2000/svg">
<g clip-path="url(#clip0_108_115)">
<path d="M47.5065 0.111328H3.41787C1.80439 0.111328 0.491699 1.42402 0.491699 3.0376V8.26172C0.491699 9.87529 1.80439 11.188 3.41797 11.188H5.2542V17.461C5.2542 28.6038 14.3194 37.6691 25.4623 37.6691C36.6052 37.6691 45.6704 28.6038 45.6704 17.461V11.188H47.5066C49.1201 11.188 50.4329 9.87529 50.4329 8.26172V3.0376C50.4327 1.42402 49.12 0.111328 47.5065 0.111328ZM42.744 17.461C42.744 26.9902 34.9914 34.7429 25.4622 34.7429C15.933 34.7429 8.18037 26.9902 8.18037 17.461V11.188H42.744V17.461ZM3.41787 8.26172V3.0376H47.5064L47.5083 8.26172C47.5074 8.26182 3.41885 8.26172 3.41787 8.26172Z" fill="white"/>
<path d="M35.563 44.104C40.2807 43.2974 43.6217 39.9429 44.4258 35.2413C44.562 34.4448 44.0267 33.6888 43.2302 33.5525C42.4337 33.4164 41.6776 33.9517 41.5415 34.748C41.2119 36.675 40.3037 38.4056 38.7665 39.6213C37.7354 40.4388 36.4917 40.9765 35.0698 41.2196C34.2733 41.3559 33.738 42.1119 33.8742 42.9084C34.0107 43.7063 34.7681 44.2401 35.563 44.104Z" fill="white"/>
<path d="M49.2166 34.1512C48.4196 34.0146 47.664 34.5503 47.5278 35.3467C46.4797 41.4759 42.0293 46.1181 35.6688 47.2058C34.8724 47.342 34.3371 48.098 34.4733 48.8945C34.6098 49.6925 35.3673 50.2262 36.1621 50.09C43.599 48.8185 49.1317 43.3284 50.4122 35.8398C50.5484 35.0435 50.0131 34.2874 49.2166 34.1512Z" fill="white"/>
<path d="M15.8546 41.2197C12.3495 40.6202 9.97584 38.2141 9.38306 34.7481C9.24683 33.9517 8.49097 33.4165 7.6943 33.5526C6.89781 33.6889 6.36256 34.4449 6.49869 35.2414C7.30377 39.9487 10.6511 43.2988 15.3615 44.1041C16.1575 44.2403 16.914 43.7053 17.0504 42.9086C17.1864 42.1119 16.6511 41.356 15.8546 41.2197Z" fill="white"/>
<path d="M15.2561 47.2059C9.00028 46.136 4.46337 41.5819 3.39715 35.3468C3.26102 34.5504 2.50575 34.0149 1.70839 34.1513C0.911901 34.2875 0.376647 35.0436 0.512877 35.84C1.78924 43.3046 7.29803 48.8139 14.763 50.0902C15.5592 50.2265 16.3155 49.6913 16.4517 48.8947C16.5879 48.098 16.0526 47.342 15.2561 47.2059Z" fill="white"/>
<path d="M25.4623 31.7441C30.3029 31.7441 34.241 27.8061 34.241 22.9654C34.241 18.1248 30.3029 14.1867 25.4623 14.1867C20.6217 14.1867 16.6836 18.1248 16.6836 22.9654C16.6836 27.8061 20.6217 31.7441 25.4623 31.7441ZM25.4623 17.1129C28.6894 17.1129 31.3147 19.7383 31.3147 22.9653C31.3147 26.1924 28.6894 28.8179 25.4623 28.8179C22.2353 28.8179 19.6099 26.1925 19.6099 22.9654C19.6099 19.7384 22.2353 17.1129 25.4623 17.1129Z" fill="white"/>
<path d="M25.4626 24.4285C26.2706 24.4285 26.9257 23.7735 26.9257 22.9654C26.9257 22.1574 26.2706 21.5023 25.4626 21.5023C24.6546 21.5023 23.9995 22.1574 23.9995 22.9654C23.9995 23.7735 24.6546 24.4285 25.4626 24.4285Z" fill="white"/>
</g>
<defs>
<clipPath id="clip0_108_115">
<rect width="50" height="50" fill="white" transform="translate(0.462402 0.111328)"/>
</clipPath>
</defs>
</svg>
