<svg width="34" height="35" viewBox="0 0 34 35" fill="none" xmlns="http://www.w3.org/2000/svg">
<g clip-path="url(#clip0_117_402)">
<path d="M17 5.87402C16.5797 5.87402 16.1689 5.99865 15.8194 6.23215C15.47 6.46565 15.1976 6.79753 15.0368 7.18582C14.8759 7.57411 14.8338 8.00138 14.9158 8.41359C14.9978 8.8258 15.2002 9.20444 15.4974 9.50163C15.7946 9.79881 16.1732 10.0012 16.5854 10.0832C16.9976 10.1652 17.4249 10.1231 17.8132 9.96227C18.2015 9.80143 18.5334 9.52906 18.7669 9.17961C19.0004 8.83016 19.125 8.41931 19.125 7.99902C19.125 7.43544 18.9011 6.89494 18.5026 6.49642C18.1041 6.09791 17.5636 5.87402 17 5.87402ZM17 9.06152C16.7899 9.06152 16.5844 8.99921 16.4097 8.88246C16.235 8.76571 16.0988 8.59977 16.0184 8.40562C15.938 8.21148 15.9169 7.99784 15.9579 7.79174C15.9989 7.58564 16.1001 7.39632 16.2487 7.24772C16.3973 7.09913 16.5866 6.99794 16.7927 6.95694C16.9988 6.91594 17.2125 6.93698 17.4066 7.0174C17.6007 7.09782 17.7667 7.234 17.8834 7.40873C18.0002 7.58346 18.0625 7.78888 18.0625 7.99902C18.0625 8.28082 17.9506 8.55107 17.7513 8.75032C17.552 8.94958 17.2818 9.06152 17 9.06152Z" fill="white"/>
<path d="M4.78125 31.374C5.20153 31.374 5.61238 31.2494 5.96184 31.0159C6.31129 30.7824 6.58366 30.4505 6.74449 30.0622C6.90533 29.6739 6.94741 29.2467 6.86542 28.8345C6.78342 28.4222 6.58104 28.0436 6.28385 27.7464C5.98667 27.4492 5.60803 27.2468 5.19582 27.1649C4.78361 27.0829 4.35634 27.1249 3.96805 27.2858C3.57975 27.4466 3.24787 27.719 3.01438 28.0684C2.78088 28.4179 2.65625 28.8287 2.65625 29.249C2.65625 29.8126 2.88013 30.3531 3.27865 30.7516C3.67716 31.1501 4.21766 31.374 4.78125 31.374ZM4.78125 28.1865C4.99139 28.1865 5.19682 28.2488 5.37154 28.3656C5.54627 28.4823 5.68245 28.6483 5.76287 28.8424C5.84329 29.0366 5.86433 29.2502 5.82333 29.4563C5.78234 29.6624 5.68114 29.8517 5.53255 30.0003C5.38396 30.1489 5.19464 30.2501 4.98853 30.2911C4.78243 30.3321 4.5688 30.3111 4.37465 30.2306C4.1805 30.1502 4.01456 30.014 3.89781 29.8393C3.78106 29.6646 3.71875 29.4592 3.71875 29.249C3.71875 28.9672 3.83069 28.697 4.02995 28.4977C4.22921 28.2985 4.49946 28.1865 4.78125 28.1865Z" fill="white"/>
<path d="M10.0937 31.374C10.514 31.374 10.9249 31.2494 11.2743 31.0159C11.6238 30.7824 11.8962 30.4505 12.057 30.0622C12.2178 29.6739 12.2599 29.2467 12.1779 28.8345C12.0959 28.4222 11.8935 28.0436 11.5964 27.7464C11.2992 27.4492 10.9205 27.2468 10.5083 27.1649C10.0961 27.0829 9.66884 27.1249 9.28055 27.2858C8.89225 27.4466 8.56038 27.719 8.32688 28.0684C8.09338 28.4179 7.96875 28.8287 7.96875 29.249C7.96875 29.8126 8.19263 30.3531 8.59115 30.7516C8.98966 31.1501 9.53016 31.374 10.0937 31.374ZM10.0937 28.1865C10.3039 28.1865 10.5093 28.2488 10.684 28.3656C10.8588 28.4823 10.995 28.6483 11.0754 28.8424C11.1558 29.0366 11.1768 29.2502 11.1358 29.4563C11.0948 29.6624 10.9936 29.8517 10.8451 30.0003C10.6965 30.1489 10.5071 30.2501 10.301 30.2911C10.0949 30.3321 9.88129 30.3111 9.68715 30.2306C9.493 30.1502 9.32706 30.014 9.21031 29.8393C9.09356 29.6646 9.03125 29.4592 9.03125 29.249C9.03125 28.9672 9.14319 28.697 9.34245 28.4977C9.54171 28.2985 9.81196 28.1865 10.0937 28.1865Z" fill="white"/>
<path d="M15.4062 31.374C15.8265 31.374 16.2374 31.2494 16.5868 31.0159C16.9363 30.7824 17.2087 30.4505 17.3695 30.0622C17.5303 29.6739 17.5724 29.2467 17.4904 28.8345C17.4084 28.4222 17.206 28.0436 16.9089 27.7464C16.6117 27.4492 16.233 27.2468 15.8208 27.1649C15.4086 27.0829 14.9813 27.1249 14.593 27.2858C14.2048 27.4466 13.8729 27.719 13.6394 28.0684C13.4059 28.4179 13.2812 28.8287 13.2812 29.249C13.2812 29.8126 13.5051 30.3531 13.9036 30.7516C14.3022 31.1501 14.8427 31.374 15.4062 31.374ZM15.4062 28.1865C15.6164 28.1865 15.8218 28.2488 15.9965 28.3656C16.1713 28.4823 16.3075 28.6483 16.3879 28.8424C16.4683 29.0366 16.4893 29.2502 16.4483 29.4563C16.4073 29.6624 16.3061 29.8517 16.1576 30.0003C16.009 30.1489 15.8196 30.2501 15.6135 30.2911C15.4074 30.3321 15.1938 30.3111 14.9996 30.2306C14.8055 30.1502 14.6396 30.014 14.5228 29.8393C14.4061 29.6646 14.3437 29.4592 14.3437 29.249C14.3437 28.9672 14.4557 28.697 14.6549 28.4977C14.8542 28.2985 15.1245 28.1865 15.4062 28.1865Z" fill="white"/>
<path d="M19.125 31.374H30.8125C30.9534 31.374 31.0885 31.3181 31.1882 31.2184C31.2878 31.1188 31.3438 30.9837 31.3438 30.8428V27.6553C31.3438 27.5144 31.2878 27.3793 31.1882 27.2796C31.0885 27.18 30.9534 27.124 30.8125 27.124H19.125C18.9841 27.124 18.849 27.18 18.7493 27.2796C18.6497 27.3793 18.5938 27.5144 18.5938 27.6553V30.8428C18.5938 30.9837 18.6497 31.1188 18.7493 31.2184C18.849 31.3181 18.9841 31.374 19.125 31.374ZM19.6562 28.1865H30.2812V30.3115H19.6562V28.1865Z" fill="white"/>
<path d="M33.4688 19.6865V5.34277C33.4679 4.63855 33.1878 3.96341 32.6898 3.46545C32.1919 2.96749 31.5167 2.68737 30.8125 2.68652H26.0312V1.09277C26.0312 0.951877 25.9753 0.816752 25.8757 0.717123C25.776 0.617494 25.6409 0.561523 25.5 0.561523H8.5C8.3591 0.561523 8.22398 0.617494 8.12435 0.717123C8.02472 0.816752 7.96875 0.951877 7.96875 1.09277V4.28027C7.96875 4.42117 8.02472 4.5563 8.12435 4.65592C8.22398 4.75555 8.3591 4.81152 8.5 4.81152H9.05834C9.18837 6.82952 10.0817 8.72235 11.5568 10.1055C13.032 11.4887 14.9783 12.2584 17.0005 12.2584C19.0227 12.2584 20.9691 11.4887 22.4442 10.1055C23.9194 8.72235 24.8127 6.82952 24.9427 4.81152H25.5C25.6409 4.81152 25.776 4.75555 25.8757 4.65592C25.9753 4.5563 26.0312 4.42117 26.0312 4.28027V3.74902H30.8125C31.2352 3.74902 31.6406 3.91694 31.9395 4.21582C32.2383 4.51471 32.4062 4.92008 32.4062 5.34277V19.6865C32.4062 20.1092 32.2383 20.5146 31.9395 20.8135C31.6406 21.1124 31.2352 21.2803 30.8125 21.2803H29.9248L29.6182 20.9302C29.5684 20.8733 29.507 20.8277 29.4381 20.7964C29.3692 20.7652 29.2944 20.749 29.2188 20.749H4.78125C4.7056 20.749 4.63083 20.7652 4.56193 20.7964C4.49303 20.8277 4.4316 20.8733 4.38175 20.9302L0.663 25.1802L0.66725 25.1839C0.581137 25.2789 0.532761 25.4021 0.53125 25.5303V32.9678C0.53125 33.1087 0.587221 33.2438 0.68685 33.3434C0.786478 33.4431 0.921604 33.499 1.0625 33.499H32.9375C33.0784 33.499 33.2135 33.4431 33.3132 33.3434C33.4128 33.2438 33.4688 33.1087 33.4688 32.9678V25.5303C33.4672 25.4021 33.4189 25.2789 33.3327 25.1839L33.337 25.1802L30.8507 22.3391C31.5479 22.329 32.2132 22.0452 32.703 21.549C33.1928 21.0527 33.4678 20.3838 33.4688 19.6865ZM11.5584 8.43943L11.5249 8.4729C10.7106 7.41509 10.2226 6.14262 10.1208 4.81152H13.2552C13.1352 6.18309 12.5342 7.46808 11.5584 8.43943ZM12.2342 9.26606L12.3096 9.19062C13.4843 8.02024 14.1973 6.46536 14.3177 4.81152H19.6833C19.8038 6.46536 20.5168 8.02024 21.6915 9.19062L21.7669 9.26606C20.4863 10.4982 18.7782 11.1865 17.0011 11.1865C15.2239 11.1865 13.5159 10.4982 12.2352 9.26606H12.2342ZM22.4751 8.4729L22.4416 8.43943C21.4658 7.46808 20.8648 6.18309 20.7448 4.81152H23.8792C23.7774 6.14262 23.2894 7.41509 22.4751 8.4729ZM24.9688 3.74902H9.03125V1.62402H24.9688V3.74902ZM5.02244 21.8115H28.9776L31.7666 24.999H2.23125L5.02244 21.8115ZM32.4062 32.4365H1.59375V26.0615H32.4062V32.4365Z" fill="white"/>
<path d="M12.7808 15.8083C13.3286 16.3633 13.9813 16.8039 14.7008 17.1047C15.4204 17.4055 16.1925 17.5603 16.9723 17.5603C17.7522 17.5603 18.5243 17.4055 19.2438 17.1047C19.9634 16.8039 20.616 16.3633 21.1639 15.8083L20.409 15.0603C19.96 15.5157 19.4249 15.8773 18.8349 16.1241C18.245 16.3709 17.6118 16.498 16.9723 16.498C16.3328 16.498 15.6997 16.3709 15.1097 16.1241C14.5197 15.8773 13.9847 15.5157 13.5357 15.0603L12.7808 15.8083Z" fill="white"/>
<path d="M19.6383 14.2677L18.8834 13.5239C18.6336 13.777 18.336 13.9779 18.0079 14.1151C17.6799 14.2522 17.3278 14.3228 16.9722 14.3228C16.6166 14.3228 16.2646 14.2522 15.9365 14.1151C15.6084 13.9779 15.3109 13.777 15.0611 13.5239L14.3062 14.2677C14.6547 14.6205 15.0699 14.9007 15.5275 15.0919C15.9852 15.2832 16.4762 15.3816 16.9722 15.3816C17.4682 15.3816 17.9593 15.2832 18.4169 15.0919C18.8746 14.9007 19.2897 14.6205 19.6383 14.2677Z" fill="white"/>
</g>
<defs>
<clipPath id="clip0_117_402">
<rect width="34" height="34" fill="white" transform="translate(0 0.0302734)"/>
</clipPath>
</defs>
</svg>
