<svg width="50" height="50" viewBox="0 0 50 50" fill="none" xmlns="http://www.w3.org/2000/svg">
<g clip-path="url(#clip0_106_34)">
<path d="M49.6102 16.1208L42.5781 12.0496V2.7344C42.5781 2.30293 42.2283 1.95315 41.7969 1.95315H35.5469C35.1154 1.95315 34.7656 2.30293 34.7656 2.7344V7.61332L25.3983 2.06229C25.1548 1.91803 24.8524 1.91663 24.6077 2.05879L0.388953 16.1213C0.148156 16.2611 0 16.5185 0 16.7969V20.7031C0 21.1346 0.349766 21.4844 0.78125 21.4844H4.29688V47.2656C4.29688 47.6971 4.64664 48.0469 5.07812 48.0469H44.9219C45.3533 48.0469 45.7031 47.6971 45.7031 47.2656V21.4844H49.2188C49.6502 21.4844 50 21.1346 50 20.7031V16.7969C50 16.5181 49.8515 16.2604 49.6102 16.1208ZM48.4375 19.9219H44.9219C44.4904 19.9219 44.1406 20.2717 44.1406 20.7031V46.4844H5.85938V20.7031C5.85938 20.2717 5.50956 19.9219 5.07812 19.9219H1.5625V17.2467L24.996 3.64012L35.1486 9.65649C35.39 9.79954 35.6897 9.80212 35.9336 9.6632C36.1775 9.52423 36.3281 9.26509 36.3281 8.9844V3.51565H41.0156V12.5C41.0156 12.7788 41.1642 13.0365 41.4054 13.1761L48.4375 17.2473V19.9219Z" fill="white"/>
<path d="M40.2344 19.5312H9.76562C9.33414 19.5312 8.98438 19.881 8.98438 20.3125V25C8.98438 25.4315 9.33414 25.7812 9.76562 25.7812H10.9375V28.5156C10.9375 36.1525 17.3666 42.5781 25 42.5781C32.6198 42.5781 39.0625 36.1589 39.0625 28.5156V25.7812H40.2344C40.6659 25.7812 41.0156 25.4315 41.0156 25V20.3125C41.0156 19.881 40.6659 19.5312 40.2344 19.5312ZM19.5312 39.7541V34.375C19.5312 31.3595 21.9845 28.9062 25 28.9062C28.0155 28.9062 30.4688 31.3595 30.4688 34.375V39.7541C28.8159 40.5616 26.96 41.0156 25 41.0156C23.0399 41.0156 21.1841 40.5616 19.5312 39.7541ZM37.5 28.5156C37.5 32.8029 35.3301 36.5925 32.0312 38.8451V34.375C32.0312 30.498 28.877 27.3437 25 27.3437C21.1229 27.3437 17.9688 30.498 17.9688 34.375V38.8451C14.6698 36.5925 12.5 32.8029 12.5 28.5156V25.7812H37.5V28.5156ZM39.4531 24.2187H10.5469V21.0937H39.4531V24.2187Z" fill="white"/>
<path d="M25 31.25C23.0615 31.25 21.4844 32.8271 21.4844 34.7656C21.4844 36.7042 23.0615 38.2812 25 38.2812C26.9385 38.2812 28.5156 36.7042 28.5156 34.7656C28.5156 32.8271 26.9385 31.25 25 31.25ZM25 36.7188C23.923 36.7188 23.0469 35.8426 23.0469 34.7656C23.0469 33.6887 23.923 32.8125 25 32.8125C26.0769 32.8125 26.9531 33.6887 26.9531 34.7656C26.9531 35.8426 26.0769 36.7188 25 36.7188Z" fill="white"/>
</g>
<defs>
<clipPath id="clip0_106_34">
<rect width="50" height="50" fill="white"/>
</clipPath>
</defs>
</svg>
