<svg width="51" height="51" viewBox="0 0 51 51" fill="none" xmlns="http://www.w3.org/2000/svg">
<g clip-path="url(#clip0_106_16)">
<path d="M29.0677 17.8276C28.3189 17.5297 27.4711 17.8953 27.1733 18.6439L21.965 31.7392C21.6673 32.4877 22.0327 33.3357 22.7812 33.6335C22.958 33.7038 23.1403 33.7371 23.3197 33.7371C23.8996 33.7371 24.4481 33.3889 24.6754 32.8172L29.8839 19.7219C30.1817 18.9734 29.8161 18.1254 29.0677 17.8276Z" fill="white"/>
<path d="M39.7027 26.6368C39.4334 26.2243 38.974 25.9755 38.4813 25.9755H31.2773C30.4718 25.9755 29.8188 26.6285 29.8188 27.434C29.8188 28.2394 30.4719 28.8925 31.2773 28.8925H36.247L31.3897 39.9423C31.0655 40.6797 31.4006 41.5402 32.138 41.8644C32.3289 41.9484 32.528 41.9882 32.7241 41.9882C33.2851 41.9882 33.8199 41.6627 34.0601 41.1162L39.8166 28.021C40.0149 27.57 39.9721 27.0494 39.7027 26.6368Z" fill="white"/>
<path d="M18.3087 25.3742C18.3017 26.1797 18.9491 26.8383 19.7546 26.8452C19.7589 26.8453 19.7632 26.8453 19.7675 26.8453C20.5671 26.8452 21.2187 26.2005 21.2257 25.3994C21.2296 24.9479 21.2369 24.0696 21.245 22.9804H21.4709C22.2765 22.9804 22.9294 22.3274 22.9294 21.5219C22.9294 20.7163 22.2764 20.0634 21.4709 20.0634H21.2645C21.2828 16.9178 21.2924 13.5452 21.2535 13.0781C21.167 12.0409 20.5441 11.1952 19.6667 10.9235C18.7961 10.6539 17.8701 10.9917 17.1894 11.827C16.4457 12.7395 13.0067 18.9391 11.9705 20.8175C11.7213 21.2693 11.7293 21.8192 11.9916 22.2636C12.254 22.7079 12.7316 22.9806 13.2475 22.9806H18.3277C18.3215 23.8278 18.3149 24.641 18.3087 25.3742ZM15.726 20.0633C16.7039 18.3141 17.6581 16.6355 18.364 15.4297C18.3638 16.678 18.3568 18.3397 18.3469 20.0633H15.726Z" fill="white"/>
<path d="M9.62401 27.0713C10.4295 27.0611 11.0742 26.4 11.0642 25.5945C11.0541 24.7953 10.403 24.1543 9.60605 24.1543C9.5998 24.1543 9.59354 24.1544 9.5873 24.1544C8.24403 24.1713 6.81815 24.1822 5.64657 24.1842C6.37606 23.2098 7.39823 21.8147 8.78866 19.8281C9.62362 18.6351 10.1681 17.508 10.4068 16.4783C10.4453 16.2673 10.5024 15.8563 10.5093 15.6424C10.5093 12.9904 8.35175 10.833 5.69989 10.833C3.40692 10.833 1.42226 12.4643 0.980752 14.7118C0.825479 15.5022 1.34042 16.2688 2.13085 16.4241C2.92108 16.5793 3.68788 16.0645 3.84315 15.274C4.01659 14.391 4.79745 13.7501 5.69989 13.7501C6.71659 13.7501 7.54853 14.556 7.59052 15.5625C7.487 16.4454 7.07343 17.1464 6.39882 18.1555C4.32421 21.1196 3.08622 22.7406 2.42118 23.6114C1.60634 24.6783 1.23446 25.1653 1.48358 25.9755C1.62978 26.4508 1.98983 26.8154 2.47138 26.976C2.66845 27.0416 2.85722 27.1048 5.37841 27.1048C6.37812 27.1049 7.74511 27.0949 9.62401 27.0713Z" fill="white"/>
<path d="M12.1973 42.3672C11.3972 41.6764 10.6432 40.9182 9.95653 40.1139C9.43338 39.5012 8.51287 39.4285 7.90028 39.9516C7.28758 40.4746 7.21493 41.3952 7.73797 42.0079C8.5203 42.9244 9.37928 43.7881 10.2911 44.5753C10.5668 44.8133 10.9059 44.9299 11.2435 44.9299C11.6528 44.9299 12.0597 44.7585 12.3482 44.4244C12.8746 43.8146 12.8071 42.8936 12.1973 42.3672Z" fill="white"/>
<path d="M5.58177 31.7156C5.37864 30.9361 4.58177 30.4689 3.80247 30.672C3.02298 30.8751 2.55579 31.6717 2.75892 32.4513C3.06263 33.6164 3.45696 34.7682 3.93099 35.8745C4.168 36.4277 4.70638 36.759 5.27239 36.759C5.464 36.759 5.65892 36.721 5.84622 36.6408C6.58665 36.3235 6.92962 35.466 6.61243 34.7256C6.19554 33.7528 5.84876 32.7401 5.58177 31.7156Z" fill="white"/>
<path d="M30.0157 47.1245C28.9803 47.3254 27.922 47.4495 26.8703 47.4934C26.0655 47.527 25.4404 48.2067 25.4739 49.0116C25.5067 49.7958 26.1527 50.4093 26.9302 50.4093C26.9507 50.4093 26.9714 50.4089 26.9921 50.408C28.1891 50.358 29.3932 50.2168 30.5712 49.9882C31.362 49.8348 31.8786 49.0694 31.7253 48.2786C31.5719 47.4878 30.8059 46.9712 30.0157 47.1245Z" fill="white"/>
<path d="M20.569 46.7988C19.5497 46.5258 18.54 46.1718 17.568 45.7465C16.83 45.4233 15.97 45.7599 15.6471 46.4979C15.3242 47.2359 15.6606 48.0959 16.3986 48.4188C17.5046 48.9028 18.6539 49.3058 19.8145 49.6166C19.9409 49.6505 20.0678 49.6666 20.1926 49.6666C20.8368 49.6666 21.4261 49.2367 21.6006 48.5849C21.809 47.8068 21.3471 47.0072 20.569 46.7988Z" fill="white"/>
<path d="M48.9255 19.1803C46.9974 13.0594 42.8011 8.05572 37.1095 5.09098C31.792 2.32106 25.7547 1.65338 20.0579 3.11949L20.3436 2.72857C20.819 2.07828 20.6771 1.16568 20.0268 0.690294C19.3765 0.214903 18.464 0.356895 17.9886 1.00709L14.8538 5.29557C14.5659 5.68941 14.494 6.20104 14.6621 6.65895C14.8302 7.11686 15.2161 7.46041 15.6903 7.57447L20.8553 8.81627C20.9699 8.84381 21.0845 8.85699 21.1974 8.85699C21.8559 8.8569 22.4535 8.40768 22.6143 7.73902C22.8026 6.95582 22.3204 6.16822 21.5372 5.97994L21.0847 5.87115C26.0003 4.68346 31.1847 5.29371 35.7619 7.67799C40.7624 10.2828 44.4492 14.679 46.1432 20.0567C47.8371 25.4344 47.3355 31.15 44.7308 36.1504C42.6063 40.2288 39.2992 43.4338 35.1671 45.4189C34.4409 45.7677 34.135 46.6391 34.484 47.3652C34.735 47.8877 35.2563 48.1924 35.7997 48.1924C36.0114 48.1924 36.2267 48.1462 36.4303 48.0482C41.1351 45.7879 44.9001 42.1397 47.3181 37.498C50.2826 31.8067 50.8536 25.3012 48.9255 19.1803Z" fill="white"/>
</g>
<defs>
<clipPath id="clip0_106_16">
<rect width="50" height="50" fill="white" transform="translate(0.5 0.40918)"/>
</clipPath>
</defs>
</svg>
