<svg width="30" height="31" viewBox="0 0 30 31" fill="none" xmlns="http://www.w3.org/2000/svg">
<path d="M25.8139 19.7473L22.5114 17.7773C21.7411 17.3172 20.8235 17.1705 19.9482 17.3676C19.0728 17.5646 18.3066 18.0903 17.8077 18.836L16.8552 20.2573C14.1352 18.921 11.9366 16.7184 10.6052 13.996L12.0189 13.0548C12.7657 12.5585 13.2936 11.7946 13.4936 10.9205C13.6936 10.0464 13.5506 9.12894 13.0939 8.35727L11.1439 5.05727C10.8431 4.55404 10.3932 4.15685 9.85659 3.92078C9.31994 3.68471 8.72314 3.62145 8.14893 3.73977C7.25359 3.92019 6.40475 4.28227 5.65484 4.80364C4.90494 5.325 4.26989 5.99458 3.78893 6.77102C3.31453 7.52832 3.00287 8.37603 2.87376 9.26027C2.74464 10.1445 2.80089 11.0459 3.03893 11.9073C4.09513 15.709 6.11733 19.1727 8.90883 21.9614C11.7003 24.75 15.1661 26.7687 18.9689 27.821C19.8294 28.059 20.7301 28.1151 21.6135 27.986C22.4969 27.8569 23.3438 27.5453 24.1002 27.071C24.8768 26.5904 25.5466 25.9557 26.0682 25.206C26.5898 24.4563 26.9521 23.6075 27.1327 22.7123C27.2459 22.1424 27.1799 21.5514 26.9438 21.0205C26.7077 20.4896 26.313 20.0448 25.8139 19.7473ZM25.2939 22.3473C25.1638 22.9895 24.9033 23.5982 24.5286 24.1357C24.1538 24.6732 23.6728 25.1281 23.1152 25.4723C22.577 25.8099 21.9744 26.0317 21.3458 26.1236C20.7171 26.2155 20.0762 26.1755 19.4639 26.006C15.9762 25.0404 12.7978 23.1887 10.2377 20.631C7.67751 18.0732 5.82282 14.8965 4.85393 11.4098C4.6837 10.797 4.64313 10.1555 4.73482 9.52613C4.8265 8.8968 5.04843 8.2935 5.38643 7.75477C5.73362 7.19393 6.19259 6.71059 6.73475 6.33489C7.27691 5.95919 7.89063 5.69916 8.53768 5.57102C8.59856 5.5586 8.66054 5.55232 8.72268 5.55227C8.88574 5.5524 9.04596 5.595 9.18755 5.67588C9.32915 5.75676 9.44723 5.87313 9.53018 6.01352L11.4852 9.31227C11.6972 9.67068 11.7635 10.0968 11.6705 10.5027C11.5774 10.9086 11.3321 11.2632 10.9852 11.4935L8.91018 12.8748C8.72899 12.9953 8.59536 13.175 8.53218 13.3832C8.46901 13.5915 8.48023 13.8152 8.56393 14.016C10.1321 17.7519 13.0993 20.7263 16.8314 22.3035C17.0319 22.3866 17.255 22.3978 17.4628 22.3352C17.6706 22.2725 17.8503 22.1399 17.9714 21.9598L19.3652 19.8798C19.5967 19.5327 19.9528 19.288 20.3598 19.1964C20.7668 19.1047 21.1935 19.173 21.5514 19.3873L24.8552 21.3573C25.0215 21.4569 25.1529 21.6055 25.2314 21.7827C25.31 21.96 25.3318 22.1572 25.2939 22.3473ZM18.0877 12.7773C18.0006 12.6903 17.9315 12.587 17.8844 12.4734C17.8372 12.3597 17.813 12.2378 17.813 12.1148C17.813 11.9917 17.8372 11.8699 17.8844 11.7562C17.9315 11.6425 18.0006 11.5392 18.0877 11.4523L22.7364 6.80227H20.8339C20.5853 6.80227 20.3468 6.7035 20.171 6.52769C19.9952 6.35187 19.8964 6.11341 19.8964 5.86477C19.8964 5.61613 19.9952 5.37768 20.171 5.20186C20.3468 5.02604 20.5853 4.92727 20.8339 4.92727H25.0002C25.2485 4.92826 25.4864 5.02735 25.662 5.20295C25.8376 5.37855 25.9367 5.61644 25.9377 5.86477V10.031C25.9377 10.2797 25.8389 10.5181 25.6631 10.6939C25.4873 10.8698 25.2488 10.9685 25.0002 10.9685C24.7515 10.9685 24.5131 10.8698 24.3373 10.6939C24.1614 10.5181 24.0627 10.2797 24.0627 10.031V8.12852L19.4127 12.7773C19.3258 12.8645 19.2226 12.9337 19.1089 12.9809C18.9952 13.0282 18.8733 13.0525 18.7502 13.0525C18.6271 13.0525 18.5052 13.0282 18.3915 12.9809C18.2778 12.9337 18.1745 12.8645 18.0877 12.7773Z" fill="white"/>
</svg>
