<svg width="50" height="51" viewBox="0 0 50 51" fill="none" xmlns="http://www.w3.org/2000/svg">
<path d="M25 0C11.1582 0 0 11.1582 0 25C0 38.8418 11.1582 50.1412 25 50.1412C38.8418 50.1412 50 38.983 50 25.1412C50 11.2994 38.8418 0 25 0ZM25 44.209C14.4068 44.209 5.9322 35.5932 5.9322 25.1412C5.9322 14.548 14.548 6.07345 25 6.07345C35.5932 6.07345 44.0678 14.6893 44.0678 25.1412C44.0678 35.5932 35.5932 44.209 25 44.209Z" fill="white"/>
<path d="M25.0001 14.9717C19.3503 14.9717 14.8306 19.4915 14.8306 25.1412C14.8306 30.7909 19.3503 35.3107 25.0001 35.3107C30.6498 35.3107 35.1695 30.7909 35.1695 25.1412C35.1695 19.4915 30.6498 14.9717 25.0001 14.9717ZM25.0001 30.9322C21.7515 30.9322 19.0679 28.2486 19.0679 25C19.0679 21.7514 21.7515 19.0678 25.0001 19.0678C28.2486 19.0678 30.9323 21.7514 30.9323 25C30.9323 28.3898 28.2486 30.9322 25.0001 30.9322Z" fill="white"/>
<path d="M24.9997 21.752C23.1635 21.752 21.6099 23.3056 21.6099 25.1418C21.6099 26.978 23.1635 28.5316 24.9997 28.5316C26.8359 28.5316 28.3895 26.978 28.3895 25.1418C28.3895 23.3056 26.8359 21.752 24.9997 21.752ZM22.881 23.3056C22.881 22.5994 23.446 22.0345 24.1522 22.0345C24.8584 22.0345 25.4234 22.5994 25.4234 23.3056C25.4234 24.0119 24.8584 24.5768 24.1522 24.5768C23.446 24.5768 22.881 24.0119 22.881 23.3056ZM24.7172 28.1079C24.1522 28.1079 23.7285 27.6842 23.7285 27.1192C23.7285 26.5542 24.1522 26.1305 24.7172 26.1305C25.2822 26.1305 25.7059 26.5542 25.7059 27.1192C25.7059 27.6842 25.2822 28.1079 24.7172 28.1079Z" fill="white"/>
<path d="M24.9999 12.9943C26.404 12.9943 27.5423 11.8561 27.5423 10.4519C27.5423 9.04783 26.404 7.90957 24.9999 7.90957C23.5958 7.90957 22.4575 9.04783 22.4575 10.4519C22.4575 11.8561 23.5958 12.9943 24.9999 12.9943Z" fill="white"/>
<path d="M24.9999 42.2317C26.404 42.2317 27.5423 41.0934 27.5423 39.6893C27.5423 38.2852 26.404 37.147 24.9999 37.147C23.5958 37.147 22.4575 38.2852 22.4575 39.6893C22.4575 41.0934 23.5958 42.2317 24.9999 42.2317Z" fill="white"/>
<path d="M14.6889 17.2314C16.093 17.2314 17.2312 16.0932 17.2312 14.6891C17.2312 13.2849 16.093 12.1467 14.6889 12.1467C13.2847 12.1467 12.1465 13.2849 12.1465 14.6891C12.1465 16.0932 13.2847 17.2314 14.6889 17.2314Z" fill="white"/>
<path d="M35.3109 37.9946C36.715 37.9946 37.8533 36.8563 37.8533 35.4522C37.8533 34.0481 36.715 32.9098 35.3109 32.9098C33.9068 32.9098 32.7686 34.0481 32.7686 35.4522C32.7686 36.8563 33.9068 37.9946 35.3109 37.9946Z" fill="white"/>
<path d="M10.452 27.6841C11.8562 27.6841 12.9944 26.5459 12.9944 25.1418C12.9944 23.7376 11.8562 22.5994 10.452 22.5994C9.04793 22.5994 7.90967 23.7376 7.90967 25.1418C7.90967 26.5459 9.04793 27.6841 10.452 27.6841Z" fill="white"/>
<path d="M39.6893 27.6841C41.0935 27.6841 42.2317 26.5459 42.2317 25.1418C42.2317 23.7376 41.0935 22.5994 39.6893 22.5994C38.2852 22.5994 37.147 23.7376 37.147 25.1418C37.147 26.5459 38.2852 27.6841 39.6893 27.6841Z" fill="white"/>
<path d="M14.6889 37.9946C16.093 37.9946 17.2312 36.8563 17.2312 35.4522C17.2312 34.0481 16.093 32.9098 14.6889 32.9098C13.2847 32.9098 12.1465 34.0481 12.1465 35.4522C12.1465 36.8563 13.2847 37.9946 14.6889 37.9946Z" fill="white"/>
<path d="M35.3109 17.2314C36.715 17.2314 37.8533 16.0932 37.8533 14.6891C37.8533 13.2849 36.715 12.1467 35.3109 12.1467C33.9068 12.1467 32.7686 13.2849 32.7686 14.6891C32.7686 16.0932 33.9068 17.2314 35.3109 17.2314Z" fill="white"/>
</svg>
