<svg width="161" height="41" viewBox="0 0 161 41" fill="none" xmlns="http://www.w3.org/2000/svg">
<path d="M20.7835 0.382324C9.74125 0.382324 0.839844 9.28373 0.839844 20.326C0.839844 31.3682 9.74125 40.3823 20.7835 40.3823C31.8258 40.3823 40.7272 31.4809 40.7272 20.4387C40.7272 9.39641 31.8258 0.382324 20.7835 0.382324ZM20.7835 35.6499C12.3328 35.6499 5.57224 28.7767 5.57224 20.4387C5.57224 11.988 12.4455 5.22739 20.7835 5.22739C29.2342 5.22739 35.9948 12.1006 35.9948 20.4387C35.9948 28.7767 29.2342 35.6499 20.7835 35.6499Z" fill="#E01C08"/>
<path d="M20.7836 12.3262C16.2765 12.3262 12.6709 15.9318 12.6709 20.4388C12.6709 24.9459 16.2765 28.5515 20.7836 28.5515C25.2906 28.5515 28.8963 24.9459 28.8963 20.4388C28.8963 15.9318 25.2906 12.3262 20.7836 12.3262ZM20.7836 25.0586C18.192 25.0586 16.0512 22.9177 16.0512 20.3262C16.0512 17.7346 18.192 15.5938 20.7836 15.5938C23.3751 15.5938 25.516 17.7346 25.516 20.3262C25.516 23.0304 23.3751 25.0586 20.7836 25.0586Z" fill="#E01C08"/>
<path d="M20.7833 17.7349C19.3185 17.7349 18.0791 18.9743 18.0791 20.4391C18.0791 21.9039 19.3185 23.1433 20.7833 23.1433C22.2481 23.1433 23.4876 21.9039 23.4876 20.4391C23.4876 18.9743 22.2481 17.7349 20.7833 17.7349ZM19.0932 18.9743C19.0932 18.4109 19.5439 17.9602 20.1073 17.9602C20.6707 17.9602 21.1214 18.4109 21.1214 18.9743C21.1214 19.5377 20.6707 19.9884 20.1073 19.9884C19.5439 19.9884 19.0932 19.5377 19.0932 18.9743ZM20.558 22.8053C20.1073 22.8053 19.7692 22.4673 19.7692 22.0166C19.7692 21.5658 20.1073 21.2278 20.558 21.2278C21.0087 21.2278 21.3467 21.5658 21.3467 22.0166C21.3467 22.4673 21.0087 22.8053 20.558 22.8053Z" fill="#E01C08"/>
<path d="M20.7835 10.7487C21.9037 10.7487 22.8117 9.84068 22.8117 8.72055C22.8117 7.60042 21.9037 6.69238 20.7835 6.69238C19.6634 6.69238 18.7554 7.60042 18.7554 8.72055C18.7554 9.84068 19.6634 10.7487 20.7835 10.7487Z" fill="#E01C08"/>
<path d="M20.7835 34.0724C21.9037 34.0724 22.8117 33.1644 22.8117 32.0443C22.8117 30.9242 21.9037 30.0161 20.7835 30.0161C19.6634 30.0161 18.7554 30.9242 18.7554 32.0443C18.7554 33.1644 19.6634 34.0724 20.7835 34.0724Z" fill="#E01C08"/>
<path d="M12.558 14.1286C13.6781 14.1286 14.5861 13.2206 14.5861 12.1004C14.5861 10.9803 13.6781 10.0723 12.558 10.0723C11.4378 10.0723 10.5298 10.9803 10.5298 12.1004C10.5298 13.2206 11.4378 14.1286 12.558 14.1286Z" fill="#E01C08"/>
<path d="M29.0091 30.6926C30.1293 30.6926 31.0373 29.7845 31.0373 28.6644C31.0373 27.5443 30.1293 26.6362 29.0091 26.6362C27.889 26.6362 26.981 27.5443 26.981 28.6644C26.981 29.7845 27.889 30.6926 29.0091 30.6926Z" fill="#E01C08"/>
<path d="M9.17807 22.4675C10.2982 22.4675 11.2062 21.5594 11.2062 20.4393C11.2062 19.3192 10.2982 18.4111 9.17807 18.4111C8.05794 18.4111 7.1499 19.3192 7.1499 20.4393C7.1499 21.5594 8.05794 22.4675 9.17807 22.4675Z" fill="#E01C08"/>
<path d="M32.5018 22.4675C33.6219 22.4675 34.53 21.5594 34.53 20.4393C34.53 19.3192 33.6219 18.4111 32.5018 18.4111C31.3817 18.4111 30.4736 19.3192 30.4736 20.4393C30.4736 21.5594 31.3817 22.4675 32.5018 22.4675Z" fill="#E01C08"/>
<path d="M12.558 30.6926C13.6781 30.6926 14.5861 29.7845 14.5861 28.6644C14.5861 27.5443 13.6781 26.6362 12.558 26.6362C11.4378 26.6362 10.5298 27.5443 10.5298 28.6644C10.5298 29.7845 11.4378 30.6926 12.558 30.6926Z" fill="#E01C08"/>
<path d="M29.0091 14.1286C30.1293 14.1286 31.0373 13.2206 31.0373 12.1004C31.0373 10.9803 30.1293 10.0723 29.0091 10.0723C27.889 10.0723 26.981 10.9803 26.981 12.1004C26.981 13.2206 27.889 14.1286 29.0091 14.1286Z" fill="#E01C08"/>
<path d="M58.4189 30.5823C57.1356 30.5823 56.0023 30.3323 55.0189 29.8323C54.0523 29.3323 53.2939 28.6323 52.7439 27.7323C52.2106 26.8157 51.9439 25.7657 51.9439 24.5823V13.1823C51.9439 13.099 51.9689 13.0323 52.0189 12.9823C52.0856 12.9157 52.1606 12.8823 52.2439 12.8823H55.1689C55.2523 12.8823 55.3189 12.9157 55.3689 12.9823C55.4356 13.0323 55.4689 13.099 55.4689 13.1823V24.6073C55.4689 25.4907 55.7356 26.2073 56.2689 26.7573C56.8189 27.2907 57.5356 27.5573 58.4189 27.5573C59.3023 27.5573 60.0106 27.2907 60.5439 26.7573C61.0939 26.2073 61.3689 25.4907 61.3689 24.6073V13.1823C61.3689 13.099 61.3939 13.0323 61.4439 12.9823C61.5106 12.9157 61.5856 12.8823 61.6689 12.8823H64.5939C64.6773 12.8823 64.7439 12.9157 64.7939 12.9823C64.8606 13.0323 64.8939 13.099 64.8939 13.1823V24.5823C64.8939 25.7657 64.6189 26.8157 64.0689 27.7323C63.5356 28.6323 62.7773 29.3323 61.7939 29.8323C60.8273 30.3323 59.7023 30.5823 58.4189 30.5823ZM67.8666 30.3823C67.7833 30.3823 67.7083 30.3573 67.6416 30.3073C67.5916 30.2407 67.5666 30.1657 67.5666 30.0823V13.1823C67.5666 13.099 67.5916 13.0323 67.6416 12.9823C67.7083 12.9157 67.7833 12.8823 67.8666 12.8823H70.7916C70.8749 12.8823 70.9416 12.9157 70.9916 12.9823C71.0583 13.0323 71.0916 13.099 71.0916 13.1823V30.0823C71.0916 30.1657 71.0583 30.2407 70.9916 30.3073C70.9416 30.3573 70.8749 30.3823 70.7916 30.3823H67.8666ZM81.0451 20.0573C81.0451 20.1407 81.0118 20.2157 80.9451 20.2823C80.8951 20.3323 80.8285 20.3573 80.7451 20.3573H78.3451C78.2618 20.3573 78.2201 20.399 78.2201 20.4823V25.7823C78.2201 26.3323 78.3285 26.7407 78.5451 27.0073C78.7785 27.274 79.1451 27.4073 79.6451 27.4073H80.4701C80.5535 27.4073 80.6201 27.4407 80.6701 27.5073C80.7368 27.5573 80.7701 27.624 80.7701 27.7073V30.0823C80.7701 30.2657 80.6701 30.374 80.4701 30.4073C79.7701 30.4407 79.2701 30.4573 78.9701 30.4573C77.5868 30.4573 76.5535 30.2323 75.8701 29.7823C75.1868 29.3157 74.8368 28.449 74.8201 27.1823V20.4823C74.8201 20.399 74.7785 20.3573 74.6951 20.3573H73.2701C73.1868 20.3573 73.1118 20.3323 73.0451 20.2823C72.9951 20.2157 72.9701 20.1407 72.9701 20.0573V17.8323C72.9701 17.749 72.9951 17.6823 73.0451 17.6323C73.1118 17.5657 73.1868 17.5323 73.2701 17.5323H74.6951C74.7785 17.5323 74.8201 17.4907 74.8201 17.4073V14.4323C74.8201 14.349 74.8451 14.2823 74.8951 14.2323C74.9618 14.1657 75.0368 14.1323 75.1201 14.1323H77.9201C78.0035 14.1323 78.0701 14.1657 78.1201 14.2323C78.1868 14.2823 78.2201 14.349 78.2201 14.4323V17.4073C78.2201 17.4907 78.2618 17.5323 78.3451 17.5323H80.7451C80.8285 17.5323 80.8951 17.5657 80.9451 17.6323C81.0118 17.6823 81.0451 17.749 81.0451 17.8323V20.0573ZM89.5672 17.3573C90.1672 17.3573 90.6422 17.474 90.9922 17.7073C91.1255 17.774 91.1755 17.899 91.1422 18.0823L90.6172 20.9323C90.6005 21.1323 90.4839 21.1907 90.2672 21.1073C90.0172 21.024 89.7255 20.9823 89.3922 20.9823C89.2589 20.9823 89.0755 20.999 88.8422 21.0323C88.2422 21.0823 87.7339 21.3073 87.3172 21.7073C86.9005 22.0907 86.6922 22.6073 86.6922 23.2573V30.0823C86.6922 30.1657 86.6589 30.2407 86.5922 30.3073C86.5422 30.3573 86.4755 30.3823 86.3922 30.3823H83.4672C83.3839 30.3823 83.3089 30.3573 83.2422 30.3073C83.1922 30.2407 83.1672 30.1657 83.1672 30.0823V17.8323C83.1672 17.749 83.1922 17.6823 83.2422 17.6323C83.3089 17.5657 83.3839 17.5323 83.4672 17.5323H86.3922C86.4755 17.5323 86.5422 17.5657 86.5922 17.6323C86.6589 17.6823 86.6922 17.749 86.6922 17.8323V18.7823C86.6922 18.8323 86.7089 18.8657 86.7422 18.8823C86.7755 18.899 86.8005 18.8907 86.8172 18.8573C87.5005 17.8573 88.4172 17.3573 89.5672 17.3573ZM97.716 17.3323C98.7993 17.3323 99.766 17.524 100.616 17.9073C101.466 18.274 102.124 18.7823 102.591 19.4323C103.074 20.0823 103.316 20.8073 103.316 21.6073V30.0823C103.316 30.1657 103.283 30.2407 103.216 30.3073C103.166 30.3573 103.099 30.3823 103.016 30.3823H100.091C100.008 30.3823 99.9327 30.3573 99.866 30.3073C99.816 30.2407 99.791 30.1657 99.791 30.0823V29.2573C99.791 29.2073 99.7743 29.174 99.741 29.1573C99.7077 29.1407 99.6743 29.1573 99.641 29.2073C98.941 30.124 97.816 30.5823 96.266 30.5823C94.966 30.5823 93.916 30.2657 93.116 29.6323C92.316 28.999 91.916 28.0657 91.916 26.8323C91.916 25.549 92.366 24.5573 93.266 23.8573C94.166 23.1407 95.4493 22.7823 97.116 22.7823H99.666C99.7493 22.7823 99.791 22.7407 99.791 22.6573V22.1073C99.791 21.5573 99.6243 21.1323 99.291 20.8323C98.9577 20.5157 98.4577 20.3573 97.791 20.3573C97.2743 20.3573 96.841 20.449 96.491 20.6323C96.1577 20.8157 95.941 21.074 95.841 21.4073C95.791 21.5907 95.6827 21.674 95.516 21.6573L92.491 21.2573C92.291 21.224 92.1993 21.149 92.216 21.0323C92.2827 20.3323 92.5577 19.699 93.041 19.1323C93.541 18.5657 94.191 18.124 94.991 17.8073C95.8077 17.4907 96.716 17.3323 97.716 17.3323ZM97.216 27.9573C97.9327 27.9573 98.541 27.7657 99.041 27.3823C99.541 26.999 99.791 26.5073 99.791 25.9073V25.0073C99.791 24.924 99.7493 24.8823 99.666 24.8823H97.866C97.116 24.8823 96.5243 25.024 96.091 25.3073C95.6743 25.5907 95.466 25.9907 95.466 26.5073C95.466 26.9573 95.6243 27.3157 95.941 27.5823C96.2577 27.8323 96.6827 27.9573 97.216 27.9573ZM112.174 30.5823C110.874 30.5823 109.732 30.3323 108.749 29.8323C107.766 29.3157 107.007 28.599 106.474 27.6823C105.941 26.7657 105.674 25.7073 105.674 24.5073V18.7323C105.674 17.5323 105.941 16.474 106.474 15.5573C107.007 14.6407 107.766 13.9323 108.749 13.4323C109.732 12.9323 110.874 12.6823 112.174 12.6823C113.457 12.6823 114.582 12.924 115.549 13.4073C116.532 13.874 117.291 14.549 117.824 15.4323C118.374 16.299 118.649 17.3073 118.649 18.4573C118.649 18.6073 118.549 18.699 118.349 18.7323L115.424 18.9073H115.374C115.207 18.9073 115.124 18.8157 115.124 18.6323C115.124 17.749 114.849 17.0407 114.299 16.5073C113.766 15.974 113.057 15.7073 112.174 15.7073C111.274 15.7073 110.549 15.974 109.999 16.5073C109.466 17.0407 109.199 17.749 109.199 18.6323V24.6573C109.199 25.524 109.466 26.224 109.999 26.7573C110.549 27.2907 111.274 27.5573 112.174 27.5573C113.057 27.5573 113.766 27.2907 114.299 26.7573C114.849 26.224 115.124 25.524 115.124 24.6573C115.124 24.474 115.224 24.3823 115.424 24.3823L118.349 24.5073C118.432 24.5073 118.499 24.5323 118.549 24.5823C118.616 24.6323 118.649 24.6907 118.649 24.7573C118.649 25.9073 118.374 26.924 117.824 27.8073C117.291 28.6907 116.532 29.374 115.549 29.8573C114.582 30.3407 113.457 30.5823 112.174 30.5823ZM126.061 17.3323C127.144 17.3323 128.111 17.524 128.961 17.9073C129.811 18.274 130.469 18.7823 130.936 19.4323C131.419 20.0823 131.661 20.8073 131.661 21.6073V30.0823C131.661 30.1657 131.627 30.2407 131.561 30.3073C131.511 30.3573 131.444 30.3823 131.361 30.3823H128.436C128.352 30.3823 128.277 30.3573 128.211 30.3073C128.161 30.2407 128.136 30.1657 128.136 30.0823V29.2573C128.136 29.2073 128.119 29.174 128.086 29.1573C128.052 29.1407 128.019 29.1573 127.986 29.2073C127.286 30.124 126.161 30.5823 124.611 30.5823C123.311 30.5823 122.261 30.2657 121.461 29.6323C120.661 28.999 120.261 28.0657 120.261 26.8323C120.261 25.549 120.711 24.5573 121.611 23.8573C122.511 23.1407 123.794 22.7823 125.461 22.7823H128.011C128.094 22.7823 128.136 22.7407 128.136 22.6573V22.1073C128.136 21.5573 127.969 21.1323 127.636 20.8323C127.302 20.5157 126.802 20.3573 126.136 20.3573C125.619 20.3573 125.186 20.449 124.836 20.6323C124.502 20.8157 124.286 21.074 124.186 21.4073C124.136 21.5907 124.027 21.674 123.861 21.6573L120.836 21.2573C120.636 21.224 120.544 21.149 120.561 21.0323C120.627 20.3323 120.902 19.699 121.386 19.1323C121.886 18.5657 122.536 18.124 123.336 17.8073C124.152 17.4907 125.061 17.3323 126.061 17.3323ZM125.561 27.9573C126.277 27.9573 126.886 27.7657 127.386 27.3823C127.886 26.999 128.136 26.5073 128.136 25.9073V25.0073C128.136 24.924 128.094 24.8823 128.011 24.8823H126.211C125.461 24.8823 124.869 25.024 124.436 25.3073C124.019 25.5907 123.811 25.9907 123.811 26.5073C123.811 26.9573 123.969 27.3157 124.286 27.5823C124.602 27.8323 125.027 27.9573 125.561 27.9573ZM148.394 17.3323C149.694 17.3323 150.71 17.724 151.444 18.5073C152.177 19.2907 152.544 20.3907 152.544 21.8073V30.0823C152.544 30.1657 152.51 30.2407 152.444 30.3073C152.394 30.3573 152.327 30.3823 152.244 30.3823H149.319C149.235 30.3823 149.16 30.3573 149.094 30.3073C149.044 30.2407 149.019 30.1657 149.019 30.0823V22.5823C149.019 21.899 148.844 21.3573 148.494 20.9573C148.144 20.5573 147.677 20.3573 147.094 20.3573C146.51 20.3573 146.035 20.5573 145.669 20.9573C145.302 21.3573 145.119 21.8907 145.119 22.5573V30.0823C145.119 30.1657 145.085 30.2407 145.019 30.3073C144.969 30.3573 144.902 30.3823 144.819 30.3823H141.919C141.835 30.3823 141.76 30.3573 141.694 30.3073C141.644 30.2407 141.619 30.1657 141.619 30.0823V22.5823C141.619 21.9157 141.435 21.3823 141.069 20.9823C140.702 20.5657 140.227 20.3573 139.644 20.3573C139.11 20.3573 138.66 20.5157 138.294 20.8323C137.944 21.149 137.735 21.5907 137.669 22.1573V30.0823C137.669 30.1657 137.635 30.2407 137.569 30.3073C137.519 30.3573 137.452 30.3823 137.369 30.3823H134.444C134.36 30.3823 134.285 30.3573 134.219 30.3073C134.169 30.2407 134.144 30.1657 134.144 30.0823V17.8323C134.144 17.749 134.169 17.6823 134.219 17.6323C134.285 17.5657 134.36 17.5323 134.444 17.5323H137.369C137.452 17.5323 137.519 17.5657 137.569 17.6323C137.635 17.6823 137.669 17.749 137.669 17.8323V18.8073C137.669 18.8573 137.685 18.8907 137.719 18.9073C137.752 18.924 137.785 18.9073 137.819 18.8573C138.502 17.8407 139.56 17.3323 140.994 17.3323C141.827 17.3323 142.552 17.5073 143.169 17.8573C143.802 18.2073 144.285 18.7073 144.619 19.3573C144.669 19.4573 144.727 19.4573 144.794 19.3573C145.16 18.674 145.652 18.1657 146.269 17.8323C146.902 17.499 147.61 17.3323 148.394 17.3323Z" fill="#222629"/>
<path d="M156.772 30.4823C156.206 30.4823 155.731 30.299 155.347 29.9323C154.981 29.549 154.797 29.074 154.797 28.5073C154.797 27.924 154.981 27.449 155.347 27.0823C155.714 26.7157 156.189 26.5323 156.772 26.5323C157.356 26.5323 157.831 26.7157 158.197 27.0823C158.564 27.449 158.747 27.924 158.747 28.5073C158.747 29.074 158.556 29.549 158.172 29.9323C157.806 30.299 157.339 30.4823 156.772 30.4823Z" fill="#E01C08"/>
</svg>
