<svg width="51" height="51" viewBox="0 0 51 51" fill="none" xmlns="http://www.w3.org/2000/svg">
<path d="M10.3931 43.0366C9.89307 43.0366 9.4139 42.8491 9.01807 42.495C8.2889 41.8491 8.1014 40.8491 8.55973 39.995C9.2889 38.5991 9.80973 37.12 10.1014 35.5991C10.5597 33.3283 10.5181 31.0158 9.99723 28.7033C9.83057 27.9741 9.3514 27.3075 8.70557 26.8908C5.6639 24.9741 3.83057 21.6825 3.83057 18.0783C3.83057 15.3908 4.9764 12.7241 6.95557 10.745C8.93473 8.76579 11.5181 7.66162 14.2264 7.66162C17.0389 7.66162 19.7889 8.89079 21.7681 11.0366C23.8097 13.245 24.8514 16.2241 24.6431 19.2033C24.4347 22.8283 23.3097 29.9116 18.1639 36.4325C16.2889 38.8075 14.0806 40.8908 11.5597 42.62C11.1847 42.87 10.7889 42.995 10.3722 42.995L10.3931 43.0366ZM14.2264 9.78662C12.0806 9.78662 10.0181 10.6616 8.43473 12.245C6.83057 13.8491 5.9139 15.9741 5.9139 18.12C5.9139 20.995 7.37223 23.62 9.80973 25.1616C10.9347 25.87 11.7472 26.995 12.0389 28.2658C12.6222 30.87 12.6639 33.4741 12.1639 36.0158C11.8306 37.7241 11.2264 39.3908 10.4139 40.9741C12.7681 39.3283 14.8306 37.3908 16.5597 35.1825C21.3306 29.0991 22.3931 22.495 22.5806 19.0991C22.7681 16.6825 21.9139 14.2658 20.2681 12.495C18.6847 10.7866 16.4764 9.78662 14.2472 9.78662H14.2264Z" fill="url(#paint0_linear_84_844)"/>
<path d="M19.4556 19.1618C18.8722 19.1618 18.4139 18.7035 18.4139 18.1201C18.4139 15.8285 16.5389 13.9535 14.2472 13.9535C13.6639 13.9535 13.2056 13.4951 13.2056 12.9118C13.2056 12.3285 13.6639 11.8701 14.2472 11.8701C17.6847 11.8701 20.4972 14.6826 20.4972 18.1201C20.4972 18.7035 20.0389 19.1618 19.4556 19.1618Z" fill="url(#paint1_linear_84_844)"/>
<path d="M33.3096 43.0366C32.8096 43.0366 32.3304 42.8491 31.9346 42.495C31.2054 41.8491 31.0179 40.8491 31.4762 39.995C32.2054 38.5991 32.7262 37.12 33.0179 35.5991C33.4762 33.3283 33.4346 31.0158 32.9137 28.7033C32.7471 27.9741 32.2679 27.3075 31.6221 26.8908C28.5804 24.9741 26.7471 21.6825 26.7471 18.0783C26.7471 15.3908 27.8929 12.7241 29.8721 10.745C31.8512 8.76579 34.4346 7.66162 37.1429 7.66162C39.9554 7.66162 42.7054 8.89079 44.6846 11.0366C46.7262 13.245 47.7679 16.2241 47.5596 19.2033C47.3512 22.8283 46.2262 29.9116 41.0804 36.4325C39.2054 38.8075 36.9971 40.8908 34.4762 42.62C34.1012 42.87 33.7054 42.995 33.2887 42.995L33.3096 43.0366ZM37.1429 9.78662C34.9971 9.78662 32.9346 10.6616 31.3512 12.245C29.7471 13.8491 28.8304 15.9741 28.8304 18.12C28.8304 20.995 30.2887 23.62 32.7262 25.1616C33.8512 25.87 34.6637 26.995 34.9554 28.2658C35.5387 30.87 35.5804 33.4741 35.0804 36.0158C34.7471 37.7241 34.1429 39.3908 33.3304 40.9741C35.6846 39.3283 37.7471 37.3908 39.4762 35.1825C44.2471 29.0991 45.3096 22.495 45.4971 19.0991C45.6846 16.6825 44.8304 14.2658 43.1846 12.495C41.6012 10.7866 39.3929 9.78662 37.1637 9.78662H37.1429Z" fill="url(#paint2_linear_84_844)"/>
<path d="M42.3721 19.1618C41.7887 19.1618 41.3304 18.7035 41.3304 18.1201C41.3304 15.8285 39.4554 13.9535 37.1637 13.9535C36.5804 13.9535 36.1221 13.4951 36.1221 12.9118C36.1221 12.3285 36.5804 11.8701 37.1637 11.8701C40.6012 11.8701 43.4137 14.6826 43.4137 18.1201C43.4137 18.7035 42.9554 19.1618 42.3721 19.1618Z" fill="url(#paint3_linear_84_844)"/>
<defs>
<linearGradient id="paint0_linear_84_844" x1="3.86783" y1="25.6253" x2="24.7065" y2="25.6253" gradientUnits="userSpaceOnUse">
<stop stop-color="#E01C08"/>
<stop offset="0.685" stop-color="#C01503"/>
<stop offset="1" stop-color="#B11101"/>
</linearGradient>
<linearGradient id="paint1_linear_84_844" x1="13.2186" y1="15.5729" x2="20.5103" y2="15.5729" gradientUnits="userSpaceOnUse">
<stop stop-color="#E01C08"/>
<stop offset="0.685" stop-color="#C01503"/>
<stop offset="1" stop-color="#B11101"/>
</linearGradient>
<linearGradient id="paint2_linear_84_844" x1="26.7843" y1="25.6253" x2="47.623" y2="25.6253" gradientUnits="userSpaceOnUse">
<stop stop-color="#E01C08"/>
<stop offset="0.685" stop-color="#C01503"/>
<stop offset="1" stop-color="#B11101"/>
</linearGradient>
<linearGradient id="paint3_linear_84_844" x1="36.1351" y1="15.5729" x2="43.4268" y2="15.5729" gradientUnits="userSpaceOnUse">
<stop stop-color="#E01C08"/>
<stop offset="0.685" stop-color="#C01503"/>
<stop offset="1" stop-color="#B11101"/>
</linearGradient>
</defs>
</svg>
